<svg width="200" height="58" viewBox="0 0 200 58" xmlns="http://www.w3.org/2000/svg" xmlns:xlink="http://www.w3.org/1999/xlink"><title>Group 24 Copy 2</title><defs><rect id="a" width="200" height="58" rx="2"/><linearGradient x1="39.336%" y1="111.724%" x2="39.336%" y2="0%" id="c"><stop stop-color="#FFF" offset="0%"/><stop stop-color="#FFF" stop-opacity="0" offset="100%"/></linearGradient><linearGradient x1="50%" y1="0%" x2="50%" y2="57.36%" id="d"><stop stop-color="#FFF" stop-opacity="0" offset="0%"/><stop stop-color="#FFF" offset="100%"/></linearGradient><linearGradient x1="32.822%" y1="86.757%" x2="32.822%" y2="10.346%" id="e"><stop stop-color="#FFF" offset="0%"/><stop stop-color="#FFF" stop-opacity="0" offset="100%"/></linearGradient><linearGradient x1="60.764%" y1="50%" x2="60.764%" y2="-10.866%" id="f"><stop stop-color="#FFF" offset="0%"/><stop stop-color="#FFF" stop-opacity="0" offset="100%"/></linearGradient></defs><g fill="none" fill-rule="evenodd"><mask id="b" fill="#fff"><use xlink:href="#a"/></mask><use fill="#A4D455" xlink:href="#a"/><g opacity=".4" mask="url(#b)"><path d="M17 17v-2.575C17 6.458 23.364 0 31.215 0H45v2.575C45 10.542 38.636 17 30.785 17H17z" fill="url(#c)" transform="translate(129 6)"/><path d="M17 17h-2.575C6.458 17 0 23.361 0 31.208V93h2.575C10.542 93 17 86.639 17 78.792V17z" fill="url(#d)" transform="translate(129 6)"/><path d="M61 17h-2.575C50.458 17 44 23.348 44 31.179V45h2.575C54.542 45 61 38.652 61 30.821V17z" fill="url(#e)" transform="translate(129 6)"/><path d="M0 45h44v2.575C44 55.542 37.743 62 30.024 62H0V45z" fill="url(#f)" transform="translate(129 6)"/></g><path d="M87.524 21.074l1.772 1.993c-4.3.738-9.966 1.163-14.838 1.292-.037-.61-.314-1.55-.535-2.067 4.798-.166 10.206-.61 13.601-1.218zm-1.329 8.12l-1.827-.793c.85-1.182 1.901-3.064 2.492-4.504l2.251.886c-.922 1.587-2.03 3.304-2.916 4.411zm-7.566-1.089l-2.012.85c-.221-.924-.904-2.308-1.66-3.378l1.863-.775c.775.996 1.532 2.344 1.809 3.303zm11.368 3.636h-5.462c1.587 1.606 3.838 3.064 5.997 3.912-.535.48-1.254 1.385-1.642 1.994-2.14-1.015-4.3-2.695-5.98-4.596v5.13h-2.343v-5.037c-1.661 1.9-3.784 3.524-5.924 4.558-.37-.59-1.108-1.495-1.643-1.975 2.178-.867 4.41-2.344 5.98-3.986h-5.371V29.6h6.958v-1.57h.332c-.13-.867-.59-2.177-1.107-3.155l2.011-.683c.572.996 1.107 2.288 1.255 3.174l-1.882.664h1.734v1.57h7.087v2.14zm6.423-6.792v4.946c0 2.732-.536 6.128-3.636 8.231-.24-.369-.794-.94-1.181-1.255 2.897-1.697 3.119-4.742 3.119-6.976V24.95h1.698zm-.739 9.671l1.44-1.015c.886.978 2.067 2.344 2.64 3.211l-1.514 1.144c-.517-.849-1.68-2.288-2.566-3.34zm12.771-10.87v1.015c-.203 8.434-.369 11.405-1.033 12.346-.443.665-.886.868-1.569.997-.59.11-1.531.092-2.454.074-.019-.628-.296-1.569-.683-2.196.904.073 1.735.073 2.14.073.314 0 .499-.055.684-.332.203-.24.35-.849.46-1.993l-1.55.572c-.036-.277-.11-.572-.184-.904-3.211.701-3.82.904-4.208 1.144-.11-.387-.406-1.292-.646-1.808.314-.093.573-.48.83-1.07.278-.555 1.09-2.77 1.44-4.78l1.975.553a25.786 25.786 0 0 1-1.735 4.688l1.938-.37a23.782 23.782 0 0 0-.554-1.919l1.495-.498c.499 1.329 1.015 3.063 1.218 4.19.148-1.607.24-4.061.314-7.789h-4.54c-.443 1.015-.96 1.956-1.476 2.676-.314-.295-.941-.83-1.44-1.2v5.943h-1.716v-9.19h-3.285v9.3H92.23V22.016h6.644v4.65c.997-1.457 1.809-3.598 2.289-5.665l2.104.461a32.603 32.603 0 0 1-.683 2.289h5.868zm16.647-1.532h-12.623v2.252h12.623v-2.252zM127 29.637v-2.288h-16.61v2.288h5.002c-1.034 1.975-2.252 3.728-2.75 4.263-.61.683-.997 1.09-1.513 1.237.295.701.72 1.956.848 2.454.997-.369 2.307-.443 11.59-1.162.425.72.757 1.384 1.034 1.937l2.14-1.291c-.922-1.735-2.675-4.356-4.207-6.386l-2.012 1.052a152.71 152.71 0 0 1 1.753 2.584l-7.363.443a36.624 36.624 0 0 0 3.617-5.131H127z" fill="#FFF"/></g></svg>