<svg width="382" height="302" viewBox="0 0 382 302" xmlns="http://www.w3.org/2000/svg" xmlns:xlink="http://www.w3.org/1999/xlink"><title>Group 35 Copy</title><defs><path id="a" d="M0 0h380v300H0z"/><linearGradient x1="133.346%" y1="0%" x2="20.603%" y2="89.721%" id="b"><stop stop-color="#FFC194" offset="0%"/><stop stop-color="#DD3730" offset="100%"/></linearGradient></defs><g fill="none" fill-rule="evenodd"><g transform="translate(1 1)"><use fill="#FFF" xlink:href="#a"/><path stroke="#DD3730" d="M-.5-.5h381v301H-.5z"/></g><path d="M30.807 179.226h1.845v-5.305h1.135v5.305h2.83v-7.643h1.135v3.021h4.17v.999h-4.17v3.623h5.469v1.011H30.807v-1.011zm7.232-11.73l-.273.368c1.422 1.878 3.44 3.336 6.056 4.375-.2.292-.45.684-.752 1.176-2.488-1.249-4.493-2.816-6.015-4.703-1.431 1.85-3.496 3.527-6.194 5.031a45.8 45.8 0 0 0-.793-1.12c2.78-1.268 4.945-2.977 6.494-5.128h1.477zm6.22 11.401h4.39v-11.293h1.148v11.293h2.392v-11.293h1.149v11.293h4.43v1.012H44.26v-1.012zm1.587-8.613a99.069 99.069 0 0 1 2.174 5.606l-1.122.506a76.413 76.413 0 0 0-2.05-5.674l.998-.438zm7.984 5.729a55.22 55.22 0 0 0 2.297-5.606l1.107.438c-.847 2.178-1.654 4.051-2.42 5.619l-.984-.451zm5.865-6.782h3.534a49.34 49.34 0 0 0 .65-1.886l1.162.355a29.403 29.403 0 0 1-.677 1.531h5.94v11.567h-1.093v-.82h-8.422v.82h-1.094V169.23zm1.094 9.762h8.422v-2.297h-8.422v2.297zm0-3.267h8.422v-2.27h-8.422v2.27zm8.422-5.51h-8.422v2.27h8.422v-2.27zm7.328 6.576h3.5v-1.19h-3.035v-.82h3.035v-1.19h-2.844v-.82h2.844v-1.189h-3.555v-.848h3.555v-1.19h-2.844v-.82h2.844v-1.34h1.012v1.34h3.172v2.01h1.435v.848h-1.435v2.379h-.985v-.37h-2.187v1.19h3.445v.82h-3.445v1.19h4.074v.82h-4.074v1.409h-1.012v-1.409h-3.5v-.82zm-3.227-2.31c.274 1.111.657 2.025 1.149 2.74.488-1.002.793-2.157.916-3.465h-2.734v-.998l2.515-3.104H72.37v-.93h4.047v.93l-2.57 3.172h2.556v.807c-.168 1.69-.58 3.156-1.237 4.395.994.862 2.536 1.297 4.628 1.306 1.732.036 3.741.014 6.03-.068l-.452 1.08-6.057-.028c-2.032 0-3.59-.474-4.675-1.422a8.47 8.47 0 0 1-1.873 1.956 10.646 10.646 0 0 0-.56-.89 7.577 7.577 0 0 0 1.722-1.817c-.61-.775-1.117-1.883-1.518-3.323l.903-.342zm7.739-1.71h2.187v-1.189h-2.187v1.19zm2.187-3.226h-2.187v1.19h2.187v-1.19zm-52.746 21.016h13.03v1.066H38.49a37.638 37.638 0 0 1-1.75 2.693h.793v8.573h-1.176v-8.149a23.125 23.125 0 0 1-5.51 4.922 12.012 12.012 0 0 0-.765-.984 21.07 21.07 0 0 0 6.945-7.055h-6.535v-1.066zm8.408 4.183c1.705 1.04 3.35 2.096 4.936 3.172l-.78 1.08c-1.877-1.394-3.486-2.502-4.826-3.322l.67-.93zm6.618.916h1.435v-2.57h.957v2.57h1.367v.902H47.91v1.956a206.41 206.41 0 0 0 1.682-.206c-.046.356-.078.675-.096.958l-1.586.177v3.405h-.957v-3.289c-.884.11-1.759.221-2.625.335l-.11-1.011c.848-.073 1.76-.162 2.735-.267v-2.058H44.52v-.902c.373-1.08.731-2.233 1.073-3.459h-1.265v-.902h1.518c.182-.68.36-1.381.533-2.106l1.012.205c-.183.652-.363 1.286-.54 1.9h2.604v.903h-2.864a122.818 122.818 0 0 1-1.073 3.46zm4.43-5.373h6.343v.93a11.846 11.846 0 0 1-1.873 2.29c1.208.656 2.36 1.32 3.459 1.99l-.643.901a66.894 66.894 0 0 0-3.561-2.235c-1.035.839-2.25 1.575-3.644 2.208a8.957 8.957 0 0 0-.697-.916c2.534-1.03 4.452-2.434 5.756-4.21h-5.14v-.958zM49.1 201.28h3.8v-3.431h-2.802v-.957h6.562v.957h-2.748v3.431h3.774v.957H49.1v-.957zm10.91-11.265h10.062v5.687h-1.066v-.547H60.01v-5.14zm-1.764 8.6a11.318 11.318 0 0 0 3.705-3.227l.97.369c-.181.246-.364.483-.546.71h8.49c-.082 1.723-.168 3.054-.26 3.993-.118 1.467-.856 2.206-2.214 2.215-.757.009-1.545.009-2.366 0-.054-.392-.123-.78-.205-1.162a25.1 25.1 0 0 0 2.297.11c.857 0 1.33-.43 1.422-1.286.1-.82.169-1.791.205-2.912H67.64c-.556 2.397-2.174 4.238-4.854 5.523-.237-.3-.492-.61-.765-.93 2.552-1.048 4.07-2.579 4.552-4.593h-2.078c-.665 1.941-2.424 3.463-5.277 4.566a21.63 21.63 0 0 0-.766-.916c2.689-1.002 4.325-2.22 4.908-3.65h-1.845a14.201 14.201 0 0 1-2.584 2.064c-.192-.273-.42-.565-.684-.875zm2.83-4.417h7.93v-1.148h-7.93v1.148zm7.93-3.226h-7.93v1.12h7.93v-1.12zm11.648-1.696l1.094.192a17.672 17.672 0 0 1-.766 2.502h4.758v1.011H84.6c-.178 2.698-.816 4.843-1.914 6.433.82 1.02 1.88 1.807 3.178 2.358-.3.402-.551.762-.752 1.08a10.515 10.515 0 0 1-3.137-2.556c-.894.989-1.962 1.882-3.206 2.68-.21-.265-.47-.552-.78-.862 1.358-.825 2.468-1.73 3.33-2.714-.798-1.303-1.306-2.948-1.525-4.935-.269.465-.56.918-.875 1.36-.191-.273-.42-.565-.684-.875 1.185-1.631 1.992-3.523 2.42-5.674zm-8.312 2.57h6.59v1.012h-3.87a99.54 99.54 0 0 1-.047 2.229h3.137a281.408 281.408 0 0 1-.26 5.387c-.081 1.203-.601 1.827-1.558 1.873-.556.009-1.08.004-1.572-.014a17.15 17.15 0 0 0-.233-1.148c.602.063 1.067.095 1.395.095.556 0 .857-.346.902-1.039.091-1.066.164-2.447.219-4.142h-2.071c-.032 2.953-.755 5.209-2.167 6.767-.21-.31-.452-.629-.725-.957.857-.966 1.376-2 1.559-3.103.232-1.035.346-3.017.341-5.948h-1.64v-1.011zm11.17 1.135h-2.906c.146 2.234.62 4.056 1.422 5.47.88-1.409 1.374-3.232 1.484-5.47zm-8.873-3.226l.93-.492c.391.583.765 1.212 1.12 1.886l-.957.506a23.473 23.473 0 0 0-1.093-1.9zm11.799 1.326h6.282a23.669 23.669 0 0 0-.814-1.244l.93-.547c.355.447.71.957 1.066 1.531l-.485.26h6.16v.984h-7.302a40.459 40.459 0 0 1-2.502 2.516c2.188-.01 4.223-.041 6.105-.096a46.457 46.457 0 0 0-1.265-1.244l.752-.642c1.13.993 2.21 2.032 3.24 3.117l-.875.78a56.85 56.85 0 0 0-.977-1.088c-2.826.041-5.261.121-7.308.24-.273.018-.665.072-1.175.164l-.506-1.108c.41-.146.784-.364 1.12-.656a18.074 18.074 0 0 0 1.942-1.983h-4.388v-.984zm-.137 6.727h3.472c.05-.488.073-1.035.069-1.641h1.08a18.65 18.65 0 0 1-.041 1.64h4.28v-1.667h1.093v1.668h3.486v.984h-3.486v3.979H95.16v-3.979h-4.402c-.237 1.74-1.33 3.113-3.281 4.115a7.071 7.071 0 0 0-.82-.902c1.75-.839 2.736-1.91 2.96-3.213H86.3v-.984zm17.965-5.237h2.474c.173-.437.337-.888.492-1.353h-4.484v3.719c0 2.114-.123 3.673-.37 4.675-.245 1.076-.751 2.17-1.517 3.282a13.56 13.56 0 0 0-.765-.944c.629-.939 1.043-1.864 1.244-2.775.21-.866.314-2.197.314-3.992v-4.963h11.95v.998h-5.168c-.206.492-.404.943-.595 1.353h4.669v5.606h-1.026v-.274h-2.529v3.063c0 1.148-.52 1.718-1.559 1.709-.319 0-.893-.01-1.722-.028a15.871 15.871 0 0 0-.178-1.189c.711.091 1.272.137 1.682.137.455 0 .683-.265.683-.793v-2.899h-2.57v.274h-1.025v-5.606zm1.025 4.416h6.193v-1.312h-6.193v1.312zm6.193-3.5h-6.193v1.3h6.193v-1.3zm-6.043 4.95l.944.615a22.893 22.893 0 0 1-2.858 3.486c-.237-.2-.533-.424-.888-.67.92-.847 1.854-1.991 2.802-3.431zm5.332.027a47.037 47.037 0 0 1 3.036 3.117l-.916.82a37.06 37.06 0 0 0-2.926-3.28l.806-.657zm7.288 4.32h-1.08v-7.075c-.661.77-1.39 1.51-2.188 2.222-.191-.32-.41-.652-.656-.998 1.759-1.472 3.133-3.104 4.122-4.895h-3.74v-1.012h4.252c.26-.57.484-1.153.67-1.75l1.135.26a21.195 21.195 0 0 1-.601 1.49h7.724v1.012h-8.217a18.245 18.245 0 0 1-.93 1.572h7.493v7.301c0 1.13-.552 1.695-1.654 1.695-.483.01-1.217.014-2.202.014a19.65 19.65 0 0 0-.205-1.121 27.87 27.87 0 0 0 2.024.096c.629 0 .943-.31.943-.93v-.97h-6.89v3.09zm0-4.02h6.89v-1.64h-6.89v1.64zm6.89-4.197h-6.89v1.627h6.89v-1.627zm8.408 2.065v-.957h7.028v.943c-.62 1.445-1.493 2.66-2.618 3.644 1.089.683 2.458 1.16 4.108 1.428a9.266 9.266 0 0 0-.684 1.04c-1.704-.374-3.126-.978-4.265-1.812-1.23.861-2.707 1.502-4.43 1.92a7.3 7.3 0 0 0-.602-.956c1.655-.347 3.063-.896 4.225-1.648-1.003-.961-1.718-2.162-2.146-3.602h-.616zm-5.154.068a59.763 59.763 0 0 0 1.996-.58v-3.016h-1.818v-.957h1.818v-2.652h1.026v2.652h1.654v.957h-1.654v2.694c.469-.15.952-.31 1.449-.479-.01.292 0 .647.027 1.067-.497.155-.989.312-1.476.471v4.3c0 .994-.442 1.49-1.327 1.49h-1.326a18.746 18.746 0 0 0-.178-1.162c.51.055.926.082 1.245.082.373 0 .56-.218.56-.656v-3.719c-.624.21-1.244.424-1.86.643l-.136-1.135zm12.086-3.062h1.531c-.09.328-.168.66-.232.998h-1.45c-1.048 0-1.572-.502-1.572-1.504v-2.147h-3.035v.506c.01 1.76-.688 3.072-2.092 3.938a7.201 7.201 0 0 0-.738-.834c1.203-.657 1.805-1.691 1.805-3.104v-1.463h5.086v2.953c0 .438.232.657.697.657zm-1.039 2.994h-4.286c.383 1.212 1.039 2.217 1.969 3.014a8.303 8.303 0 0 0 2.317-3.014zm6.754-1.572c2.734-.702 4.215-1.887 4.443-3.555h-2.187c-.328.674-.693 1.28-1.094 1.818a17.6 17.6 0 0 0-.916-.588 8.926 8.926 0 0 0 1.818-3.513l1.026.246c-.137.4-.278.78-.424 1.135h6.48v.86l-.93 1.86a14.95 14.95 0 0 0-.997-.424l.724-1.394h-2.433a11.5 11.5 0 0 1-.246.848c.783 1.294 2.255 2.192 4.416 2.693a16.43 16.43 0 0 0-.684.998c-1.941-.62-3.327-1.531-4.156-2.734-.63 1.093-2.01 1.977-4.143 2.652a9.409 9.409 0 0 0-.697-.902zm-1.764.957h9.502v4.457h-1.066v-3.5h-7.37v3.5h-1.066v-4.457zm1.572-3.596a7.5 7.5 0 0 0 .534.97 117.858 117.858 0 0 0-3.391 2.64l-.71-.93a51.247 51.247 0 0 0 3.567-2.68zm-2.433-2.967a45.267 45.267 0 0 1 2.283 1.531l-.697.848a49.024 49.024 0 0 0-2.188-1.627l.602-.752zm6.152 8.04c-.009.984-.077 1.74-.205 2.269 2.078.674 4.06 1.376 5.947 2.105l-.574.998a129.662 129.662 0 0 0-5.756-2.201c-.61 1.085-2.556 1.837-5.838 2.256a10.5 10.5 0 0 0-.587-1.067c3.016-.264 4.84-.829 5.468-1.695.338-.456.497-1.344.479-2.666h1.066zM30.22 223.853c3.381-1.143 5.402-2.793 6.063-4.949H30.41v-1.039h6.077c.055-.629.096-1.55.123-2.762h-3.602a15.89 15.89 0 0 1-1.395 2.133 7.673 7.673 0 0 0-.861-.656c1.085-1.34 1.887-2.89 2.406-4.648l1.067.328a18.513 18.513 0 0 1-.698 1.804h3.11c.01-.793.017-1.686.021-2.68h1.162c-.018.98-.036 1.874-.054 2.68h5.113v1.04h-5.14a151.981 151.981 0 0 1-.09 2.761h5.982v1.04h-5.879c.866 2.292 2.89 3.855 6.07 4.689-.291.383-.565.752-.82 1.107-3.063-1.094-5.027-2.757-5.893-4.99-.72 2.087-2.734 3.814-6.043 5.182a40.402 40.402 0 0 0-.847-1.04zm19.974-7.218a23.763 23.763 0 0 0 2.051-5.278l1.026.315a43.93 43.93 0 0 1-.739 2.119h5.059v.984h-1.326c-.146 3.063-.757 5.319-1.832 6.768.756.93 1.9 1.64 3.431 2.133a14.02 14.02 0 0 0-.779 1.107c-1.431-.656-2.538-1.454-3.322-2.392-.802.847-1.974 1.69-3.514 2.529a6.039 6.039 0 0 0-.71-.916c1.549-.766 2.743-1.604 3.581-2.516-.802-1.312-1.303-3.13-1.504-5.455a32.22 32.22 0 0 1-.78 1.586 8.855 8.855 0 0 0-.642-.984zm-5.318-4.567h5.25v8.573h-.984v-7.588H45.86v7.67h-.984v-8.655zm2.133 2.133h.984v2.912c0 1.495-.091 2.707-.273 3.637l.437-.355c.875.893 1.609 1.7 2.201 2.42l-.875.656a29.643 29.643 0 0 0-1.873-2.243c-.337 1.313-1.216 2.493-2.638 3.542a10.648 10.648 0 0 0-.766-.903c1.121-.72 1.869-1.517 2.242-2.392.374-.83.56-2.151.56-3.965v-3.309zm6.781 6.412c.83-1.312 1.299-3.258 1.408-5.838h-2.802c.182 2.589.647 4.535 1.394 5.838zm8.258-4.484l3.233-.356c-.11-1.157-.184-2.602-.225-4.334h1.19a40.309 40.309 0 0 0 .17 4.211l5.01-.547.124 1.012-5.025.554c.515 3.773 1.507 6.036 2.974 6.788.401.164.66.032.78-.396a19.35 19.35 0 0 0 .437-2.202c.383.164.747.297 1.094.397a20.18 20.18 0 0 1-.493 2.351c-.246.793-.733 1.18-1.462 1.163-.784-.028-1.532-.497-2.243-1.409-1.057-1.23-1.793-3.42-2.208-6.569l-3.192.349-.164-1.012zm-3.965 1.79c1.422-1.913 2.548-4.1 3.377-6.562l1.094.383a37.241 37.241 0 0 1-1.272 2.96v10.138h-1.12v-8.04a21.17 21.17 0 0 1-1.614 2.352 22.662 22.662 0 0 0-.465-1.23zm9.42-5.4l.71-.724c.803.61 1.623 1.29 2.462 2.037l-.834.848a30.094 30.094 0 0 0-2.338-2.16zm4.648 5.743c1.23-1.923 2.192-4.18 2.885-6.768l1.067.328a40.514 40.514 0 0 1-1.04 2.94v10.103h-1.025v-7.82a21.06 21.06 0 0 1-1.422 2.406 15.036 15.036 0 0 0-.465-1.19zm9.297-6.795l-.191.342c1.13 1.996 2.652 3.436 4.566 4.32-.237.273-.487.592-.752.957a11.719 11.719 0 0 1-4.375-4.375c-1.02 1.759-2.46 3.29-4.32 4.594a6.06 6.06 0 0 0-.71-.862c2.059-1.294 3.577-2.953 4.552-4.976h1.23zm-2.2 5.345v1.942c0 2.634-.757 4.698-2.27 6.193a7.14 7.14 0 0 0-.916-.765c1.412-1.295 2.119-3.072 2.119-5.332v-2.038h1.066zm2.884 0h1.066v7.999h-1.066v-7.999zm5.387 1.3h1.627v-2.995h.957v2.994h1.394V219h-1.394v1.853a171.43 171.43 0 0 0 1.777-.226c-.046.346-.078.66-.096.943-.51.06-1.07.128-1.681.205v3.063h-.957v-2.946l-2.858.376-.11-.998c1.017-.096 2.006-.196 2.968-.301V219H86.52v-.861a89.407 89.407 0 0 0 1.264-3.733h-1.442v-.916h1.716c.237-.793.43-1.522.58-2.187l1.053.218c-.186.607-.394 1.263-.622 1.97h2.386v.915h-2.68c-.369 1.126-.788 2.36-1.257 3.705zm10.568-.233c-.474 1.513-1.08 2.75-1.818 3.712.893.838 2.087 1.488 3.582 1.948-.347.401-.63.752-.848 1.053-1.417-.574-2.577-1.292-3.48-2.154-1.039 1.03-2.344 1.821-3.917 2.373-.118-.237-.337-.561-.656-.971 1.572-.529 2.858-1.26 3.856-2.195-.72-.916-1.308-2.07-1.764-3.465l.93-.424c.387 1.203.911 2.22 1.572 3.049.656-.903 1.167-1.992 1.531-3.268l1.012.342zm-6.139-4.43h3.493c-.3-.528-.672-1.075-1.114-1.64l.834-.534c.51.575.948 1.144 1.313 1.71l-.718.464h3.862v.957h-7.67v-.957zm4.252 2.065l.752-.657a39.758 39.758 0 0 1 2.735 2.817l-.82.738a39.868 39.868 0 0 0-2.667-2.898zm-2.324-.698l.902.56a32.603 32.603 0 0 1-2.379 3.255 7.507 7.507 0 0 0-.834-.656 20.75 20.75 0 0 0 2.311-3.159zm8.736-.396h8.873v3.336h-1.039v-.438h-6.795v.424h-1.039v-3.322zm-.492 10.295h-1.039v-6.412h11.95v4.648c0 1.121-.53 1.682-1.587 1.682a81.6 81.6 0 0 1-1.996-.028c-.054-.31-.127-.67-.218-1.08.838.064 1.48.096 1.927.096.556 0 .834-.278.834-.834v-3.61h-9.87v5.538zm1.846-4.635h6.18v2.857h-5.196v.588h-.984v-3.445zm-3.692-7.465h6.262c-.2-.387-.392-.729-.574-1.025l1.025-.41c.26.45.513.93.76 1.435h5.98v.903h-13.453v-.903zm10.172 2.653h-6.795v1.203h6.795v-1.203zm-1.285 6.822v-1.162h-4.21v1.162h4.21zm-73.855 11.431l-.178.288a86.743 86.743 0 0 1 3.336 3.24l-.752.847a60.396 60.396 0 0 0-3.117-3.212c-.893 1.412-1.814 2.593-2.762 3.54h5.62a112.693 112.693 0 0 1-.138 2.667c-.045 1.358-.665 2.037-1.859 2.037a47.59 47.59 0 0 1-1.777-.041 13.44 13.44 0 0 0-.192-1.094c.611.1 1.194.155 1.75.164.657.01 1.007-.406 1.053-1.244.027-.438.055-.948.082-1.531h-3.623v5.482c0 .51.273.766.82.766h2.243c.72 0 1.125-.237 1.216-.711.11-.438.192-.985.246-1.64.356.145.716.277 1.08.396a15.345 15.345 0 0 1-.341 1.668c-.228.847-.87 1.271-1.928 1.271h-2.72c-1.122 0-1.682-.556-1.682-1.668v-6.357c-.292.273-.58.524-.862.752a22.009 22.009 0 0 0-.629-.985c1.495-1.14 2.78-2.684 3.856-4.635h1.258zm6.549.096h1.093v11.361c0 1.112-.551 1.673-1.654 1.682-.383 0-1.098-.004-2.147-.014a9.605 9.605 0 0 0-.218-1.244c.966.082 1.645.123 2.037.123.592 0 .889-.291.889-.875v-11.033zm-1.805 9.639h-1.053v-8.422h1.053v8.422zm11.812-8.75c1.887-.018 3.628-.205 5.223-.56l.355 1.052c-1.804.237-3.34.392-4.607.465v3.185h4.99v.93h-1.955v7.164h-1.012v-7.164h-2.023v.67c0 2.798-.67 4.977-2.01 6.535-.218-.282-.46-.574-.724-.875 1.175-1.285 1.763-3.185 1.763-5.701v-5.701zm-7.287 6.139h2.79v-1.3h.984v1.3h2.68v.875h-2.68v3.568c0 .966-.465 1.45-1.395 1.45-.392 0-.834-.005-1.326-.015-.037-.3-.087-.647-.15-1.039.528.055.943.082 1.244.082.428 0 .642-.232.642-.697v-3.35h-2.789v-.874zm-.383-2.557h2.202a20.271 20.271 0 0 0-1.094-1.586l.738-.52c.3.365.688.88 1.162 1.545l-.772.56h1.804c.497-.715.955-1.421 1.374-2.118l.971.547a53.86 53.86 0 0 1-1.264 1.572h2.07v.875h-7.19v-.875zm.438-3.172h2.953c-.196-.374-.42-.78-.67-1.217l.875-.41c.283.465.547.934.793 1.408l-.458.219h2.905v.875H44.63v-.875zm.998 7.219l.93.437a38.81 38.81 0 0 1-1.463 2.79 10.07 10.07 0 0 0-.903-.493c.447-.693.926-1.604 1.436-2.734zm3.937.068c.51.693.957 1.33 1.34 1.914l-.875.602a22.382 22.382 0 0 0-1.271-1.983l.806-.533zm8.668 3.719c1.668-.278 3.013-.707 4.034-1.285-.78-.538-1.486-1.244-2.12-2.12l.718-.546h-1.06v-5.729h4.8l.013-1.258h-5.892v-.957h12.55v.957H65.67c0 .452-.002.87-.007 1.258h4.532v6.399h-1.039v-.67h-3.828c-.237 1.08-.613 1.911-1.128 2.495 1.828.67 4.373 1 7.636.991-.228.401-.415.766-.56 1.094-3.62-.1-6.278-.545-7.978-1.333-1.048.692-2.527 1.25-4.437 1.675a10.893 10.893 0 0 0-.629-.971zm2.612-7.274h3.732c.01-.437.016-.93.02-1.476h-3.752v1.476zm3.718.916h-3.718v1.477h3.602a15.2 15.2 0 0 0 .117-1.477zm.923 1.477h3.671v-1.477h-3.54a15.49 15.49 0 0 1-.13 1.477zm3.671-3.87h-3.5a109.62 109.62 0 0 1-.02 1.477h3.52v-1.476zm-5.974 6.837c.492-.424.854-1.103 1.087-2.037h-3.35c.629.875 1.383 1.554 2.263 2.037zm12.386-8.696l1.121.438c-.993 2.197-2.069 4.197-3.226 6.002a21.65 21.65 0 0 0-1.025-.615c1.157-1.677 2.2-3.619 3.13-5.825zm5.483.356l.861-.656a107.064 107.064 0 0 1 3.938 4.457l-.985.793a108.573 108.573 0 0 0-3.814-4.594zm-2.653-2.229h1.176v8.586h-1.176v-8.586zm4.512 6.276l.998.656c-2.643 3.4-6.312 5.57-11.006 6.508-.2-.365-.428-.73-.683-1.094 4.74-.92 8.303-2.944 10.691-6.07zm159.321-58.792c1.668-.278 3.013-.707 4.034-1.285-.78-.538-1.486-1.244-2.12-2.12l.718-.546h-1.06v-5.729h4.8l.013-1.258h-5.892v-.957h12.55v.957h-5.605c0 .452-.002.87-.007 1.258h4.532v6.399h-1.039v-.67h-3.828c-.237 1.08-.613 1.911-1.128 2.495 1.828.67 4.373 1 7.636.991-.228.401-.415.766-.56 1.094-3.62-.1-6.278-.545-7.978-1.333-1.048.692-2.527 1.25-4.437 1.675a10.893 10.893 0 0 0-.629-.971zm2.612-7.274h3.732c.01-.437.016-.93.02-1.476h-3.752v1.476zm3.719.916h-3.72v1.477h3.603a15.2 15.2 0 0 0 .117-1.477zm.922 1.477h3.671v-1.477h-3.54a15.49 15.49 0 0 1-.13 1.477zm3.671-3.87h-3.5a109.62 109.62 0 0 1-.02 1.477h3.52v-1.476zm-5.974 6.837c.492-.424.854-1.103 1.087-2.037h-3.35c.629.875 1.383 1.554 2.263 2.037zM263 171.872h1.996l.342-1.764h-2.912v-.93h7.342v.93h-3.295l-.41 1.764h3.103v7.082h-1.025v-6.152h-4.116v6.152H263v-7.082zm-6.795 1.49h.943v-3.623h.957v3.623h1.395v-4.894h.984v2.146h1.914v.903h-1.914v1.845h2.092v.93h-6.37v-.93zm9.324.328h1.026v2.079c0 1.048-.128 1.936-.383 2.666a67.405 67.405 0 0 1 3.773 2.447l-.656.957a40.549 40.549 0 0 0-3.555-2.502 2.609 2.609 0 0 1-.177.26c-.666.92-1.837 1.7-3.514 2.338-.2-.283-.433-.58-.697-.89 1.577-.592 2.67-1.266 3.281-2.023.602-.729.902-1.836.902-3.322v-2.01zm-6.138.93h.984v3.514a10.092 10.092 0 0 0 1.45-2.215l.956.56c-1.303 2.416-3.276 4.252-5.92 5.51-.173-.246-.41-.542-.71-.888 1.54-.666 2.816-1.513 3.828-2.543h-.588v-3.938zm-3.309 4.115c.501-.893.962-1.991 1.38-3.295l.972.301c-.447 1.34-.926 2.493-1.436 3.46-.273-.156-.579-.31-.916-.466zm14.191-6.357h1.327l.369-1.695h4.867l-.123 1.695h1.367v.684h-1.408l-.068 1.025h.792v.684h-.82l-.04.478h-.37c-.784.328-1.55.643-2.297.943a752.58 752.58 0 0 0 4.621-.246 35.157 35.157 0 0 0 1.668-.806l.78.67a60.38 60.38 0 0 1-6.686 2.46c2.251-.072 4.297-.159 6.139-.26-.31-.3-.606-.578-.889-.833l.656-.547a65.002 65.002 0 0 1 2.557 2.31l-.738.657c-.283-.292-.561-.57-.834-.834-1.25.036-2.37.068-3.364.095v1.272c0 1.048-.506 1.572-1.517 1.572-.547 0-1.126-.009-1.737-.027a14.78 14.78 0 0 0-.164-.985c.638.073 1.167.11 1.586.11.547 0 .82-.246.82-.738v-1.163c-2.26.055-3.832.155-4.716.301l-.41-.916a11.905 11.905 0 0 0 1.832-.424 40.65 40.65 0 0 0 3.267-1.162c-2.315.128-3.805.242-4.47.342l-.37-.82c.894-.219 2.056-.702 3.487-1.45h-4.307l.37-1.708h-1.177v-.684zm6.987-1.066c.775-.793 1.39-1.782 1.845-2.967l.875.246a11.75 11.75 0 0 1-.478 1.025h4.129v.82h-1.067a5.382 5.382 0 0 1-1.34 2.749c.666.483 1.5.87 2.503 1.162a9.74 9.74 0 0 0-.698.861c-.993-.374-1.827-.834-2.502-1.38-.656.528-1.463.984-2.42 1.366a8.39 8.39 0 0 0-.587-.806c.938-.31 1.722-.702 2.351-1.176a5.616 5.616 0 0 1-1.244-2.12c-.219.32-.447.625-.684.917a16.603 16.603 0 0 0-.683-.697zm-6.987-.37c.866-.774 1.495-1.658 1.887-2.652l.848.232c-.1.228-.21.452-.328.67h4.867v.739h-5.291c-.392.61-.852 1.185-1.381 1.722a11.258 11.258 0 0 0-.602-.71zm3.924 8.354l.63.683a57.607 57.607 0 0 1-3.692 1.532c-.128-.2-.292-.465-.492-.793a27.726 27.726 0 0 0 3.554-1.422zm4.908.71l.452-.696c.92.328 2.096.806 3.527 1.435l-.479.807a52.847 52.847 0 0 0-3.5-1.545zm1.436-7.396a4.393 4.393 0 0 0 1.107-2.173h-2.324a4.812 4.812 0 0 0 1.217 2.173zm-7.205.916l.37-.464h-1.423l-.219 1.025h2.106a8.669 8.669 0 0 0-.834-.56zm1.408.069l-.41.492h1.422l.082-1.025h-1.983c.32.173.616.35.89.533zm.123-1.668l-.437.45h1.463l.082-1.01h-1.928c.3.2.574.387.82.56zm-1.38-.137l.396-.424h-1.23l-.22 1.012h1.833a9.202 9.202 0 0 0-.78-.588zm11.292-1.162h1.381c.337-.83.615-1.586.834-2.27l1.149.329a65.129 65.129 0 0 1-.834 1.94h2.734v10.884h-1.094v-1.067h-3.076v1.162h-1.094v-10.978zm5.469 2.803c.857-1.358 1.581-3.05 2.174-5.073l1.148.288a39.45 39.45 0 0 1-.71 1.94h4.402c-.11 4.686-.2 7.634-.274 8.847-.064 1.43-.815 2.146-2.256 2.146-.829 0-1.672-.027-2.529-.082a9.482 9.482 0 0 0-.219-1.217h.041a18.12 18.12 0 0 0 2.502.192c.83 0 1.276-.438 1.34-1.313.1-1.358.173-3.873.219-7.547h-3.664c-.397.88-.807 1.655-1.23 2.325a5.237 5.237 0 0 0-.944-.506zm-4.375 5.988h3.076v-3.459h-3.076v3.459zm3.076-7.766h-3.076v3.323h3.076v-3.323zm2.502 2.707l.834-.615c1.012 1.194 1.819 2.229 2.42 3.104l-1.012.71a33.098 33.098 0 0 0-2.242-3.199zm15.86 3.61a44.092 44.092 0 0 1 3.212 3.158l-.916.738c-.287-.337-.597-.69-.93-1.06-2.656.092-5.13.226-7.423.404-.365.036-.752.11-1.162.219l-.56-1.08c.546-.183.988-.41 1.325-.684.611-.565 1.245-1.28 1.9-2.146h-4.402v-.998h13.29v.998h-7.404a40.352 40.352 0 0 1-2.4 2.597c2.79-.077 4.8-.137 6.03-.178-.428-.45-.889-.92-1.38-1.408l.82-.56zm-8.532-6.467h5.674v-3.104h1.108v3.104h5.687v2.57h-1.08v-1.572h-10.309v1.572h-1.08v-2.57zm10.965 3.5h-9.433v-.998h9.433v.998zm.137-5.742c-.465.547-1.112 1.217-1.942 2.01l-.82-.698a17.266 17.266 0 0 0 1.846-1.996l.916.684zm-9.748 0l.752-.657a23.75 23.75 0 0 1 1.941 1.915l-.861.752a26.761 26.761 0 0 0-1.832-2.01zm16.05 1.818h4.99c-.008-.843-.013-1.759-.013-2.748h1.08c-.018 1.085-.023 2-.013 2.748h3.377v.998h-3.357c.091 3.856.522 6.48 1.292 7.875.283.474.52.711.711.711.155 0 .264-.182.328-.547.091-.556.16-1.28.205-2.174.392.155.734.274 1.026.356-.119 1.03-.233 1.814-.342 2.351-.146.766-.529 1.149-1.149 1.149-.51 0-1.016-.351-1.517-1.053-.93-1.349-1.463-4.238-1.6-8.668h-5.017v-.998zm-.246 8.777a88.852 88.852 0 0 0 2.16-.314v-4.238h-1.954v-.971h4.73v.97h-1.764v4.082c.716-.119 1.459-.249 2.229-.39-.018.365-.027.72-.027 1.067-1.997.319-3.696.606-5.1.86l-.274-1.066zm.52-2.775c.046.51.096.953.15 1.326-.61.584-1.22 1.19-1.832 1.819a7.74 7.74 0 0 0-.71.834l-.766-.875c.319-.356.478-.793.478-1.313v-5.031h-1.586v-.97h2.625v5.878c.493-.474 1.04-1.03 1.641-1.668zm-2.926-8.394a39.63 39.63 0 0 1 2.16 2.27l-.902.778a26.283 26.283 0 0 0-2.037-2.351l.78-.697zm9.229.601l.629-.656c.729.538 1.308 1.012 1.736 1.422l-.752.765a18.368 18.368 0 0 0-1.613-1.53zm11.101.219c1.887-.018 3.628-.205 5.223-.56l.355 1.052c-1.804.237-3.34.392-4.607.465v3.185h4.99v.93h-1.955v7.164h-1.012v-7.164h-2.023v.67c0 2.798-.67 4.977-2.01 6.535-.218-.282-.46-.574-.724-.875 1.175-1.285 1.763-3.185 1.763-5.701v-5.701zm-7.287 6.139h2.79v-1.3h.984v1.3h2.68v.875h-2.68v3.568c0 .966-.465 1.45-1.395 1.45-.392 0-.834-.005-1.326-.015-.037-.3-.087-.647-.15-1.039.528.055.943.082 1.244.082.428 0 .642-.232.642-.697v-3.35h-2.789v-.874zm-.383-2.557h2.202a20.271 20.271 0 0 0-1.094-1.586l.738-.52c.3.365.688.88 1.162 1.545l-.772.56h1.804c.497-.715.955-1.421 1.374-2.118l.971.547a53.86 53.86 0 0 1-1.264 1.572h2.07v.875h-7.19v-.875zm.438-3.172h2.953a37.46 37.46 0 0 0-.67-1.217l.875-.41c.283.465.547.934.793 1.408l-.458.219h2.905v.875h-6.398v-.875zm.998 7.219l.93.437a38.81 38.81 0 0 1-1.463 2.79 10.07 10.07 0 0 0-.903-.493c.447-.693.926-1.604 1.436-2.734zm3.937.068c.51.693.957 1.33 1.34 1.914l-.875.602a22.382 22.382 0 0 0-1.271-1.983l.806-.533zm9.748-4.443h3.323c-.315-.46-.656-.916-1.026-1.367l.834-.561c.438.51.834.984 1.19 1.422l-.738.506h3.103c.46-.593.884-1.217 1.272-1.873l1.039.601a60.93 60.93 0 0 1-1.094 1.272h3.404v7.164c0 1.148-.524 1.727-1.572 1.736-.565.01-1.203.005-1.914-.014a10.364 10.364 0 0 0-.205-1.148 18.3 18.3 0 0 0 1.777.11c.593 0 .889-.329.889-.985v-5.92h-9.256v8.121h-1.026v-9.064zm2.954 7.71v-4.402h5.482v3.678h-4.498v.725h-.984zm-3.952-10.636h6.242a17.522 17.522 0 0 0-.636-1.08l1.053-.479c.273.47.56.99.861 1.559h5.893v.97h-13.413v-.97zm8.45 9.037v-1.928h-3.514v1.928h3.514zm-3.446-5.018l.739.711a57.839 57.839 0 0 1-2.995 2.407 9.072 9.072 0 0 0-.642-.807 21.908 21.908 0 0 0 2.898-2.31zm2.407.752l.601-.752c1.35.848 2.37 1.527 3.063 2.038l-.684.86a34.934 34.934 0 0 0-2.98-2.146zm6.535 5.291h4.388v-11.293h1.149v11.293h2.392v-11.293h1.149v11.293h4.43v1.012H354.26v-1.012zm1.586-8.613a99.068 99.068 0 0 1 2.174 5.606l-1.122.506a76.414 76.414 0 0 0-2.05-5.674l.998-.438zm7.984 5.729a55.22 55.22 0 0 0 2.297-5.606l1.107.438c-.847 2.178-1.654 4.051-2.42 5.619l-.984-.451zm-121.61 25.841c3.381-1.143 5.402-2.793 6.063-4.949h-5.872v-1.039h6.077c.055-.629.096-1.55.123-2.762h-3.602a15.89 15.89 0 0 1-1.395 2.133 7.673 7.673 0 0 0-.861-.656c1.085-1.34 1.887-2.89 2.406-4.648l1.067.328a18.513 18.513 0 0 1-.698 1.804h3.11c.01-.793.017-1.686.021-2.68h1.162c-.018.98-.036 1.874-.054 2.68h5.113v1.04h-5.14a151.985 151.985 0 0 1-.09 2.761h5.982v1.04h-5.879c.866 2.292 2.89 3.855 6.07 4.689-.291.383-.565.752-.82 1.107-3.063-1.094-5.027-2.757-5.893-4.99-.72 2.087-2.734 3.814-6.043 5.182a40.4 40.4 0 0 0-.847-1.04zm19.974-7.218a23.763 23.763 0 0 0 2.051-5.278l1.026.315a43.928 43.928 0 0 1-.739 2.119h5.059v.984h-1.326c-.146 3.063-.757 5.319-1.832 6.768.756.93 1.9 1.64 3.431 2.133a14.02 14.02 0 0 0-.779 1.107c-1.431-.656-2.538-1.454-3.322-2.392-.802.847-1.974 1.69-3.514 2.529a6.039 6.039 0 0 0-.71-.916c1.549-.766 2.743-1.604 3.581-2.516-.802-1.312-1.303-3.13-1.504-5.455a32.22 32.22 0 0 1-.78 1.586 8.855 8.855 0 0 0-.642-.984zm-5.318-4.567h5.25v8.573h-.984v-7.588h-3.282v7.67h-.984v-8.655zm2.133 2.133h.984v2.912c0 1.495-.091 2.707-.273 3.637l.437-.355c.875.893 1.609 1.7 2.201 2.42l-.875.656a29.643 29.643 0 0 0-1.873-2.243c-.337 1.313-1.216 2.493-2.638 3.542a10.648 10.648 0 0 0-.766-.903c1.121-.72 1.869-1.517 2.242-2.392.374-.83.56-2.151.56-3.965v-3.309zm6.781 6.412c.83-1.312 1.299-3.258 1.408-5.838h-2.802c.182 2.589.647 4.535 1.394 5.838zm10.227 3.145a14.443 14.443 0 0 0 2.816-2.468c-.529-1.344-.84-3.516-.936-6.515h-5.162v2.078h3.938a99.537 99.537 0 0 1-.219 4.39c-.11 1.257-.72 1.886-1.832 1.886-.374 0-.87-.018-1.49-.055a21.892 21.892 0 0 0-.219-1.135c.638.092 1.171.137 1.6.137.528 0 .825-.364.888-1.094a55.42 55.42 0 0 0 .164-3.117h-2.836c-.073 3.168-.714 5.51-1.921 7.028-.228-.31-.465-.625-.711-.944 1.03-1.367 1.545-3.527 1.545-6.48v-3.705h6.213c-.031-.72-.061-1.5-.088-2.338h1.134c-.004.642.007 1.422.035 2.338h4.71v1.011h-4.676c.09 2.452.316 4.284.677 5.496.884-1.198 1.61-2.556 2.18-4.074l1.08.451c-.784 1.855-1.725 3.469-2.823 4.84.67 1.363 1.324 2.044 1.962 2.044.232 0 .41-.212.533-.636.128-.665.228-1.348.3-2.05.393.155.74.282 1.04.382-.137.976-.287 1.773-.451 2.393-.173.665-.556 1.025-1.149 1.08-.556.037-1.089-.15-1.6-.56-.55-.424-1.02-1.008-1.407-1.75-.77.829-1.61 1.558-2.516 2.187a12.916 12.916 0 0 0-.78-.82zm3.923-11.662l.575-.711a25.52 25.52 0 0 1 2.146 1.367l-.656.82a26.33 26.33 0 0 0-2.065-1.476zm17.801 9.146c-.237.237-.547.556-.93.957-2.205-1.7-3.964-3.878-5.277-6.535v5.414h3.131v.957h-3.13v2.803h-1.067v-2.803h-3.24v-.957h3.24v-5.414c-1.162 2.315-2.944 4.548-5.346 6.7a23.051 23.051 0 0 0-.902-.821c2.593-2.128 4.532-4.38 5.817-6.754h-5.516v-1.012h5.947v-2.46h1.066v2.46h5.947v1.012h-5.557c1.45 2.725 3.388 4.876 5.817 6.453zm1.778-3.13h1.627v-2.995h.957v2.994h1.394v.889h-1.394v1.853a171.43 171.43 0 0 0 1.777-.226c-.046.346-.078.66-.096.943-.51.06-1.07.128-1.681.205v3.063h-.957v-2.946l-2.858.376-.11-.998c1.017-.096 2.006-.196 2.968-.301V198h-2.625v-.861a89.408 89.408 0 0 0 1.264-3.733h-1.442v-.916h1.716c.237-.793.43-1.522.58-2.187l1.053.218c-.186.607-.394 1.263-.622 1.97h2.386v.915h-2.68c-.369 1.126-.788 2.36-1.257 3.705zm10.568-.233c-.474 1.513-1.08 2.75-1.818 3.712.893.838 2.087 1.488 3.582 1.948-.347.401-.63.752-.848 1.053-1.417-.574-2.577-1.292-3.48-2.154-1.039 1.03-2.344 1.821-3.917 2.373-.118-.237-.337-.561-.656-.971 1.572-.529 2.858-1.26 3.856-2.195-.72-.916-1.308-2.07-1.764-3.465l.93-.424c.387 1.203.911 2.22 1.572 3.049.656-.903 1.167-1.992 1.531-3.268l1.012.342zm-6.139-4.43h3.493c-.3-.528-.672-1.075-1.114-1.64l.834-.534c.51.575.948 1.144 1.313 1.71l-.718.464h3.862v.957h-7.67v-.957zm4.252 2.065l.752-.657a39.757 39.757 0 0 1 2.735 2.817l-.82.738a39.868 39.868 0 0 0-2.667-2.898zm-2.324-.698l.902.56a32.603 32.603 0 0 1-2.379 3.255 7.507 7.507 0 0 0-.834-.656 20.75 20.75 0 0 0 2.311-3.159zm11.102-2.338a60.22 60.22 0 0 0 8.134-.574l.383 1.026a133.42 133.42 0 0 1-3.657.294 82.49 82.49 0 0 0 .13 3.493h3.705v.984h-3.63c.269 3.167.991 5.059 2.167 5.674.255.11.42.014.492-.287.082-.465.16-1.149.233-2.05.355.163.683.286.984.368a25.059 25.059 0 0 1-.3 2.12c-.156.71-.511 1.066-1.067 1.066-.675 0-1.317-.401-1.928-1.203-.87-1.199-1.406-3.095-1.606-5.688h-3.001v4.84l2.543-1.463c.054.42.123.77.205 1.053a71.046 71.046 0 0 0-2.762 1.64 5.904 5.904 0 0 0-.78.616l-.71-.903c.31-.264.465-.656.465-1.175v-9.83zm-4.895 5.278c1.404-1.896 2.493-4.038 3.268-6.426l.998.356a30.135 30.135 0 0 1-1.49 3.486v9.639h-.985v-7.89a19.625 19.625 0 0 1-1.408 1.983c-.11-.364-.237-.747-.383-1.148zm8.702-4.47c-.948.054-1.87.095-2.768.122v3.309h2.94c-.051-.889-.108-2.033-.172-3.432zm-1.06 9.966l.712-.56c.51.482 1.011.997 1.503 1.544l-.793.643a24.845 24.845 0 0 0-1.421-1.627zm-72.42 10.27l-.177.287a86.743 86.743 0 0 1 3.336 3.24l-.752.847a60.396 60.396 0 0 0-3.117-3.212c-.893 1.412-1.814 2.593-2.762 3.54h5.62a112.693 112.693 0 0 1-.138 2.667c-.045 1.358-.665 2.037-1.859 2.037a47.59 47.59 0 0 1-1.777-.041 13.44 13.44 0 0 0-.192-1.094c.611.1 1.194.155 1.75.164.657.01 1.007-.406 1.053-1.244.027-.438.055-.948.082-1.531h-3.623v5.482c0 .51.273.766.82.766h2.243c.72 0 1.125-.237 1.216-.711.11-.438.192-.985.246-1.64.356.145.716.277 1.08.396a15.345 15.345 0 0 1-.341 1.668c-.228.847-.87 1.271-1.928 1.271h-2.72c-1.122 0-1.682-.556-1.682-1.668v-6.357c-.292.273-.58.524-.862.752a22.008 22.008 0 0 0-.629-.985c1.495-1.14 2.78-2.684 3.856-4.635h1.258zm6.55.095h1.093v11.361c0 1.112-.551 1.673-1.654 1.682-.383 0-1.098-.004-2.147-.014a9.605 9.605 0 0 0-.218-1.244c.966.082 1.645.123 2.037.123.592 0 .889-.291.889-.875v-11.033zm-1.805 9.639h-1.053v-8.422h1.053v8.422zm11.812-8.75c1.887-.018 3.628-.205 5.223-.56l.355 1.052c-1.804.237-3.34.392-4.607.465v3.185h4.99v.93h-1.955v7.164h-1.012v-7.164h-2.023v.67c0 2.798-.67 4.977-2.01 6.535-.218-.282-.46-.574-.724-.875 1.175-1.285 1.763-3.185 1.763-5.701v-5.701zm-7.287 6.139h2.79v-1.3h.984v1.3h2.68v.875h-2.68v3.568c0 .966-.465 1.45-1.395 1.45-.392 0-.834-.005-1.326-.015-.037-.3-.087-.647-.15-1.039.528.055.943.082 1.244.082.428 0 .642-.232.642-.697v-3.35h-2.789v-.874zm-.383-2.557h2.202a20.271 20.271 0 0 0-1.094-1.586l.738-.52c.3.365.688.88 1.162 1.545l-.772.56h1.804c.497-.715.955-1.421 1.374-2.118l.971.547a53.86 53.86 0 0 1-1.264 1.572h2.07v.875h-7.19v-.875zm.438-3.172h2.953a37.46 37.46 0 0 0-.67-1.217l.875-.41c.283.465.547.934.793 1.408l-.458.219h2.905v.875h-6.398v-.875zm.998 7.219l.93.437a38.81 38.81 0 0 1-1.463 2.79 10.07 10.07 0 0 0-.903-.493c.447-.693.926-1.604 1.436-2.734zm3.937.068c.51.693.957 1.33 1.34 1.914l-.875.602a22.382 22.382 0 0 0-1.271-1.983l.806-.533zm8.668 3.719c1.668-.278 3.013-.707 4.034-1.285-.78-.538-1.486-1.244-2.12-2.12l.718-.546h-1.06v-5.729h4.8l.013-1.258h-5.892v-.957h12.55v.957h-5.605c0 .452-.002.87-.007 1.258h4.532v6.399h-1.039v-.67h-3.828c-.237 1.08-.613 1.911-1.128 2.495 1.828.67 4.373 1 7.636.991-.228.401-.415.766-.56 1.094-3.62-.1-6.278-.545-7.978-1.333-1.048.692-2.527 1.25-4.437 1.675a10.893 10.893 0 0 0-.629-.971zm2.612-7.274h3.732c.01-.437.016-.93.02-1.476h-3.752v1.476zm3.718.916h-3.718v1.477h3.602a15.2 15.2 0 0 0 .116-1.477zm.923 1.477h3.671v-1.477h-3.54a15.49 15.49 0 0 1-.13 1.477zm3.671-3.87h-3.5a109.62 109.62 0 0 1-.02 1.477h3.52v-1.476zm-5.974 6.837c.492-.424.854-1.103 1.087-2.037h-3.35c.629.875 1.383 1.554 2.263 2.037zm16.953-5.14h1.353c-.419.41-.852.797-1.299 1.161h4.977v.998c-2.935 3.181-6.85 5.155-11.744 5.92a8.466 8.466 0 0 0-.615-1.025c2.224-.32 4.215-.861 5.974-1.627-.264-.346-.642-.77-1.135-1.272l.82-.601c.466.483.89.961 1.272 1.435 1.532-.783 2.849-1.74 3.951-2.87H291a24.768 24.768 0 0 1-5.072 2.952 11.642 11.642 0 0 0-.657-.93 24.763 24.763 0 0 0 6.864-4.142zm-2.065-5.497h1.381c-.465.501-.939.97-1.422 1.408h6.44v.93c-3.136 2.525-6.941 4.407-11.416 5.646a5.437 5.437 0 0 0-.63-.957c1.878-.492 3.565-1.052 5.06-1.681a31.599 31.599 0 0 0-1.3-1.34l.766-.602a38.28 38.28 0 0 1 1.49 1.518c1.668-.757 3.131-1.609 4.39-2.557h-5.893c-.948.812-2.074 1.586-3.377 2.325a7.56 7.56 0 0 0-.752-.862c2.087-1.112 3.841-2.388 5.263-3.828z" fill="#666"/><path d="M31.477 146.825v-9.734h3.978l.321-1.381h-5.448v-1.818h13.344v1.818h-5.859c-.127.488-.257.948-.39 1.38h5.1v9.722h-1.968v-.807h-7.11v.82h-1.968zm9.078-7.957h-7.11v1.819h7.11v-1.819zm-7.11 5.36h7.11v-1.832h-7.11v1.832zm17.063 2.42a30.434 30.434 0 0 0-.492-2.12c1.107.046 1.884.069 2.33.069.329 0 .573-.028.732-.082a.9.9 0 0 0 .602-.68c.032-.158.067-.684.106-1.58.038-.895.062-1.687.071-2.375h-4.265c-.141 2.917-1.44 5.264-3.897 7.04-.474-.61-.97-1.211-1.49-1.804 1.03-.67 1.806-1.425 2.328-2.266.522-.84.823-1.65.905-2.427.083-.777.142-2.22.178-4.33h-3.11v-1.887h13.002v1.887h-7.8l-.055 1.982h6.365l-.158 4.259-.061 1.224c0 .943-.167 1.663-.5 2.16a1.803 1.803 0 0 1-1.387.83c-.592.057-1.727.09-3.404.1zm7.697-2.502a89.553 89.553 0 0 0 4.375-.684 25.43 25.43 0 0 0-.082 1.107c.893-1.695 1.408-3.887 1.545-6.576.018-.446.032-1.18.041-2.201h-.97v-1.682h7.327v1.573l-1.052 2.16h1.9v1.627c-.328 1.54-.925 2.903-1.791 4.088a7.95 7.95 0 0 0 2.324 1.476 22.6 22.6 0 0 0-1.203 1.737 10.324 10.324 0 0 1-2.324-1.86c-.802.757-1.75 1.427-2.844 2.01a17.096 17.096 0 0 0-1.135-1.668c1.103-.51 2.033-1.126 2.79-1.846-.62-.93-1.149-1.996-1.586-3.199-.283 2.89-1.099 5.118-2.448 6.686a12.01 12.01 0 0 0-1.176-1.504l-3.363.629-.328-1.873zm1.941-6.59c.338-.01.72-.023 1.149-.041.3-.52.624-1.09.97-1.71l1.518.835c-1.157 1.941-2.119 3.39-2.885 4.347.775-.073 1.477-.16 2.106-.26a13.93 13.93 0 0 0-.137 1.655c-1.74.173-3.071.369-3.992.588l-.451-1.545c.528-.456 1.148-1.226 1.86-2.31-.666.054-1.204.109-1.614.163l-.506-1.558c.702-.884 1.472-2.352 2.31-4.403l1.71.684c-.82 1.513-1.5 2.698-2.038 3.555zm5.715-.793c.702 2.315 1.49 4.101 2.366 5.36a7.732 7.732 0 0 0 1.148-2.626h-1.996v-1.654l.957-2.051h-2.461c0 .319-.005.643-.014.97zm183.317 3.898h-1.71v1.518H249v1.681h-1.531v1.73c.446.055 1.392.082 2.837.082 1.376 0 3.21-.025 5.503-.075-.237.592-.456 1.24-.657 1.941-3.64 0-6.187-.043-7.639-.13-1.451-.086-2.494-.651-3.127-1.695-.192.82-.445 1.538-.759 2.153a99.126 99.126 0 0 0-1.436-1.545c.593-1.185.885-2.889.875-5.113h1.75c0 .798-.03 1.545-.088 2.242.227.57.544 1.028.95 1.374v-4.163h-3.446v-1.682h2.666v-1.257h-2.2v-1.682h2.2v-1.75h1.873v1.75h2.024v1.682h-2.024v1.257h2.407v1.682zm4.566.205c.757.328 1.381.574 1.873.738-.127 1.085-.273 1.792-.437 2.12-.265.793-.962 1.19-2.092 1.19h-1.627c-1.24 0-1.86-.657-1.86-1.97v-4.252h3.473v-1.968h-3.746v-1.668h5.606v5.304h-3.473v2.256c0 .42.228.63.684.63h.628c.37 0 .612-.103.728-.309.117-.205.198-.895.243-2.07zm2.598-2.01h1.955v-3.5h1.914v3.5h2.256v-4.511h1.941v1.422h4.197v1.654h-4.197v1.435h5.305v1.682h-13.371v-1.682zm11.252 2.844l1.394 1.367c-2.78 2.598-6.69 4.202-11.73 4.813a26.764 26.764 0 0 0-.97-1.914c2.287-.182 4.31-.572 6.07-1.17v-3.943h1.913v3.165c1.29-.63 2.398-1.402 3.323-2.318zm-7.82-.656l1.34 1.176a29.665 29.665 0 0 1-3.542 2.884c-.291-.41-.674-.888-1.148-1.435a20.08 20.08 0 0 0 3.35-2.625zm22.175 1.477c.666.246 1.285.442 1.86.587-.196 1.95-.372 3.088-.527 3.412a1.538 1.538 0 0 1-.697.724c-.31.16-.709.24-1.196.24h-1.121c-1.331 0-1.997-.762-1.997-2.284v-8.203h-3.54v4.389c0 2.798-.99 4.922-2.967 6.37a18.4 18.4 0 0 0-1.573-1.599c1.677-1.14 2.516-2.935 2.516-5.386v-5.702h7.725v9.735c0 .465.173.683.52.656h.245c.292 0 .475-.136.55-.407.076-.27.143-1.115.202-2.532zm3.446-4.444l1.4-1.148-1.373.04a36.14 36.14 0 0 0-.451-1.859c5.204-.073 8.987-.205 11.347-.396l.602 1.818-4.867.212v4.163h1.982l-1.271-.97a47.267 47.267 0 0 0 2.297-3.145l1.668 1.121c-.739.98-1.52 1.978-2.345 2.994h3.288v1.819h-5.62v2.488c0 .706-.14 1.263-.42 1.671-.28.408-.706.64-1.278.694-.572.055-1.51.087-2.813.096-.091-.61-.25-1.276-.478-1.996.847.082 1.544.123 2.091.123.575 0 .862-.32.862-.957v-2.12h-5.633v-1.818h3.322c-.825-1.12-1.595-2.064-2.31-2.83zm3.896 1.572l-1.559 1.258h2.284v-4.088l-3.165.11a69.542 69.542 0 0 1 2.44 2.72zm17.172.22h3.527v.874h-3.049c1.313.78 2.944 1.304 4.895 1.572a9.13 9.13 0 0 0-.807 1.532 15.125 15.125 0 0 1-1.148-.301v1.053l-3.138 1.633 2.03.609-1.38 1.135a314.41 314.41 0 0 0-7.123-2.12l1.039-1.093 3.65.97 2.502-1.08h-7.164v-1.162c-.429.141-.861.27-1.299.383a10.051 10.051 0 0 0-.793-1.436c2.106-.464 3.732-1.03 4.88-1.695h-3.089v-.875h3.555v.588c.228-.16.433-.324.615-.492v-2.024h-3.896v1.614h-1.586v-2.858h5.482v-.588h-4.88v-1.271H310.7v1.271h-4.88v.588h5.482v2.858h-1.586v-1.614h-3.897v2.01c.2.173.415.335.643.486v-.568zm-2.762 2.474l1.176-.739c.401.42.797.866 1.19 1.34l-.506.342h3.506a15.71 15.71 0 0 1-4.067-2.105 20.045 20.045 0 0 1-4.129 2.105h3.582a14.85 14.85 0 0 0-.752-.943zm-2.994-3.883h2.844v.889h-2.844v-.889zm5.756 0h2.83v.889h-2.83v-.889zm9.05 7.52c-.09-.775-.2-1.44-.327-1.997a5.85 5.85 0 0 0 1.025.123c.488 0 .764-.241.83-.724.067-.483.1-1.103.1-1.86h-1.996c-.014 2.83-.46 4.95-1.34 6.358a16.55 16.55 0 0 0-1.614-1.34c.757-1.23 1.14-2.994 1.149-5.291v-4.635h6.419l-.062-2.256h1.942l.02 2.256h1.866a36.688 36.688 0 0 0-1.162-1.422l1.436-.779c.319.346.775.889 1.367 1.627l-1.053.574h1.504v1.64h-3.924c.046 1.418.144 2.646.294 3.685a20.325 20.325 0 0 0 1.607-3.014l1.681.78c-.802 1.772-1.706 3.335-2.713 4.689.341.888.649 1.333.922 1.333.105 0 .192-.067.26-.199s.144-.461.226-.987a9.88 9.88 0 0 0 .13-1.364c.41.237.993.515 1.75.834-.028.492-.142 1.14-.342 1.941-.2.802-.465 1.315-.793 1.538-.328.224-.659.335-.991.335-.994 0-1.816-.62-2.468-1.86a17.01 17.01 0 0 1-2.078 1.915 10.703 10.703 0 0 0-1.422-1.45 15.945 15.945 0 0 0 2.748-2.515c-.333-1.367-.558-3.254-.677-5.66h-4.682v1.613h3.896c0 .137-.027.931-.082 2.382-.055 1.452-.178 2.344-.37 2.677a2.507 2.507 0 0 1-.74.817c-.304.212-1.082.29-2.335.235zm11.266-9.612h5.223v-2.023h1.914v2.023h5.305v1.778h-4.738c1.482 2.31 3.266 4.078 5.353 5.304-.392.41-.88.994-1.463 1.75-1.818-1.522-3.304-3.254-4.457-5.195v3.705h2.748v1.723h-2.748v2.379h-1.914v-2.38h-2.762v-1.654a21.33 21.33 0 0 1-1.681 1.586 26.9 26.9 0 0 0-1.395-1.695 18.411 18.411 0 0 0 5.318-5.523h-4.703v-1.778zm2.523 7.342h2.7v-3.575a21.21 21.21 0 0 1-2.7 3.575z" fill="#333"/><path d="M191 127v141.89" stroke="#DD3730" stroke-dasharray="3"/><path fill="#FFF" d="M178 187h25v37h-25z"/><path d="M54.06 4.026c-3.707.48-7.54.463-11.514-.105-3.997-.571-8.12-1.701-12.38-3.444L29.003 0l-1.171.477C23.574 2.22 19.453 3.35 15.454 3.92c-3.97.568-7.807.585-11.514.105L0 3.516.052 8.12c.213 19.554 3.25 32.553 8.134 41.26 5.129 9.143 12.13 13.526 20.016 15.654l.8.216.798-.216c7.884-2.128 14.887-6.511 20.014-15.655 4.89-8.702 7.925-21.705 8.136-41.26L58 3.517l-3.94.51zM26.503 43.8L28.7 29.756h-9.388l11.985-15.651-.6 12.24h7.991L26.503 43.8z" fill="url(#b)" fill-rule="nonzero" transform="translate(162 173)"/><path d="M135.445 35.986h7.422V52.08h-1.543v-1.973h-4.336v1.973h-1.543V35.986zm-10.722.957h2.724c.013-1.048.017-2.213.01-3.496H129c0 1.296-.007 2.461-.02 3.496h4.551c-.065 5-.15 8.926-.254 11.778-.052 2.343-.937 3.47-2.656 3.379-.508 0-1.256-.02-2.246-.059a53.633 53.633 0 0 0-.313-1.7c.912.118 1.654.177 2.227.177.872.026 1.348-.593 1.426-1.856.143-3.086.228-6.497.254-10.234h-3.008c-.013.996-.033 1.842-.059 2.539-.052 5.091-1.276 9.01-3.672 11.758a22.52 22.52 0 0 0-1.152-1.309c2.162-2.37 3.262-5.905 3.3-10.605.027-.684.046-1.478.06-2.383h-2.715v-1.485zm16.601.489h-4.336v11.27h4.336v-11.27zm9.649 1.406h4.902v-1.895h-5.82v-1.347h5.82v-2.13h1.445v2.13h6.133v1.347h-6.133v1.895h4.903v5.605h-1.407v-.605h-3.496v1.406l.508-.781a230.442 230.442 0 0 1 5.567 3.144l-.899 1.387a66.636 66.636 0 0 0-5.176-3.203v4.238h-1.445V44.99a23.37 23.37 0 0 1-5.41 4.434c-.222-.339-.573-.762-1.055-1.27 2.37-1.172 4.362-2.61 5.977-4.316h-3.008v.605h-1.406v-5.605zm1.347 11.855c3.243.052 7.032.026 11.368-.078-.144.43-.326.944-.547 1.543-4.31.026-8.015 0-11.114-.078-2.213-.026-3.763-.788-4.648-2.285-.534.495-1.315 1.367-2.344 2.617l-.8-1.621a180.582 180.582 0 0 1 2.5-2.383v-6.582h-2.325v-1.445h3.828v8.36c.795 1.288 2.155 1.94 4.082 1.952zm8.496-10.586h-3.496v2.461h3.496v-2.46zm-8.437 2.461h3.496v-2.46h-3.496v2.46zm-5.879-8.75c.664.808 1.576 2.038 2.734 3.692l-1.386.976c-1.055-1.653-1.92-2.93-2.598-3.828l1.25-.84zm28.73 1.192c2.696-.026 5.183-.293 7.461-.801l.508 1.504c-2.578.338-4.772.56-6.582.664v4.55h7.13v1.329h-2.794V52.49h-1.445V42.256h-2.89v.957c0 3.997-.958 7.11-2.872 9.336-.312-.404-.657-.82-1.035-1.25 1.68-1.836 2.52-4.55 2.52-8.145V35.01zm-10.41 8.77h3.985v-1.856h1.406v1.855h3.828v1.25h-3.828v5.098c0 1.38-.664 2.07-1.992 2.07-.56 0-1.192-.006-1.895-.02a35.866 35.866 0 0 0-.215-1.484c.756.078 1.348.118 1.778.118.612 0 .918-.332.918-.997V45.03h-3.985v-1.25zm-.547-3.653h3.145a28.959 28.959 0 0 0-1.563-2.266l1.055-.742c.43.521.983 1.257 1.66 2.207l-1.103.801h2.578a55.137 55.137 0 0 0 1.963-3.027l1.387.78a76.943 76.943 0 0 1-1.807 2.247h2.959v1.25h-10.274v-1.25zm.625-4.531h4.22a53.517 53.517 0 0 0-.958-1.739l1.25-.586c.404.665.781 1.335 1.133 2.012l-.654.313h4.15v1.25h-9.14v-1.25zm1.426 10.312l1.328.625c-.703 1.472-1.4 2.8-2.09 3.985a14.386 14.386 0 0 0-1.289-.704c.638-.99 1.322-2.291 2.051-3.906zm5.625.098c.73.99 1.367 1.9 1.914 2.734l-1.25.86a31.974 31.974 0 0 0-1.816-2.832l1.152-.762zm19.531-3.73v-1.29h5.02v-2.988h-5.098v-1.426h5.098v-3.144h1.563v3.144h5.312v1.426h-5.312v2.988h4.16v1.172c-.918 2.604-2.224 4.714-3.916 6.328 1.464 1.153 3.278 2.032 5.44 2.637a44.272 44.272 0 0 0-1.25 1.504c-2.117-.86-3.91-1.904-5.382-3.135-1.712 1.29-3.714 2.386-6.006 3.291a16.5 16.5 0 0 0-1.035-1.387c2.324-.755 4.31-1.731 5.957-2.93-1.445-1.575-2.529-3.639-3.252-6.19h-1.299zm-7.246 1.445c.983-.28 1.934-.557 2.852-.83v-4.21h-2.598v-1.347h2.598v-3.79h1.504v3.79h2.285v1.348h-2.285v3.74c.749-.241 1.478-.479 2.187-.713 0 .625.013 1.133.04 1.523-.736.235-1.478.472-2.227.713v6.3c0 1.38-.651 2.076-1.953 2.089-.521.013-1.146.013-1.875 0-.078-.547-.163-1.1-.254-1.66.768.078 1.347.117 1.738.117.56 0 .84-.293.84-.879v-5.469c-.879.293-1.764.593-2.656.899l-.196-1.621zm16.29-1.446h-6.24c.585 2.058 1.562 3.796 2.929 5.215a12.528 12.528 0 0 0 3.31-5.215zm23.32 6.446a20.501 20.501 0 0 0-1.25 1.562c-3.249-2.298-5.847-5.543-7.793-9.736v12.08h-1.563v-12.12c-1.823 3.907-4.485 7.25-7.988 10.03-.3-.417-.677-.911-1.133-1.484 3.496-2.533 6.283-5.71 8.36-9.532h-7.735v-1.445h8.496V33.35h1.563v4.726h8.535v1.445h-7.822c2.168 4.245 4.944 7.312 8.33 9.2zm-7.13-13.985l.997-1.093a39.53 39.53 0 0 1 3.36 2.558l-1.094 1.211a49.87 49.87 0 0 0-3.262-2.676zm14.864-1.132l-.254.41a123.919 123.919 0 0 1 4.766 4.629l-1.074 1.21a86.28 86.28 0 0 0-4.453-4.59c-1.277 2.019-2.592 3.705-3.946 5.06h8.028a161.79 161.79 0 0 1-.196 3.808c-.065 1.94-.95 2.91-2.656 2.91-.69 0-1.536-.02-2.54-.059a19.2 19.2 0 0 0-.273-1.562c.873.143 1.706.221 2.5.234.938.013 1.44-.58 1.504-1.777.04-.625.079-1.354.118-2.188h-5.176v7.832c0 .73.39 1.094 1.172 1.094h3.203c1.028 0 1.608-.338 1.738-1.015.156-.625.274-1.407.352-2.344.507.208 1.022.397 1.543.566a21.67 21.67 0 0 1-.489 2.383c-.325 1.211-1.243 1.816-2.754 1.816h-3.886c-1.602 0-2.403-.794-2.403-2.382v-9.082c-.416.39-.826.748-1.23 1.074-.39-.638-.69-1.107-.899-1.406 2.136-1.628 3.972-3.835 5.508-6.621h1.797zm9.356.136h1.562v16.23c0 1.59-.788 2.39-2.363 2.403-.547 0-1.57-.006-3.067-.02a13.721 13.721 0 0 0-.312-1.777c1.38.117 2.35.176 2.91.176.846 0 1.27-.417 1.27-1.25V33.74zm-2.579 13.77h-1.503V35.479h1.503v12.03zm16.875-12.5c2.696-.026 5.183-.293 7.461-.801l.508 1.504c-2.578.338-4.772.56-6.582.664v4.55h7.13v1.329h-2.794V52.49h-1.445V42.256h-2.89v.957c0 3.997-.958 7.11-2.872 9.336-.312-.404-.657-.82-1.035-1.25 1.68-1.836 2.52-4.55 2.52-8.145V35.01zm-10.41 8.77h3.985v-1.856h1.406v1.855h3.828v1.25h-3.828v5.098c0 1.38-.664 2.07-1.992 2.07-.56 0-1.192-.006-1.895-.02a35.866 35.866 0 0 0-.215-1.484c.756.078 1.348.118 1.778.118.612 0 .918-.332.918-.997V45.03h-3.985v-1.25zm-.547-3.653h3.145a28.96 28.96 0 0 0-1.563-2.266l1.055-.742c.43.521.983 1.257 1.66 2.207l-1.103.801h2.578a55.137 55.137 0 0 0 1.963-3.027l1.387.78a76.943 76.943 0 0 1-1.807 2.247h2.959v1.25h-10.274v-1.25zm.625-4.531h4.22a53.518 53.518 0 0 0-.958-1.739l1.25-.586c.404.665.781 1.335 1.133 2.012l-.654.313h4.15v1.25h-9.14v-1.25zm1.426 10.312l1.328.625c-.703 1.472-1.4 2.8-2.09 3.985a14.386 14.386 0 0 0-1.289-.704c.638-.99 1.322-2.291 2.051-3.906zm5.625.098c.73.99 1.367 1.9 1.914 2.734l-1.25.86a31.974 31.974 0 0 0-1.816-2.832l1.152-.762zM132.594 81.084a20.633 20.633 0 0 0 4.023-3.525c-.755-1.921-1.201-5.023-1.338-9.307h-7.373v2.969h5.625c-.078 2.487-.182 4.577-.312 6.27-.157 1.796-1.029 2.695-2.617 2.695-.534 0-1.244-.026-2.13-.079a31.277 31.277 0 0 0-.312-1.62c.912.13 1.673.195 2.285.195.756 0 1.179-.521 1.27-1.563.104-1.198.182-2.682.234-4.453h-4.053c-.104 4.525-1.018 7.871-2.744 10.04a73.232 73.232 0 0 0-1.015-1.349c1.471-1.953 2.207-5.039 2.207-9.257v-5.293h8.877a287.448 287.448 0 0 1-.127-3.34h1.62c-.006.918.01 2.031.05 3.34h6.728v1.445h-6.68c.13 3.503.453 6.12.967 7.852 1.263-1.713 2.302-3.653 3.116-5.82l1.543.644c-1.12 2.65-2.465 4.954-4.034 6.914.957 1.946 1.892 2.92 2.803 2.92.332 0 .586-.303.762-.908.182-.951.325-1.928.43-2.93.56.221 1.054.403 1.484.547-.196 1.393-.41 2.532-.645 3.418-.247.95-.794 1.465-1.64 1.543-.795.052-1.556-.215-2.285-.801-.788-.606-1.459-1.439-2.012-2.5a22.02 22.02 0 0 1-3.594 3.125c-.339-.39-.71-.781-1.113-1.172zm5.605-16.66l.82-1.016a36.459 36.459 0 0 1 3.067 1.953l-.938 1.172a37.616 37.616 0 0 0-2.949-2.11zm25.43 13.066c-.339.339-.781.795-1.328 1.367-3.151-2.428-5.664-5.54-7.54-9.336v7.735h4.473v1.367h-4.472v4.004h-1.524v-4.004h-4.629v-1.367h4.63V69.52c-1.66 3.308-4.206 6.498-7.637 9.57a33.62 33.62 0 0 0-1.29-1.171c3.705-3.04 6.475-6.257 8.311-9.649h-7.88v-1.445h8.495V63.31h1.524v3.515h8.496v1.445h-7.94c2.07 3.894 4.84 6.967 8.31 9.22zm6.406 3.8l-1.172 1.18a36.398 36.398 0 0 0-3.623-3.427l1.035-1.074c1.621 1.308 2.875 2.415 3.76 3.32zm17.735-15.245v5.488c0 2.943-.157 5.17-.47 6.68-.325 1.562-.956 3.047-1.894 4.453a60.316 60.316 0 0 0-1.172-1.348 11.981 11.981 0 0 0 1.543-3.867c.274-1.315.41-3.262.41-5.84V64.6h14.454v10.664c0 2.343.15 3.978.449 4.902.13.3.293.45.488.45.208 0 .345-.229.41-.684.104-.69.196-1.79.274-3.301.599.234 1.093.41 1.484.527-.13 1.367-.267 2.468-.41 3.301-.234 1.29-.84 1.934-1.816 1.934-.73 0-1.335-.489-1.817-1.465-.43-.899-.644-2.774-.644-5.625v-9.258h-11.29zm1.21 2.285l1.211-.898a267.694 267.694 0 0 1 3.301 4.648 71.912 71.912 0 0 0 2.813-5.039l1.328.645a66.84 66.84 0 0 1-3.184 5.761 403.73 403.73 0 0 1 3.926 5.82l-1.367.938a355.096 355.096 0 0 0-3.477-5.312 69.159 69.159 0 0 1-4.12 5.625 12.75 12.75 0 0 0-1.27-.957 63.622 63.622 0 0 0 4.453-6.055 231.849 231.849 0 0 0-3.614-5.176zm21.563 6.758c.404 2.5-.17 3.9-1.719 4.2-.43.09-1.028.097-1.797.019a18.675 18.675 0 0 0-.37-1.407v4.668h-1.407V64.463h5.488v1.367A219.498 219.498 0 0 1 209 71.26c.833 1.21 1.348 2.487 1.543 3.828zm-.254 5.312h7.95c1.067-2.825 1.913-5.267 2.538-7.324l1.621.567c-.481 1.38-1.315 3.632-2.5 6.757h3.301v1.446h-12.91V80.4zm7.656-16.894l-.254.586c1.524 2.565 3.542 4.531 6.055 5.898-.43.521-.788.977-1.074 1.367-2.383-1.627-4.297-3.587-5.742-5.878-1.459 2.24-3.425 4.257-5.899 6.054a16.987 16.987 0 0 0-1.015-1.23c2.838-1.888 4.954-4.154 6.347-6.797h1.582zm-9.687 14.375c.898-.091 1.185-1.042.86-2.852-.183-1.015-.73-2.2-1.641-3.554a140.247 140.247 0 0 0 1.718-5.664h-2.539v11.933a4.608 4.608 0 0 0 1.602.137zm4.062-7.266h8.985v1.406h-8.985v-1.406zm-.879 3.34l1.329-.508a72.768 72.768 0 0 1 1.855 5.469l-1.523.488a51.732 51.732 0 0 0-1.66-5.449zm3.868-.723l1.386-.43a62.056 62.056 0 0 1 1.465 5.118l-1.562.41a37.887 37.887 0 0 0-1.29-5.098zm9.023 8.086c2.383-.397 4.303-1.009 5.762-1.836-1.114-.768-2.123-1.777-3.028-3.027l1.026-.781h-1.514V67.49h6.856l.02-1.797h-8.419v-1.367h17.93v1.367h-8.008c0 .645-.003 1.244-.01 1.797h6.475v9.14h-1.484v-.956h-5.47c-.338 1.543-.875 2.73-1.61 3.564 2.61.957 6.246 1.43 10.908 1.416a18.037 18.037 0 0 0-.801 1.563c-5.17-.143-8.968-.778-11.397-1.905-1.497.99-3.61 1.788-6.338 2.393-.26-.456-.56-.918-.898-1.387zm3.73-10.39h5.333c.013-.625.022-1.328.029-2.11h-5.361v2.11zm5.313 1.308h-5.312v2.11h5.146c.085-.638.14-1.341.166-2.11zm1.318 2.11h5.245v-2.11h-5.06a22.13 22.13 0 0 1-.185 2.11zm5.245-5.528h-5a176.03 176.03 0 0 1-.03 2.11h5.03v-2.11zm-8.536 9.766c.703-.605 1.221-1.576 1.553-2.91h-4.785c.898 1.25 1.976 2.22 3.232 2.91zm19.707-13.613c3.737 0 7.611-.274 11.621-.82l.547 1.464c-1.797.17-3.538.31-5.224.42.032 1.823.094 3.486.185 4.99h5.293v1.407h-5.185c.384 4.524 1.416 7.226 3.095 8.105.365.156.6.02.704-.41.117-.664.227-1.64.332-2.93.507.235.976.41 1.406.528-.13 1.224-.274 2.233-.43 3.027-.221 1.016-.729 1.523-1.523 1.523-.964 0-1.882-.573-2.754-1.718-1.244-1.713-2.009-4.42-2.295-8.125h-4.287v6.914c1.406-.808 2.617-1.504 3.633-2.09.078.599.175 1.1.293 1.504-1.667.95-2.982 1.732-3.946 2.344-.377.247-.748.54-1.113.878l-1.016-1.289c.443-.377.664-.937.664-1.68V64.972zm-6.992 7.539c2.005-2.709 3.561-5.768 4.668-9.18l1.426.508a43.05 43.05 0 0 1-2.129 4.98v13.77h-1.406v-11.27a28.035 28.035 0 0 1-2.012 2.832 30.245 30.245 0 0 0-.547-1.64zm12.432-6.387a146.07 146.07 0 0 1-3.955.176v4.726h4.199c-.072-1.27-.153-2.903-.244-4.902zm-1.514 14.238l1.016-.8c.729.69 1.445 1.425 2.148 2.207l-1.133.918a35.494 35.494 0 0 0-2.03-2.325z" fill="#DD3730"/></g></svg>