<svg width="382" height="302" viewBox="0 0 382 302" xmlns="http://www.w3.org/2000/svg" xmlns:xlink="http://www.w3.org/1999/xlink"><title>Group 35</title><defs><path id="a" d="M0 0h380v300H0z"/><linearGradient x1="121.374%" y1="0%" x2="30.206%" y2="82.053%" id="b"><stop stop-color="#FFC194" offset="0%"/><stop stop-color="#DD3730" offset="100%"/></linearGradient><linearGradient x1="154.265%" y1="-9.314%" x2="5.925%" y2="86.373%" id="c"><stop stop-color="#FFC194" offset="0%"/><stop stop-color="#DD3730" offset="100%"/></linearGradient></defs><g fill="none" fill-rule="evenodd"><g transform="translate(1 1)"><use fill="#FFF" xlink:href="#a"/><path stroke="#DD3730" d="M-.5-.5h381v301H-.5z"/></g><path d="M52.677 0H31.32c-.751 0-1.36.598-1.36 1.335v61.559c0 .737.609 1.335 1.36 1.335h21.356c.75 0 1.36-.598 1.36-1.335V1.334c0-.736-.61-1.334-1.36-1.334zM41.999 52.501c-2.625 0-4.751-2.09-4.751-4.664s2.128-4.664 4.75-4.664c2.626 0 4.752 2.09 4.752 4.664s-2.129 4.664-4.751 4.664zm8.74-23.813c0 .737-.608 1.335-1.359 1.335H34.62c-.75 0-1.36-.598-1.36-1.335v-1.334c0-.74.61-1.338 1.36-1.338h14.76c.75 0 1.36.598 1.36 1.338v1.334zm0-6.676c0 .737-.608 1.335-1.359 1.335H34.62c-.75 0-1.36-.598-1.36-1.335v-1.338c0-.737.61-1.335 1.36-1.335h14.76c.75 0 1.36.598 1.36 1.335v1.338zm0-6.677c0 .74-.608 1.335-1.359 1.335H34.62c-.75 0-1.36-.598-1.36-1.335V14c0-.737.61-1.335 1.36-1.335h14.76c.75 0 1.36.598 1.36 1.335v1.335zm0-6.677c0 .737-.608 1.335-1.359 1.335H34.62c-.75 0-1.36-.598-1.36-1.335V7.323c0-.74.61-1.337 1.36-1.337h14.76c.75 0 1.36.598 1.36 1.335v1.337zM83.998 7.11c0-.63-.54-1.188-1.21-1.248-6.331-.564-12.665-1.13-18.996-1.693-.071-.007-.268 0-.478.06l-7.402 1.834v57.099l7.662 1.064c.092.02.213 0 .22 0 6.332-.564 12.666-1.193 18.997-1.757.67-.06 1.21-.619 1.21-1.25V7.112l-.003-.002zm-18.483 3.91a1.12 1.12 0 0 1 1.21-1.139c4.376.304 8.752.608 13.128.91.669.046 1.21.6 1.21 1.237v1.152c0 .636-.541 1.123-1.21 1.085-4.376-.245-8.752-.493-13.128-.735a1.303 1.303 0 0 1-1.21-1.29v-1.222.002zm15.548 19.463c0 .637-.541 1.16-1.21 1.165l-13.128.14a1.199 1.199 0 0 1-1.21-1.21v-1.22c0-.676.541-1.222 1.21-1.222 4.376.013 8.752.026 13.128.036.669.003 1.21.52 1.21 1.157v1.154zm-1.21-4.63c-4.376-.052-8.752-.1-13.128-.152a1.233 1.233 0 0 1-1.21-1.237v-1.222c0-.675.541-1.208 1.21-1.193 4.376.109 8.752.217 13.128.328.669.015 1.21.546 1.21 1.185v1.152c0 .636-.541 1.147-1.21 1.139zm1.21-6.904c0 .637-.541 1.134-1.21 1.114l-13.128-.444a1.266 1.266 0 0 1-1.21-1.262v-1.222a1.15 1.15 0 0 1 1.21-1.165c4.376.204 8.752.413 13.128.619.669.03 1.21.572 1.21 1.211v1.155-.006zM20.207 4.167L1.21 5.86C.54 5.92 0 6.478 0 7.107v54.107c0 .629.54 1.188 1.21 1.25 6.331.564 12.665 1.193 18.997 1.757.007 0 .128.02.22 0l7.662-1.064V6.058l-7.402-1.834c-.21-.06-.41-.065-.478-.06l-.002.003zm-1.725 26.41c0 .675-.54 1.217-1.21 1.209l-13.13-.14c-.67-.005-1.21-.528-1.21-1.164v-1.155c0-.639.54-1.154 1.21-1.157 4.376-.01 8.752-.023 13.13-.036.67 0 1.21.544 1.21 1.222v1.221zm0-6.112c0 .675-.54 1.23-1.21 1.237-4.376.051-8.752.1-13.13.152-.67.008-1.21-.503-1.21-1.14v-1.151c0-.64.54-1.167 1.21-1.185 4.376-.111 8.752-.22 13.13-.328.67-.018 1.21.516 1.21 1.193v1.222zm0-6.11c0 .675-.54 1.242-1.21 1.263l-13.13.443c-.67.02-1.21-.477-1.21-1.113v-1.155c0-.639.54-1.177 1.21-1.21 4.376-.207 8.752-.416 13.13-.62.67-.03 1.21.49 1.21 1.166v1.226zm0-6.112c0 .675-.54 1.252-1.21 1.29-4.376.246-8.752.49-13.13.735-.67.036-1.21-.45-1.21-1.085v-1.152c0-.639.54-1.19 1.21-1.236 4.376-.305 8.752-.609 13.13-.91a1.12 1.12 0 0 1 1.21 1.139v1.221-.002z" transform="translate(241 191)" fill-rule="nonzero" fill="url(#b)"/><path d="M59.277 140.503l.588-.807a98.639 98.639 0 0 1 3.008 1.696l2.652-2.612h-5.824v-.97c.182-.57.358-1.135.527-1.696h-2.14v-.957h2.42c.178-.615.344-1.221.499-1.818h-2.25v-.957h2.496c.16-.634.308-1.258.444-1.873h1.176c-.141.606-.294 1.23-.458 1.873h4.82v.957h-5.066c-.16.592-.328 1.198-.506 1.818h6.118v.957H61.39c-.164.56-.335 1.13-.513 1.71h6.043v.997l-3.117 3.131c.565.337 1.116.68 1.654 1.026l-.71.93c-1.924-1.322-3.747-2.457-5.47-3.405zm-5.086-3.404c1.276-1.878 2.284-4.106 3.022-6.686l1.107.328a37 37 0 0 1-1.093 2.967v10.049h-1.08v-7.8a20.255 20.255 0 0 1-1.477 2.345 15.694 15.694 0 0 0-.479-1.203zm24.965-3.063a50.064 50.064 0 0 1 2.352 3.486 23.35 23.35 0 0 0-1.012.616l-.656-1.115c-.424.028-.861.053-1.313.076v4.634c0 .556.205.834.616.834h.67c.446 0 .701-.227.765-.683.073-.547.119-1.14.137-1.778.3.128.665.26 1.094.397-.073.793-.15 1.408-.233 1.846-.127.793-.606 1.19-1.435 1.19h-1.176c-.994 0-1.49-.57-1.49-1.71v-4.669c-.51.028-1.04.06-1.586.096-.073 1.982-.328 3.365-.766 4.15-.52 1.002-1.49 1.831-2.912 2.488-.2-.283-.433-.588-.697-.916 1.321-.538 2.205-1.245 2.652-2.12.41-.697.631-1.875.663-3.534-.187.014-.376.025-.567.034a7.617 7.617 0 0 0-1.094.178l-.465-1.066c.392-.164.707-.383.943-.657a23.77 23.77 0 0 0 1.928-2.666h-2.98v-.97h4.361a25.416 25.416 0 0 0-.97-1.395l.902-.56c.346.428.733.938 1.162 1.53l-.65.425h4.163v.97h-5.55l.752.329c-.757 1.02-1.5 1.96-2.229 2.816 1.718-.06 3.297-.12 4.737-.185a43.282 43.282 0 0 0-.99-1.524l.874-.547zm-9.2 4.608c.728-.1 1.662-.237 2.802-.41-.055.364-.1.701-.137 1.011-1.14.155-2.443.351-3.91.588l-.219-.984c.57-.584 1.247-1.534 2.03-2.851a242.1 242.1 0 0 0-2.043.144l-.26-.93c.802-1.057 1.668-2.67 2.597-4.84l1.04.41c-.885 1.732-1.691 3.181-2.42 4.348.597-.01 1.134-.023 1.613-.041a74.7 74.7 0 0 0 .861-1.586l1.026.451c-1.04 1.814-2.033 3.377-2.98 4.69zm-1.778 2.87a150.72 150.72 0 0 0 4.69-.984c-.037.474-.055.802-.055.985-1.65.364-3.09.71-4.32 1.039l-.315-1.04zm15.517-9.283h3.534a49.34 49.34 0 0 0 .65-1.886l1.162.355a29.403 29.403 0 0 1-.677 1.531h5.94v11.567h-1.093v-.82h-8.422v.82h-1.094V132.23zm1.094 9.762h8.422v-2.297h-8.422v2.297zm0-3.267h8.422v-2.27h-8.422v2.27zm8.422-5.51h-8.422v2.27h8.422v-2.27zm7.328 6.576h3.5v-1.19h-3.035v-.82h3.035v-1.19h-2.844v-.82h2.844v-1.189h-3.555v-.848h3.555v-1.19h-2.844v-.82h2.844v-1.34h1.012v1.34h3.172v2.01h1.435v.848h-1.435v2.379h-.985v-.37h-2.187v1.19h3.445v.82h-3.445v1.19h4.074v.82h-4.074v1.409h-1.012v-1.409h-3.5v-.82zm-3.227-2.31c.274 1.111.657 2.025 1.149 2.74.488-1.002.793-2.157.916-3.465h-2.734v-.998l2.515-3.104H96.37v-.93h4.047v.93l-2.57 3.172h2.556v.807c-.168 1.69-.58 3.156-1.237 4.395.994.862 2.536 1.297 4.628 1.306 1.732.036 3.741.014 6.03-.068l-.452 1.08-6.057-.028c-2.032 0-3.59-.474-4.675-1.422a8.47 8.47 0 0 1-1.873 1.956 10.646 10.646 0 0 0-.56-.89 7.577 7.577 0 0 0 1.722-1.817c-.61-.775-1.117-1.883-1.518-3.323l.903-.342zm7.739-1.71h2.187v-1.189h-2.187v1.19zm2.187-3.226h-2.187v1.19h2.187v-1.19zm10.145-.246v4.525c0 3.263-.816 5.628-2.447 7.096-.256-.31-.525-.62-.807-.93 1.44-1.267 2.16-3.24 2.16-5.92v-5.81h5.086v10.281c0 .456.16.684.479.684h.314c.292 0 .478-.256.56-.766.092-.702.155-1.458.192-2.27.319.155.665.301 1.039.438a45.14 45.14 0 0 1-.246 2.215c-.146.966-.61 1.449-1.395 1.449h-.724c-.875 0-1.313-.52-1.313-1.559V132.3h-2.898zm-7.205 6.63a15.367 15.367 0 0 0 2.18-4.921h-2.044v-.93h2.133v-2.693h.985v2.693h1.914v.93h-1.914v2.27l.547-.548a50.184 50.184 0 0 1 1.654 1.559l-.738.752a39.149 39.149 0 0 0-1.463-1.545v7.219h-.985v-7.328c-.487 1.545-1.093 2.793-1.818 3.746a36.85 36.85 0 0 0-.451-1.203zm15.517-7.122h5.278a26.367 26.367 0 0 0-.657-.985l.93-.533c.36.474.695.98 1.005 1.518h4.546v3.732h-1.067v-.424h-8.955v2.133c0 2.88-.638 5.068-1.914 6.563a55.908 55.908 0 0 1-.738-.93c1.048-1.249 1.572-3.167 1.572-5.756v-5.318zm1.504 4.785h4.703a55.167 55.167 0 0 0-.615-.916l.916-.506c.351.483.663.957.937 1.422h4.532v.93h-6.973c-.023.496-.059.952-.11 1.367h5.675a66.014 66.014 0 0 1-.205 2.72c-.119 1.258-.807 1.887-2.065 1.887-.683 0-1.399-.009-2.146-.027a14.668 14.668 0 0 0-.22-1.176c.867.091 1.614.137 2.243.137.684 0 1.062-.324 1.135-.971.055-.465.1-1.016.137-1.654h-4.704c-.282 1.677-1.307 3.044-3.076 4.101a19.395 19.395 0 0 0-.697-.916c1.167-.729 1.95-1.508 2.352-2.338.364-.702.57-1.745.615-3.13h-2.434v-.93zm8.531-3.856h-8.955v1.45h8.955v-1.45zm-102.51 25.35h13.59v1.203H33.22v-1.203zm22.79-1.682c-.008.456-.029.905-.06 1.347.61 3.103 2.235 5.393 4.873 6.87-.373.401-.67.757-.888 1.066-2.288-1.608-3.756-3.588-4.403-5.94-.597 2.543-2.237 4.592-4.922 6.146a8.627 8.627 0 0 0-.752-.971c2.799-1.477 4.416-3.555 4.854-6.235.128-.656.196-1.417.205-2.283h1.094zm1.805 1.805c.41-.757.78-1.572 1.108-2.447h-5.38a25.919 25.919 0 0 1-1.32 2.611 6.23 6.23 0 0 0-.984-.588c1.067-1.74 1.841-3.54 2.325-5.4l1.107.314c-.219.716-.46 1.413-.725 2.092h6.153v.97a27.225 27.225 0 0 1-1.23 2.844 5.898 5.898 0 0 0-1.054-.396zm-7.779.055c.42.319.775.565 1.067.738-1.167 2.078-2.115 3.874-2.844 5.387l-1.108-.725c.94-1.422 1.9-3.222 2.885-5.4zm-1.627-5.018a48.42 48.42 0 0 1 2.488 2.72l-.888.821c-.884-1.167-1.682-2.11-2.393-2.83l.793-.71zm16.885 11.088h4.43v-3.664h-3.528v-.957h3.528v-3.309h-2.215c-.337.866-.73 1.727-1.176 2.584-.392-.319-.697-.528-.916-.629.911-1.65 1.55-3.336 1.914-5.058l1.08.287a21.745 21.745 0 0 1-.547 1.86h1.86v-3.009h1.08v3.008h3.595v.957h-3.595v3.309h3.322v.957h-3.322v3.664h4.02v.957h-9.53v-.957zm-2.133-11.908h1.053v2.625l.588-.328c.474.738.88 1.43 1.217 2.078l-.848.547a18.789 18.789 0 0 0-.957-1.791v10.35H63.16v-13.481zm-1.271 3.09l.902.205a43.05 43.05 0 0 1-.684 3.513 7.018 7.018 0 0 0-.943-.26c.274-.993.515-2.146.725-3.458zm18.47 4.115v-.957h7.028v.943c-.62 1.445-1.493 2.66-2.618 3.644 1.089.683 2.458 1.16 4.108 1.428a9.266 9.266 0 0 0-.684 1.04c-1.704-.374-3.126-.978-4.265-1.812-1.23.861-2.707 1.502-4.43 1.92a7.3 7.3 0 0 0-.602-.956c1.655-.347 3.063-.896 4.225-1.648-1.003-.961-1.718-2.162-2.146-3.602h-.616zm-5.154.068a59.763 59.763 0 0 0 1.996-.58v-3.016h-1.818v-.957H77.2v-2.652h1.026v2.652h1.654v.957h-1.654v2.694c.469-.15.952-.31 1.449-.479-.01.292 0 .647.027 1.067-.497.155-.989.312-1.476.471v4.3c0 .994-.442 1.49-1.327 1.49h-1.326a18.746 18.746 0 0 0-.178-1.162c.51.055.926.082 1.245.082.373 0 .56-.218.56-.656v-3.719c-.624.21-1.244.424-1.86.643l-.136-1.135zm12.086-3.062h1.531c-.09.328-.168.66-.232.998h-1.45c-1.048 0-1.572-.502-1.572-1.504v-2.147h-3.035v.506c.01 1.76-.688 3.072-2.092 3.938a7.201 7.201 0 0 0-.738-.834c1.203-.657 1.805-1.691 1.805-3.104v-1.463h5.086v2.953c0 .438.232.657.697.657zm-1.039 2.994h-4.286c.383 1.212 1.039 2.217 1.969 3.014a8.303 8.303 0 0 0 2.317-3.014zm6.754-6.453l.902-.643c1.021.629 2.142 2.242 3.363 4.84 1.705 3.728 3.555 6.002 5.551 6.822l-.957 1.203c-1.996-1.185-3.842-3.682-5.537-7.492a42.327 42.327 0 0 0-.403-.875c-1.057 3.623-3.024 6.44-5.9 8.45a7.456 7.456 0 0 0-.834-1.026c2.958-1.864 4.95-4.812 5.975-8.846-.715-1.194-1.436-2.005-2.16-2.433zm10.254 8.025h2.2v-3.91h4.84v-2.434h-4.019a20.922 20.922 0 0 1-2.064 3.063 7.116 7.116 0 0 0-.848-.766 14.85 14.85 0 0 0 2.912-4.908l1.121.314a24.85 24.85 0 0 1-.601 1.313h9.406v.984h-4.799v2.434h4.567v.957h-4.567v2.953h5.414v.984h-5.414v3.692h-1.107v-3.692h-7.041v-.984zm3.281 0h3.76v-2.953h-3.76v2.953zm13.85.137v-.903h8.572v.89a12.95 12.95 0 0 1-2.892 2.317c1.317.528 2.86.872 4.628 1.032l-.533 1.066c-2.033-.282-3.764-.784-5.195-1.504-1.522.743-3.268 1.295-5.237 1.655a12.1 12.1 0 0 0-.56-.985c1.805-.282 3.388-.706 4.75-1.271a8.65 8.65 0 0 1-2.405-2.297h-1.128zm-.41-5.086h2.037v-1.149h1.039v1.149h3.869v-1.162h1.039v1.162h2.488v.902h-2.488v2.625h-1.04v-.478h-3.868v.492h-1.04v-2.639h-2.037v-.902zm3.636-3.568l.998-.479c.31.488.622 1.04.937 1.654h5.038v.957h-10.91v4.116c0 3.117-.606 5.441-1.819 6.972-.228-.3-.487-.61-.779-.93 1.003-1.23 1.513-3.267 1.531-6.11v-5.005h5.674c-.21-.4-.433-.793-.67-1.175zm-.56 5.742h3.869v-1.272h-3.87v1.272zm4.484 2.912h-4.88a8.747 8.747 0 0 0 2.337 1.805c.989-.51 1.837-1.112 2.543-1.805zm9.215-7.875c2.37-.01 4.808-.2 7.314-.574l.37 1.066c-2.717.283-4.922.442-6.618.479v3.185h6.96v1.012h-2.489v7.164H141.2v-7.164h-3.377c-.023 3.281-.656 5.696-1.9 7.246a10.915 10.915 0 0 0-.861-.848c1.13-1.33 1.695-3.459 1.695-6.385v-5.181zm-5.592 6.262c.638-.174 1.322-.365 2.05-.575v-3.007h-1.818v-.944h1.819v-2.707h1.066v2.707h1.696v.944h-1.696v2.686c.488-.146.994-.303 1.518-.472.009.465.018.83.027 1.094a71.3 71.3 0 0 0-1.545.465v4.129c0 .993-.41 1.504-1.23 1.531-.42.018-.912.023-1.477.014a49.977 49.977 0 0 0-.178-1.149c.547.055.967.082 1.258.082.374 0 .56-.223.56-.67v-3.595c-.569.182-1.202.387-1.9.615l-.15-1.148zm18.717-6.536h8.08v12.483h-1.121v-1.19h-5.838v1.19h-1.121v-12.483zm-3.514-.273h1.121v12.879h-1.12v-12.88zm10.473 5.277v-3.978h-5.838v3.978h5.838zm-5.838.985v4.306h5.838v-4.306h-5.838zm94.081-28.481l.97-.492c.356.56.696 1.135 1.02 1.723h4.914v4.566h-1.066v-.506h-9.106v.041c0 3.673-.638 6.303-1.914 7.889-.246-.292-.51-.588-.793-.889 1.076-1.358 1.614-3.691 1.614-7v-4.101h5.1a19.96 19.96 0 0 0-.739-1.23zm6.754 7.315v5.838h-1.067v-.89h-6.904v.89h-1.066v-5.838h9.037zm-1.067.957h-6.904v3.049h6.904v-3.05zm-8.955-6.084v2.146h9.106v-2.146h-9.106zm17.692.314h2.037c.014-.916.018-1.855.014-2.816h1.12c-.004.952-.015 1.891-.033 2.816h3.684c-.064 3.445-.155 6.22-.273 8.326-.1 1.285-.698 1.937-1.791 1.955-.565 0-1.18-.013-1.846-.04a43.65 43.65 0 0 0-.219-1.204c.63.082 1.203.128 1.723.137.674 0 1.025-.378 1.053-1.135.136-2.26.218-4.594.246-7h-2.598l-.027 1.162c-.046 3.591-1.13 6.426-3.254 8.504-.255-.31-.529-.62-.82-.93 1.904-1.695 2.898-4.229 2.98-7.601l.027-1.135h-2.023v-1.039zm-1.395 4.717a70.297 70.297 0 0 1 1.586 3.691c-.4.174-.743.324-1.025.452l-.192-.52a237.33 237.33 0 0 0-4.744.492l-.478-1.107c.4-.228.724-.597.97-1.108.447-.897.912-2.037 1.395-3.418h-2.31v-1.011h6.603v1.011h-3.145c-.779 1.942-1.453 3.45-2.023 4.526a108.32 108.32 0 0 0 3.384-.308 48.72 48.72 0 0 0-.964-2.276l.943-.424zm-4.224-6.371h5.482v1.012h-5.482v-1.012zm19.127 11.21a14.443 14.443 0 0 0 2.816-2.467c-.529-1.344-.84-3.516-.936-6.515h-5.162v2.078h3.938a99.537 99.537 0 0 1-.219 4.39c-.11 1.257-.72 1.886-1.832 1.886-.374 0-.87-.018-1.49-.055a21.892 21.892 0 0 0-.219-1.135c.638.092 1.171.137 1.6.137.528 0 .825-.364.888-1.094a55.42 55.42 0 0 0 .164-3.117h-2.836c-.073 3.168-.714 5.51-1.921 7.028-.228-.31-.465-.625-.711-.944 1.03-1.367 1.545-3.527 1.545-6.48v-3.705h6.213c-.031-.72-.061-1.5-.088-2.338h1.134c-.004.642.007 1.422.035 2.338h4.71v1.011h-4.676c.09 2.452.316 4.284.677 5.496.884-1.198 1.61-2.556 2.18-4.074l1.08.451c-.784 1.855-1.725 3.469-2.823 4.84.67 1.363 1.324 2.044 1.962 2.044.232 0 .41-.212.533-.636.128-.665.228-1.348.3-2.05.393.155.74.282 1.04.382-.137.976-.287 1.773-.451 2.393-.173.665-.556 1.025-1.149 1.08-.556.037-1.089-.15-1.6-.56-.55-.424-1.02-1.008-1.407-1.75-.77.829-1.61 1.558-2.516 2.187a12.916 12.916 0 0 0-.78-.82zm3.923-11.661l.575-.711a25.52 25.52 0 0 1 2.146 1.367l-.656.82a26.33 26.33 0 0 0-2.065-1.476zm17.801 9.146c-.237.237-.547.556-.93.957-2.205-1.7-3.964-3.878-5.277-6.535v5.414h3.131v.957h-3.13v2.803h-1.067v-2.803h-3.24v-.957h3.24v-5.414c-1.162 2.315-2.944 4.548-5.346 6.7a23.051 23.051 0 0 0-.902-.821c2.593-2.128 4.532-4.38 5.817-6.754h-5.516v-1.012h5.947v-2.46h1.066v2.46h5.947v1.012h-5.557c1.45 2.725 3.388 4.876 5.817 6.453zm5.824-9.092h7.014v6.713h-1.039v-.342h-2.611a8.22 8.22 0 0 0 1.176 2.243 33.245 33.245 0 0 0 2.474-1.627l.67.847a51.85 51.85 0 0 1-2.57 1.477c.83.902 1.877 1.65 3.144 2.242-.273.31-.556.638-.847.984-2.589-1.558-4.275-3.613-5.059-6.166h-1.312v4.553a38.231 38.231 0 0 0 2.46-1.12c.064.382.137.724.22 1.024-.648.283-1.532.73-2.653 1.34a5.24 5.24 0 0 0-.793.588l-.738-.943c.31-.3.464-.66.464-1.08V131.15zm-5.345 7.37a16.895 16.895 0 0 0 3.76-4.649l.943.533c-.465.775-.953 1.5-1.463 2.174v7.26h-1.053v-5.961c-.547.62-1.116 1.19-1.709 1.709a9.295 9.295 0 0 0-.478-1.066zm11.32-6.426h-4.935v1.763h4.935v-1.763zm-11.252 2.187a13.726 13.726 0 0 0 3.5-3.91l.943.547a19.138 19.138 0 0 1-3.937 4.361 20.367 20.367 0 0 0-.506-.998zm6.317 2.31h4.935v-1.804h-4.935v1.805zm12.373-5.113a60.22 60.22 0 0 0 8.134-.574l.383 1.026a133.42 133.42 0 0 1-3.657.294 82.49 82.49 0 0 0 .13 3.493h3.705v.984h-3.63c.269 3.167.991 5.059 2.167 5.674.255.11.42.014.492-.287.082-.465.16-1.149.233-2.05.355.163.683.286.984.368a25.059 25.059 0 0 1-.3 2.12c-.156.71-.511 1.066-1.067 1.066-.675 0-1.317-.401-1.928-1.203-.87-1.199-1.406-3.095-1.606-5.688h-3.001v4.84l2.543-1.463c.054.42.123.77.205 1.053a71.046 71.046 0 0 0-2.762 1.64 5.904 5.904 0 0 0-.78.616l-.71-.903c.31-.264.465-.656.465-1.175v-9.83zm-4.895 5.278c1.404-1.896 2.493-4.038 3.268-6.426l.998.356a30.135 30.135 0 0 1-1.49 3.486v9.639h-.985v-7.89a19.625 19.625 0 0 1-1.408 1.983c-.11-.364-.237-.747-.383-1.148zm8.702-4.47c-.948.054-1.87.095-2.768.122v3.309h2.94c-.051-.889-.108-2.033-.172-3.432zm-1.06 9.966l.712-.56c.51.482 1.011.997 1.503 1.544l-.793.643a24.845 24.845 0 0 0-1.421-1.627zm-77.601 11.596h1.907c.173-.47.322-.944.445-1.422l.93.26c-.137.4-.279.788-.425 1.162h3.541v.902h-3.903a21.85 21.85 0 0 1-.601 1.312h3.657v6.208c0 .957-.465 1.435-1.395 1.435h-1.285a52.143 52.143 0 0 0-.191-1.012c.52.028.939.041 1.258.041.455 0 .683-.228.683-.683v-.957h-2.748v2.638h-.93v-5.947a18.96 18.96 0 0 1-1.039 1.504 11.027 11.027 0 0 0-.423-.97 18.714 18.714 0 0 0 2.064-3.569h-1.545v-.902zm-2.57 6.193c.21 1.668-.192 2.616-1.203 2.844-.301.064-.711.068-1.23.013a23.852 23.852 0 0 0-.274-1.066c.465.11.852.141 1.162.096.556-.091.738-.72.547-1.887-.137-.629-.538-1.33-1.203-2.105.364-1.176.72-2.407 1.066-3.692h-1.6v11.526h-.97v-12.51h3.582v.984a577.113 577.113 0 0 1-1.04 3.514c.62.72 1.008 1.48 1.163 2.283zm4.129 4.334c1.048.046 2.707.032 4.976-.041a27.15 27.15 0 0 0-.396 1.08c-1.896.036-3.432.018-4.608-.055-1.294-.054-2.283-.565-2.966-1.53a29.056 29.056 0 0 0-1.34 1.995l-.67-.847c.305-.46.861-1.204 1.668-2.229v-4.676h-1.108v-.93h2.065v5.975c.556.816 1.349 1.235 2.379 1.258zm.314-4.129h2.748v-1.23h-2.748v1.23zm2.748-3.309h-2.748v1.23h2.748v-1.23zm-6.111-4.43a36.406 36.406 0 0 1 1.025 2.83 10.91 10.91 0 0 0-.957.356 35.36 35.36 0 0 0-.93-2.884l.862-.301zm10.965 13.29h-1.04v-4.485h4.458l.225-1.066h-5.968v-.848h13.454v.848H253.3l-.274 1.066h5.483v3.063c0 .902-.451 1.353-1.354 1.353-.437 0-.916-.009-1.435-.027a7.06 7.06 0 0 0-.192-1.053c.538.055.98.082 1.326.082.41 0 .616-.182.616-.546v-2.024h-2.352v3.254h-.97v-3.254h-2.27v3.254h-.97v-3.254h-2.311v3.637zm-1.86-11.13h5.77v-.792h-5.086v-.848h11.047v.848h-4.99v.793h5.783v2.543h-1.053v-1.695h-4.73v3.254h-.971v-3.254h-4.717v1.695h-1.053v-2.543zm7.465 3.173h3.213v.738h-3.213v-.738zm-5.633-1.531h3.213v.738h-3.213v-.738zm0 1.53h3.213v.74h-3.213v-.74zm5.633-1.53h3.213v.738h-3.213v-.738zm12.92-2.461h1.907c.173-.47.322-.944.445-1.422l.93.26c-.137.4-.279.788-.425 1.162h3.541v.902h-3.903a21.85 21.85 0 0 1-.601 1.312h3.657v6.208c0 .957-.465 1.435-1.395 1.435h-1.285a52.143 52.143 0 0 0-.191-1.012c.52.028.939.041 1.258.041.455 0 .683-.228.683-.683v-.957h-2.748v2.638h-.93v-5.947a18.96 18.96 0 0 1-1.039 1.504 11.027 11.027 0 0 0-.423-.97 18.714 18.714 0 0 0 2.064-3.569h-1.545v-.902zm-2.57 6.193c.21 1.668-.192 2.616-1.203 2.844-.301.064-.711.068-1.23.013a23.852 23.852 0 0 0-.274-1.066c.465.11.852.141 1.162.096.556-.091.738-.72.547-1.887-.137-.629-.538-1.33-1.203-2.105.364-1.176.72-2.407 1.066-3.692h-1.6v11.526h-.97v-12.51h3.582v.984a577.113 577.113 0 0 1-1.04 3.514c.62.72 1.008 1.48 1.163 2.283zm4.129 4.334c1.048.046 2.707.032 4.976-.041a27.15 27.15 0 0 0-.396 1.08c-1.896.036-3.432.018-4.608-.055-1.294-.054-2.283-.565-2.966-1.53a29.056 29.056 0 0 0-1.34 1.995l-.67-.847c.305-.46.861-1.204 1.668-2.229v-4.676h-1.108v-.93h2.065v5.975c.556.816 1.349 1.235 2.379 1.258zm.314-4.129h2.748v-1.23h-2.748v1.23zm2.748-3.309h-2.748v1.23h2.748v-1.23zm-6.111-4.43a36.406 36.406 0 0 1 1.025 2.83 10.91 10.91 0 0 0-.957.356 35.36 35.36 0 0 0-.93-2.884l.862-.301zm15.12 13.098v-4.347h-3.978c-.155 1.896-.706 3.468-1.654 4.717a16.513 16.513 0 0 0-.807-.944 7.338 7.338 0 0 0 1.204-2.789c.2-.984.3-2.379.3-4.183v-4.881h11.143v10.869c0 1.084-.515 1.627-1.545 1.627a61.34 61.34 0 0 1-2.12-.041 25.36 25.36 0 0 0-.204-1.135 29.25 29.25 0 0 0 1.928.082c.565 0 .847-.269.847-.807v-2.515h-4.02v4.347h-1.093zm1.095-5.332h4.02v-2.556h-4.02v2.556zm4.02-6.084h-4.02v2.543h4.02v-2.543zm-9.017 6.084h3.903v-2.556h-3.842a22.59 22.59 0 0 1-.061 2.556zm.061-6.084v2.543h3.842v-2.543h-3.842zm18.211-.341h1.907c.173-.47.322-.944.445-1.422l.93.26c-.137.4-.279.788-.425 1.162h3.541v.902h-3.903a21.85 21.85 0 0 1-.601 1.312h3.657v6.208c0 .957-.465 1.435-1.395 1.435h-1.285a52.143 52.143 0 0 0-.191-1.012c.52.028.939.041 1.258.041.455 0 .683-.228.683-.683v-.957h-2.748v2.638h-.93v-5.947a18.96 18.96 0 0 1-1.039 1.504 11.027 11.027 0 0 0-.423-.97 18.714 18.714 0 0 0 2.064-3.569h-1.545v-.902zm-2.57 6.193c.21 1.668-.192 2.616-1.203 2.844-.301.064-.711.068-1.23.013a23.852 23.852 0 0 0-.274-1.066c.465.11.852.141 1.162.096.556-.091.738-.72.547-1.887-.137-.629-.538-1.33-1.203-2.105.364-1.176.72-2.407 1.066-3.692h-1.6v11.526h-.97v-12.51h3.582v.984a577.113 577.113 0 0 1-1.04 3.514c.62.72 1.008 1.48 1.163 2.283zm4.129 4.334c1.048.046 2.707.032 4.976-.041a27.15 27.15 0 0 0-.396 1.08c-1.896.036-3.432.018-4.608-.055-1.294-.054-2.283-.565-2.966-1.53a29.056 29.056 0 0 0-1.34 1.995l-.67-.847c.305-.46.861-1.204 1.668-2.229v-4.676h-1.108v-.93h2.065v5.975c.556.816 1.349 1.235 2.379 1.258zm.314-4.129h2.748v-1.23h-2.748v1.23zm2.748-3.309h-2.748v1.23h2.748v-1.23zm-6.111-4.43a36.406 36.406 0 0 1 1.025 2.83 10.91 10.91 0 0 0-.957.356 35.36 35.36 0 0 0-.93-2.884l.862-.301zm12.55 2.968h6.262v-2.995h1.108v2.995h1.982v1.039h-1.982v6.918c0 1.421-.643 2.142-1.928 2.16a57.5 57.5 0 0 1-2.05-.014 14.936 14.936 0 0 0-.22-1.23c.875.073 1.55.109 2.024.109.42.01.702-.082.848-.273.145-.174.218-.534.218-1.08v-6.59h-6.261v-1.04zm-3.978 3.404c1.267-1.768 2.306-3.942 3.117-6.522l1.121.424a44.46 44.46 0 0 1-1.162 2.837v10.165h-1.094v-7.991a20.035 20.035 0 0 1-1.558 2.386c-.164-.611-.305-1.044-.424-1.3zm4.867-.205l.916-.574c.556.802 1.208 1.854 1.955 3.158l-.984.615c-.638-1.249-1.267-2.315-1.887-3.2zm10.076-5.072h3.924c.018-.41.028-.793.028-1.149h.984c0 .356-.01.738-.027 1.149h2.379v-1.149h.984v1.149h3.295v3.117h-.985v-.342h-2.31v1.23h3.91a11.725 11.725 0 0 1-.15 1.682c-.1.638-.51.957-1.23.957h-.41v3.336h-.985v-2.79h-6.864v2.954h-.984v-2.953a15.65 15.65 0 0 1-1.9.684c-.119-.265-.315-.58-.588-.944 2.078-.446 3.45-1.157 4.115-2.133h-3.008l.438-2.816h3.254c.027-.356.04-.752.04-1.19h-3.91v-.792zm9.229 5.687c.51.055.934.082 1.271.082.365 0 .575-.137.63-.41.036-.2.059-.387.068-.56h-2.926v1.34h-.984v-1.34h-2.94c-.246.555-.674 1.061-1.285 1.517h6.357a10.065 10.065 0 0 0-.191-.629zm-3.746 2.27h.97a5.64 5.64 0 0 1-.19 1.544 108.46 108.46 0 0 1 5.66 1.819l-.507.984a158.435 158.435 0 0 0-5.496-1.928c-.565.921-2.433 1.568-5.605 1.942-.173-.438-.328-.766-.465-.984 2.106-.201 3.687-.552 4.744-1.053.61-.301.907-1.076.889-2.324zm-.875-3.952h2.68v-1.23h-2.489c-.045.483-.11.893-.191 1.23zm-3.322 0h2.283c.1-.319.178-.729.232-1.23h-2.351l-.164 1.23zm3.568-2.023h2.434v-1.19h-2.393c0 .429-.014.825-.041 1.19zm5.728-1.19h-2.31v1.19h2.31v-1.19z" fill="#666"/><path d="M7.932 46.325H3.08v-2.789h4.852v2.789zm0-5.8H3.08v-2.783h4.852v2.783zm6.898-7.938l.006 25.509a.875.875 0 0 0 .86.878h10.432c.23-.002.45.09.612.255.163.165.254.39.254.623v5.264a.88.88 0 0 1-.866.884H.866C.386 66 0 65.6 0 65.116V.878C0 .644.091.42.254.255A.852.852 0 0 1 .866 0h25.268c.229-.002.45.09.612.255.163.165.254.39.254.623v8.19a.887.887 0 0 1-.254.623.852.852 0 0 1-.612.255H3.94a.871.871 0 0 0-.866.878v7.819c.003.487.389.88.866.884h10.895v3.712H3.941a.866.866 0 0 0-.866.873v7.596c.003.486.39.879.866.879h10.89zM5 12h10.153v4.925H5V12zm14.578 1.103h59.107c.35 0 .685.137.932.381s.385.575.383.92v38.642c.002.344-.136.675-.383.919a1.325 1.325 0 0 1-.932.381H19.578a1.31 1.31 0 0 1-1.32-1.3V14.403a1.284 1.284 0 0 1 .385-.92c.248-.245.584-.381.935-.38zM63.69 61.488a.876.876 0 0 1 .62.25.849.849 0 0 1 .254.611v1.75a.854.854 0 0 1-.256.615.882.882 0 0 1-.624.252h-3.95c-.035 0-.046.034-.08.034H39.376c-.029 0-.052-.034-.075-.034h-4.727a.874.874 0 0 1-.88-.866v-1.75a.874.874 0 0 1 .88-.862h3.916v-4.317a.849.849 0 0 1 .256-.612.876.876 0 0 1 .624-.249h20.29a.882.882 0 0 1 .625.248c.167.162.26.383.26.613v4.317h3.145zM5 25.164h10.153v4.93H5v-4.93z" transform="translate(56 191)" fill-rule="nonzero" fill="url(#c)"/><path d="M166.508 52.31c2.936-.71 5.081-1.559 6.435-2.548a114.227 114.227 0 0 0-4.306-2.178 44.15 44.15 0 0 0 1.611-3.145h-2.393v-1.406h3.018a54.07 54.07 0 0 0 1.338-3.379l1.64.567c-.403.904-.833 1.842-1.288 2.812h8.007v1.406h-2.558c-.469 2.005-1.296 3.679-2.48 5.02a95 95 0 0 1 4.96 2.812l-.937 1.485c-1.426-1.022-3.145-2.09-5.157-3.203-1.503 1.23-3.873 2.304-7.109 3.222-.156-.469-.417-.957-.781-1.465zm-5.235-7.285a83.534 83.534 0 0 0 2.657-.869v-4.365h-2.383v-1.406h2.383v-3.633h1.484v3.633h2.149v1.406h-2.149v3.838c.58-.209 1.165-.427 1.758-.655.026.547.078 1.068.156 1.563-.631.221-1.27.452-1.914.693v6.182c0 1.406-.677 2.116-2.031 2.129a28.15 28.15 0 0 1-1.738-.02 18.007 18.007 0 0 0-.235-1.62c.625.077 1.198.116 1.719.116.534 0 .8-.312.8-.937v-5.293c-.807.306-1.627.625-2.46.957l-.196-1.719zm6.915-7.558h5.488a41.259 41.259 0 0 0-1.23-2.305l1.406-.703c.638 1.041 1.093 1.849 1.367 2.422l-1.162.586h6.064v3.32h-1.562v-1.914h-8.809v1.914h-1.563v-3.32zm2.46 9.55c1.185.567 2.331 1.133 3.438 1.7 1.172-1.25 1.95-2.676 2.334-4.278h-4.522c-.397.834-.813 1.693-1.25 2.578zm14.063 6.72h-1.484V47.33h6.367l.322-1.524h-8.525v-1.21h19.218v1.21h-9.18l-.39 1.524h7.832v4.375c0 1.289-.644 1.933-1.934 1.933a58.85 58.85 0 0 1-2.05-.039 10.1 10.1 0 0 0-.274-1.503c.769.078 1.4.117 1.895.117.586 0 .879-.26.879-.782v-2.89h-3.36v4.648h-1.386v-4.648h-3.243v4.648h-1.386v-4.648h-3.301v5.195zm-2.656-15.9h8.242v-1.132h-7.266v-1.211h15.781v1.21h-7.128v1.134h8.261v3.633h-1.504v-2.422h-6.757v4.648h-1.387V39.05h-6.738v2.422h-1.504v-3.633zm10.664 4.532h4.59v1.055h-4.59v-1.055zm-8.047-2.188h4.59v1.055h-4.59v-1.055zm0 2.188h4.59v1.055h-4.59v-1.055zm8.047-2.188h4.59v1.055h-4.59v-1.055zm14.258-1.19h8.945v-4.278h1.582v4.277h2.832v1.484h-2.832v9.883c0 2.031-.918 3.06-2.754 3.086a78.87 78.87 0 0 1-2.93-.02 21.338 21.338 0 0 0-.312-1.757c1.25.104 2.213.156 2.89.156.6.013 1.003-.117 1.211-.39.209-.248.313-.762.313-1.544v-9.414h-8.945V38.99zm-5.684 4.862c1.81-2.526 3.294-5.631 4.453-9.316l1.602.605a63.513 63.513 0 0 1-1.66 4.053v14.522h-1.563V42.3a28.621 28.621 0 0 1-2.227 3.408c-.234-.873-.436-1.491-.605-1.856zm6.953-.293l1.309-.82c.794 1.146 1.725 2.65 2.793 4.512l-1.407.879c-.911-1.784-1.81-3.308-2.695-4.57zm14.395-7.246h5.605c.026-.586.04-1.133.04-1.64h1.405c0 .507-.013 1.054-.039 1.64h3.399v-1.64h1.406v1.64h4.707v4.453h-1.406v-.488h-3.301v1.758h5.586c-.026.937-.098 1.738-.215 2.402-.143.912-.729 1.367-1.758 1.367h-.586v4.766h-1.406v-3.984h-9.805v4.218h-1.406v-4.218c-.794.351-1.699.677-2.715.976-.169-.377-.449-.827-.84-1.347 2.97-.638 4.929-1.654 5.88-3.047h-4.297l.625-4.024h4.648c.039-.508.059-1.074.059-1.699h-5.586v-1.133zm13.183 8.125c.73.078 1.335.117 1.817.117.52 0 .82-.195.898-.585.052-.287.085-.554.098-.801h-4.18v1.914h-1.406V43.17h-4.2c-.351.794-.963 1.517-1.835 2.168h9.082a14.955 14.955 0 0 0-.274-.899zm-5.351 3.242h1.386c0 .834-.09 1.57-.273 2.207a155.83 155.83 0 0 1 8.086 2.598l-.723 1.406a226.337 226.337 0 0 0-7.851-2.754c-.808 1.316-3.477 2.24-8.008 2.774-.248-.625-.469-1.094-.664-1.406 3.008-.287 5.267-.788 6.777-1.504.873-.43 1.296-1.537 1.27-3.32zm-1.25-5.644h3.828v-1.758h-3.555c-.065.69-.156 1.276-.273 1.758zm-4.746 0h3.261c.144-.456.254-1.042.332-1.758h-3.36l-.233 1.758zm5.097-2.89h3.477v-1.7h-3.418c0 .612-.02 1.178-.059 1.7zm8.184-1.7h-3.301v1.7h3.3v-1.7zM121.625 72.174h7.656c.274-1.355.436-2.865.489-4.532h-6.66V66.12h15.859v1.523h-7.559c-.091 1.667-.26 3.177-.508 4.532h9.551v1.523h-9.883c-.99 4.401-3.71 7.813-8.164 10.234a12.635 12.635 0 0 0-1.054-1.386c3.88-1.94 6.406-4.89 7.578-8.848h-7.305v-1.523zm10 2.93h1.582v5.136c0 1.029.475 1.543 1.426 1.543h2.676c.885 0 1.386-.384 1.504-1.152.104-.743.182-1.706.234-2.89.495.181 1.042.37 1.64.565-.13 1.29-.247 2.26-.351 2.91-.17 1.303-1.094 1.954-2.774 1.954h-3.378c-1.706 0-2.559-.899-2.559-2.696v-5.37zm13.086 8.632h-1.484V77.33h6.367l.322-1.524h-8.525v-1.21h19.218v1.21h-9.18l-.39 1.524h7.832v4.375c0 1.289-.644 1.933-1.934 1.933a58.85 58.85 0 0 1-2.05-.039 10.1 10.1 0 0 0-.274-1.503c.769.078 1.4.117 1.895.117.586 0 .879-.26.879-.782v-2.89h-3.36v4.648h-1.386v-4.648h-3.243v4.648h-1.386v-4.648h-3.301v5.195zm-2.656-15.898h8.242v-1.133h-7.266v-1.211h15.781v1.21h-7.128v1.134h8.261v3.633h-1.504v-2.422h-6.757v4.648h-1.387V69.05h-6.738v2.422h-1.504v-3.633zm10.664 4.531h4.59v1.055h-4.59v-1.055zm-8.047-2.188h4.59v1.055h-4.59v-1.055zm0 2.188h4.59v1.055h-4.59v-1.055zm8.047-2.188h4.59v1.055h-4.59v-1.055zm9.746-4.628h17.09v18.222h-1.465V82.76h-14.14v1.035h-1.485V65.553zm15.625 1.425h-14.14v14.356h14.14V66.978zm-11.25 6.504h3.418V71.12h-5.156v-1.328h5.156v-2.266h1.445v2.266h5.176v1.328h-5.176v2.363h3.457v6.328h-1.406v-.8h-5.508v.8h-1.406v-6.328zm6.914 1.29h-5.508v2.949h5.508v-2.95zm7.5 7.597c2.161-1.862 3.411-4.596 3.75-8.203l1.64.254a20.51 20.51 0 0 1-.712 3.369c1.009 2.148 2.574 3.382 4.697 3.701v-8.594h-8.926v-1.465h18.555v1.465h-8.008v3.164h6.797v1.446h-6.797v4.091c2.591.066 5.41.043 8.457-.068a11.88 11.88 0 0 0-.566 1.621c-3.19.04-5.977.02-8.36-.058-2.936 0-5.094-1.192-6.474-3.575-.743 1.726-1.748 3.184-3.018 4.375-.3-.507-.644-1.015-1.035-1.523zm1.152-15.469h8.33a26.76 26.76 0 0 0-1.22-1.64l1.484-.801a98.296 98.296 0 0 1 1.66 1.972l-.879.47h7.91v3.71h-1.543v-2.246H183.95v2.227h-1.543V66.9zm24.317 5.781c3.906-1.002 6.022-2.695 6.347-5.078h-3.125a16.15 16.15 0 0 1-1.562 2.598 25.142 25.142 0 0 0-1.309-.84c1.224-1.445 2.09-3.118 2.598-5.02l1.465.352a28.528 28.528 0 0 1-.606 1.621h9.258v1.23l-1.328 2.657c-.443-.208-.918-.41-1.426-.605l1.035-1.993h-3.476c-.104.417-.222.82-.352 1.211 1.12 1.85 3.223 3.132 6.309 3.848-.365.495-.69.97-.977 1.426-2.773-.886-4.752-2.188-5.937-3.907-.899 1.563-2.871 2.826-5.918 3.79-.26-.391-.593-.82-.996-1.29zm-2.52 1.368h13.574v6.367h-1.523v-5h-10.527v5h-1.524v-6.367zm2.246-5.137c.235.508.488.97.762 1.387a169.194 169.194 0 0 0-4.844 3.77l-1.015-1.329a73.211 73.211 0 0 0 5.097-3.828zm-3.476-4.238a64.669 64.669 0 0 1 3.261 2.187l-.996 1.211a70.035 70.035 0 0 0-3.125-2.324l.86-1.074zm8.789 11.484c-.013 1.406-.111 2.487-.293 3.242 2.969.964 5.8 1.966 8.496 3.008l-.82 1.426a185.231 185.231 0 0 0-8.223-3.145c-.873 1.55-3.652 2.624-8.34 3.223a15 15 0 0 0-.84-1.524c4.31-.377 6.914-1.184 7.813-2.421.481-.651.71-1.921.683-3.809h1.524zm11.562-3.77h9.238a46.04 46.04 0 0 0 2.364-3.867l1.504.957c-.69.97-1.413 1.94-2.168 2.91h5.781v1.368h-15.137v1.367c0 2.305-.176 4.023-.527 5.156-.365 1.263-1.055 2.448-2.07 3.555a79.87 79.87 0 0 1-1.055-1.328 6.91 6.91 0 0 0 1.621-2.89c.3-1.082.45-2.58.45-4.493v-2.735zm-1.601-5.585h8.916a31.708 31.708 0 0 0-.948-1.641l1.446-.723c.423.69.856 1.478 1.299 2.364h8.115v1.386h-18.828v-1.386zm4.082 2.5l1.289-.86a51.305 51.305 0 0 1 2.148 2.89l-1.387.958c-.507-.86-1.19-1.856-2.05-2.988zm22.851 5.625V73.56h10.04v1.348c-.886 2.064-2.133 3.799-3.74 5.205 1.555.977 3.511 1.657 5.868 2.041-.364.482-.69.977-.976 1.484-2.435-.533-4.466-1.396-6.094-2.587-1.758 1.23-3.867 2.145-6.328 2.744a10.43 10.43 0 0 0-.86-1.367c2.364-.495 4.375-1.28 6.036-2.354-1.433-1.374-2.455-3.09-3.067-5.146h-.879zm-7.363.097a85.372 85.372 0 0 0 2.852-.83v-4.307h-2.598v-1.367h2.598v-3.789h1.464v3.79h2.364v1.366h-2.364v3.848c.671-.215 1.361-.443 2.07-.683-.012.416 0 .924.04 1.523-.71.221-1.413.446-2.11.674v6.142c0 1.42-.631 2.13-1.894 2.13h-1.895a26.78 26.78 0 0 0-.254-1.66c.73.077 1.322.116 1.778.116.534 0 .8-.312.8-.937v-5.313c-.891.3-1.777.606-2.656.918l-.195-1.62zm17.266-4.375h2.187c-.13.469-.24.944-.332 1.426h-2.07c-1.498 0-2.246-.716-2.246-2.148V66.86h-4.336v.723c.013 2.513-.983 4.388-2.989 5.625-.325-.43-.677-.827-1.054-1.192 1.719-.937 2.578-2.415 2.578-4.433v-2.09h7.265v4.219c0 .625.333.937.997.937zm-1.485 4.278h-6.123c.547 1.731 1.485 3.167 2.813 4.306a11.862 11.862 0 0 0 3.31-4.306zm9.649-2.247c3.906-1.002 6.022-2.695 6.347-5.078h-3.125a16.15 16.15 0 0 1-1.562 2.598 25.142 25.142 0 0 0-1.309-.84c1.224-1.445 2.09-3.118 2.598-5.02l1.465.352a28.528 28.528 0 0 1-.606 1.621h9.258v1.23l-1.328 2.657c-.443-.208-.918-.41-1.426-.605l1.035-1.993h-3.476c-.104.417-.222.82-.352 1.211 1.12 1.85 3.223 3.132 6.309 3.848-.365.495-.69.97-.977 1.426-2.773-.886-4.752-2.188-5.937-3.907-.899 1.563-2.871 2.826-5.918 3.79-.26-.391-.593-.82-.996-1.29zm-2.52 1.368h13.574v6.367h-1.523v-5h-10.527v5h-1.524v-6.367zm2.246-5.137c.235.508.488.97.762 1.387a169.192 169.192 0 0 0-4.844 3.77l-1.015-1.329a73.211 73.211 0 0 0 5.097-3.828zm-3.476-4.238a64.668 64.668 0 0 1 3.261 2.187l-.996 1.211a70.035 70.035 0 0 0-3.125-2.324l.86-1.074zm8.789 11.484c-.013 1.406-.111 2.487-.293 3.242 2.969.964 5.8 1.966 8.496 3.008l-.82 1.426a185.232 185.232 0 0 0-8.223-3.145c-.873 1.55-3.652 2.624-8.34 3.223a15 15 0 0 0-.84-1.524c4.31-.377 6.914-1.184 7.813-2.421.481-.651.71-1.921.683-3.809h1.524z" fill="#DD3730"/><path d="M191 127v141.89" stroke="#DD3730" stroke-dasharray="3"/></g></svg>