<svg width="382" height="302" viewBox="0 0 382 302" xmlns="http://www.w3.org/2000/svg" xmlns:xlink="http://www.w3.org/1999/xlink"><title>Group 35 Copy 5</title><defs><path id="a" d="M0 0h380v300H0z"/><linearGradient x1="110.355%" y1="7.257%" x2="28.676%" y2="91.35%" id="b"><stop stop-color="#FFC194" offset="0%"/><stop stop-color="#DD3730" offset="100%"/></linearGradient><linearGradient x1="110.776%" y1="-10.919%" x2="24.66%" y2="83.592%" id="c"><stop stop-color="#FFC194" offset="0%"/><stop stop-color="#DD3730" offset="100%"/></linearGradient><linearGradient x1="104.862%" y1="5.491%" x2="27.366%" y2="100%" id="d"><stop stop-color="#FFC194" offset="0%"/><stop stop-color="#DD3730" offset="100%"/></linearGradient></defs><g fill="none" fill-rule="evenodd"><g transform="translate(1 1)"><use fill="#FFF" xlink:href="#a"/><path stroke="#DD3730" d="M-.5-.5h381v301H-.5z"/></g><path d="M59.417 63.69h-2.584V25.45c0-1.914-1.338-3.943-3.014-4.529l-13.73-4.784c-2.133-.748-3.922.465-3.922 2.709V63.69H31V3.9C31 .915 28.753-.703 26.089.295L8.927 6.669c-2.092.782-3.76 3.484-3.76 6.038V63.69H2.583C1.163 63.69 0 64.883 0 66.345 0 67.807 1.164 69 2.583 69h56.834C60.837 69 62 67.807 62 66.345c0-1.462-1.164-2.655-2.583-2.655zM23.25 53.077H12.917c-1.42 0-2.584-1.193-2.584-2.655 0-1.462 1.164-2.655 2.584-2.655H23.25c1.42 0 2.583 1.193 2.583 2.655 0 1.462-1.164 2.655-2.583 2.655zm0-10.62H12.917c-1.42 0-2.584-1.193-2.584-2.655 0-1.462 1.164-2.655 2.584-2.655H23.25c1.42 0 2.583 1.193 2.583 2.655 0 1.462-1.164 2.655-2.583 2.655zm0-10.613H12.917c-1.42 0-2.584-1.193-2.584-2.655 0-1.462 1.164-2.655 2.584-2.655H23.25c1.42 0 2.583 1.193 2.583 2.655 0 1.462-1.164 2.655-2.583 2.655zm0-10.62H12.917c-1.42 0-2.584-1.192-2.584-2.655 0-1.462 1.164-2.655 2.584-2.655H23.25c1.42 0 2.583 1.193 2.583 2.655 0 1.463-1.164 2.655-2.583 2.655zm25.833 31.853h-5.166c-1.42 0-2.584-1.193-2.584-2.655 0-1.462 1.164-2.655 2.584-2.655h5.166c1.42 0 2.584 1.193 2.584 2.655 0 1.462-1.164 2.655-2.584 2.655zm0-10.62h-5.166c-1.42 0-2.584-1.193-2.584-2.655 0-1.462 1.164-2.655 2.584-2.655h5.166c1.42 0 2.584 1.193 2.584 2.655 0 1.462-1.164 2.655-2.584 2.655zm0-10.613h-5.166c-1.42 0-2.584-1.193-2.584-2.655 0-1.462 1.164-2.655 2.584-2.655h5.166c1.42 0 2.584 1.193 2.584 2.655 0 1.462-1.164 2.655-2.584 2.655z" transform="translate(241 158)" fill-rule="nonzero" fill="url(#b)"/><path d="M313 157h4l-6-7-6 7h4v7h4v-7zm-2 13c-7.18 0-13-5.82-13-13s5.82-13 13-13 13 5.82 13 13-5.82 13-13 13z" fill="url(#c)" transform="translate(1 1)"/><path d="M154 157h4l-6-7-6 7h4v7h4v-7zm-2 13c-7.18 0-13-5.82-13-13s5.82-13 13-13 13 5.82 13 13-5.82 13-13 13z" fill="url(#c)" transform="matrix(1 0 0 -1 1 315)"/><g fill-rule="nonzero"><path d="M19.792 8.25c-1.513-.003-2.264-.792-2.26-2.353.002-1.244-.004-2.49.002-3.736.008-1.342.811-2.16 2.13-2.16C33.012 0 46.358 0 59.706.002c1.356 0 2.163.822 2.167 2.193a498.02 498.02 0 0 1-.002 3.865c-.008 1.385-.803 2.19-2.163 2.19-6.673.002-13.348 0-20.021 0-6.63 0-13.263.002-19.894 0zm46.204 43.7c0 1.243.01 2.486-.004 3.728-.012 1.216-.853 2.068-2.065 2.068-8.822.006-17.644.004-26.465.002-.06 0-.122-.012-.337-.037 1.384-.941 2.615-1.857 3.75-2.9a25.89 25.89 0 0 0 4.157-4.879c.215-.327.444-.432.83-.432 5.91.014 11.819.008 17.728.01 1.681 0 2.406.736 2.406 2.44zm-18.552-27.2h6.717c2.895 0 5.787 0 8.682.003 1.354.002 2.118.804 2.122 2.226.004 1.286.006 2.571 0 3.857-.008 1.333-.8 2.154-2.071 2.154-4.36 0-8.721-.009-13.082.01-.473.002-.601-.134-.642-.632-.193-2.38-.735-4.68-1.545-6.91-.079-.213-.22-.416-.18-.707zm11.333-6.271c-.004 1.292-.885 2.134-2.224 2.138-3.41.004-6.818 0-10.226.008-.352.002-.614-.04-.84-.368-2.111-3.062-4.792-5.587-7.992-7.613-.071-.048-.143-.102-.37-.269h7.028c4.102 0 8.207 0 12.309.002 1.45.002 2.31.815 2.315 2.181a465.65 465.65 0 0 1 0 3.92zm.227 17.633c.99.007 1.793.85 1.816 1.915.03 1.455.03 2.913.004 4.368-.021 1.074-.808 1.933-1.799 1.938-3.828.018-7.655.008-11.587.008.552-1.58 1.04-3.089 1.337-4.665.194-1.027.379-2.056.434-3.103.02-.347.12-.481.46-.48 3.113.015 6.224.003 9.335.02zm-13.629-.98c-.012 12.467-10.22 22.639-22.71 22.618C10.143 57.731-.014 47.546 0 35.02c.017-12.612 10.233-22.672 23.003-22.645 12.273.027 22.386 10.312 22.372 22.757z" fill="url(#d)" transform="translate(66 171)"/><path d="M88.729 189.563c-8.987-.05-16.508 7.35-16.541 16.283-.036 9.235 7.279 16.677 16.431 16.716 9.101.042 16.531-7.336 16.568-16.445.034-9.106-7.318-16.502-16.458-16.554zm7.821 16.886v2.706h-5.283v1.547h5.283v2.708h-5.283v3.35h-5.029v-3.35h-5.411v-2.708h5.411v-1.547h-5.411v-2.706h3.838l-4.445-7.865h5.656l2.836 6.173 2.801-6.173h5.673l-4.323 7.865h3.687z" fill="#FFF"/></g><path d="M192 125v141.89" stroke="#DD3730" stroke-dasharray="3"/><text transform="translate(122 31)" font-size="20" font-family="MicrosoftYaHei, Microsoft YaHei" fill="#DD3730"><tspan x="0" y="21">IT投入产出更高</tspan> <tspan x="8.672" y="51">增强业务投资</tspan></text></g></svg>