<svg width="382" height="302" viewBox="0 0 382 302" xmlns="http://www.w3.org/2000/svg" xmlns:xlink="http://www.w3.org/1999/xlink"><title>Group 35 Copy 3</title><defs><path id="a" d="M0 0h380v300H0z"/><linearGradient x1="39.123%" y1="21.186%" x2="50%" y2="100%" id="b"><stop stop-color="#7272F4" offset="0%"/><stop stop-color="#FFF" stop-opacity="0" offset="100%"/></linearGradient><linearGradient x1="39.123%" y1="21.186%" x2="50%" y2="100%" id="c"><stop stop-color="#DD3730" offset="0%"/><stop stop-color="#FFF" stop-opacity="0" offset="100%"/></linearGradient><linearGradient x1="50%" y1="16.715%" x2="50%" y2="100%" id="d"><stop stop-color="#7272F4" offset="0%"/><stop stop-color="#FFF" stop-opacity="0" offset="100%"/></linearGradient><linearGradient x1="50%" y1="16.715%" x2="50%" y2="100%" id="e"><stop stop-color="#DD3730" offset="0%"/><stop stop-color="#FFF" stop-opacity="0" offset="100%"/></linearGradient></defs><g fill="none" fill-rule="evenodd"><g transform="translate(1 1)"><use fill="#FFF" xlink:href="#a"/><path stroke="#DD3730" d="M-.5-.5h381v301H-.5z"/></g><path d="M0 87.618C3.436 70.39 12.784 61.831 28.044 61.943c22.888.168 26.429-19.39 51.932-19.39 25.503 0 24.115-34.002 48.688-31.75.956-5.8.956 19.805 0 76.815H0z" fill="url(#b)" opacity=".8" transform="translate(222 143)"/><path d="M0 97.618C3.436 80.39 12.784 71.831 28.044 71.943c22.888.168 26.429-19.39 51.932-19.39 25.503 0 24.115-34.002 48.688-31.75.956-5.8.956 19.805 0 76.815H0z" fill="url(#c)" opacity=".8" transform="translate(222 143)"/><path d="M274.746 155.868c3.363-.629 5.528-1.627 6.494-2.994h-6.275v-1.012h6.781c.31-.948.451-2.602.424-4.963h1.148c0 2.343-.127 3.997-.382 4.963h5.181v1.012h-5.564c-.073.146-.16.3-.26.465 1.95.82 3.86 1.668 5.728 2.543l-.601 1.039a132.47 132.47 0 0 0-5.783-2.775c-1.24 1.212-3.318 2.146-6.235 2.802a9.151 9.151 0 0 0-.656-1.08zm.479-10.54h6.261c-.228-.411-.533-.89-.916-1.436l.998-.56c.301.4.666.929 1.094 1.585l-.752.41h5.852v2.447h-1.094v-1.435h-10.35v1.435h-1.093v-2.447zm1.681 3.69c1.048.475 2.033.971 2.953 1.49l-.588.944a32.068 32.068 0 0 0-2.884-1.558l.52-.875zm1.23-2.091a36.243 36.243 0 0 1 2.885 1.545l-.615.93a48.589 48.589 0 0 0-2.802-1.669l.533-.806zm15.3 4.402c.237 1.714-.201 2.693-1.313 2.94-.355.072-.816.077-1.38.013a7.967 7.967 0 0 0-.302-1.107c.483.118.907.155 1.272.11.638-.074.852-.725.642-1.956-.127-.71-.56-1.55-1.298-2.516a81.617 81.617 0 0 0 1.12-3.636h-1.818v11.662h-1.039v-12.674h3.992v.984a423.252 423.252 0 0 1-1.107 3.541c.73.994 1.14 1.873 1.23 2.64zm-.233-3.39h8.914v1.011h-3.937v6.016c0 1.112-.538 1.668-1.614 1.668-.428 0-.975-.005-1.64-.014a21.95 21.95 0 0 0-.219-1.162c.693.073 1.23.11 1.613.11.529 0 .793-.279.793-.835v-5.783h-3.91v-1.012zm.738-3.446h7.438v1.012h-7.438v-1.012zm1.053 5.92l1.012.37a42.227 42.227 0 0 1-2.078 4.702 10.163 10.163 0 0 0-.971-.478 28.748 28.748 0 0 0 2.037-4.594zm4.225.492l.943-.465a208.525 208.525 0 0 1 2.12 4.444l-.999.478a128.083 128.083 0 0 0-2.064-4.457zm8.64-.273v-.957h7.028v.943c-.62 1.445-1.493 2.66-2.618 3.644 1.089.683 2.458 1.16 4.108 1.428a9.266 9.266 0 0 0-.684 1.04c-1.704-.374-3.126-.978-4.265-1.812-1.23.861-2.707 1.502-4.43 1.92a7.3 7.3 0 0 0-.602-.956c1.655-.347 3.063-.896 4.225-1.648-1.003-.961-1.718-2.162-2.146-3.602h-.616zm-5.154.068a59.76 59.76 0 0 0 1.996-.58v-3.016h-1.818v-.957h1.818v-2.652h1.026v2.652h1.654v.957h-1.654v2.694c.469-.15.952-.31 1.449-.479-.01.292 0 .647.027 1.067-.497.155-.989.312-1.476.471v4.3c0 .994-.442 1.49-1.327 1.49h-1.326a18.746 18.746 0 0 0-.178-1.162c.51.055.926.082 1.245.082.373 0 .56-.218.56-.656v-3.719c-.624.21-1.244.424-1.86.643l-.136-1.135zm12.086-3.062h1.531c-.09.328-.168.66-.232.998h-1.45c-1.048 0-1.572-.502-1.572-1.504v-2.147h-3.035v.506c.01 1.76-.688 3.072-2.092 3.938a7.201 7.201 0 0 0-.738-.834c1.203-.657 1.805-1.691 1.805-3.104v-1.463h5.086v2.953c0 .438.232.657.697.657zm-1.039 2.994h-4.286c.383 1.212 1.039 2.217 1.969 3.014a8.303 8.303 0 0 0 2.317-3.014zm6.754-6.453l.902-.643c1.021.629 2.142 2.242 3.363 4.84 1.705 3.728 3.555 6.002 5.551 6.822l-.957 1.203c-1.996-1.185-3.842-3.682-5.537-7.492a42.325 42.325 0 0 0-.403-.875c-1.057 3.623-3.024 6.44-5.9 8.45a7.456 7.456 0 0 0-.834-1.026c2.958-1.864 4.95-4.812 5.975-8.846-.715-1.194-1.436-2.005-2.16-2.433zm-44.844 68.351l.684-.601c.328.291.642.583.943.875l1.45-1.764h-3.856v-.957h5.113v.957l-2.023 2.447.45.479-.546.478h2.488v.916a21.455 21.455 0 0 1-.683 2.434c-.283-.1-.597-.205-.944-.315.228-.574.429-1.266.602-2.078h-1.367v5.756c0 1.04-.51 1.559-1.532 1.559h-1.449c-.045-.328-.11-.697-.191-1.108.456.055.916.082 1.38.082.511 0 .766-.291.766-.875v-5.414h-2.2v-.957h2.692a22.915 22.915 0 0 0-1.777-1.914zm5.332.342h2.31l.342-1.873h-3.144v-.957h7.766v.957h-3.514l-.397 1.873h3.282v6.727h-.998v-5.784h-4.649v5.784h-.998v-6.727zm2.79 1.504h1.01v2.037c0 1.066-.136 1.983-.41 2.748a69.034 69.034 0 0 1 3.91 2.803l-.751.889a53.033 53.033 0 0 0-3.582-2.79c-.091.137-.182.27-.273.397-.739.939-1.896 1.773-3.473 2.502a11.932 11.932 0 0 0-.766-.902c1.632-.675 2.776-1.445 3.432-2.311.601-.784.902-1.919.902-3.404v-1.969zm6.63 2.789c.438.228.798.397 1.08.506a391.79 391.79 0 0 0-1.326 5.045l-1.121-.52c.538-1.522.993-3.199 1.367-5.031zm-.52-7.465a43.852 43.852 0 0 1 2.079 1.887c-.301.292-.575.565-.82.82a34.981 34.981 0 0 0-1.97-2.023l.712-.684zm-.615 3.514c.766.62 1.49 1.235 2.174 1.846-.237.246-.501.533-.793.86a62.613 62.613 0 0 0-2.05-1.954l.67-.752zm11.416-3.774h.998v11.635c0 1.048-.505 1.572-1.517 1.572-.438 0-.957-.009-1.559-.027-.036-.337-.1-.71-.191-1.121.583.064 1.08.096 1.49.096.52 0 .78-.26.78-.78V209.44zm-1.175 10.172h-.957v-9.064h.957v9.064zm-7.288-9.42h5.155v8.641h-.985v-7.684h-3.185v7.684h-.985v-8.64zm2.133 2.133h.998v3.39c0 1.386-.127 2.498-.383 3.337 1.185.911 2.215 1.732 3.09 2.46l-.738.835a55.139 55.139 0 0 0-2.707-2.38c-.565 1.122-1.581 2.11-3.049 2.968a11.19 11.19 0 0 0-.67-.875c1.358-.784 2.288-1.655 2.79-2.612.446-.83.67-2.064.67-3.705v-3.418zm9.297.205l.684-.601c.328.291.642.583.943.875l1.45-1.764h-3.856v-.957h5.113v.957l-2.023 2.447.45.479-.546.478h2.488v.916a21.455 21.455 0 0 1-.683 2.434c-.283-.1-.597-.205-.944-.315.228-.574.429-1.266.602-2.078h-1.367v5.756c0 1.04-.51 1.559-1.532 1.559h-1.449c-.045-.328-.11-.697-.191-1.108.456.055.916.082 1.38.082.511 0 .766-.291.766-.875v-5.414h-2.2v-.957h2.692a22.915 22.915 0 0 0-1.777-1.914zm5.332.342h2.31l.342-1.873h-3.144v-.957h7.766v.957h-3.514l-.397 1.873h3.282v6.727h-.998v-5.784h-4.649v5.784h-.998v-6.727zm2.79 1.504h1.01v2.037c0 1.066-.136 1.983-.41 2.748a69.034 69.034 0 0 1 3.91 2.803l-.751.889a53.033 53.033 0 0 0-3.582-2.79c-.091.137-.182.27-.273.397-.739.939-1.896 1.773-3.473 2.502a11.932 11.932 0 0 0-.766-.902c1.632-.675 2.776-1.445 3.432-2.311.601-.784.902-1.919.902-3.404v-1.969zm6.835-1.531h2.27c-.338-.42-.675-.811-1.012-1.176l.492-.356h-1.148a12.87 12.87 0 0 1-1.846 1.887c-.2-.228-.428-.46-.684-.697a9.564 9.564 0 0 0 2.653-3.2h1.162c-.214.42-.451.826-.711 1.218h3.978v.792h-3.076c.328.333.657.68.985 1.04l-.65.492h6.303a13.32 13.32 0 0 0-1.155-1.176l.471-.356h-1.36c-.36.552-.734 1.044-1.121 1.477a8.61 8.61 0 0 0-.834-.643 10.389 10.389 0 0 0 1.914-2.843h1.176c-.21.428-.424.834-.643 1.217h4.334v.792H327c.392.324.752.657 1.08.999l-.663.533h1.06v6.152h-.957v-.451h-7.944v.451h-.957v-6.152zm-1.79 6.822h3.718c.036-.26.055-.547.055-.861h.998a7.3 7.3 0 0 1-.048.861h4.477v-.848h1.012v.848h3.24v.848h-3.24v2.297h-1.012v-2.297h-4.62c-.329 1.226-1.409 2.032-3.241 2.42a15.485 15.485 0 0 0-.602-.903c1.513-.255 2.439-.76 2.776-1.517h-3.514v-.848zm10.69-6.057h-7.943v.916h7.944v-.916zm-7.943 4.17h7.944v-.916h-7.944v.916zm0-1.627h7.944v-.916h-7.944v.916z" fill="#666"/><g opacity=".8"><path d="M0 77.618c3.22-20.77 1.28-31.901 32.816-29.685 31.536 2.215 28.604-21.397 48.428-32.867C105.901 4.8 96.248 8.193 128.664.803v76.815H0z" fill="url(#d)" transform="translate(28 163)"/><path d="M0 77.618C8.131 38.667 19.426 20.17 33.886 22.127c21.69 2.935 22.31 26.51 47.814 26.51 25.503 0 45.531-39.133 46.964-47.834.956-5.8.956 19.805 0 76.815H0z" fill="url(#e)" transform="translate(28 163)"/></g><path d="M39.746 222.868c3.363-.629 5.528-1.627 6.494-2.994h-6.275v-1.012h6.781c.31-.948.451-2.602.424-4.963h1.148c0 2.343-.127 3.997-.382 4.963h5.181v1.012h-5.564c-.073.146-.16.3-.26.465 1.95.82 3.86 1.668 5.728 2.543l-.601 1.039a132.47 132.47 0 0 0-5.783-2.775c-1.24 1.212-3.318 2.146-6.235 2.802a9.151 9.151 0 0 0-.656-1.08zm.479-10.54h6.261c-.228-.411-.533-.89-.916-1.436l.998-.56c.301.4.666.929 1.094 1.585l-.752.41h5.852v2.447h-1.094v-1.435h-10.35v1.435h-1.093v-2.447zm1.681 3.69c1.048.475 2.033.971 2.953 1.49l-.588.944a32.068 32.068 0 0 0-2.884-1.558l.52-.875zm1.23-2.091a36.243 36.243 0 0 1 2.885 1.545l-.615.93a48.589 48.589 0 0 0-2.802-1.669l.533-.806zm15.3 4.402c.237 1.714-.201 2.693-1.313 2.94-.355.072-.816.077-1.38.013a7.967 7.967 0 0 0-.302-1.107c.483.118.907.155 1.272.11.638-.074.852-.725.642-1.956-.127-.71-.56-1.55-1.298-2.516a81.617 81.617 0 0 0 1.12-3.636H55.36v11.662h-1.04v-12.674h3.992v.984a423.252 423.252 0 0 1-1.107 3.541c.73.994 1.14 1.873 1.23 2.64zm-.233-3.39h8.914v1.011H63.18v6.016c0 1.112-.538 1.668-1.614 1.668-.428 0-.975-.005-1.64-.014a21.95 21.95 0 0 0-.219-1.162c.693.073 1.23.11 1.613.11.529 0 .793-.279.793-.835v-5.783h-3.91v-1.012zm.738-3.446h7.438v1.012H58.94v-1.012zm1.053 5.92l1.012.37a42.227 42.227 0 0 1-2.078 4.702 10.163 10.163 0 0 0-.971-.478 28.748 28.748 0 0 0 2.037-4.594zm4.225.492l.943-.465a208.525 208.525 0 0 1 2.12 4.444l-.999.478a128.083 128.083 0 0 0-2.064-4.457zm8.64-.273v-.957h7.028v.943c-.62 1.445-1.493 2.66-2.618 3.644 1.089.683 2.458 1.16 4.108 1.428a9.266 9.266 0 0 0-.684 1.04c-1.704-.374-3.126-.978-4.265-1.812-1.23.861-2.707 1.502-4.43 1.92a7.3 7.3 0 0 0-.602-.956c1.655-.347 3.063-.896 4.225-1.648-1.003-.961-1.718-2.162-2.146-3.602h-.616zm-5.154.068a59.76 59.76 0 0 0 1.996-.58v-3.016h-1.818v-.957H69.7v-2.652h1.026v2.652h1.654v.957h-1.654v2.694c.469-.15.952-.31 1.449-.479-.01.292 0 .647.027 1.067-.497.155-.989.312-1.476.471v4.3c0 .994-.442 1.49-1.327 1.49h-1.326a18.746 18.746 0 0 0-.178-1.162c.51.055.926.082 1.245.082.373 0 .56-.218.56-.656v-3.719c-.624.21-1.244.424-1.86.643l-.136-1.135zm12.086-3.062h1.531c-.09.328-.168.66-.232.998h-1.45c-1.048 0-1.572-.502-1.572-1.504v-2.147h-3.035v.506c.01 1.76-.688 3.072-2.092 3.938a7.201 7.201 0 0 0-.738-.834c1.203-.657 1.805-1.691 1.805-3.104v-1.463h5.086v2.953c0 .438.232.657.697.657zm-1.039 2.994h-4.286c.383 1.212 1.039 2.217 1.969 3.014a8.303 8.303 0 0 0 2.317-3.014zm6.754-6.453l.902-.643c1.021.629 2.142 2.242 3.363 4.84 1.705 3.728 3.555 6.002 5.551 6.822l-.957 1.203c-1.996-1.185-3.842-3.682-5.537-7.492a42.327 42.327 0 0 0-.403-.875c-1.057 3.623-3.024 6.44-5.9 8.45a7.456 7.456 0 0 0-.834-1.026c2.958-1.864 4.95-4.812 5.975-8.846-.715-1.194-1.436-2.005-2.16-2.433zm-.844-62.649l.684-.601c.328.291.642.583.943.875l1.45-1.764h-3.856v-.957h5.113v.957l-2.023 2.447.45.479-.546.478h2.488v.916a21.455 21.455 0 0 1-.683 2.434c-.283-.1-.597-.205-.944-.315.228-.574.429-1.266.602-2.078h-1.367v5.756c0 1.04-.51 1.559-1.532 1.559h-1.449c-.045-.328-.11-.697-.191-1.108.456.055.916.082 1.38.082.511 0 .766-.291.766-.875v-5.414h-2.2v-.957h2.692a22.915 22.915 0 0 0-1.777-1.914zm5.332.342h2.31l.342-1.873h-3.144v-.957h7.766v.957h-3.514l-.397 1.873h3.282v6.727h-.998v-5.784h-4.649v5.784h-.998v-6.727zm2.79 1.504h1.01v2.037c0 1.066-.136 1.983-.41 2.748a69.034 69.034 0 0 1 3.91 2.803l-.751.889a53.033 53.033 0 0 0-3.582-2.79c-.091.137-.182.27-.274.397-.738.939-1.895 1.773-3.472 2.502a11.932 11.932 0 0 0-.766-.902c1.632-.675 2.776-1.445 3.432-2.311.601-.784.902-1.919.902-3.404v-1.969zm6.63 2.789c.438.228.798.397 1.08.506a391.79 391.79 0 0 0-1.326 5.045l-1.121-.52c.538-1.522.993-3.199 1.367-5.031zm-.52-7.465a43.852 43.852 0 0 1 2.079 1.887c-.301.292-.575.565-.82.82a34.981 34.981 0 0 0-1.97-2.023l.712-.684zm-.615 3.514c.766.62 1.49 1.235 2.174 1.846-.237.246-.501.533-.793.86a62.612 62.612 0 0 0-2.05-1.954l.67-.752zm11.416-3.774h.998v11.635c0 1.048-.505 1.572-1.517 1.572-.438 0-.957-.009-1.559-.027-.036-.337-.1-.71-.191-1.121.583.064 1.08.096 1.49.096.52 0 .78-.26.78-.78V145.44zm-1.175 10.172h-.958v-9.064h.958v9.064zm-7.288-9.42h5.155v8.641h-.985v-7.684h-3.185v7.684h-.985v-8.64zm2.133 2.133h.998v3.39c0 1.386-.127 2.498-.383 3.337 1.185.911 2.215 1.732 3.09 2.46l-.738.835a55.139 55.139 0 0 0-2.707-2.38c-.565 1.122-1.581 2.11-3.049 2.968a11.19 11.19 0 0 0-.67-.875c1.358-.784 2.288-1.655 2.79-2.612.446-.83.67-2.064.67-3.705v-3.418zm9.297.205l.684-.601c.328.291.642.583.943.875l1.45-1.764h-3.856v-.957h5.113v.957l-2.023 2.447.45.479-.546.478h2.488v.916a21.455 21.455 0 0 1-.683 2.434c-.283-.1-.597-.205-.944-.315.228-.574.429-1.266.602-2.078h-1.367v5.756c0 1.04-.51 1.559-1.532 1.559h-1.449c-.045-.328-.11-.697-.191-1.108.456.055.916.082 1.38.082.511 0 .766-.291.766-.875v-5.414h-2.2v-.957h2.692a22.915 22.915 0 0 0-1.777-1.914zm5.332.342h2.31l.342-1.873h-3.144v-.957h7.766v.957h-3.514l-.397 1.873h3.282v6.727h-.998v-5.784h-4.649v5.784h-.998v-6.727zm2.79 1.504h1.01v2.037c0 1.066-.136 1.983-.41 2.748a69.034 69.034 0 0 1 3.91 2.803l-.751.889a53.033 53.033 0 0 0-3.582-2.79c-.091.137-.182.27-.274.397-.738.939-1.895 1.773-3.472 2.502a11.932 11.932 0 0 0-.766-.902c1.632-.675 2.776-1.445 3.432-2.311.601-.784.902-1.919.902-3.404v-1.969zm6.835-1.531h2.27c-.338-.42-.675-.811-1.012-1.176l.492-.356h-1.148a12.87 12.87 0 0 1-1.846 1.887c-.2-.228-.428-.46-.684-.697a9.564 9.564 0 0 0 2.653-3.2h1.162c-.214.42-.451.826-.711 1.218h3.978v.792h-3.076c.328.333.657.68.985 1.04l-.65.492h6.303a13.32 13.32 0 0 0-1.155-1.176l.471-.356h-1.36c-.36.552-.734 1.044-1.121 1.477a8.61 8.61 0 0 0-.834-.643 10.389 10.389 0 0 0 1.914-2.843h1.176c-.21.428-.424.834-.643 1.217h4.334v.792H136c.392.324.752.657 1.08.999l-.663.533h1.06v6.152h-.957v-.451h-7.944v.451h-.957v-6.152zm-1.79 6.822h3.718c.036-.26.055-.547.055-.861h.998a7.3 7.3 0 0 1-.048.861h4.477v-.848h1.012v.848h3.24v.848h-3.24v2.297h-1.012v-2.297h-4.62c-.329 1.226-1.409 2.032-3.241 2.42a15.485 15.485 0 0 0-.602-.903c1.513-.255 2.439-.76 2.776-1.517h-3.514v-.848zm10.69-6.057h-7.943v.916h7.944v-.916zm-7.943 4.17h7.944v-.916h-7.944v.916zm0-1.627h7.944v-.916h-7.944v.916z" fill="#666"/><path d="M193 125v141.89" stroke="#DD3730" stroke-dasharray="3"/><path d="M153.52 40.377h13.359v-2.129h-12.637v-1.289h12.637v-2.11h-13.184v-1.328h14.746v8.868h-1.562v-.664h-13.36v-1.348zm6.699 2.168h1.64a15.15 15.15 0 0 1-.293 1.475c1.908 3.541 4.955 5.491 9.141 5.85-.352.442-.73.982-1.133 1.62-4.088-.827-6.95-2.715-8.584-5.664-1.113 3.073-4.02 5.04-8.72 5.899-.17-.391-.489-.886-.957-1.485 2.877-.416 5.019-1.243 6.425-2.48 1.276-1.029 2.103-2.767 2.48-5.215zm8.574 1.523c-.86 1.003-1.901 2.09-3.125 3.262l-1.133-1.074a29.655 29.655 0 0 0 3.067-3.184l1.191.996zm-15.527-.097l1.054-.938c.782.755 1.804 1.817 3.067 3.184l-1.211 1.074a51.05 51.05 0 0 0-2.91-3.32zm24.668-.723h4.843v-3.281h-6.152v-1.485h6.152v-3.271a481.46 481.46 0 0 1-5.215.225c-.09-.47-.188-.964-.292-1.485 4.479-.117 8.652-.384 12.52-.8l.312 1.542c-1.576.157-3.49.3-5.743.43v3.36h6.368v1.484h-6.368v3.281h4.844v8.398h-1.523v-1.171h-8.223v1.171h-1.523v-8.398zm9.746 1.406h-8.223v4.414h8.223v-4.414zm-13.496-1.172c.664.352 1.217.612 1.66.782-.768 2.448-1.517 4.83-2.246 7.148l-1.739-.8c.899-2.162 1.674-4.538 2.325-7.13zm-2.11-5.78a44.232 44.232 0 0 1 3.73 2.5c-.39.52-.748.989-1.074 1.405-1.445-1.158-2.643-2.044-3.593-2.656l.937-1.25zm.938-5.079c1.25.86 2.422 1.732 3.515 2.617-.351.443-.71.886-1.074 1.328a64.224 64.224 0 0 0-3.418-2.793l.977-1.152zm27.207.488l1.172-.8a27.982 27.982 0 0 1 1.972 2.52l-1.162.78h2.842a72.402 72.402 0 0 0 1.953-3.3l1.445.84c-.533.78-1.11 1.6-1.728 2.46h3.057v9.297h-1.368v-.683h-3.32v2.402h5.664v1.309h-5.664v3.671h-1.406v-3.671h-5.762v-1.309h5.762v-2.402h-3.32v.683h-1.368v-9.297h2.979a25.289 25.289 0 0 0-1.748-2.5zm-8.73.352h5.663v6.601h-1.367V39.4h-2.187l-.313 3.36h3.828a186.372 186.372 0 0 1-.156 5.488c-.091 1.966-.97 2.95-2.637 2.95-.455 0-1.27-.014-2.441-.04a14.981 14.981 0 0 0-.332-1.543c1.198.091 2.038.137 2.52.137.924 0 1.406-.534 1.445-1.602.078-1.445.13-2.8.156-4.062h-3.887l.567-6.016h3.437v-3.281h-4.297v-1.328zm13.593 9.453h3.32v-2.363h-3.32v2.363zm-4.727-5.996v2.363h3.32V36.92h-3.32zm8.047 0h-3.32v2.363h3.32V36.92zm-8.047 5.996h3.32v-2.363h-3.32v2.363zm16.778 6.563h6.328v-5.235h-5.04v-1.367h5.04V38.15h-3.164a37.166 37.166 0 0 1-1.68 3.692c-.56-.456-.996-.755-1.308-.899 1.302-2.356 2.213-4.765 2.734-7.226l1.543.41a31.065 31.065 0 0 1-.781 2.656h2.656v-4.297h1.543v4.297h5.137v1.367h-5.137v4.727h4.746v1.367h-4.746v5.235h5.742v1.367h-13.613v-1.367zm-3.047-17.012h1.504v3.75l.84-.469a38.331 38.331 0 0 1 1.738 2.969l-1.211.781a26.841 26.841 0 0 0-1.367-2.559v14.786h-1.504V32.467zm-1.816 4.414l1.289.293a61.499 61.499 0 0 1-.977 5.02c-.352-.13-.8-.255-1.348-.372.391-1.419.736-3.066 1.036-4.941zM111.176 64.498h2.724c.248-.67.46-1.348.635-2.031l1.328.37a40.63 40.63 0 0 1-.605 1.661h5.058v1.29h-5.576c-.273.65-.56 1.275-.86 1.874h5.225v8.867c0 1.367-.664 2.051-1.992 2.051h-1.836a72.57 72.57 0 0 0-.273-1.445c.742.039 1.341.058 1.797.058.65 0 .976-.325.976-.976V74.85h-3.925v3.77h-1.329v-8.497c-.475.762-.97 1.478-1.484 2.148-.195-.507-.397-.97-.605-1.386 1.21-1.66 2.194-3.36 2.949-5.098h-2.207v-1.289zm-3.672 8.848c.3 2.383-.274 3.737-1.719 4.062-.43.091-1.015.098-1.758.02a34.072 34.072 0 0 0-.39-1.524c.664.157 1.217.202 1.66.137.794-.13 1.055-1.029.781-2.695-.195-.899-.768-1.901-1.719-3.008.521-1.68 1.029-3.438 1.524-5.274h-2.285V81.53h-1.387V63.66h5.117v1.405a904.61 904.61 0 0 1-1.484 5.02c.885 1.029 1.439 2.116 1.66 3.262zm5.898 6.191c1.498.065 3.868.046 7.11-.058a38.785 38.785 0 0 0-.567 1.542c-2.708.053-4.902.027-6.582-.078-1.849-.078-3.261-.807-4.238-2.187a41.891 41.891 0 0 0-1.914 2.851l-.957-1.21c.436-.658 1.23-1.72 2.383-3.184v-6.68h-1.582v-1.328h2.949v8.535c.794 1.166 1.927 1.765 3.398 1.797zm.45-5.898h3.925V71.88h-3.925v1.758zm3.925-4.727h-3.925v1.758h3.925v-1.758zm-8.73-6.328c.638 1.589 1.126 2.936 1.465 4.043-.521.17-.977.338-1.367.508a50.514 50.514 0 0 0-1.329-4.121l1.23-.43zm12.324 16.27h6.27V62.72h1.64v16.133h3.418V62.72h1.64v16.133h6.329v1.445h-19.297v-1.445zm2.266-12.305a141.527 141.527 0 0 1 3.105 8.008l-1.601.722a109.162 109.162 0 0 0-2.93-8.105l1.426-.625zm11.406 8.183c1.302-2.76 2.396-5.43 3.281-8.007l1.582.625c-1.21 3.112-2.363 5.787-3.457 8.027l-1.406-.645zm11.895-12.578l1.464.625c-.293.482-.599.95-.918 1.407h10.567v1.308c-1.211 1.472-2.868 2.757-4.97 3.858 2.187.794 4.794 1.285 7.821 1.474a29.848 29.848 0 0 0-1.093 1.64c-3.392-.448-6.237-1.207-8.536-2.275-2.584 1.1-5.71 1.97-9.375 2.608-.22-.404-.488-.86-.8-1.367 3.261-.502 6.093-1.211 8.496-2.13-1.485-.904-2.673-1.975-3.565-3.212a26.982 26.982 0 0 1-3.35 3.33c-.39-.417-.748-.768-1.074-1.055 2.396-1.9 4.174-3.971 5.333-6.21zM142.836 73.6h5.684c.09-.632.169-1.335.234-2.11h1.582a62.029 62.029 0 0 1-.264 2.11h7.881c-.13 2.33-.254 3.964-.371 4.902-.208 1.836-1.302 2.76-3.281 2.773-.768.013-1.92-.013-3.457-.078a51.244 51.244 0 0 0-.293-1.62c1.497.13 2.734.201 3.71.214 1.107-.026 1.72-.586 1.837-1.68.117-.976.201-2.018.254-3.125h-6.514c-.69 3.132-3.115 5.404-7.275 6.817-.3-.43-.619-.866-.958-1.309 3.737-1.21 5.951-3.047 6.641-5.508h-5.41V73.6zm13.125-8.125h-8.72c1.047 1.256 2.395 2.291 4.042 3.105 1.882-.879 3.441-1.914 4.678-3.105zm7.988 1.308h4.131c.32-1.36.59-2.845.81-4.453l1.66.215a51.564 51.564 0 0 1-.81 4.238h10.791v1.446H169.37a35.566 35.566 0 0 1-.771 2.48h9.687v1.348c-.86 2.129-2.197 3.968-4.014 5.517 1.83 1.107 3.962 1.885 6.397 2.334a22.51 22.51 0 0 0-1.367 1.64c-2.084-.69-4.18-1.698-6.29-3.027-1.692 1.114-4.114 2.168-7.265 3.165a12.887 12.887 0 0 0-1.172-1.446c3.203-.833 5.596-1.715 7.178-2.646-1.712-1.465-2.933-3.31-3.662-5.537-1.426 3.567-3.366 6.497-5.82 8.789a17.56 17.56 0 0 0-1.036-1.328c2.937-2.65 5.095-6.413 6.475-11.29h-5.42v-1.464a59.772 59.772 0 0 0 1.465-3.73l1.582.429a102.444 102.444 0 0 1-1.387 3.32zm12.617 5.274h-7.06c.586 1.803 1.748 3.356 3.486 4.658 1.686-1.393 2.878-2.946 3.574-4.658zm-3.007-8.38l.859-1.093c1.276.807 2.5 1.647 3.672 2.52l-1.055 1.269a47.869 47.869 0 0 0-3.476-2.695zm12.011 6.27h3.203v-1.699h1.446v1.7h4.043v-1.7h1.445v1.7h3.652v1.288h-3.652v2.149h4.57v1.289h-8.232a9.846 9.846 0 0 0 2.168 2.49c1.016-.488 2.334-1.175 3.955-2.06l.82 1.425c-1.373.573-2.555 1.068-3.545 1.485 1.459.853 3.207 1.406 5.245 1.66-.404.52-.769 1.015-1.094 1.484-4.271-.885-7.295-3.047-9.073-6.484h-2.08v4.902c.17-.052 1.465-.462 3.887-1.23a15.625 15.625 0 0 0 0 1.562 58.626 58.626 0 0 0-3.535 1.133c-.3.117-.768.332-1.406.645l-.86-1.192c.313-.208.47-.657.47-1.348v-4.472h-2.315c-.111 2.67-.863 4.993-2.256 6.972a22.589 22.589 0 0 0-1.113-1.386c1.354-1.758 2.03-4.616 2.03-8.574v-8.399h15.938v5.137h-1.484v-.664h-12.969v2.597c0 1.107-.023 2.116-.068 3.028h4.013v-2.149h-3.203v-1.289zm12.227-5.37h-12.969v1.894h12.969v-1.895zm-7.578 8.808h4.043v-2.149h-4.043v2.149zm13.203-8.34h5.049c.28-.755.589-1.654.927-2.695l1.66.507a42.005 42.005 0 0 1-.966 2.188h8.486v16.523h-1.562v-1.172h-12.032v1.172h-1.562V65.045zm1.562 13.945h12.032v-3.28h-12.032v3.281zm0-4.668h12.032V71.08h-12.032v3.242zm12.032-7.87h-12.032v3.241h12.032v-3.242zm13.28-.02h2.911c.02-1.309.026-2.65.02-4.024h1.601c-.006 1.36-.023 2.702-.049 4.024h5.264c-.091 4.922-.221 8.886-.39 11.894-.144 1.836-.997 2.767-2.56 2.793-.807 0-1.685-.02-2.636-.058a62.356 62.356 0 0 0-.312-1.72c.898.118 1.718.183 2.46.196.964 0 1.465-.54 1.504-1.621.196-3.23.313-6.562.352-10h-3.711l-.04 1.66c-.064 5.13-1.614 9.18-4.647 12.149a26.778 26.778 0 0 0-1.172-1.329c2.721-2.421 4.14-6.041 4.257-10.859l.04-1.621h-2.891v-1.484zm-1.991 6.738c.82 1.77 1.575 3.529 2.265 5.273-.573.248-1.06.463-1.465.645l-.273-.742c-2.48.234-4.74.468-6.777.703l-.684-1.582c.573-.326 1.035-.853 1.387-1.582.638-1.283 1.302-2.91 1.992-4.883h-3.3v-1.445h9.433v1.445h-4.492c-1.114 2.773-2.077 4.928-2.891 6.465 1.497-.11 3.109-.257 4.834-.44a69.6 69.6 0 0 0-1.377-3.252l1.348-.605zm-6.035-9.102h7.832v1.446h-7.832v-1.446zm19.003 8.692c.964-.254 1.928-.515 2.891-.781v-4.59h-2.793V66.06h2.793v-3.614h1.484v3.614h2.637v1.328h-2.637v4.16c.82-.235 1.641-.475 2.461-.723.013.651.026 1.166.04 1.543-.84.241-1.674.485-2.5.733v6.005c0 1.42-.678 2.136-2.032 2.149-.39.013-.99.013-1.797 0a34.282 34.282 0 0 0-.273-1.602c.768.065 1.36.098 1.777.098.56 0 .84-.3.84-.898V73.56c-.905.28-1.803.566-2.695.859l-.196-1.66zm9.532-5.918v5.312c0 4.01-.996 7.175-2.989 9.492-.377-.338-.82-.69-1.328-1.054 1.862-2.188 2.793-4.922 2.793-8.203v-6.993h5.664a39.077 39.077 0 0 0-1.543-2.226l1.29-.8a29.154 29.154 0 0 1 1.699 2.245l-1.192.781h5.41v1.446h-9.804zm21.289 2.324c-.104.117-.215.247-.332.39 2.5 2.396 5.488 4.037 8.965 4.923-.43.65-.75 1.204-.957 1.66a24.55 24.55 0 0 1-2.442-1.035v6.582h-1.562v-.88h-9.551v.88h-1.563v-6.407a27.81 27.81 0 0 1-2.597 1.23 8.15 8.15 0 0 0-.86-1.386c4.037-1.706 7.123-3.776 9.258-6.21l1.64.253zm-9.961-4.453h8.36a47.71 47.71 0 0 0-.977-1.68l1.504-.683a27.4 27.4 0 0 1 1.367 2.363h7.46v3.281h-1.581V66.12h-14.57v1.953h-1.563v-3.36zm13.633 11.367h-9.551v3.32h9.55v-3.32zm-4.883-5.469a28.255 28.255 0 0 1-5.215 4.063h10.8c-2.252-1.185-4.114-2.54-5.585-4.063zm-2.578-3.632l.937 1.269c-2.396 1.471-4.407 2.598-6.035 3.379-.234-.43-.534-.879-.898-1.348 2.24-.976 4.238-2.077 5.996-3.3zm5.215.019a91.187 91.187 0 0 1 6.035 3.066l-.899 1.387c-1.614-.99-3.6-2.07-5.957-3.242l.82-1.211z" fill="#DD3730"/></g></svg>