<svg width="382" height="302" viewBox="0 0 382 302" xmlns="http://www.w3.org/2000/svg" xmlns:xlink="http://www.w3.org/1999/xlink"><title>Group 35 Copy 2</title><defs><path id="a" d="M0 0h380v300H0z"/><linearGradient x1="112.383%" y1="26.974%" x2="0%" y2="100%" id="b"><stop stop-color="#FFC194" offset="0%"/><stop stop-color="#DD3730" offset="100%"/></linearGradient><linearGradient x1="100%" y1="0%" x2="25.394%" y2="100%" id="c"><stop stop-color="#FFC194" offset="0%"/><stop stop-color="#DD3730" offset="100%"/></linearGradient><linearGradient x1="111.782%" y1="0%" x2="13.968%" y2="85.571%" id="d"><stop stop-color="#FFC194" offset="0%"/><stop stop-color="#DD3730" offset="100%"/></linearGradient><linearGradient x1="108.42%" y1="0%" x2="26.718%" y2="85.249%" id="e"><stop stop-color="#FFC194" offset="0%"/><stop stop-color="#DD3730" offset="100%"/></linearGradient><linearGradient x1="129.079%" y1="0%" x2="17.747%" y2="100%" id="f"><stop stop-color="#FFC194" offset="0%"/><stop stop-color="#DD3730" offset="100%"/></linearGradient><linearGradient x1="111.358%" y1="0%" x2="19.086%" y2="76.106%" id="g"><stop stop-color="#FFC194" offset="0%"/><stop stop-color="#DD3730" offset="100%"/></linearGradient></defs><g fill="none" fill-rule="evenodd"><g transform="translate(1 1)"><use fill="#FFF" xlink:href="#a"/><path stroke="#DD3730" d="M-.5-.5h381v301H-.5z"/></g><path d="M140.291 212L98 241.601m42.291-80L98 132" stroke="#DD3730" stroke-width="2" stroke-dasharray="3"/><path d="M27.244 22.292c-1.875-1.465-7.28-3.897-7.28-3.897l-3.508 6.473-.52-1.542.96-1.946-1.922-1.947-1.923 1.947.962 1.946-.62 1.579-3.411-6.51s-5.404 2.433-7.28 3.897C.829 23.756 0 28.2 0 28.2h30s-.55-4.185-2.756-5.908zm-12.092-4.454c4.405-.006 7.34-5.884 7.34-9.049 0-3.163-.012-8.789-7.34-8.789-7.327 0-7.34 5.626-7.34 8.79 0 3.164 2.937 9.056 7.34 9.048z" fill="url(#b)" fill-rule="nonzero" transform="translate(77 110)"/><path d="M237 212l42.291 29.601m-42.291-80L279.291 132" stroke="#DD3730" stroke-width="2" stroke-dasharray="3"/><g transform="translate(131 127)"><circle stroke="url(#c)" stroke-width="4" fill="#FFF" stroke-dasharray="3" cx="55" cy="55" r="55"/><path d="M100 54.464C100 29.907 80.077 10 55.5 10 30.924 10 11 29.907 11 54.464c0 22.684 17 41.4 38.965 44.123 1.238.26 2.746.413 4.542.413.504 0 .99-.027 1.46-.075C80.33 98.675 100 78.865 100 54.464zM93.993 55A41.557 41.557 0 0 0 93 48.222c.045-.786.058-1.53.035-2.222a36.433 36.433 0 0 1 .958 9zM17 54.714c0-2.677.284-5.288.822-7.808 1.666 1.75 5.593 1.708 6.55-.906 1.714 1.003 4.017 1.185 4.017 3.19 0 6.614.24 13.706 6.36 13.815.173.003 3.414 1.206 4.956 5.134.533 1.358 2.643 0 4.956 0 1.155 0 0 1.911 0 6.042 0 4.116 9.036 10.452 9.036 10.452-.042 2.725.072 4.927.303 6.687-2.04-.037-3.758.229-5.109.68C30.772 88.893 17 73.382 17 54.714zM64.588 91c-.199-.967-1.069-1.497-2.656-1.082 1.267-5.36 1.882-8.361 4.525-10.64 3.825-3.295.456-6.959-2.454-6.527-2.294.344-.845-2.822-2.892-2.998-2.047-.17-4.721-4.217-7.668-5.61-1.562-.737-3.097-2.712-5.505-2.8-2.135-.083-5.256 1.793-5.256.347 0-4.659-.474-7.983-.572-9.311-.079-1.067-.701-.36 2.185-.29 1.57.041.803-3.136 2.358-3.26 1.527-.12 5.166 1.42 6.093.806.861-.571 6.33 14.269 6.33 2.453 0-1.401-.73-3.839 0-5.167 2.89-5.246 5.595-9.522 5.352-10.148-.138-.352-2.956-.643-5.211.109-.761.253.242 1.437-.85 1.69-4.096.94-7.714-1.097-6.447-3.012 1.297-1.962 5.998-.856 6.41-4.792.237-2.255.434-4.866.565-6.807 5.512.857 4.905-7.108-3.29-7.961 16.58.193 30.628 10.833 35.783 25.601a1.567 1.567 0 0 0-.914-.415c-2.478-6.15-8.492-1.7-6.452 3.726-10.93 8.35-8.133 14.175-4.541 17.51 1.89 1.753 3.691 4.39 4.864 6.283-1.276 3.7 4.705 2.219 7.655-4.06C88.248 77.577 77.78 87.683 64.588 91z" fill="url(#d)" fill-rule="nonzero"/></g><path d="M10.064 21.624a2.875 2.875 0 0 1 2.006.804c.265.252.465.552.606.898.141.346.212.71.212 1.091s-.071.745-.212 1.091a2.634 2.634 0 0 1-.606.898 3.124 3.124 0 0 1-.912.604 2.69 2.69 0 0 1-1.094.229c-.406 0-.776-.076-1.111-.229a3.23 3.23 0 0 1-.9-.604 2.553 2.553 0 0 1-.606-.898 2.862 2.862 0 0 1-.212-1.091c0-.381.07-.75.212-1.091.14-.346.347-.64.606-.898a2.93 2.93 0 0 1 .9-.592 2.835 2.835 0 0 1 1.111-.212zm12.647.06c.388 0 .753.07 1.111.21.353.141.66.34.912.593.253.252.459.551.606.897.153.347.23.71.23 1.092 0 .381-.077.745-.23 1.09a2.817 2.817 0 0 1-.606.893 2.907 2.907 0 0 1-.912.604 2.773 2.773 0 0 1-1.111.229 2.65 2.65 0 0 1-1.094-.23 2.992 2.992 0 0 1-.9-.603 2.853 2.853 0 0 1-.606-.892 2.631 2.631 0 0 1-.23-1.091c0-.388.077-.751.23-1.092.153-.34.353-.639.606-.897.253-.252.553-.452.9-.593.347-.14.711-.21 1.094-.21zm5.111-17.225c.565 0 1.006.076 1.324.228.311.153.535.34.67.564.135.223.194.457.183.71a2.542 2.542 0 0 1-.106.65 229.689 229.689 0 0 1-1.035 2.986c-.242.681-.483 1.35-.712 2.019a40.48 40.48 0 0 0-.53 1.578c-.264.81-.6 1.367-1.006 1.684-.405.31-.9.47-1.488.47H9.152l.46 2.727h15.322c.97 0 1.459.417 1.459 1.244 0 .405-.094.75-.288 1.044-.195.293-.571.44-1.142.44H9.03c-.406 0-.747-.088-1.018-.27a2.254 2.254 0 0 1-.682-.71 4.304 4.304 0 0 1-.441-.956 8.568 8.568 0 0 1-.259-.968c-.018-.123-.076-.416-.165-.88a107.27 107.27 0 0 1-.335-1.742c-.13-.698-.276-1.479-.441-2.335-.165-.857-.324-1.725-.488-2.593-.388-2.042-.824-4.318-1.306-6.823H1.612c-.306 0-.56-.076-.76-.229a2.145 2.145 0 0 1-.505-.551 1.943 1.943 0 0 1-.27-.68A3.152 3.152 0 0 1 0 1.395C0 .991.135.657.412.393.688.13 1.052 0 1.523 0h3.07c.407 0 .73.059.971.182a1.687 1.687 0 0 1 .883 1.032c.059.206.112.376.153.517.04.164.082.387.123.68l.124.892c.059.364.123.75.182 1.156h20.793z" transform="translate(270 113)" fill-rule="nonzero" fill="url(#e)"/><path d="M11.01 7.83h7.568c2.342 0 4.129-5.05 4.129-5.05 0-1.512-.152-2.656-2.753-2.737-2.6-.081-3.223 1.808-5.091 1.808-1.915 0-2.873-1.485-5.23-1.808C7.277-.28 6.881 1.268 6.881 2.78c0 0 1.786 5.05 4.128 5.05zm7.981 1.56H11.01C2.171 9.39 0 26.656 0 26.656 0 28.922 1.849 31.2 4.129 31.2H25.87c2.28 0 4.129-2.278 4.129-4.545 0 0-2.171-17.264-11.009-17.264zm.906 13.269c.533 0 .964.43.964.96a.96.96 0 0 1-.964.958h-3.913v2.517c0 .53-.432.959-.964.959a.962.962 0 0 1-.964-.96v-2.516h-3.939a.962.962 0 0 1-.964-.959c0-.53.432-.96.964-.96h3.94v-1.216h-3.94a.961.961 0 0 1-.964-.959c0-.53.432-.96.964-.96h2.663l-2.726-4.816a.956.956 0 0 1 .353-1.31.967.967 0 0 1 1.316.35l3.283 5.776h.166l3.282-5.776a.966.966 0 0 1 1.316-.35c.462.264.62.85.354 1.31l-2.726 4.816h2.5c.532 0 .963.43.963.96s-.431.959-.964.959h-3.913v1.217h3.913z" transform="translate(77 224)" fill-rule="nonzero" fill="url(#f)"/><path d="M0 17.533C0 25.525 6.511 32 14.548 32c8.037 0 14.784-7.036 14.784-15.032h-14.22V2.825C7.076 2.825 0 9.541 0 17.533zm32-3.212C32.004 6.325 25.785-.007 17.738 0l.043 14.32H32z" transform="translate(274 223)" fill-rule="nonzero" fill="url(#g)"/><path d="M131.332 51.318c2.383-.397 4.303-1.009 5.762-1.836-1.114-.768-2.123-1.777-3.028-3.027l1.026-.781h-1.514V37.49h6.856l.02-1.797h-8.419v-1.367h17.93v1.367h-8.008c0 .645-.003 1.244-.01 1.797h6.475v9.14h-1.484v-.956h-5.47c-.338 1.543-.875 2.73-1.61 3.564 2.61.957 6.246 1.43 10.908 1.416a18.037 18.037 0 0 0-.801 1.563c-5.17-.143-8.968-.778-11.397-1.904-1.497.99-3.61 1.787-6.338 2.392-.26-.456-.56-.918-.898-1.387zm3.73-10.39h5.333c.013-.625.022-1.328.029-2.11h-5.362v2.11zm5.313 1.308h-5.313v2.11h5.147c.085-.638.14-1.341.166-2.11zm1.318 2.11h5.244v-2.11h-5.058a22.13 22.13 0 0 1-.186 2.11zm5.244-5.528h-5c-.006.788-.016 1.491-.029 2.11h5.03v-2.11zm-8.535 9.766c.703-.605 1.221-1.576 1.553-2.91h-4.785c.898 1.25 1.976 2.22 3.232 2.91zm18.457-5.41h5.196c.104-1.08.175-2.689.215-4.824h-4.083v-1.387h4.102v-3.418h1.543c0 1.237-.006 2.376-.02 3.418h4.766v6.21h1.914v1.388h-6.328c1.068 2.955 3.145 5.123 6.23 6.503-.338.326-.774.827-1.308 1.504-2.956-1.666-4.954-4.043-5.996-7.129-.781 2.93-2.689 5.359-5.723 7.286-.43-.547-.814-.983-1.152-1.309 3.125-1.849 5.006-4.134 5.644-6.855h-5v-1.387zm-2.851-9.63h1.465v4.298l.761-.508a29.48 29.48 0 0 1 2.207 2.734l-1.171.86a28.205 28.205 0 0 0-1.797-2.48v14.198h-1.465V33.545zm13.047 4.806h-3.262c-.026 2.07-.085 3.678-.176 4.824h3.438V38.35zm-14.942-.313l1.309.195a57.638 57.638 0 0 1-.86 5 75.5 75.5 0 0 0-1.308-.312c.312-1.341.599-2.969.86-4.883zm25.86.8h4.902v-1.894h-5.82v-1.347h5.82v-2.13h1.445v2.13h6.133v1.347h-6.133v1.895h4.903v5.605h-1.407v-.605h-3.496v1.406l.508-.781a230.442 230.442 0 0 1 5.567 3.144l-.899 1.387a66.636 66.636 0 0 0-5.176-3.203v4.238h-1.445V44.99a23.37 23.37 0 0 1-5.41 4.434c-.222-.339-.573-.762-1.055-1.27 2.37-1.172 4.362-2.61 5.977-4.316h-3.008v.605h-1.406v-5.605zm1.347 11.856c3.243.052 7.032.026 11.368-.078-.144.43-.326.944-.547 1.543-4.31.026-8.015 0-11.114-.078-2.213-.026-3.763-.788-4.648-2.285-.534.495-1.315 1.367-2.344 2.617l-.8-1.621a180.582 180.582 0 0 1 2.5-2.383v-6.582h-2.325v-1.445h3.828v8.36c.795 1.288 2.155 1.94 4.082 1.952zm8.496-10.586h-3.496v2.461h3.496v-2.46zm-8.437 2.461h3.496v-2.46h-3.496v2.46zm-5.879-8.75c.664.808 1.576 2.038 2.734 3.692l-1.386.976c-1.055-1.653-1.92-2.93-2.598-3.828l1.25-.84zm18.613 2.793h1.973a45.578 45.578 0 0 0 1.191-3.242l1.641.469a93.18 93.18 0 0 1-1.191 2.773h3.906v15.547h-1.563v-1.523h-4.394v1.66h-1.563V36.61zm7.813 4.004c1.224-1.94 2.259-4.355 3.105-7.246l1.64.41c-.331.983-.67 1.908-1.015 2.774h6.29c-.157 6.692-.287 10.905-.391 12.636-.091 2.045-1.166 3.067-3.223 3.067-1.185 0-2.39-.04-3.613-.117a13.545 13.545 0 0 0-.313-1.739h.059c1.302.183 2.493.274 3.574.274 1.185 0 1.823-.625 1.914-1.875.143-1.94.248-5.534.313-10.781h-5.235a26.907 26.907 0 0 1-1.758 3.32 7.481 7.481 0 0 0-1.347-.723zm-6.25 8.555h4.394v-4.941h-4.394v4.94zm4.394-11.094h-4.394v4.746h4.394v-4.746zm3.575 3.867l1.19-.879c1.446 1.706 2.599 3.184 3.458 4.434l-1.445 1.016a47.283 47.283 0 0 0-3.203-4.57zm9.628 1.817c.964-.254 1.928-.515 2.891-.781v-4.59h-2.793V37.06h2.793v-3.614h1.484v3.614h2.637v1.328h-2.637v4.16c.82-.235 1.641-.475 2.461-.723.013.651.026 1.166.04 1.543-.84.241-1.674.485-2.5.733v6.005c0 1.42-.678 2.136-2.032 2.149-.39.013-.99.013-1.797 0a34.282 34.282 0 0 0-.273-1.602c.768.065 1.36.098 1.777.098.56 0 .84-.3.84-.898V44.56c-.905.28-1.803.566-2.695.859l-.196-1.66zm9.532-5.918v5.312c0 4.01-.996 7.175-2.989 9.492-.377-.338-.82-.69-1.328-1.054 1.862-2.188 2.793-4.922 2.793-8.203v-6.993h5.664a39.077 39.077 0 0 0-1.543-2.226l1.29-.8a29.154 29.154 0 0 1 1.699 2.245l-1.192.781h5.41v1.446h-9.804zm17.226 3.887h2.324v-8.243h1.504v8.243h8.594v1.406h-5.459c1.01 3.183 2.92 5.605 5.733 7.265-.508.495-.931.95-1.27 1.368-2.969-2.207-4.925-5.085-5.87-8.633h-1.728v6.699c.69-.339 1.648-.86 2.871-1.563.092.6.196 1.114.313 1.543a54.67 54.67 0 0 0-3.203 1.797c-.482.339-.86.645-1.133.918l-1.055-1.347c.47-.47.703-1.01.703-1.621v-6.426h-2.324v-1.406zm-6.191-7.305h6.25v6.562h-1.445v-.605h-2.97l-.312 3.379h4.59a427.14 427.14 0 0 1-.371 5.703c-.156 1.836-1.055 2.754-2.695 2.754-.534 0-1.394-.02-2.578-.059a23.318 23.318 0 0 0-.332-1.66c1.132.104 2.011.156 2.636.156.86 0 1.348-.43 1.465-1.289.143-1.015.254-2.441.332-4.277h-4.629l.567-6.035h4.297v-3.301h-4.805v-1.328zm10.527 4.98a34.416 34.416 0 0 0 6.25-4.746l1.153 1.094a43.248 43.248 0 0 1-6.485 4.902l-.918-1.25zM132.152 80.322h8.067v-3.398h-6.328v-1.426h6.328V72.49h-5.606v-1.426h12.852v1.426h-5.625v3.008h6.348v1.426h-6.348v3.398h8.047v1.446h-17.735v-1.446zm10.274-16.68l-.39.489c2.187 2.864 5.09 5.02 8.71 6.465a29.056 29.056 0 0 0-1.035 1.562c-3.438-1.693-6.322-3.965-8.652-6.816-1.993 2.578-4.935 4.935-8.829 7.07a17.82 17.82 0 0 0-.976-1.465c4.023-2.018 7.064-4.453 9.121-7.304h2.05zm10.039.743h17.09v18.222h-1.504v-.976h-14.082v.996h-1.504V64.385zm15.586 1.386h-14.082v14.473h14.082V65.771zm-13.184 11.075h5.39v-3.867h-4.706V71.65h4.707v-2.617h-5.078v-1.328h11.64v1.328h-5.117v2.617h4.727v1.329h-4.727v3.867h5.43v1.328h-12.266v-1.328zm7.852-2.617l1.094-.82a26.704 26.704 0 0 1 1.835 2.089l-1.152.879a22.3 22.3 0 0 0-1.777-2.148zm9.433 6.093h8.067v-3.398h-6.328v-1.426h6.328V72.49h-5.606v-1.426h12.852v1.426h-5.625v3.008h6.348v1.426h-6.348v3.398h8.047v1.446h-17.735v-1.446zm10.274-16.68l-.39.489c2.187 2.864 5.09 5.02 8.71 6.465a29.056 29.056 0 0 0-1.035 1.562c-3.438-1.693-6.322-3.965-8.652-6.816-1.993 2.578-4.935 4.935-8.829 7.07a17.82 17.82 0 0 0-.976-1.465c4.023-2.018 7.064-4.453 9.121-7.304h2.05zm15.586 13.965a120.334 120.334 0 0 0 5.332-3.457v-5.683h-5V67.06h5v-3.477h1.484v3.477h5.547v1.406h-5.547v1.738a21.175 21.175 0 0 0 1.143 2.969c1.126-1.094 2.067-2.103 2.822-3.028l1.27 1.075a98.783 98.783 0 0 1-3.428 3.222c1.133 1.96 2.542 3.477 4.228 4.551a6.374 6.374 0 0 1-.508.606c-.286.3-.488.533-.605.703-2.135-1.543-3.776-3.763-4.922-6.66v6.308c0 1.55-.807 2.324-2.422 2.324-.638 0-1.321-.006-2.05-.02a24.515 24.515 0 0 0-.313-1.6c.768.09 1.465.136 2.09.136.807 0 1.21-.397 1.21-1.191v-3.721a181.93 181.93 0 0 0-4.355 3.135l-.976-1.407zm-6.719 1.27a119.05 119.05 0 0 0 2.773-.322v-5.909h-2.402V71.24h2.402v-4.59h-2.656v-1.406h6.68v1.406h-2.598v4.59h2.266v1.406h-2.266v5.723c.781-.11 1.589-.228 2.422-.351-.052.52-.085 1.022-.098 1.503-2.435.313-4.544.606-6.328.88l-.195-1.524zm7.148-8.32l1.192-.723a46.097 46.097 0 0 1 2.52 3.672l-1.25.86c-.9-1.524-1.72-2.794-2.462-3.81zm7.442-5.82l.86-.977c.924.612 1.77 1.243 2.538 1.894l-.937 1.075a22.836 22.836 0 0 0-2.461-1.993zm24.765 11.367c0 2.24-.878 3.45-2.636 3.632-.664.078-1.55.052-2.657-.078a139.32 139.32 0 0 0-.253-1.719c.95.157 1.764.235 2.441.235 1.146 0 1.667-.788 1.562-2.363-.052-1.394-1.048-2.82-2.988-4.278a94.459 94.459 0 0 0 2.578-5.605h-3.984v16.66h-1.484V64.482h7.03v1.602c-.507 1.315-1.295 3.02-2.362 5.117 1.835 1.432 2.753 3.067 2.753 4.903zm-17.851-1.583h8.437v7.95h-1.445v-1.446h-5.547v1.465h-1.445v-7.969zm6.992 1.31h-5.547v3.847h5.547V75.83zm-8.398-4.65h6.25c.774-1.34 1.406-2.564 1.894-3.671l1.445.742a52.931 52.931 0 0 1-1.806 2.93h3.408v1.308h-11.191v-1.308zm.43-5.156h4.882c-.254-.586-.638-1.302-1.152-2.148l1.347-.625c.586.977 1.003 1.751 1.25 2.324l-.957.45h5.04v1.308h-10.41v-1.309zm1.308 2.325l1.191-.723a36.67 36.67 0 0 1 1.778 2.773l-1.328.762c-.404-.82-.951-1.758-1.641-2.812zm18.379 4.238h7.344v-1.504h-5.45V69.99h5.45v-1.152h1.367v1.152h4.61v1.094h-4.61v1.504h2.002a73.093 73.093 0 0 0 5.869-3.223l.879 1.016c-1.36.775-2.715 1.51-4.063 2.207h5.664v1.133h-7.92a79.71 79.71 0 0 1-3.33 1.543h8.438v7.382h-1.367v-.898h-9.903v.898h-1.367v-5.654a73.88 73.88 0 0 1-3.164 1.123 11.31 11.31 0 0 0-.781-1.23 67.507 67.507 0 0 0 8.623-3.164h-8.291v-1.133zm1.347-8.496h16.192v4.804h-1.328v-.39h-13.535v.625h-1.329v-5.04zm3.633 16.523h9.903v-1.562h-9.903v1.562zm9.903-4.219h-9.756l-.147.06v1.503h9.903v-1.563zm1.328-11.132h-3.653v2.07h3.653v-2.07zm-13.535 2.07h3.652v-2.07h-3.652v2.07zm4.941 0h3.652v-2.07h-3.652v2.07z" fill="#DD3730"/></g></svg>