<svg width="382" height="302" viewBox="0 0 382 302" xmlns="http://www.w3.org/2000/svg" xmlns:xlink="http://www.w3.org/1999/xlink"><title>Group 35 Copy 4</title><defs><path id="b" d="M0 0h380v300H0z"/><path id="a" d="M103 161h173v96H103z"/><mask id="c" x="0" y="0" width="173" height="96" fill="#fff"><use xlink:href="#a"/></mask><linearGradient x1="119.748%" y1="-13.599%" x2="23.22%" y2="88.275%" id="d"><stop stop-color="#FFC194" offset="0%"/><stop stop-color="#DD3730" offset="100%"/></linearGradient></defs><g transform="translate(1 1)" fill="none" fill-rule="evenodd"><use fill="#FFF" xlink:href="#b"/><path stroke="#DD3730" d="M-.5-.5h381v301H-.5z"/><use stroke="#DD3730" mask="url(#c)" stroke-width="2" fill="#FFF" stroke-dasharray="3" xlink:href="#a"/><path d="M147.918 191.46c-.319.41-.588.797-.807 1.162-2.392-.898-4.252-2.35-5.578-4.354v5.626h-1.066v-5.606c-1.335 1.86-3.172 3.377-5.51 4.553-.21-.31-.47-.652-.78-1.026 2.33-.993 4.136-2.283 5.422-3.869h-5.244v-1.039h6.112v-1.203h1.066v1.203h6.098v1.04h-5.25c1.28 1.704 3.126 2.875 5.537 3.513zm-12.564-9.256c-.055-.364-.119-.71-.192-1.039 5.013-.055 8.855-.173 11.525-.355l.165 1.039c-3.017.145-6.85.264-11.498.355zm7.792 3.172a56.743 56.743 0 0 0 2.625-3.172l.958.711a167.087 167.087 0 0 1-2.803 3.172l-.78-.711zm-3.54-2.516l.902-.533c.82 1.14 1.413 1.996 1.777 2.57l-.998.575a35.894 35.894 0 0 0-1.682-2.612zm-4.088.547l.806-.588a86.172 86.172 0 0 1 2.037 2.461l-.93.657a46.57 46.57 0 0 0-1.913-2.53zm13.439-2.242h4.621v3.924c.912-1.395 1.59-2.967 2.037-4.717l1.08.246c-.218.656-.446 1.28-.683 1.873h5.222c-.054 4.43-.109 7.378-.164 8.846-.082 1.476-.838 2.215-2.27 2.215-.783 0-1.617-.018-2.501-.055a13.47 13.47 0 0 0-.219-1.121c.884.1 1.695.155 2.434.164.957-.01 1.463-.483 1.517-1.422.064-1.55.11-4.092.137-7.629h-4.566a23.083 23.083 0 0 1-1.053 2.174 6.337 6.337 0 0 0-.97-.506v4.485h-.985v-7.479h-2.653v7.56h-.984v-8.558zm8.258 5.633l.943-.274a98.44 98.44 0 0 1 1.217 4.13l-1.025.3a22.298 22.298 0 0 1-.205-.834c-.967.064-1.832.141-2.598.233a9.766 9.766 0 0 0-1.217.218l-.424-.888c.32-.2.556-.474.711-.82.501-1.213.975-2.671 1.422-4.376l1.04.246c-.548 1.687-1.09 3.24-1.628 4.663.775-.046 1.595-.1 2.461-.165-.219-.802-.451-1.613-.697-2.433zm-6.44-3.445h.985v2.748c0 1.768-.123 3.14-.37 4.115l.397-.37a85.5 85.5 0 0 1 2.447 2.64l-.861.724a45.642 45.642 0 0 0-2.133-2.53c-.328 1.04-1.116 2.102-2.365 3.186-.2-.282-.442-.56-.725-.834 1.067-.793 1.773-1.64 2.12-2.543.337-.784.505-2.114.505-3.992v-3.144zm18.362-1.313h6.043v11.416h-1.094v-1.326h-3.856v1.326h-1.093V182.04zm4.949 1.012h-3.856v8.094h3.856v-8.094zm-11.922 6.986a17.412 17.412 0 0 0 2.475-4.594h-2.393v-.93h2.611v-2.16c-.71.11-1.43.21-2.16.301a12.36 12.36 0 0 0-.3-.943 48.07 48.07 0 0 0 5.51-.93l.314.957a76.61 76.61 0 0 1-2.325.438v2.338h2.557v.93h-2.557v1.763l.493-.492c.72.62 1.426 1.276 2.119 1.969l-.78.793a31.99 31.99 0 0 0-1.832-1.928v6.357h-1.039v-6.562a17.173 17.173 0 0 1-2.173 3.869 26.732 26.732 0 0 0-.52-1.176zm14.547 2.666c2.288-.35 4.156-.934 5.605-1.75-1.19-.556-2.447-1.13-3.773-1.723.433-.647.859-1.321 1.278-2.023h-3.589v-1.012h4.184a70.99 70.99 0 0 0 1.367-2.515l1.08.45c-.4.707-.795 1.395-1.182 2.065h8.114v1.012h-2.933a7.957 7.957 0 0 1-2.358 3.541 365.04 365.04 0 0 1 4.293 1.969l-.67 1.094c-1.39-.73-2.928-1.493-4.614-2.29-1.586 1.066-3.662 1.834-6.228 2.303-.164-.346-.355-.72-.574-1.12zm.191-10.322h6.16a19.234 19.234 0 0 0-1.197-1.545l.916-.615a15.73 15.73 0 0 1 1.408 1.736l-.628.424h5.591v2.597h-1.107v-1.585h-10.049v1.585h-1.094v-2.597zm3.213 6.44c1.094.469 2.183.945 3.268 1.428 1.089-.83 1.852-1.843 2.29-3.042h-4.587c-.328.551-.652 1.09-.97 1.613zm17.979 2.652c-.01.4-.01.76 0 1.08a51.05 51.05 0 0 0-2.899.902c-.273.1-.601.25-.984.451l-.602-.834c.22-.182.328-.496.328-.943v-1.06a20.572 20.572 0 0 1-3.144 1.47 7.5 7.5 0 0 0-.615-.97c2.433-.785 4.354-1.833 5.762-3.145h-5.585v-.957h6.406c-.219-.351-.435-.68-.65-.985l.875-.533c.31.456.597.875.862 1.258l-.438.26h6.317v.957h-6.228a6.304 6.304 0 0 0 1.497 1.92 58.586 58.586 0 0 0 3.008-1.551l.574.998c-.907.36-1.83.745-2.768 1.155 1.061.675 2.39 1.128 3.985 1.36-.274.365-.524.707-.752 1.026-2.953-.579-5.063-2.03-6.33-4.354a13.3 13.3 0 0 1-1.764 1.456v1.996a64.68 64.68 0 0 0 3.145-.957zm-1.914-6.536h2.966v-1.818h-3.445v-.943h3.445v-1.846h1.026v1.846h3.527v.943h-3.527v1.818h3.062v.944h-7.054v-.944zm-2.106-4.634h1.012v6.302h-1.012v-2.098c-.984.565-2.014 1.164-3.09 1.798-.1-.21-.287-.547-.56-1.012a87.18 87.18 0 0 0 3.65-1.962v-3.028zm-3.281 1.353l.725-.71c.829.683 1.453 1.234 1.873 1.654l-.82.793a23.558 23.558 0 0 0-1.778-1.737zm21.068-.15c1.887-.018 3.628-.205 5.223-.56l.355 1.052c-1.804.237-3.34.392-4.607.465v3.185h4.99v.93h-1.955v7.164h-1.012v-7.164h-2.023v.67c0 2.798-.67 4.977-2.01 6.535-.218-.282-.46-.574-.724-.875 1.175-1.285 1.763-3.185 1.763-5.701v-5.701zm-7.287 6.139h2.79v-1.3h.984v1.3h2.68v.875h-2.68v3.568c0 .966-.465 1.45-1.395 1.45-.392 0-.834-.005-1.326-.015-.037-.3-.087-.647-.15-1.039.528.055.943.082 1.244.082.428 0 .642-.232.642-.697v-3.35h-2.789v-.874zm-.383-2.557h2.202a20.271 20.271 0 0 0-1.094-1.586l.738-.52c.3.365.688.88 1.162 1.545l-.772.56h1.804c.497-.715.955-1.421 1.374-2.118l.971.547a53.86 53.86 0 0 1-1.264 1.572h2.07v.875h-7.19v-.875zm.438-3.172h2.953a37.46 37.46 0 0 0-.67-1.217l.875-.41c.283.465.547.934.793 1.408l-.458.219h2.905v.875h-6.398v-.875zm.998 7.219l.93.437a38.81 38.81 0 0 1-1.463 2.79 10.07 10.07 0 0 0-.903-.493c.447-.693.926-1.604 1.436-2.734zm3.937.068c.51.693.957 1.33 1.34 1.914l-.875.602a22.382 22.382 0 0 0-1.271-1.983l.806-.533zm14.247-5.906h3.117v-1.23h-3.405v-.93h8.176v.93h-3.76v1.23h3.145v6.316h-.984v-.56h-2.277c-.127.957-.36 1.72-.697 2.29 1.203.679 2.782 1.114 4.737 1.305a19.38 19.38 0 0 0-.683 1.094c-1.914-.3-3.482-.836-4.703-1.606-.77.697-2.07 1.296-3.897 1.798-.164-.283-.36-.593-.588-.93 1.7-.424 2.9-.928 3.603-1.51a6.455 6.455 0 0 1-1.484-1.826l.862-.424a5.15 5.15 0 0 0 1.257 1.49c.251-.419.433-.98.547-1.681h-2.966v-5.756zm-5.743 5.045c1.021-1.64 1.77-3.55 2.25-5.729h-1.812v-.93h4.771v.93h-1.92a23.055 23.055 0 0 1-.876 2.994h2.332v5.948h-2.366v1.066h-.93v-4.82c-.236.452-.487.883-.751 1.293-.174-.2-.406-.451-.698-.752zm3.815 2.31v-4.142h-1.436v4.142h1.436zm6.022-2.488h2.195v-1.572h-2.16c0 .346-.012.87-.035 1.572zm2.195-3.978h-2.16v1.544h2.16v-1.544zm-3.22 3.978c.032-.378.048-.902.048-1.572h-2.133v1.572h2.085zm-2.085-2.434h2.133v-1.544h-2.133v1.544zm11.47 2.297h4.745v-3.459h-2.605c-.369.98-.772 1.855-1.21 2.625a6.674 6.674 0 0 0-.902-.724c.866-1.522 1.504-3.222 1.914-5.1l1.107.315a28.26 28.26 0 0 1-.574 1.927h2.27v-3.172h1.094v3.172h3.267v.957h-3.267v3.46h3.718v.956h-3.718v4.786h-1.094v-4.786h-4.744v-.957zm-4.115-.82c1.258-1.86 2.27-4.11 3.036-6.754l1.12.328a34.849 34.849 0 0 1-1.093 2.988v10.014h-1.08v-7.759a20.263 20.263 0 0 1-1.49 2.372 11.761 11.761 0 0 0-.493-1.189zm-97.44 27.496c2.289-.35 4.157-.934 5.606-1.75-1.19-.556-2.447-1.13-3.773-1.723.433-.647.859-1.321 1.278-2.023h-3.589v-1.012h4.184a70.99 70.99 0 0 0 1.367-2.515l1.08.45c-.4.707-.795 1.395-1.182 2.065h8.114v1.012h-2.933a7.957 7.957 0 0 1-2.358 3.541 365.04 365.04 0 0 1 4.293 1.969l-.67 1.094c-1.39-.73-2.928-1.493-4.614-2.29-1.586 1.066-3.662 1.834-6.228 2.303-.164-.346-.355-.72-.574-1.12zm.192-10.322h6.16a19.234 19.234 0 0 0-1.197-1.545l.916-.615a15.73 15.73 0 0 1 1.408 1.736l-.628.424h5.591v2.597h-1.107v-1.585h-10.049v1.585h-1.094v-2.597zm3.213 6.44c1.094.469 2.183.945 3.268 1.428 1.089-.83 1.852-1.843 2.29-3.042h-4.587c-.328.551-.652 1.09-.97 1.613zm17.979 2.652c-.01.4-.01.76 0 1.08a51.05 51.05 0 0 0-2.899.902c-.273.1-.601.25-.984.451l-.602-.834c.22-.182.328-.496.328-.943v-1.06a20.572 20.572 0 0 1-3.144 1.47 7.5 7.5 0 0 0-.615-.97c2.433-.785 4.354-1.833 5.762-3.145h-5.585v-.957h6.406c-.219-.351-.435-.68-.65-.985l.875-.533c.31.456.597.875.862 1.258l-.438.26h6.317v.957h-6.228a6.304 6.304 0 0 0 1.497 1.92 58.586 58.586 0 0 0 3.008-1.551l.574.998c-.907.36-1.83.745-2.768 1.155 1.061.675 2.39 1.128 3.985 1.36-.274.365-.524.707-.752 1.026-2.953-.579-5.063-2.03-6.33-4.354a13.3 13.3 0 0 1-1.764 1.456v1.996a64.68 64.68 0 0 0 3.145-.957zm-1.914-6.536h2.966v-1.818h-3.445v-.943h3.445v-1.846h1.026v1.846h3.527v.943h-3.527v1.818h3.062v.944h-7.054v-.944zm-2.106-4.634h1.012v6.302h-1.012v-2.098c-.984.565-2.014 1.164-3.09 1.798-.1-.21-.287-.547-.56-1.012a87.18 87.18 0 0 0 3.65-1.962v-3.028zm-3.281 1.353l.725-.71c.829.683 1.453 1.234 1.873 1.654l-.82.793a23.558 23.558 0 0 0-1.778-1.737zm20.344.383h6.043v11.416h-1.094v-1.326h-3.856v1.326h-1.093V204.04zm4.949 1.012h-3.856v8.094h3.856v-8.094zm-11.922 6.986a17.412 17.412 0 0 0 2.475-4.594h-2.393v-.93h2.611v-2.16c-.71.11-1.43.21-2.16.301a12.36 12.36 0 0 0-.3-.943 48.07 48.07 0 0 0 5.51-.93l.314.957a76.61 76.61 0 0 1-2.325.438v2.338h2.557v.93h-2.557v1.763l.493-.492c.72.62 1.426 1.276 2.119 1.969l-.78.793a31.99 31.99 0 0 0-1.832-1.928v6.357h-1.039v-6.562a17.173 17.173 0 0 1-2.173 3.869 26.732 26.732 0 0 0-.52-1.176zm14.684-6.125h1.873v-1.79h-2.297v-.903h7.246v.902h-2.27v1.791h1.983v9.762h-.916v-.875h-4.703v.888h-.916v-9.775zm7.533 1.71h3.623v-3.556h-3.856v-.957h4.84v6.002h-.984v-.533h-2.639v4.73c0 .72.31 1.08.93 1.08h1.299c.538 0 .843-.268.916-.806.118-.61.2-1.349.246-2.215.255.128.597.278 1.025.451-.064.739-.16 1.44-.287 2.106-.155.966-.729 1.449-1.723 1.449h-1.763c-1.085 0-1.627-.643-1.627-1.928v-5.824zm-3.856 1.366v-2.2h-.93v.546c0 1.458-.378 2.666-1.134 3.623a53.711 53.711 0 0 0-.697-.67v1.135h4.703v-1.313h-.97c-.648 0-.972-.373-.972-1.12zm-2.761 4.936h4.703v-1.64h-4.703v1.64zm4.703-7.137H181.4v1.9c-.018.41.15.602.506.575h.56v-2.475zm-4.703 3.411c.638-.724.957-1.702.957-2.932v-.479h-.957v3.411zm1.832-4.286h.93v-1.79h-.93v1.79zm10.61 8.71h2.036v-6.331h4.184v-.889h-5.893v-.765h5.893v-.725h.984v.725h6.043v.765h-6.043v.889h4.47v6.33h1.888v.793h-13.563v-.793zm1.189-11.636h11.197v3.05h-.93v-.315h-9.324v.314h-.943v-3.049zm1.804 11.635h7.725v-.875h-7.725v.875zm0-1.586h7.725v-.861h-7.725v.861zm0-1.572h7.725v-.861h-7.725v.86zm7.725-2.434h-7.725v.862h7.725v-.862zm.738-5.304h-2.516v1.257h2.516v-1.257zm-5.92 1.257h2.502v-1.257h-2.502v1.257zm-3.404 0h2.502v-1.257h-2.502v1.257zm19.523-1.476c1.887-.018 3.628-.205 5.223-.56l.355 1.052c-1.804.237-3.34.392-4.607.465v3.185h4.99v.93h-1.955v7.164h-1.012v-7.164h-2.023v.67c0 2.798-.67 4.977-2.01 6.535-.218-.282-.46-.574-.724-.875 1.175-1.285 1.763-3.185 1.763-5.701v-5.701zm-7.287 6.139h2.79v-1.3h.984v1.3h2.68v.875h-2.68v3.568c0 .966-.465 1.45-1.395 1.45-.392 0-.834-.005-1.326-.015-.037-.3-.087-.647-.15-1.039.528.055.943.082 1.244.082.428 0 .642-.232.642-.697v-3.35h-2.789v-.874zm-.383-2.557h2.202a20.271 20.271 0 0 0-1.094-1.586l.738-.52c.3.365.688.88 1.162 1.545l-.772.56h1.804c.497-.715.955-1.421 1.374-2.118l.971.547a53.86 53.86 0 0 1-1.264 1.572h2.07v.875h-7.19v-.875zm.438-3.172h2.953a37.46 37.46 0 0 0-.67-1.217l.875-.41c.283.465.547.934.793 1.408l-.458.219h2.905v.875h-6.398v-.875zm.998 7.219l.93.437a38.81 38.81 0 0 1-1.463 2.79 10.07 10.07 0 0 0-.903-.493c.447-.693.926-1.604 1.436-2.734zm3.937.068c.51.693.957 1.33 1.34 1.914l-.875.602a22.382 22.382 0 0 0-1.271-1.983l.806-.533zm10.09-2.406h1.668v-2.762h.957v2.762h1.873v.902h-1.873v2.071a181.95 181.95 0 0 0 2.229-.266 13.7 13.7 0 0 0-.096.957c-.674.073-1.385.155-2.133.246v3.09h-.957v-2.98c-.934.118-1.918.245-2.953.382l-.123-1.025c1.057-.1 2.083-.203 3.076-.308V209.7h-2.693v-.861a76.12 76.12 0 0 0 1.285-3.486h-1.45v-.903h1.744c.255-.82.453-1.55.595-2.187l1.093.218c-.214.666-.43 1.322-.649 1.97h2.85v.902h-3.158a88.196 88.196 0 0 1-1.285 3.445zm7.26-2.598h1.066c0 .948-.018 1.823-.054 2.625.715 3.117 2.064 5.127 4.047 6.03-.292.319-.58.633-.862.943-1.659-.92-2.846-2.56-3.561-4.915-.488 2.064-1.798 3.735-3.93 5.01a12.4 12.4 0 0 0-.698-.902c2.488-1.367 3.805-3.4 3.951-6.097a62.34 62.34 0 0 0 .041-2.694zm-3.418 1.504c.984-1.44 1.818-3.254 2.502-5.441l1.08.287c-.25.71-.51 1.385-.78 2.023h5.374v.916l-1.422 2.639-1.066-.232 1.23-2.38h-4.525a24.263 24.263 0 0 1-1.463 2.762 23.481 23.481 0 0 0-.93-.574zm12.77 2.324h4.744v-3.459h-2.605c-.369.98-.772 1.855-1.21 2.625a6.674 6.674 0 0 0-.902-.724c.866-1.522 1.504-3.222 1.914-5.1l1.107.315a28.26 28.26 0 0 1-.574 1.927h2.27v-3.172h1.094v3.172h3.267v.957h-3.267v3.46h3.718v.956h-3.718v4.786h-1.094v-4.786h-4.744v-.957zm-4.116-.82c1.258-1.86 2.27-4.11 3.036-6.754l1.12.328a34.849 34.849 0 0 1-1.093 2.988v10.014h-1.08v-7.759a20.263 20.263 0 0 1-1.49 2.372 11.761 11.761 0 0 0-.493-1.189zm-100.474 20.1c1.02-1.44 1.836-3.081 2.447-4.922l1.053.342a77.21 77.21 0 0 1-.766 1.763h5.893c-.128 4.658-.219 7.538-.274 8.64-.045.958-.264 1.614-.656 1.97-.374.355-1.048.533-2.023.533-.72 0-1.472-.023-2.256-.069a16.157 16.157 0 0 0-.233-1.203c.903.1 1.718.16 2.448.178.629.01 1.052-.1 1.271-.328.228-.191.356-.606.383-1.244.064-1.23.141-3.724.232-7.479h-5.263c-.483.948-.953 1.746-1.409 2.393a10.87 10.87 0 0 0-.847-.574zm-4.498 3.718a14.91 14.91 0 0 0 2.01-4.853h-1.915v-.916h1.928v-2.707h.944v2.707h1.777v.916h-1.777v1.846l.382-.397c.62.565 1.263 1.167 1.928 1.805l-.725.752a27.004 27.004 0 0 0-1.585-1.682v7.328h-.944v-7.04c-.446 1.421-.975 2.57-1.586 3.444a12.099 12.099 0 0 0-.437-1.203zm8.408-1.955l.834-.437a100.494 100.494 0 0 1 2.064 3.76l-.97.52c-.11-.247-.224-.493-.342-.74-1.185.074-2.352.156-3.5.247-.283.027-.684.096-1.203.205l-.465-.984c.292-.2.538-.447.738-.739.748-1.175 1.486-2.62 2.215-4.334l1.025.424c-.537 1.185-1.358 2.666-2.46 4.444 1.312-.037 2.392-.073 3.24-.11a40.935 40.935 0 0 0-1.176-2.256zm9.953 2.721h3.5v-1.19h-3.035v-.82h3.035v-1.19h-2.844v-.82h2.844v-1.189h-3.555v-.848h3.555v-1.19h-2.844v-.82h2.844v-1.34h1.012v1.34h3.172v2.01h1.435v.848h-1.435v2.379h-.985v-.37h-2.187v1.19h3.445v.82h-3.445v1.19h4.074v.82h-4.074v1.409h-1.012v-1.409h-3.5v-.82zm-3.226-2.31c.273 1.111.656 2.025 1.148 2.74.488-1.002.793-2.157.916-3.465h-2.734v-.998l2.515-3.104h-2.789v-.93h4.047v.93l-2.57 3.172h2.556v.807c-.168 1.69-.58 3.156-1.237 4.395.994.862 2.536 1.297 4.628 1.306 1.732.036 3.741.014 6.03-.068l-.452 1.08-6.057-.028c-2.032 0-3.59-.474-4.675-1.422a8.47 8.47 0 0 1-1.873 1.956 10.646 10.646 0 0 0-.56-.89 7.577 7.577 0 0 0 1.722-1.817c-.61-.775-1.117-1.883-1.518-3.323l.903-.342zm7.738-1.71h2.187v-1.189h-2.187v1.19zm2.187-3.226h-2.187v1.19h2.187v-1.19zm8.614 10.514a15.089 15.089 0 0 0 2.994-2.68c-.584-1.613-.93-3.8-1.04-6.563h-7.369v-1.011h7.329c-.037-.761-.069-1.554-.096-2.38h1.121c.005.826.018 1.619.041 2.38h4.84v1.011h-4.82c.06 2.265.315 4.12.766 5.565a15.588 15.588 0 0 0 2.085-4.156l1.08.45c-.743 1.856-1.647 3.483-2.714 4.882.41.875.9 1.494 1.47 1.859.547.355.884.205 1.012-.451.137-.684.241-1.386.314-2.106a9.66 9.66 0 0 0 1.053.397c-.173 1.048-.337 1.841-.492 2.379-.192.71-.606 1.075-1.244 1.093-.529 0-1.044-.19-1.545-.574-.51-.428-.95-.99-1.32-1.688a15.11 15.11 0 0 1-2.672 2.4 12.74 12.74 0 0 0-.793-.807zm-4.444-7.916h4.922v4.785h-.984v-.63h-2.953v.958h-.985v-5.113zm-1.176 6.658c1.741-.228 4.01-.584 6.809-1.067.01.392.023.739.041 1.04-2.05.31-4.243.683-6.576 1.12l-.274-1.093zm5.114-5.701h-2.953v2.242h2.953V230.1zm4.484-5.018l.574-.71a31.67 31.67 0 0 1 2.242 1.435l-.656.82a36.367 36.367 0 0 0-2.16-1.545zm4.484 4.771h3.555v-3.28c-.957.095-1.978.186-3.062.273-.046-.32-.11-.666-.192-1.04 2.853-.209 5.319-.492 7.397-.847l.26 1.053c-.985.155-2.079.3-3.282.437v3.404h4.362v-5.414h1.12v5.414h3.255v1.067h-3.254v6.795h-1.121v-6.795h-4.369c-.022 1.9-.257 3.272-.704 4.115-.492.994-1.463 1.946-2.912 2.858-.164-.22-.42-.538-.765-.957 1.367-.848 2.26-1.678 2.68-2.489.373-.67.569-1.845.587-3.527h-3.555v-1.067zm20.843.63c-.141 2.998-1.073 5.423-2.796 7.273a7.242 7.242 0 0 0-.875-.766c1.167-1.23 1.924-2.602 2.27-4.115.333-1.303.487-3.541.465-6.713h-1.217v-.97h6.822v1.025l-1.326 2.748h2.27v1.012c-.53 1.65-1.247 3.092-2.154 4.327.88.893 1.958 1.67 3.234 2.33a12.2 12.2 0 0 0-.916 1.012c-1.204-.76-2.218-1.572-3.042-2.433a12.359 12.359 0 0 1-3.302 2.639 7.504 7.504 0 0 0-.766-.875c1.313-.743 2.425-1.62 3.336-2.632-.82-1.085-1.488-2.372-2.003-3.863zm2.208-1.546l1.313-2.775h-3.418c.004.652.002 1.267-.007 1.846.697 2.36 1.57 4.183 2.618 5.469a11.825 11.825 0 0 0 1.764-3.541h-2.27v-.999zm-7.314 2.913c.948-.1 1.914-.215 2.898-.342-.036.3-.073.597-.11.888-1.485.183-2.797.37-3.937.561l-.246-.97c.543-.48 1.224-1.35 2.044-2.612-.702.05-1.424.114-2.167.191l-.26-.86c.757-.84 1.637-2.298 2.64-4.376l1.038.451c-.939 1.586-1.759 2.871-2.46 3.856.51-.019 1.084-.041 1.722-.069.328-.537.679-1.13 1.053-1.777l.984.465c-1.376 2.087-2.443 3.618-3.2 4.594zm-1.832 3.185c1.458-.346 2.94-.724 4.443-1.135.01.32.023.634.041.944-1.54.419-2.907.806-4.101 1.162l-.383-.97zm22.914-10.637l1.094.164a23.67 23.67 0 0 1-.67 2.475h4.183v.93h-.861c-.228 2.68-.811 4.808-1.75 6.385a8.76 8.76 0 0 0 2.816 2.46c-.291.402-.537.762-.738 1.08a10.576 10.576 0 0 1-2.775-2.57 13.108 13.108 0 0 1-2.994 2.707 7.82 7.82 0 0 0-.78-.861c1.276-.839 2.31-1.791 3.104-2.857-.739-1.277-1.226-2.749-1.463-4.416-.192.337-.392.651-.602.943a10.73 10.73 0 0 0-.683-.875c1.057-1.522 1.763-3.377 2.119-5.565zm-8.805 7.89h2.078c.2-.347.397-.703.588-1.067l.985.314a55.04 55.04 0 0 1-.438.752h3.35v.889a6.473 6.473 0 0 1-1.573 2.351c.502.237 1.012.474 1.532.711l-.602.944a61.739 61.739 0 0 0-1.764-.957c-1.03.738-2.328 1.321-3.896 1.75a57.87 57.87 0 0 1-.465-.957c1.33-.301 2.456-.734 3.377-1.3-.784-.4-1.604-.81-2.46-1.23.29-.419.573-.852.847-1.299h-1.559v-.902zm.15-4.704h3.145v-3.063h1.012v3.063h2.625v.902h-2.625v.834l.41-.465c.848.62 1.559 1.167 2.133 1.641l-.657.766a27.146 27.146 0 0 0-1.886-1.6v1.559h-1.012v-1.914a13.65 13.65 0 0 1-2.898 2.283 16.13 16.13 0 0 0-.588-.834 15.169 15.169 0 0 0 3.158-2.27h-2.816v-.902zm11.307.383h-2.556a3.87 3.87 0 0 1-.15.342c.163 1.932.619 3.586 1.366 4.962.73-1.33 1.176-3.098 1.34-5.304zm-9.406 6.207c.647.291 1.312.597 1.996.916a5.854 5.854 0 0 0 1.477-1.9h-2.844c-.21.337-.42.665-.63.984zm4.266-9.31l.847.56a29.041 29.041 0 0 1-1.504 1.818 9.576 9.576 0 0 0-.738-.574c.474-.556.939-1.158 1.395-1.805zm-5.811.6l.78-.532c.41.5.833 1.039 1.27 1.613l-.847.601a38.381 38.381 0 0 0-1.203-1.681zm19.51 7.616h2.816v-1.736h-3.185c-.1 2.802-.748 4.967-1.942 6.494a12.05 12.05 0 0 0-.738-.861c1.14-1.404 1.709-3.56 1.709-6.467v-5.332h8.066v3.965h-.984v-.424h-6.098v1.695h3.172v-1.436h.985v1.436h3.609v.93h-3.61v1.736h2.844v4.621h-.984v-.793h-4.676v.793h-.984v-4.62zm-6.125-1.38a89.048 89.048 0 0 0 1.886-.54v-3.125h-1.722v-.984h1.722v-2.612h1.012v2.612h1.49v.984h-1.49v2.81c.433-.137.857-.276 1.272-.417.009.41.036.765.082 1.066-.47.15-.92.299-1.354.444v4.136c0 1.03-.451 1.554-1.353 1.572-.283.01-.702.005-1.258-.013a13.621 13.621 0 0 0-.164-1.135c.501.055.884.082 1.148.082.41 0 .615-.232.615-.697v-3.61c-.624.21-1.207.41-1.75.602l-.136-1.176zm11.867-5.62h-6.098v1.736h6.098v-1.736zm-.082 7.902h-4.676v2.038h4.676v-2.038zm3.144-6.671h5.264v-2.98h1.176v2.98h5.318v6.234h-1.12v-.738h-4.198v5.086h-1.176v-5.086h-4.142v.738h-1.122v-6.234zm10.637 1.011h-4.197v3.473h4.197v-3.473zm-9.515 3.473h4.142v-3.473h-4.142v3.473zm15.462-4.799h1.135v8.012c0 .83.37 1.244 1.108 1.244h2.94c.783 0 1.225-.328 1.325-.984.1-.575.187-1.263.26-2.065.383.155.775.3 1.176.438-.137.957-.265 1.672-.383 2.146-.246 1.02-.966 1.531-2.16 1.531H244.7c-1.312 0-1.969-.683-1.969-2.05v-8.272zm7.711 1.04a87.677 87.677 0 0 1 2.42 5.003l-1.134.56a56.317 56.317 0 0 0-2.311-5.085l1.025-.479zm-9.72.423l1.093.3a61.285 61.285 0 0 1-1.504 5.66l-1.093-.423a41.778 41.778 0 0 0 1.504-5.537zm5.017-4.211c.866 1.44 1.6 2.739 2.201 3.897-.428.218-.793.414-1.093.587a40.97 40.97 0 0 0-2.065-3.992l.957-.492z" fill="#666"/><path d="M199.5 128.5l32.5 31.332M182.5 126.5L149 159.832" stroke="#DD3730" stroke-dasharray="3"/><path d="M190 108c-9.94 0-18 8.057-18 18s8.06 18 18 18c9.943 0 18-8.057 18-18s-8.057-18-18-18zm7.666 24.048a1.144 1.144 0 0 1-1.618 1.618l-6.048-6.05-6.048 6.048a1.148 1.148 0 0 1-1.618.002 1.144 1.144 0 0 1 0-1.616l6.05-6.05-6.05-6.05a1.144 1.144 0 0 1 1.616-1.616l6.05 6.049 6.048-6.049a1.143 1.143 0 0 1 1.615 1.616l-6.047 6.05 6.05 6.048z" fill="url(#d)" fill-rule="nonzero"/><path d="M128.164 32.326h11.719v6.211h-1.328v-.566h-9.063v.566h-1.328v-6.21zm7.344 14.219l1.035-.82a57.503 57.503 0 0 1 3.848 4.023l-1.192.957c-.26-.338-.654-.807-1.181-1.406-3.581.11-6.156.221-7.725.332a11.18 11.18 0 0 0-1.719.293l-.664-1.465c.573-.247 1.1-.56 1.582-.938a25.877 25.877 0 0 0 2.451-2.519h-4.677v-1.29h5.976v-2.187h-4.57v-1.289h4.57V38.46h1.446v1.777h4.726v1.29h-4.726v2.187h6.152v1.289h-6.973a51.916 51.916 0 0 1-3.125 3.164c2.448-.033 4.502-.068 6.162-.107-.416-.456-.882-.96-1.396-1.514zm-13.867-4.688a99.744 99.744 0 0 0 2.52-.722v-4.531h-2.364v-1.31h2.363v-3.769h1.445v3.77h1.915v1.309h-1.915v4.091c.678-.215 1.342-.433 1.993-.654.013.586.052 1.094.117 1.523-.736.235-1.439.466-2.11.694v5.986c0 1.328-.56 2.025-1.68 2.09-.585.026-1.23.033-1.933.02a31.443 31.443 0 0 0-.254-1.622c.638.079 1.172.118 1.602.118.547 0 .82-.3.82-.899v-5.215c-.827.28-1.601.547-2.324.801l-.195-1.68zm16.914-8.28h-2.188v3.144h2.188v-3.145zm-5.625 3.144h2.148v-3.145h-2.148v3.145zm-3.438 0h2.149v-3.145h-2.149v3.145zm20.43-1.426h4.98c1.055-1.595 1.869-2.936 2.442-4.024l1.445.86a86.18 86.18 0 0 1-2.275 3.164h2.88v7.734h-1.445v-.547h-1.308v5.332c0 .6.286.899.859.899h1.035c.495 0 .781-.287.86-.86a25.22 25.22 0 0 0 .195-2.402c.417.143.905.287 1.465.43a39.25 39.25 0 0 1-.313 2.558c-.13 1.081-.827 1.622-2.09 1.622h-1.757c-1.107 0-1.66-.684-1.66-2.051v-5.528h-1.563c-.065 2.025-.371 3.549-.918 4.57-.625 1.25-1.738 2.423-3.34 3.516-.338-.533-.651-.97-.937-1.308 1.458-.925 2.454-1.92 2.988-2.989.488-.885.758-2.148.81-3.789h-.908v.547h-1.445v-7.734zm-7.09-2.734h5.234V48.4c0 1.262-.612 1.894-1.836 1.894-.664 0-1.27-.02-1.816-.059a12.628 12.628 0 0 0-.234-1.367c.664.091 1.23.137 1.699.137.547 0 .82-.293.82-.879v-4.434h-2.5c.013 3.23-.52 5.521-1.601 6.875a6.517 6.517 0 0 0-1.075-1.093c.873-1.329 1.309-3.093 1.309-5.293V32.56zm15.117 4.082h-6.582v4.492h6.582v-4.492zm-13.75 5.84h2.5v-3.731h-2.5v3.73zm2.5-8.653h-2.5v3.711h2.5v-3.71zm3.809-1.66l1.113-.879a56.42 56.42 0 0 1 2.168 2.676l-1.27.937c-.755-1.106-1.425-2.018-2.011-2.734zm16.181 2.353h-1.455V46.35h1.455V48h-4.863v-1.65h1.455V34.523h-1.455v-1.65h4.863v1.65zm11.612.088h-4.365V48h-1.963V34.611h-4.346v-1.738h10.674v1.738zm.722 14.024h8.946v-1.446h-7.422v-1.152h7.422v-1.64h-5.274v.703h-1.367v-7.344h6.64V36.35h-8.788v-1.211h8.789v-1.534a740.94 740.94 0 0 1-7.344.186c-.078-.417-.17-.86-.273-1.328 6.601-.078 11.946-.254 16.035-.527l.234 1.328c-2.318.11-4.733.211-7.246.302v1.573h8.867v1.21h-8.867v1.407h6.7v7.324h-1.368v-.684h-5.332v1.641h7.441v1.152h-7.441v1.446h8.867v1.21h-19.219v-1.21zm10.352-5.371h5.332v-1.68h-5.332v1.68zm-6.68 0h5.274v-1.68h-5.274v1.68zm12.012-4.375h-5.332v1.66h5.332v-1.66zm-12.012 1.66h5.274v-1.66h-5.274v1.66zm16.23-3.672c1.863-1.458 3.406-3.32 4.63-5.586h1.718a30.944 30.944 0 0 1-.966 1.582h13.74v1.25h-14.61a23.3 23.3 0 0 1-1.093 1.387h13.75v7.187h-1.367v-.508h-11.485v.704h-1.347v-6.856a25.883 25.883 0 0 1-2.07 2.07 8.784 8.784 0 0 0-.9-1.23zm0 10.215c2.397-1.172 4.324-2.65 5.782-4.434h1.738c-.286.365-.58.716-.879 1.055h10.567v1.055c-1.263 1.126-2.878 2.132-4.844 3.017 2.038.534 4.414.902 7.129 1.104a41.52 41.52 0 0 0-.918 1.601c-3.17-.442-5.889-1.09-8.154-1.943-2.318.807-5.12 1.533-8.409 2.178-.247-.43-.546-.873-.898-1.329 3.23-.533 5.749-1.06 7.559-1.582-1.465-.703-2.692-1.513-3.682-2.431a18.805 18.805 0 0 1-4.033 2.783 9.263 9.263 0 0 0-.957-1.074zm4.317-6.113h11.485v-1.563h-11.485v1.563zm11.485-4.258h-11.485v1.543h11.485V36.72zm-.84 8.125H205c1.14.95 2.6 1.738 4.385 2.363 1.81-.703 3.31-1.49 4.502-2.363zm12.402-1.016h10.098v6.914h-1.504V49.69h-7.09v1.055h-1.504V43.83zm6.29-7.617l-.274.351c1.406 2.07 3.45 3.692 6.132 4.864a17.14 17.14 0 0 0-1.015 1.426 21.269 21.269 0 0 1-2.656-1.72v1.036h-7.07v-.879a34.3 34.3 0 0 1-2.5 1.816c-.222-.3-.56-.703-1.016-1.21 2.825-1.706 5.006-3.6 6.543-5.684h1.855zm-13.556 5.332a65.89 65.89 0 0 0 2.383-1.055v-3.867h-2.344v-1.367h2.344v-3.79h1.426v3.79h2.227v1.367h-2.227v3.184c.73-.365 1.445-.743 2.148-1.133.04.65.092 1.172.157 1.562a341.4 341.4 0 0 0-2.305 1.172v6.953c0 1.355-.553 2.058-1.66 2.11-.534.039-1.126.052-1.777.039a19.498 19.498 0 0 0-.235-1.621c.638.052 1.14.078 1.504.078.495.013.742-.267.742-.84v-5.996c-.65.338-1.38.716-2.187 1.133l-.196-1.72zm6.25-7.871h2.637v-2.11h1.445v2.11h4.063v-2.11h1.445v2.11h3.106v1.367h-3.106v1.953h-1.445v-1.953h-4.063v1.953h-1.445v-1.953h-2.637v-1.367zm9.61 11.484h-7.09v3.203h7.09v-3.203zm-3.457-7.5c-.899 1.094-1.966 2.162-3.203 3.203h6.191c-1.263-1.002-2.259-2.07-2.988-3.203zm13.73 7.188h5v-1.7h-4.336v-1.171h4.336v-1.7h-4.062v-1.171h4.062v-1.7h-5.078v-1.21h5.078v-1.7h-4.062v-1.172h4.062v-1.914h1.446v1.914h4.53v2.871h2.052v1.211h-2.051v3.399h-1.406v-.528h-3.125v1.7h4.921v1.171h-4.921v1.7h5.82v1.172h-5.82v2.011h-1.446v-2.011h-5v-1.172zm-4.61-3.301c.392 1.588.938 2.894 1.642 3.916.696-1.432 1.132-3.083 1.308-4.951h-3.906v-1.426l3.594-4.434h-3.985v-1.328h5.781v1.328l-3.671 4.532h3.652v1.152c-.24 2.415-.83 4.508-1.768 6.28 1.42 1.23 3.623 1.851 6.612 1.865 2.474.052 5.345.019 8.613-.098a234.77 234.77 0 0 1-.645 1.543c-2.981-.013-5.865-.026-8.652-.04-2.904 0-5.13-.676-6.68-2.03a12.1 12.1 0 0 1-2.675 2.792c-.209-.377-.476-.8-.801-1.269a10.824 10.824 0 0 0 2.46-2.598c-.872-1.106-1.594-2.688-2.167-4.746l1.289-.488zm11.056-2.441h3.125v-1.7h-3.125v1.7zm3.125-4.61h-3.125v1.7h3.125v-1.7zM119.55 61.955l1.152-.703a12.904 12.904 0 0 1 1.504 1.992l-.898.567h7.48v1.21h-7.402v1.387h6.543v1.133h-6.543v1.387h6.543v1.133h-6.543v1.425h7.46v1.211H114.61v.742h-1.367v-6.953a22.623 22.623 0 0 1-2.05 2.11c-.209-.378-.521-.808-.938-1.29 1.888-1.575 3.483-3.515 4.785-5.82l1.348.606a35.62 35.62 0 0 1-1.114 1.719h5.528a21.132 21.132 0 0 0-1.25-1.856zm-8.653 12.48h8.418v-1.328h1.368v1.329h8.398v1.25h-6.875a19.897 19.897 0 0 0 7.598 3.261c-.352.547-.658 1.029-.918 1.446-3.177-.918-5.912-2.373-8.203-4.366v4.58h-1.368v-4.6c-2.37 1.98-5.104 3.455-8.203 4.425-.273-.404-.58-.814-.918-1.23 2.8-.684 5.313-1.856 7.54-3.516h-6.837v-1.25zm3.711-2.949h5.41v-1.425h-5.41v1.425zm0-2.558h5.41V67.54h-5.41v1.387zm0-2.52h5.41v-1.387h-5.41v1.387zm17.032-.82h7.52V61.33h1.679v4.258h7.597v8.906h-1.601V73.44h-5.996v7.266h-1.68V73.44h-5.918v1.055h-1.601v-8.906zm15.195 1.445h-5.996v4.961h5.996v-4.96zm-13.594 4.961h5.918v-4.96h-5.918v4.96zm22.246-1.543h3.35c.02-1.015.03-2.396.03-4.14h-2.462v-1.407h2.461v-3.437h1.563v3.437h3.867v-3.437h1.562v3.437h2.891v1.407h-2.89v4.14h3.652v1.406h-3.653v5.938h-1.562v-5.938h-4.014c-.384 2.657-1.507 4.636-3.369 5.938a17.099 17.099 0 0 0-1.191-1.191c1.595-1.01 2.581-2.592 2.959-4.747h-3.194v-1.406zm2.657 8.145l4.628.097 6.915-.175c-.144.43-.326.944-.547 1.543l-6.485.02-4.707-.099c-2.148-.039-3.672-.794-4.57-2.265-.534.495-1.315 1.367-2.344 2.617l-.8-1.621a254.289 254.289 0 0 1 2.5-2.393v-6.572h-2.325v-1.445h3.828v8.33c.808 1.276 2.11 1.93 3.907 1.963zm2.265-8.145h3.887v-4.14h-3.867c0 2.24-.007 3.62-.02 4.14zm-7.87-8.75a59.717 59.717 0 0 1 2.733 3.692c-.546.351-1.028.677-1.445.976a37.368 37.368 0 0 0-2.539-3.828l1.25-.84zm24.843 6.992h12.363v1.465h-3.789v7.637c0 1.615-.814 2.422-2.441 2.422-1.094 0-2.207-.007-3.34-.02a61.619 61.619 0 0 0-.293-1.758 29.79 29.79 0 0 0 3.066.157c.899 0 1.348-.443 1.348-1.328v-7.11h-6.914v-1.465zm-7.07 4.375c2.018-1.653 3.854-3.977 5.507-6.972l1.368.84a34.188 34.188 0 0 1-2.13 3.252v10.341h-1.62V72.2a27.999 27.999 0 0 1-2.442 2.451 19.287 19.287 0 0 0-.684-1.582zm8.203-10.273h10.136v1.465h-10.136v-1.465zm-8.106 4.082c2.07-1.602 3.737-3.464 5-5.586l1.406.86c-1.51 2.317-3.385 4.394-5.625 6.23a23.807 23.807 0 0 0-.78-1.504zm27.168-5.273l-.254.41a123.92 123.92 0 0 1 4.766 4.629l-1.074 1.21a86.28 86.28 0 0 0-4.453-4.59c-1.277 2.019-2.592 3.705-3.946 5.06h8.028a161.79 161.79 0 0 1-.196 3.808c-.065 1.94-.95 2.91-2.656 2.91-.69 0-1.536-.02-2.54-.059a19.2 19.2 0 0 0-.273-1.562c.873.143 1.706.221 2.5.234.938.013 1.44-.58 1.504-1.777.04-.625.078-1.354.118-2.188h-5.176v7.832c0 .73.39 1.094 1.172 1.094h3.203c1.028 0 1.608-.338 1.738-1.015.156-.625.273-1.407.352-2.344.507.208 1.022.397 1.543.566a21.67 21.67 0 0 1-.489 2.383c-.325 1.211-1.243 1.816-2.754 1.816h-3.886c-1.602 0-2.403-.794-2.403-2.382v-9.082c-.416.39-.826.748-1.23 1.074-.39-.638-.69-1.107-.899-1.406 2.136-1.628 3.972-3.835 5.508-6.621h1.797zm9.356.136h1.562v16.23c0 1.59-.788 2.39-2.363 2.403-.547 0-1.57-.006-3.067-.02a13.721 13.721 0 0 0-.312-1.777c1.38.117 2.35.176 2.91.176.846 0 1.27-.417 1.27-1.25V61.74zm-2.579 13.77h-1.503V63.479h1.503v12.03zm16.875-12.5c2.696-.026 5.183-.293 7.461-.801l.508 1.504c-2.578.338-4.772.56-6.582.664v4.55h7.13v1.329h-2.794V80.49h-1.445V70.256h-2.89v.957c0 3.997-.958 7.11-2.872 9.336-.312-.404-.657-.82-1.035-1.25 1.68-1.836 2.52-4.55 2.52-8.145V63.01zm-10.41 8.77h3.985v-1.856h1.406v1.855h3.828v1.25h-3.828v5.098c0 1.38-.664 2.07-1.992 2.07-.56 0-1.192-.006-1.895-.02a35.866 35.866 0 0 0-.215-1.484c.756.078 1.348.118 1.778.118.612 0 .918-.332.918-.997V73.03h-3.985v-1.25zm-.547-3.653h3.145a28.96 28.96 0 0 0-1.563-2.266l1.055-.742c.43.521.983 1.257 1.66 2.207l-1.103.801h2.578a55.137 55.137 0 0 0 1.963-3.027l1.387.78a76.943 76.943 0 0 1-1.807 2.247h2.959v1.25h-10.274v-1.25zm.625-4.531h4.22a53.518 53.518 0 0 0-.958-1.739l1.25-.586c.404.665.781 1.335 1.133 2.012l-.654.313h4.15v1.25h-9.14v-1.25zm1.426 10.312l1.328.625c-.703 1.472-1.4 2.8-2.09 3.985a14.386 14.386 0 0 0-1.289-.704c.638-.99 1.322-2.291 2.051-3.906zm5.625.098c.73.99 1.367 1.9 1.914 2.734l-1.25.86a31.974 31.974 0 0 0-1.816-2.832l1.152-.762zm19.024-2.617V70.04h10.644v1.348c-1.028 2.259-2.298 4.03-3.808 5.312 1.66 1.094 3.658 1.856 5.996 2.285a56.35 56.35 0 0 0-1.192 1.582c-2.324-.67-4.349-1.644-6.074-2.92-1.77 1.198-4.01 2.224-6.719 3.077-.338-.482-.677-.95-1.015-1.407 2.584-.696 4.746-1.585 6.484-2.666-1.51-1.458-2.607-3.213-3.291-5.263h-1.025zm8.203-7.618h-4.883v.567c0 2.396-1.094 4.18-3.281 5.351-.352-.43-.73-.833-1.133-1.21 1.927-.99 2.89-2.357 2.89-4.102v-2.05h7.93v3.984c0 .585.3.878.899.878h2.148a47.793 47.793 0 0 0-.156 1.446h-2.578c-1.224 0-1.836-.677-1.836-2.031V63.77zm-8.145 11.016a23 23 0 0 0 .137 1.738c-1.784 1.16-3.112 2.09-3.984 2.793l-.938-1.289c.443-.43.664-1.015.664-1.758v-6.953h-2.48v-1.406h3.965v8.672a121.82 121.82 0 0 0 2.636-1.797zm-3.945-12.812a68.76 68.76 0 0 1 2.871 3.007l-1.367 1.133c-.95-1.224-1.843-2.265-2.676-3.125l1.172-1.015zm6.387 9.414c.657 1.66 1.69 3.121 3.095 4.384 1.38-1.067 2.484-2.529 3.31-4.384h-6.405zm17.09-3.243h5.683v-6.718h1.68v6.718h5.722v1.407h-5.722v11.015h-1.68V69.553h-5.684v-1.407zm1.796 7.032c.04.677.085 1.243.137 1.699-2.083 1.302-3.802 2.435-5.156 3.398l-.938-1.328c.456-.39.684-.983.684-1.777v-7.734h-2.774v-1.407h4.336v9.492c1.133-.69 2.37-1.47 3.711-2.343zm-6.054-13.496a143.035 143.035 0 0 1 3.086 3.242l-1.368 1.152c-.82-1.08-1.79-2.2-2.91-3.36l1.192-1.034z" fill="#DD3730"/></g></svg>