<svg width="200" height="58" viewBox="0 0 200 58" xmlns="http://www.w3.org/2000/svg" xmlns:xlink="http://www.w3.org/1999/xlink"><title>Group 24 Copy 11</title><defs><rect id="a" width="200" height="58" rx="2"/><linearGradient x1="50%" y1="2.962%" x2="50%" y2="133.609%" id="c"><stop stop-color="#FFF" stop-opacity="0" offset="0%"/><stop stop-color="#FFF" offset="100%"/></linearGradient><linearGradient x1="50%" y1="2.962%" x2="50%" y2="100%" id="d"><stop stop-color="#FFF" stop-opacity="0" offset="0%"/><stop stop-color="#FFF" offset="100%"/></linearGradient><linearGradient x1="50%" y1="2.962%" x2="50%" y2="139.009%" id="e"><stop stop-color="#FFF" stop-opacity="0" offset="0%"/><stop stop-color="#FFF" offset="100%"/></linearGradient></defs><g fill="none" fill-rule="evenodd"><mask id="b" fill="#fff"><use xlink:href="#a"/></mask><use fill="#925CE7" xlink:href="#a"/><path d="M75.531 22.457v9.902h-1.7V20.72h6.873v11.565H78.93v-9.828h-3.399zm1.977 10.863l1.164-.905c.905.979 2.013 2.327 2.512 3.196l-1.46 1.237c-.461-.868-1.477-2.216-2.346-3.233-.554 1.368-1.515 2.624-3.103 3.603-.259-.407-.85-1.072-1.275-1.386 3.067-1.644 3.362-4.71 3.362-7.038v-5.469h1.83v5.487c0 1.441-.13 3.03-.684 4.508zm12.691-9.662v2.087h-1.792v8.923c0 1.164-.221 1.737-.923 2.107-.665.369-1.681.443-3.067.443-.092-.628-.425-1.589-.739-2.18.85.037 1.792.037 2.07.018.295-.018.406-.092.406-.406v-5.58c-1.109 2.18-2.531 4.25-4.01 5.617-.387-.554-1.07-1.349-1.643-1.792 1.958-1.515 3.768-4.378 4.895-7.15h-4.101v-2.087h4.859v-3.64h2.253v3.64H90.2zm10.457 6.595h6.706s-.055.591-.11.887c-.407 3.14-.87 4.618-1.553 5.21-.535.498-1.127.646-1.958.683-.684.037-1.866.037-3.085-.018-.037-.573-.314-1.367-.684-1.885 1.201.111 2.531.13 3.085.13.388 0 .647-.019.887-.204.37-.295.72-1.2.998-2.937h-4.933c-1.256 2.697-3.436 4.194-6.78 5.117-.221-.461-.868-1.385-1.275-1.81 2.698-.554 4.564-1.552 5.635-3.307h-4.415v-1.866h5.228c.11-.499.222-.997.296-1.57l2.272.185c-.092.498-.185.942-.314 1.385zm-3.362-6.65l-.13.11c.758.776 1.774 1.404 3.048 1.903 1.478-.536 2.772-1.2 3.788-2.014h-6.706zm8.904-1.922l1.386.887c-1.109 1.607-2.698 2.863-4.6 3.843 1.755.387 3.75.61 5.893.702-.444.48-.942 1.348-1.22 1.92-2.826-.202-5.338-.646-7.426-1.422-2.365.813-4.97 1.33-7.574 1.645-.148-.555-.518-1.423-.85-1.922 2.013-.166 4.027-.48 5.874-.96a9.715 9.715 0 0 1-1.94-1.534 16.05 16.05 0 0 1-2.087 1.275c-.259-.517-.868-1.349-1.275-1.7 2.605-1.182 4.323-2.845 5.266-4.415l2.235.462a15.1 15.1 0 0 1-.905 1.312h6.909l.314-.093zm18.9-.443H112.46v2.254h12.636v-2.254zM127 28.664v-2.29h-16.627v2.29h5.007c-1.035 1.977-2.254 3.732-2.753 4.268-.61.683-.998 1.09-1.515 1.238.296.702.72 1.958.85 2.457.998-.37 2.31-.444 11.602-1.164.425.72.757 1.385 1.034 1.94l2.143-1.294c-.923-1.736-2.678-4.36-4.212-6.392l-2.013 1.053c.554.795 1.163 1.7 1.755 2.587l-7.372.443a36.662 36.662 0 0 0 3.621-5.136H127z" fill="#FFF" mask="url(#b)"/><g opacity=".4" mask="url(#b)"><path d="M37.45 14H14v-2.262C14 5.256 19.171 0 25.55 0H49v2.262C49 8.744 43.829 14 37.45 14" fill="url(#c)" transform="translate(141 7)"/><path d="M11.988 14C5.368 14 0 19.237 0 25.697V76h2.01C8.633 76 14 70.763 14 64.303V14h-2.012z" fill="url(#d)" transform="translate(141 7)"/><path d="M0 33v14h37.115C43.68 47 49 41.632 49 35.011V33H0z" fill="url(#e)" transform="translate(141 7)"/></g></g></svg>