<svg width="102" height="102" viewBox="0 0 102 102" xmlns="http://www.w3.org/2000/svg"><title>Group 105</title><g transform="translate(1 1)" fill="none" fill-rule="evenodd"><circle stroke="#DF413A" stroke-width="1.5" cx="50" cy="50" r="50"/><g transform="rotate(-30 69.454 -19.213)"><rect fill="#DF413A" x="17" y="44" width="2.5" height="12" rx="1.25"/><path d="M1.172 15.828l14-14a4 4 0 0 1 5.656 0l14 14A4 4 0 0 1 36 18.657V58a4 4 0 0 1-4 4H4a4 4 0 0 1-4-4V18.657a4 4 0 0 1 1.172-2.829z" stroke="#DF413A" stroke-width="2.5"/><circle stroke="#DF413A" stroke-width="2.5" cx="18" cy="27" r="7"/></g></g></svg>