<svg width="967" height="295" viewBox="0 0 967 295" xmlns="http://www.w3.org/2000/svg" xmlns:xlink="http://www.w3.org/1999/xlink"><title>Group 78</title><defs><linearGradient x1="96.885%" y1="36.636%" x2="7.172%" y2="79.036%" id="a"><stop stop-color="#FFC194" offset="0%"/><stop stop-color="#DD3730" offset="100%"/></linearGradient><path id="b" d="M0 20.536V.22h20.62v20.316z"/><linearGradient x1="13.754%" y1="76.316%" x2="172.416%" y2="0%" id="d"><stop stop-color="#DD3730" offset="0%"/><stop stop-color="#FFC194" offset="100%"/></linearGradient><linearGradient x1="118.574%" y1="14.739%" x2="8.909%" y2="70.491%" id="e"><stop stop-color="#FFC194" offset="0%"/><stop stop-color="#DD3730" offset="100%"/></linearGradient><linearGradient x1="132.621%" y1="16.96%" x2="24.953%" y2="73.684%" id="f"><stop stop-color="#FFC194" offset="0%"/><stop stop-color="#DD3730" offset="100%"/></linearGradient></defs><g fill="none" fill-rule="evenodd"><path d="M572.44 276.72h5.84c3.28 0 4.92 1.4 4.92 4.2 0 2.82-1.66 4.24-4.94 4.24h-4.18V291h-1.64v-14.28zm1.64 1.42v5.6h4.1c1.16 0 2-.24 2.56-.7.54-.46.82-1.16.82-2.12 0-.96-.28-1.66-.84-2.08-.56-.48-1.4-.7-2.54-.7h-4.1zm15.5 2.24c1.48 0 2.56.38 3.28 1.16.6.68.92 1.62.92 2.82V291h-1.5v-1.74c-.4.56-.94 1.02-1.58 1.38-.76.42-1.62.64-2.58.64-1.04 0-1.86-.26-2.48-.78-.64-.54-.96-1.24-.96-2.08 0-1.18.46-2.06 1.42-2.66.84-.56 2.04-.86 3.6-.88l2.48-.04v-.54c0-1.74-.9-2.6-2.7-2.6-.76 0-1.38.14-1.86.46-.54.32-.88.82-1.04 1.48l-1.58-.12c.22-1.08.76-1.9 1.6-2.42.76-.48 1.74-.72 2.98-.72zm2.6 5.66l-2.38.04c-2.32.04-3.48.8-3.48 2.3 0 .48.18.86.58 1.18.4.3.92.46 1.56.46.98 0 1.84-.32 2.6-.96.74-.62 1.12-1.34 1.12-2.14v-.88zm8.58-5.66c1.48 0 2.56.38 3.28 1.16.6.68.92 1.62.92 2.82V291h-1.5v-1.74c-.4.56-.94 1.02-1.58 1.38-.76.42-1.62.64-2.58.64-1.04 0-1.86-.26-2.48-.78-.64-.54-.96-1.24-.96-2.08 0-1.18.46-2.06 1.42-2.66.84-.56 2.04-.86 3.6-.88l2.48-.04v-.54c0-1.74-.9-2.6-2.7-2.6-.76 0-1.38.14-1.86.46-.54.32-.88.82-1.04 1.48l-1.58-.12c.22-1.08.76-1.9 1.6-2.42.76-.48 1.74-.72 2.98-.72zm2.6 5.66l-2.38.04c-2.32.04-3.48.8-3.48 2.3 0 .48.18.86.58 1.18.4.3.92.46 1.56.46.98 0 1.84-.32 2.6-.96.74-.62 1.12-1.34 1.12-2.14v-.88zm9.08-9.6c-1.48 0-2.7.32-3.64.96-1.06.68-1.58 1.66-1.58 2.9 0 1.2.54 2.12 1.64 2.76.46.24 1.56.64 3.28 1.16 1.6.46 2.62.8 3.02 1.04.94.5 1.42 1.2 1.42 2.1 0 .76-.36 1.36-1.08 1.8-.72.44-1.68.66-2.84.66-1.28 0-2.24-.28-2.9-.8-.72-.58-1.16-1.5-1.3-2.74h-1.62c.12 1.76.74 3.06 1.86 3.92.96.72 2.28 1.08 3.96 1.08 1.7 0 3.04-.36 4.04-1.06 1-.72 1.5-1.72 1.5-2.96 0-1.3-.6-2.3-1.78-3.02-.6-.36-1.84-.82-3.72-1.38-1.38-.4-2.26-.7-2.62-.9-.82-.44-1.22-1.02-1.22-1.74 0-.82.34-1.42 1.02-1.82.6-.36 1.42-.52 2.48-.52 1.16 0 2.06.24 2.7.76.62.5 1.02 1.26 1.2 2.3h1.62c-.14-1.5-.68-2.64-1.64-3.4-.92-.74-2.2-1.1-3.8-1.1zm16.04-.62v1.4h14.24v-1.4h-14.24zm-1.92 5.58v1.44h6.74c-2.1 4.26-3.8 6.86-5.08 7.82-.08.04-.18.1-.34.14l.38 1.46c4.8-.32 9.22-.72 13.28-1.24.38.72.72 1.42 1.04 2.12l1.28-.9c-1-2.04-2.42-4.46-4.26-7.22l-1.16.72c.88 1.36 1.68 2.68 2.4 3.96-3.58.48-7.16.82-10.76 1.02 1.36-1.48 2.98-4.1 4.82-7.88h9.6v-1.44h-17.94zm20.88-5.84h16.16v1.4h-7.44v7.56h8.2v1.38h-8.2v7.08h-1.48v-7.08h-8.04v-1.38h8.04v-7.56h-7.24v-1.4zm2.44 2.68c.76 1.4 1.48 2.92 2.16 4.58l-1.34.66c-.68-1.72-1.4-3.24-2.16-4.58l1.34-.66zm11.34-.1l1.32.62c-.6 1.58-1.4 3.12-2.38 4.64l-1.28-.66c.98-1.56 1.76-3.08 2.34-4.6zm20.96 6.54v8.34h-1.46v-1h-10.44v1h-1.46v-8.34h13.36zm-11.9 5.96h10.44v-4.58h-10.44v4.58zm-2.88-8.02c5.2-.2 9.9-.48 14.12-.86.48.76.98 1.54 1.48 2.38l1.4-.68c-1.48-2.42-3.08-4.64-4.8-6.64l-1.3.62c.8.92 1.58 1.94 2.34 3.02-3.44.32-7.08.58-10.92.74 1.8-1.48 3.62-3.52 5.42-6.08l-1.48-.5c-2.6 3.82-4.78 6.04-6.54 6.64l.28 1.36z" fill="#DD3730"/><path d="M59.15 30.13v-8.08h-4.2v8.08H44.13v-.01c-5.082-.24-9.13-4.435-9.13-9.577a9.587 9.587 0 0 1 10.052-9.575C45.286 4.87 50.302 0 56.457 0c6.153 0 11.17 4.87 11.404 10.967a9.587 9.587 0 1 1-.904 19.153v.01H59.15zm-6.3-8.08h8.4l-4.2-6.3-4.2 6.3z" fill="url(#a)" transform="translate(572 221)"/><path d="M31 100C13.88 100 0 86.12 0 69c0-16.79 13.35-30.464 30.014-30.985A37.77 37.77 0 0 1 30 37C30 16.565 46.565 0 67 0c15.774 0 29.242 9.87 34.565 23.772A27.065 27.065 0 0 1 108 23c13.556 0 24.778 9.99 26.707 23.01C149.292 46.383 161 58.324 161 73c0 14.912-12.088 27-27 27-.335 0-.668-.006-1-.018V100H31z" fill="url(#a)" transform="translate(394)"/><path d="M444.98 36.82v1.4h14.24v-1.4h-14.24zm-1.92 5.58v1.44h6.74c-2.1 4.26-3.8 6.86-5.08 7.82-.08.04-.18.1-.34.14l.38 1.46c4.8-.32 9.22-.72 13.28-1.24.38.72.72 1.42 1.04 2.12l1.28-.9c-1-2.04-2.42-4.46-4.26-7.22l-1.16.72c.88 1.36 1.68 2.68 2.4 3.96-3.58.48-7.16.82-10.76 1.02 1.36-1.48 2.98-4.1 4.82-7.88h9.6V42.4h-17.94zm20.88-5.84h16.16v1.4h-7.44v7.56h8.2v1.38h-8.2v7.08h-1.48V46.9h-8.04v-1.38h8.04v-7.56h-7.24v-1.4zm2.44 2.68c.76 1.4 1.48 2.92 2.16 4.58l-1.34.66c-.68-1.72-1.4-3.24-2.16-4.58l1.34-.66zm11.34-.1l1.32.62c-.6 1.58-1.4 3.12-2.38 4.64l-1.28-.66c.98-1.56 1.76-3.08 2.34-4.6zm20.96 6.54v8.34h-1.46v-1h-10.44v1h-1.46v-8.34h13.36zm-11.9 5.96h10.44v-4.58h-10.44v4.58zm-2.88-8.02c5.2-.2 9.9-.48 14.12-.86.48.76.98 1.54 1.48 2.38l1.4-.68c-1.48-2.42-3.08-4.64-4.8-6.64l-1.3.62c.8.92 1.58 1.94 2.34 3.02-3.44.32-7.08.58-10.92.74 1.8-1.48 3.62-3.52 5.42-6.08l-1.48-.5c-2.6 3.82-4.78 6.04-6.54 6.64l.28 1.36zm7.16 37.434c-1.215 2.329-2.784 3.304-4.592 2.568-1.808-.737-1.987-2.553-.64-5.097 1.273-2.409 2.841-3.346 4.586-2.572 1.795.777 1.986 2.545.646 5.1m3.542-6.106c-1.487-1.286-3.542-1.945-6.157-1.945-2.616 0-4.563.67-6.017 1.978-1.392 1.219-2.153 3.191-2.153 4.802 0 2.001.826 3.715 2.075 4.846 1.449 1.305 3.673 1.949 6.095 1.949 2.615 0 4.595-.687 6.075-1.99 1.37-1.22 2.122-3.244 2.122-4.805 0-1.987-.686-3.597-2.04-4.835m-21.019 11.617v.035h4.484c.458 0 .722-.277.722-.707v-19.35h-4.487c-.451 0-.719.286-.719.71v19.312zm35.23-13.024c-.46 0-.735.293-.735.73v9.254c-3.035.81-5.007-.03-5.007-1.352V74.22c0-.411-.233-.68-.702-.68h-4.53v8.412c0 4.256 5.397 6.275 14.626 3.65.521-.176.88-.653.88-1.31V73.54h-4.532zm-37.777 10.33a.658.658 0 0 0-.704-.658c-.83.059-2.254.08-3.52-.302-.439-.132-.84-.278-1.176-.514-.34-.24-1.427-1.06-1.497-2.58-.076-1.616.636-2.255 1.35-2.698.666-.412 1.73-.602 2.772-.674.796-.056 1.542.008 2.06.079a.634.634 0 0 0 .715-.635v-2.72c-.39-.093-.773-.163-1.153-.215a13.72 13.72 0 0 0-1.23-.101 31.45 31.45 0 0 0-1.3-.027c-1.349 0-2.557.168-3.594.52-1.046.34-1.93.82-2.652 1.43a5.965 5.965 0 0 0-1.63 2.204c-.371.858-.554 1.801-.554 2.837 0 1.07.183 2.024.554 2.877.37.849.921 1.577 1.654 2.19.724.613 1.634 1.076 2.69 1.407 1.07.323 2.295.486 3.692.486.833 0 1.654-.038 2.482-.128.33-.035.685-.098 1.04-.17l.001-2.607zm53.408-2.028c-1.215 2.33-2.784 3.305-4.593 2.568-1.807-.736-1.986-2.552-.639-5.096 1.272-2.41 2.841-3.346 4.586-2.573 1.795.777 1.986 2.546.646 5.101zm1.605-15.3c-.46 0-.731.292-.731.723v7.53a6.472 6.472 0 0 0-2.582-1.004c-2.583-.414-4.563.67-6.016 1.977-1.392 1.22-2.153 3.192-2.153 4.802 0 2.002.642 3.545 2.075 4.846 1.61 1.464 5.283 1.771 7.331.801.525-.248.964-.492 1.345-.737v1.062h4.564c.465 0 .734-.283.734-.72v-19.28h-4.567z" fill="#FFF"/><g transform="translate(423 66.238)"><mask id="c" fill="#fff"><use xlink:href="#b"/></mask><path d="M20.521 1.654L20.62.22h-6.39c-.049 0-.101.777-.16 2.33a232.19 232.19 0 0 1-.289 5.288c-.145 2.26-.262 3.71-.348 4.347-.077.627-.194 1.137-.348 1.53a4.282 4.282 0 0 1-.535 1.044 2.917 2.917 0 0 1-.58.61c-.25.184-.535.329-.853.433a4.31 4.31 0 0 1-1.304.192 4.64 4.64 0 0 1-1.556-.264c-.497-.175-.885-.435-1.166-.78a2.96 2.96 0 0 1-.578-1.263c-.107-.497-.16-1.116-.16-1.855 0-.39.022-1.096.065-2.118.043-1.023.107-2.118.193-3.286L7.042.22C5.757.24 4.73.25 3.957.25 3.34.25 2.277.24.771.22L.51 5.99a101.117 101.117 0 0 1-.16 2.7l-.19 2.338a62.142 62.142 0 0 0-.131 2.037c-.02.472-.03.826-.03 1.059 0 .692.088 1.34.262 1.943.155.535.367.996.638 1.38.27.385.656.762 1.16 1.132a8.9 8.9 0 0 0 1.94 1.044c.746.297 1.581.524 2.509.68 1.005.155 2.048.233 3.131.233 1.208 0 2.4-.102 3.58-.307 1.178-.204 2.231-.552 3.16-1.044.217-.115.422-.235.615-.357-.737-.668-1.221-1.592-1.405-2.818v-.863c.359-2.94 2.15-4.437 4.372-5.496-1.278-.767-2.41-1.704-2.252-3.771.143-1.884 1.273-3.309 2.812-4.226" fill="#FFF" mask="url(#c)"/></g><path d="M448.664 69.033c-.178 0-.362.008-.544.024-1.471.13-3.033 1.1-3.173 2.698-.12 1.371.827 1.85 1.74 2.314.78.394 1.49.743 2.228.989.692-.431 1.39-.908 1.837-1.538.445-.626.889-1.645.806-2.63-.145-1.722-2.252-1.857-2.894-1.857zm-2.898 7.958c-.43.23-.8.473-1.098.724-1.09.916-1.76 2.169-1.838 3.436-.12 1.915 1.235 2.896 2.63 3.02.184.015.366.023.546.023 2.406 0 4.13-1.42 4.29-3.536.08-1.07-.275-1.564-.834-1.978-.794-.589-1.745-.947-2.752-1.325a38.315 38.315 0 0 1-.944-.364zm.312 9.83l-.978-.002c-3.293-.249-5.167-1.75-5.573-4.462l-.003-.042.002-.898c.375-3.082 2.295-4.57 4.076-5.491-1.157-.772-2.108-1.813-1.96-3.763.272-3.554 3.781-5.427 6.928-5.664l.02-.001h.971c1.523.132 2.565.442 3.378 1.003 1.358.937 1.943 2.21 1.789 3.892-.202 2.174-1.895 3.812-3.563 4.716 1.332.785 2.653 1.796 2.48 4.227-.128 1.81-.996 3.395-2.51 4.588-1.359 1.07-3.15 1.744-5.046 1.895l-.011.002z" fill="#FFF"/><path d="M471 121v7.428c0 5.522-4.478 9.998-10.01 9.998H73.01c-5.529 0-10.01 4.487-10.01 10.002V188" stroke="#D1D1D1"/><path d="M471 121v7.428c0 5.522-4.478 9.998-10.002 9.998H352.002c-5.524 0-10.002 4.487-10.002 10.002V188m141-67v7.428c0 5.522 4.479 9.998 9.995 9.998h125.01c5.52 0 9.995 4.487 9.995 10.002V188" stroke="#D1D1D1"/><path d="M483 121v7.428c0 5.522 4.478 9.998 10.01 9.998h387.98c5.529 0 10.01 4.487 10.01 10.002V188" stroke="#D1D1D1"/><path d="M9.48 275.72h1.04c2.54 2.8 5.46 5 8.76 6.6l-.78 1.38c-3.32-1.7-6.14-3.94-8.5-6.7-2.16 2.6-5.02 4.84-8.58 6.72l-.76-1.38c3.52-1.76 6.46-3.98 8.82-6.62zm.36 5.28h1.46v4.5h5.46v1.38H11.3v4.92h6.9v1.4H1.56v-1.4h3.02v-7.92H6v7.92h3.84V281zm17.26-5.14h1.46v15.9h2.84v-15.9h1.46v15.9h6v1.4H21.14v-1.4h5.96v-15.9zm9.94 3.64l1.28.36c-.8 3.48-1.8 6.52-3.02 9.14l-1.3-.46c1.16-2.36 2.18-5.38 3.04-9.04zm-14.18-.04c1.04 2.7 1.98 5.8 2.8 9.3l-1.32.34c-.72-3.2-1.62-6.28-2.7-9.24l1.22-.4zm34.62 4.4H53.2v1.6h4.68v1.18H53.2v1.66h5.26v1.22H53.2v1.98h-1.4v-1.98h-4.54v-1.22h4.54v-1.66h-3.92v-1.18h3.92v-1.6h-3.5v-1.2h3.5v-1.6h-4.48v-1.2h4.48v-1.58h-3.5v-1.2h3.5v-1.46h1.4v1.46h4.28v2.78h1.34v1.2h-1.34v2.8zm-4.28-5.58v1.58h2.88v-1.58H53.2zm0 2.78v1.6h2.88v-1.6H53.2zm-.94 11.16c2.2 0 4.46-.04 6.78-.1l-.24 1.38h-5.92c-3.6 0-6.18-.52-7.74-1.56-.26-.2-.48-.38-.68-.58-.64.94-1.44 1.76-2.36 2.46l-.94-1.22c.94-.68 1.72-1.48 2.36-2.4-.78-1.12-1.42-2.54-1.9-4.26l1.2-.44c.4 1.42.88 2.58 1.4 3.46.68-1.42 1.08-3.08 1.2-4.98h-3.7v-1.12c1.16-1.48 2.24-3.08 3.2-4.8h-3.28v-1.36h4.9v1.18c-1 1.84-2 3.42-2.96 4.78h3.14v.86c-.08 2.64-.62 4.88-1.58 6.72.32.34.64.6.98.8 1.36.76 3.42 1.14 6.14 1.18zm14.72-14.9h2.92v-1.6h1.34v1.6h3.22v-1.6h1.36v1.6h3.1v1.28h-3.1v1.5h-1.36v-1.5h-3.22v1.5H69.9v-1.5h-2.92v-1.28zm5.62 12.56c-.24.5-.54.96-.86 1.36-.92 1.16-2.52 2.06-4.82 2.72l-.52-1.2c2-.54 3.42-1.32 4.3-2.34.2-.26.4-.52.56-.8H66.6v-1.32h5.26c.16-.48.28-1 .38-1.52h-4.2v-6.06h9.58v6.06h-4.1c-.08.56-.2 1.06-.32 1.52h5.76v1.32H73.9c1.16 1.36 2.92 2.46 5.28 3.3l-.96 1.14c-2.6-1.12-4.46-2.5-5.62-4.18zm-7.56-6.12v10.18h-1.36v-9.96c-.62 1.88-1.4 3.6-2.36 5.14l-.62-1.56c1.38-1.92 2.38-4.08 2.98-6.52v-.12h-2.32v-1.3h2.32v-3.88h1.36v3.88h2.1v1.3h-2.1v1.32c.86 1.04 1.74 2.24 2.66 3.58l-.76 1.14a69.02 69.02 0 0 0-1.9-3.2zm11.28 1.9v-1.36h-6.98v1.36h6.98zm-6.98-2.44h6.98v-1.34h-6.98v1.34zm12.6-6.66H98.1v1.4h-7.44v7.56h8.2v1.38h-8.2v7.08h-1.48v-7.08h-8.04v-1.38h8.04v-7.56h-7.24v-1.4zm2.44 2.68c.76 1.4 1.48 2.92 2.16 4.58l-1.34.66c-.68-1.72-1.4-3.24-2.16-4.58l1.34-.66zm11.34-.1l1.32.62c-.6 1.58-1.4 3.12-2.38 4.64l-1.28-.66c.98-1.56 1.76-3.08 2.34-4.6zm20.96 6.54v8.34h-1.46v-1h-10.44v1h-1.46v-8.34h13.36zm-11.9 5.96h10.44v-4.58h-10.44v4.58zm-2.88-8.02c5.2-.2 9.9-.48 14.12-.86.48.76.98 1.54 1.48 2.38l1.4-.68c-1.48-2.42-3.08-4.64-4.8-6.64l-1.3.62c.8.92 1.58 1.94 2.34 3.02-3.44.32-7.08.58-10.92.74 1.8-1.48 3.62-3.52 5.42-6.08l-1.48-.5c-2.6 3.82-4.78 6.04-6.54 6.64l.28 1.36z" fill="#DD3730"/><path d="M39.998 21.349c.067-1.565-1.381-2.134-1.381-2.134l-8.003-3.487s.021-8.115 0-9.743c-.024-1.643-1.45-2.207-1.45-2.207s-6.333-2.6-8.211-3.556c-.978-.5-2.001 0-2.001 0s-5.955 2.718-7.798 3.486c-1.681.7-1.655 2.205-1.655 2.205l-.001 9.769s-5.248 2.34-7.451 3.233C-.061 19.77 0 21.562 0 21.562s.02 8.215 0 9.817c-.022 1.73 1.495 2.276 1.495 2.276s5.088 2.652 7.52 3.794c1.8.846 2.968.024 2.968.024l7.992-4.056s6.318 3.07 7.809 4.032c1.725 1.116 2.897.19 2.897.19s7.045-3.68 8.143-4.197c1.174-.553 1.174-1.921 1.174-1.921s-.07-8.607 0-10.172zm-29.396 3.059l-7.314-3.309 7.314-3.307 7.453 3.273-7.453 3.343zm8.211 6.97l-7.038 3.629V26.47l7.038-3.13v8.037zM19.969 9.47l-7.917-3.486 7.917-3.605 8.229 3.605-8.229 3.486zm1.26 2.134l6.969-3.13V15.8l-6.97 3.2v-7.396zm8.314 12.804l-7.28-3.309 6.97-3.307 7.59 3.307-7.28 3.309zm8.039 7.184l-6.9 3.415V26.47l6.9-3.13v8.251z" transform="translate(43 216)" fill-rule="nonzero" fill="url(#d)"/><path d="M50 26.449c0 2.498 1.95 4.408 4.5 4.408h27c2.55 0 4.5-1.91 4.5-4.408V10.286H50v16.163zm25.2-9.551c-.45-.44-.6-1.029-.15-1.47.45-.44 1.05-.587 1.5-.146l4.5 3.673c.3.147.45.44.45.735 0 .294-.15.588-.3.881l-4.5 4.262c-.15.147-.45.294-.75.294s-.6-.147-.75-.294c-.45-.441-.45-1.176 0-1.47l3.6-3.38-3.6-3.085zm-10.5 6.465l4.5-7.934c.3-.588.9-.735 1.5-.441s.75.881.45 1.47l-4.5 7.934c-.15.294-.6.588-.9.588-.15 0-.45 0-.6-.147-.45-.294-.75-.882-.45-1.47zm-9.75-4.555l4.5-3.673c.45-.441 1.2-.294 1.5.147.45.44.3 1.175-.15 1.469l-3.6 2.939 3.6 3.38c.45.44.45 1.028 0 1.469-.15.147-.45.294-.75.294s-.6-.147-.75-.294l-4.5-4.261c-.15-.147-.3-.441-.3-.882 0-.147.15-.294.45-.588zM81.5 0h-27C51.95 0 50 1.91 50 4.408v4.408h36V4.408C86 1.91 84.05 0 81.5 0zm-24 5.878h-3v-2.94h3v2.94zm6 0h-3v-2.94h3v2.94zm6 0h-3v-2.94h3v2.94z" fill="url(#e)" fill-rule="nonzero" transform="translate(828 221)"/><path d="M843.88 285.8v6.26h-1.4v-.86h-8.6v.86h-1.4v-6.26h11.4zm-10 4.1h8.6v-2.8h-8.6v2.8zm1.6-13.02l1.4.3c-.3.46-.6.9-.92 1.32h7.38v1.16c-.82 1.14-2 2.14-3.54 3.02 2.18.86 4.62 1.38 7.32 1.58l-.32 1.3c-3.2-.24-6.02-.94-8.5-2.14-2.36 1.08-5.34 1.92-8.94 2.54l-.54-1.28c3.22-.52 5.9-1.18 8.02-2.02-1.02-.6-1.96-1.28-2.82-2.04-.78.7-1.62 1.32-2.5 1.88l-.92-1.12a14.82 14.82 0 0 0 4.88-4.5zm2.84 5.14c1.38-.68 2.48-1.46 3.3-2.3h-6.7l-.06.06c1.06.88 2.22 1.62 3.46 2.24zm7.8-6.86v3.78h-1.46v-2.48h-13.32v2.48h-1.46v-3.78h7.32c-.24-.52-.48-.98-.74-1.4l1.58-.24c.24.48.46 1.04.7 1.64h7.38zm17.86 2.38h-11.42v3.9h11.42v-3.9zm-11.42 5.3c-.1 3.58-1.04 6.66-2.84 9.24l-1.06-.96c1.62-2.24 2.44-5.16 2.48-8.74v-6.26h6.52c-.36-.84-.74-1.62-1.16-2.34l1.54-.24c.36.76.72 1.62 1.08 2.58h6.32v6.72h-12.88zm22.38-9.32l1.34.62c-.7 1.68-1.6 3.24-2.68 4.72v13.18h-1.44v-11.42c-.9.98-1.88 1.92-2.94 2.8l-.46-1.5c2.84-2.44 4.9-5.24 6.18-8.4zm9.22 18.16h-3.82c-1.4 0-2.1-.72-2.1-2.12v-6.1c-.84.48-1.7.92-2.58 1.34l-.64-1.36c1.12-.52 2.2-1.06 3.22-1.66v-8.02h1.44v7.14c2.1-1.4 3.94-3 5.52-4.78l1 1.14c-1.86 2-4.04 3.78-6.52 5.34v6.76c0 .62.32.94 1 .94h3.24c.52 0 .92-.18 1.16-.5.22-.32.36-1.48.44-3.46l1.34.44c-.14 2.3-.38 3.7-.72 4.18-.36.48-1.02.72-1.98.72zm6.08-16.82h15.58v1.4h-3.34v5.3h4.38v1.38h-4.38v8.86h-1.46v-8.86h-5.78c-.18 2.06-.56 3.76-1.16 5.12-.76 1.68-2.02 2.98-3.78 3.9l-.78-1.24c1.62-.92 2.76-2.14 3.4-3.66.42-1.16.7-2.52.86-4.12h-4.62v-1.38h4.7c0-.26.02-.5.02-.7v-4.6h-3.64v-1.4zm5.12 1.4v4.6c0 .24-.02.48-.02.7h5.68v-5.3h-5.66zm14.96 3.54l1.58-5.56 1.42.24-1.14 3.94h3.5c.4-1.56.72-3.18.96-4.9l1.46.18c-.26 1.68-.58 3.24-.94 4.72h9.36v1.38h-9.74c-.24.8-.48 1.56-.76 2.28h8.18v1.24c-.54 1.72-1.62 3.28-3.26 4.68 1.62.96 3.6 1.84 5.92 2.64l-.74 1.34c-2.56-.94-4.68-1.96-6.36-3.06-1.64 1.16-3.68 2.2-6.1 3.14l-.76-1.34c2.24-.82 4.1-1.72 5.6-2.7-1.56-1.2-2.66-2.5-3.32-3.9-1.46 3.16-3.34 5.66-5.62 7.52l-.74-1.32c2.92-2.56 5.06-6.06 6.46-10.52h-4.96zm5.94 3.6c.68 1.36 1.82 2.62 3.42 3.78 1.48-1.16 2.5-2.42 3.06-3.78h-6.48zm5.2-9.72c1.44 1.1 2.62 2.2 3.58 3.3l-1.02 1.02c-.84-1.06-2.02-2.18-3.52-3.38l.96-.94zm8.48.88h16.16v1.4h-7.44v7.56h8.2v1.38h-8.2v7.08h-1.48v-7.08h-8.04v-1.38h8.04v-7.56h-7.24v-1.4zm2.44 2.68c.76 1.4 1.48 2.92 2.16 4.58l-1.34.66c-.68-1.72-1.4-3.24-2.16-4.58l1.34-.66zm11.34-.1l1.32.62c-.6 1.58-1.4 3.12-2.38 4.64l-1.28-.66c.98-1.56 1.76-3.08 2.34-4.6zm20.96 6.54v8.34h-1.46v-1h-10.44v1h-1.46v-8.34h13.36zm-11.9 5.96h10.44v-4.58h-10.44v4.58zm-2.88-8.02c5.2-.2 9.9-.48 14.12-.86.48.76.98 1.54 1.48 2.38l1.4-.68c-1.48-2.42-3.08-4.64-4.8-6.64l-1.3.62c.8.92 1.58 1.94 2.34 3.02-3.44.32-7.08.58-10.92.74 1.8-1.48 3.62-3.52 5.42-6.08l-1.48-.5c-2.6 3.82-4.78 6.04-6.54 6.64l.28 1.36zm-674.28-5.9h1.9l5.62 14.28h-1.78l-1.52-4h-6.56l-1.52 4H270l5.62-14.28zm-1.82 8.9h5.52l-2.7-7.14h-.08l-2.74 7.14zm10.78-8.9h5.84c3.28 0 4.92 1.4 4.92 4.2 0 2.82-1.66 4.24-4.94 4.24h-4.18V290h-1.64v-14.28zm1.64 1.42v5.6h4.1c1.16 0 2-.24 2.56-.7.54-.46.82-1.16.82-2.12 0-.96-.28-1.66-.84-2.08-.56-.48-1.4-.7-2.54-.7h-4.1zm11.32-1.42V290h1.62v-14.28h-1.62zm8.88 3.66c-1.54 0-2.76.54-3.64 1.64-.82 1-1.22 2.28-1.22 3.86s.4 2.86 1.22 3.84c.86 1.04 2.06 1.56 3.62 1.56 1.28 0 2.3-.34 3.08-1 .8-.68 1.3-1.7 1.54-3.02h-1.6c-.24 1.78-1.26 2.68-3.02 2.68-1.04 0-1.84-.38-2.38-1.1-.56-.72-.82-1.72-.82-2.98s.28-2.26.84-3c.58-.76 1.38-1.14 2.38-1.14.82 0 1.48.18 2 .58.5.4.82 1 .96 1.8h1.58c-.18-1.26-.66-2.2-1.46-2.82-.78-.6-1.8-.9-3.08-.9zm6.8-3.94V290h1.58v-14.56h-1.58zm9 3.94c1.54 0 2.78.52 3.7 1.6.88 1.02 1.32 2.3 1.32 3.86 0 1.54-.44 2.82-1.3 3.82-.94 1.08-2.18 1.62-3.72 1.62-1.56 0-2.78-.54-3.7-1.62-.88-1-1.32-2.28-1.32-3.82 0-1.56.44-2.84 1.32-3.86.92-1.08 2.14-1.6 3.7-1.6zm0 1.34c-1.1 0-1.96.42-2.56 1.26-.56.76-.82 1.7-.82 2.86 0 1.14.26 2.08.82 2.84.6.84 1.46 1.26 2.56 1.26 1.08 0 1.94-.42 2.58-1.26.54-.76.82-1.72.82-2.84 0-1.16-.28-2.1-.82-2.86-.64-.84-1.5-1.26-2.58-1.26zm7.1-1.06v6.4c0 2.8 1.24 4.22 3.76 4.22 1.4 0 2.52-.64 3.36-1.88v1.6h1.6v-10.34h-1.6v6.3c-.12.88-.46 1.6-1.02 2.16-.54.52-1.16.8-1.84.8-.94 0-1.62-.26-2.04-.74-.42-.48-.62-1.22-.62-2.2v-6.32h-1.6zm18.84-4.22h1.6V290h-1.5v-1.7c-.72 1.32-1.88 1.98-3.44 1.98-1.52 0-2.7-.56-3.54-1.64-.78-1-1.16-2.28-1.16-3.84 0-1.52.38-2.76 1.16-3.76.84-1.12 1.98-1.66 3.46-1.66s2.62.72 3.42 2.18v-6.12zm-3.08 5.26c-1.14 0-2 .4-2.56 1.2-.52.7-.76 1.66-.76 2.9s.24 2.22.74 2.94c.56.8 1.4 1.22 2.52 1.22 1.04 0 1.84-.4 2.42-1.2.5-.72.76-1.66.76-2.82v-.2c0-1.2-.3-2.18-.86-2.92-.58-.76-1.34-1.12-2.26-1.12zm15.14-6.72l-.98.94c1.42 1.14 2.54 2.2 3.34 3.18l1.04-1.02c-.92-1.04-2.06-2.06-3.4-3.1zm11.62 17.66c-1.08 0-2.26-.02-3.52-.04-1.28-.02-2.3-.14-3.1-.36-.78-.24-1.48-.74-2.1-1.46-.26-.34-.52-.5-.76-.5-.48 0-1.26.92-2.36 2.76l-1.08-.98c1.06-1.68 2-2.7 2.82-3.06v-6.08h-2.86v-1.32h4.2v7.48c.16.12.32.28.48.46.48.58.98 1 1.54 1.26.6.28 1.5.44 2.66.48 1.04.02 2.34.04 3.88.04.94 0 1.9-.02 2.88-.04.96-.02 1.72-.04 2.24-.08l-.34 1.44h-4.58zm-7.38-15.92h3.22c.28-.7.56-1.44.8-2.2l1.38.32c-.22.66-.44 1.28-.68 1.88h7.02v1.34h-7.58c-.6 1.34-1.28 2.54-2 3.58h3.22v-2.38h1.38v2.38h4.36v1.32h-4.36v2.38h5.24v1.36h-5.24v3.72h-1.38v-3.72h-5.54v-1.36h5.54v-2.38h-4.62l-.32-1.32c.8-.96 1.54-2.16 2.2-3.58h-2.64v-1.34zm23.78 1.32l-1.18.56c.42.72.82 1.52 1.22 2.4h-3.06v1.38h11.16V280h-3.24c.46-.8.88-1.7 1.26-2.7l-1.36-.48c-.4 1.12-.86 2.18-1.42 3.18h-1.96c-.44-1.08-.9-2.06-1.42-2.96zm2.64-3.5l-1.5.24c.24.5.48 1.06.7 1.66h-4.4v1.32h10.34v-1.32h-4.48c-.22-.7-.44-1.34-.66-1.9zm-9.98 18.28c1.18 0 1.78-.58 1.78-1.74v-5.92c.56-.26 1.12-.54 1.68-.84v-1.46c-.56.3-1.12.58-1.68.86v-3.84h1.66v-1.38h-1.66v-3.78h-1.48v3.78h-2.44v1.38h2.44v4.46c-.92.36-1.86.66-2.8.9l.36 1.44c.82-.26 1.64-.56 2.44-.88v4.92c0 .52-.28.78-.8.78-.48 0-1-.04-1.54-.08l.3 1.4h1.74zm8.22-9.88l1.38.16c-.2.54-.42 1.06-.66 1.56h6.86v1.4h-2.2c-.3 1.48-.92 2.74-1.86 3.76 1.36.64 2.68 1.32 3.94 2.04l-.78 1.16c-1.2-.74-2.58-1.48-4.18-2.24-1.32.96-3.42 1.74-6.3 2.3l-.56-1.3c2.32-.42 4.12-.98 5.36-1.7-1.22-.56-2.52-1.1-3.92-1.66.54-.82 1.02-1.6 1.44-2.36h-2.68v-1.4h3.42c.28-.6.52-1.16.74-1.72zm4.02 3.12h-4.04c-.36.62-.74 1.22-1.14 1.78 1.16.44 2.28.9 3.36 1.38.9-.84 1.5-1.88 1.82-3.16zm6.46-10.5h16.16v1.4h-7.44v7.56h8.2v1.38h-8.2v7.08h-1.48v-7.08h-8.04v-1.38h8.04v-7.56h-7.24v-1.4zm2.44 2.68c.76 1.4 1.48 2.92 2.16 4.58l-1.34.66c-.68-1.72-1.4-3.24-2.16-4.58l1.34-.66zm11.34-.1l1.32.62c-.6 1.58-1.4 3.12-2.38 4.64l-1.28-.66c.98-1.56 1.76-3.08 2.34-4.6zm20.96 6.54v8.34h-1.46v-1h-10.44v1h-1.46v-8.34h13.36zm-11.9 5.96h10.44v-4.58h-10.44v4.58zm-2.88-8.02c5.2-.2 9.9-.48 14.12-.86.48.76.98 1.54 1.48 2.38l1.4-.68c-1.48-2.42-3.08-4.64-4.8-6.64l-1.3.62c.8.92 1.58 1.94 2.34 3.02-3.44.32-7.08.58-10.92.74 1.8-1.48 3.62-3.52 5.42-6.08l-1.48-.5c-2.6 3.82-4.78 6.04-6.54 6.64l.28 1.36z" fill="#DD3730"/><path d="M30.484 29.206h-7.903v4.493h2.258c.623 0 1.129.503 1.129 1.124 0 .62-.506 1.123-1.13 1.123H11.292c-.625 0-1.13-.503-1.13-1.123 0-.621.505-1.124 1.13-1.124h2.257v-4.493H4.516C2.022 29.206 0 27.194 0 24.713V4.493C0 2.011 2.022 0 4.516 0h25.968C32.978 0 35 2.012 35 4.492v20.22c0 2.482-2.022 4.494-4.516 4.494zm2.259-6.74H2.258v2.247c0 1.24 1.01 2.246 2.258 2.246h25.968a2.253 2.253 0 0 0 2.259-2.246v-2.248z" transform="translate(333 219)" fill-rule="nonzero" fill="url(#f)"/></g></svg>