<svg width="80" height="80" viewBox="0 0 80 80" xmlns="http://www.w3.org/2000/svg"><title>Artboard 2 Copy 2</title><g transform="translate(16 16)" fill="none" fill-rule="evenodd"><path stroke="#FFF" stroke-width="2.5" stroke-linecap="round" stroke-linejoin="round" d="M13 31.702l7.31 7.31L35.32 24"/><rect stroke="#FFF" stroke-width="2.5" y="6" width="48" height="42" rx="2"/><path d="M11.25 0c.69 0 1.25.56 1.25 1.25v4.5a1.25 1.25 0 0 1-2.5 0v-4.5C10 .56 10.56 0 11.25 0zm27 0c.69 0 1.25.56 1.25 1.25v4.5a1.25 1.25 0 0 1-2.5 0v-4.5C37 .56 37.56 0 38.25 0zM0 14h49v2.5H0z" fill="#FFF"/></g></svg>