<svg width="102" height="102" viewBox="0 0 102 102" xmlns="http://www.w3.org/2000/svg"><title>Group 101</title><g transform="translate(1 1)" fill="none" fill-rule="evenodd"><circle stroke="#DF413A" stroke-width="1.5" cx="50" cy="50" r="50"/><path fill="#DF413A" d="M48 34h2.5v26.5H48z"/><path d="M49.25 36.5a7.25 7.25 0 1 1 0-14.5 7.25 7.25 0 0 1 0 14.5zm0-2.5a4.75 4.75 0 1 0 0-9.5 4.75 4.75 0 0 0 0 9.5z" fill="#DF413A" fill-rule="nonzero"/><circle stroke="#DF413A" stroke-width="2.5" transform="rotate(-120 26 67)" cx="26" cy="67" r="5.75"/><path fill="#DF413A" d="M30.799 63.932l-1.798-1.737L48.503 42l1.798 1.737z"/><path fill="#DF413A" d="M67.502 63.932l1.798-1.737L49.798 42l-1.799 1.737z"/><path d="M42.938 63.5a7 7 0 1 1 12.124 7 7 7 0 0 1-12.124-7zm2.09 1.207a4.586 4.586 0 1 0 7.944 4.586 4.586 4.586 0 0 0-7.944-4.586zm20.91-1.207a7 7 0 1 1 12.124 7 7 7 0 0 1-12.124-7zm2.09 1.207a4.586 4.586 0 1 0 7.944 4.586 4.586 4.586 0 0 0-7.944-4.586z" fill="#DF413A" fill-rule="nonzero"/></g></svg>