<svg width="80" height="80" viewBox="0 0 80 80" xmlns="http://www.w3.org/2000/svg"><title>Artboard 2 Copy 3</title><g transform="translate(7 12)" fill="none" fill-rule="evenodd"><path fill="#FFF" d="M32 12h2.5v26.5H32z"/><path d="M33.25 14.5a7.25 7.25 0 1 1 0-14.5 7.25 7.25 0 0 1 0 14.5zm0-2.5a4.75 4.75 0 1 0 0-9.5 4.75 4.75 0 0 0 0 9.5z" fill="#FFF" fill-rule="nonzero"/><circle stroke="#FFF" stroke-width="2.5" transform="rotate(-120 10 45)" cx="10" cy="45" r="5.75"/><path fill="#FFF" d="M14.798 41.932L13 40.195 32.502 20l1.799 1.737z"/><path fill="#FFF" d="M51.502 41.932l1.799-1.737L33.798 20 32 21.737z"/><path d="M26.938 41.5a7 7 0 1 1 12.124 7 7 7 0 0 1-12.124-7zm2.09 1.207a4.586 4.586 0 1 0 7.944 4.586 4.586 4.586 0 0 0-7.944-4.586zm20.91-1.207a7 7 0 1 1 12.124 7 7 7 0 0 1-12.124-7zm2.09 1.207a4.586 4.586 0 1 0 7.944 4.586 4.586 4.586 0 0 0-7.944-4.586z" fill="#FFF" fill-rule="nonzero"/></g></svg>