<svg width="1078" height="554" viewBox="0 0 1078 554" xmlns="http://www.w3.org/2000/svg" xmlns:xlink="http://www.w3.org/1999/xlink"><title>Group 4</title><defs><linearGradient x1="13.409%" y1="59.296%" x2="107.326%" y2="19.436%" id="a"><stop stop-color="#DD3730" offset="0%"/><stop stop-color="#FFC194" offset="100%"/></linearGradient><path id="b" d="M18.417 11.692H.074V.687h18.343v11.005z"/><linearGradient x1="13.409%" y1="59.296%" y2="25.363%" id="d"><stop stop-color="#DD3730" offset="0%"/><stop stop-color="#FFC194" offset="100%"/></linearGradient><path id="e" d="M0 .337v13.78h23.625V.338z"/><path id="g" d="M.416.674h11.812v11.812H.416z"/><path id="i" d="M15.06.737V12.55H.64V.737z"/><linearGradient x1="13.409%" y1="59.296%" x2="108.58%" y2="29.703%" id="k"><stop stop-color="#DD3730" offset="0%"/><stop stop-color="#FFC194" offset="100%"/></linearGradient><linearGradient x1="13.409%" y1="59.296%" x2="109.436%" y2="16.039%" id="l"><stop stop-color="#DD3730" offset="0%"/><stop stop-color="#FFC194" offset="100%"/></linearGradient><circle id="n" cx="1010" cy="277" r="50"/><filter x="-23.2%" y="-23.2%" width="146.5%" height="146.5%" filterUnits="objectBoundingBox" id="m"><feMorphology radius=".75" operator="dilate" in="SourceAlpha" result="shadowSpreadOuter1"/><feOffset in="shadowSpreadOuter1" result="shadowOffsetOuter1"/><feGaussianBlur stdDeviation="7.5" in="shadowOffsetOuter1" result="shadowBlurOuter1"/><feComposite in="shadowBlurOuter1" in2="SourceAlpha" operator="out" result="shadowBlurOuter1"/><feColorMatrix values="0 0 0 0 0.929411765 0 0 0 0 0.458823529 0 0 0 0 0.364705882 0 0 0 1 0" in="shadowBlurOuter1"/></filter><circle id="p" cx="62" cy="277" r="50"/><filter x="-23.2%" y="-23.2%" width="146.5%" height="146.5%" filterUnits="objectBoundingBox" id="o"><feMorphology radius=".75" operator="dilate" in="SourceAlpha" result="shadowSpreadOuter1"/><feOffset in="shadowSpreadOuter1" result="shadowOffsetOuter1"/><feGaussianBlur stdDeviation="7.5" in="shadowOffsetOuter1" result="shadowBlurOuter1"/><feComposite in="shadowBlurOuter1" in2="SourceAlpha" operator="out" result="shadowBlurOuter1"/><feColorMatrix values="0 0 0 0 0.929411765 0 0 0 0 0.458823529 0 0 0 0 0.364705882 0 0 0 1 0" in="shadowBlurOuter1"/></filter></defs><g transform="translate(3 -24)" fill="none" fill-rule="evenodd"><ellipse stroke="#E45546" stroke-width="2" opacity=".8" stroke-dasharray="3,5" cx="537" cy="294.5" rx="476" ry="98.5"/><ellipse stroke="#DFDFDF" stroke-width="16" opacity=".5" stroke-dasharray="2" transform="rotate(-117 537.433 241.545)" cx="537.433" cy="241.545" rx="179.433" ry="179.545"/><circle fill="#EDEFF0" opacity=".4" cx="538" cy="242" r="148"/><circle fill="#EBEBEB" cx="538.5" cy="242.5" r="128.5"/><circle stroke="#FAFBFC" fill="url(#a)" cx="701" cy="235" r="55"/><path d="M693.171 211.737a5.509 5.509 0 0 0 5.503-5.503 5.51 5.51 0 0 0-5.503-5.504 5.51 5.51 0 0 0-5.502 5.504 5.509 5.509 0 0 0 5.502 5.503m9.172 11.005c0-5.057-4.115-9.172-9.172-9.172s-9.17 4.115-9.17 9.172v1.835h18.342v-1.835zm3.668-3.668a5.509 5.509 0 0 0 5.503 5.502 5.51 5.51 0 0 0 5.503-5.502 5.51 5.51 0 0 0-5.503-5.503 5.509 5.509 0 0 0-5.503 5.503" fill="#FFF"/><g transform="translate(702.27 225.724)"><mask id="c" fill="#fff"><use xlink:href="#b"/></mask><path d="M9.245.687C4.188.687.074 4.8.074 9.858v1.835h18.343V9.858c0-5.057-4.115-9.171-9.172-9.171" fill="#FFF" mask="url(#c)"/></g><path fill="#FFF" d="M709.68 209.903h3.67v-7.338h-11.007v3.668h7.337zm-14.675 18.342h-3.668v7.337h7.338v-3.668h-3.67z"/><circle stroke="#FAFBFC" fill="url(#d)" cx="383" cy="235" r="55"/><g transform="translate(363 220.228)"><mask id="f" fill="#fff"><use xlink:href="#e"/></mask><path d="M11.812.337C5.298.337 0 5.635 0 12.149v1.969h23.625v-1.969c0-6.514-5.3-11.812-11.813-11.812" fill="#FFF" mask="url(#f)"/></g><g transform="translate(368.49 206.11)"><mask id="h" fill="#fff"><use xlink:href="#g"/></mask><path d="M6.322 12.486a5.913 5.913 0 0 0 5.906-5.906A5.913 5.913 0 0 0 6.322.673 5.913 5.913 0 0 0 .416 6.58a5.913 5.913 0 0 0 5.906 5.906" fill="#FFF" mask="url(#h)"/></g><g transform="translate(387.314 221.797)"><mask id="j" fill="#fff"><use xlink:href="#i"/></mask><path d="M5.217.737C3.555.737 2.013 1.19.639 1.92a15.648 15.648 0 0 1 2.609 8.661v1.97h11.813v-1.97c0-5.427-4.417-9.843-9.844-9.843" fill="#FFF" mask="url(#j)"/></g><path d="M392.53 220.565a5.913 5.913 0 0 0 5.906-5.906 5.913 5.913 0 0 0-5.906-5.907 5.913 5.913 0 0 0-5.906 5.907 5.913 5.913 0 0 0 5.906 5.906" fill="#FFF"/><g transform="translate(485 25)"><circle stroke="#FAFBFC" fill="url(#k)" cx="55" cy="55" r="55"/><path d="M29.612 69.15c.324.522.63 1.098.918 1.746h6.48v1.26H23.672v4.104c-.072 3.978-.666 7.164-1.818 9.54l-1.062-.954c.99-2.052 1.512-4.914 1.548-8.586v-5.364h6.768a10.64 10.64 0 0 0-.936-1.494l1.44-.252zm-1.17 3.51l1.242.288c-.162.504-.324.972-.486 1.44h7.02v1.134h-7.47a22.268 22.268 0 0 1-1.62 3.078h3.366v-2.178h1.296V78.6h4.014v1.17H31.79v2.016h5.382v1.188H31.79v2.844h-1.296v-2.844h-6.498v-1.188h6.498V79.77h-4.716l-.27-1.116c.684-.846 1.314-1.89 1.872-3.132h-2.718v-1.134h3.186c.198-.558.396-1.134.594-1.728zm10.944-1.53h4.896c.234-.63.45-1.26.63-1.908l1.314.162c-.18.594-.36 1.17-.558 1.746h9.216v1.26h-9.702a20.768 20.768 0 0 1-2.466 4.266v9.162h-1.26v-7.614a27.533 27.533 0 0 1-1.926 1.908l-.81-1.026c2.196-1.926 3.87-4.158 5.04-6.696h-4.374v-1.26zm4.734 8.37h5.22v-1.674a18.61 18.61 0 0 0 2.934-2.034h-6.768v-1.206h8.424v1.206c-.972.9-2.07 1.764-3.294 2.574V79.5h4.5v1.242h-4.5v3.402c0 1.062-.54 1.602-1.602 1.602h-2.25l-.342-1.224c.648.018 1.332.036 2.07.036.54 0 .828-.288.828-.828v-2.988h-5.22V79.5zm18.972 2.268v1.224c-1.692.792-3.636 1.44-5.832 1.908l-.162-1.278c2.304-.468 4.302-1.08 5.994-1.854zm-2.826-12.456l1.224.486c-.972 2.232-1.944 4.014-2.934 5.346.864-.072 1.71-.198 2.574-.342.378-.666.774-1.386 1.188-2.16l1.17.45c-1.728 3.096-3.15 5.292-4.284 6.606A28.016 28.016 0 0 0 63.2 78.51v1.188c-1.962.702-3.834 1.188-5.634 1.44l-.342-1.206c.234-.108.432-.234.594-.378.72-.702 1.584-1.89 2.61-3.564-1.044.162-2.088.306-3.168.45l-.324-1.206c.198-.072.378-.234.558-.486 1.062-1.584 1.98-3.384 2.772-5.436zm11.394.828v13.77h1.53v1.26H62.786v-1.26h1.566V70.14h7.308zm-6.03 13.77h4.752v-3.42H65.63v3.42zm0-4.644h4.752v-3.402H65.63v3.402zm0-4.626h4.752v-3.258H65.63v3.258zm15.444 7.506v1.278c-1.8.666-3.816 1.206-6.084 1.62l-.162-1.296c2.376-.396 4.446-.936 6.246-1.602zm-2.916-12.852l1.242.486c-.99 2.376-1.98 4.284-2.988 5.688a49.018 49.018 0 0 0 2.628-.396c.396-.72.828-1.476 1.26-2.286l1.152.45c-1.71 3.096-3.132 5.292-4.266 6.606a29.4 29.4 0 0 0 3.942-1.116v1.116c-1.962.738-3.834 1.242-5.634 1.494l-.36-1.206a2.22 2.22 0 0 0 .612-.378c.72-.684 1.584-1.854 2.592-3.492-1.062.18-2.124.36-3.186.522l-.342-1.188c.216-.108.396-.27.558-.504 1.08-1.692 1.998-3.618 2.79-5.796zm3.96 1.044h8.064v8.46h-8.064v-8.46zm6.768 7.236V71.58h-5.49v5.994h5.49zm-5.148 2.232l1.134.54c-.882 2.106-1.926 3.924-3.132 5.454l-1.098-.792c1.206-1.44 2.232-3.186 3.096-5.202zm4.554 0l-1.044.648c1.278 1.962 2.286 3.744 3.024 5.364l1.098-.774c-.72-1.476-1.746-3.222-3.078-5.238z" fill="#FFF"/></g><g fill="#FFF"><path d="M554.4 48a1.6 1.6 0 0 1 1.6 1.6v17.6a1.6 1.6 0 0 1-1.6 1.6h-17.6a1.6 1.6 0 0 1-1.6-1.6V49.6a1.6 1.6 0 0 1 1.6-1.6h6.4v4.8h4.8V48h6.4zm-20.8 28.8H560v-3.2h-26.4zm-3.2-6.4h-3.2V44h1.6a1.6 1.6 0 0 1 1.6 1.6v24.8z"/><path d="M520 47.2h8.8V44H520zm14.4 28a5.6 5.6 0 1 1-11.2 0 5.6 5.6 0 0 1 11.2 0"/></g><path d="M677.79 247.348h1.278v4.986h3.384v9.612c0 1.152-.522 1.746-1.566 1.746h-1.8l-.342-1.242 1.728.054c.45 0 .684-.288.684-.846v-1.89h-5.49v3.978h-1.296v-11.412h3.42v-4.986zm-2.124 9.324v1.98h5.49v-1.98h-5.49zm5.49-1.116v-1.998h-5.49v1.998h5.49zM675 248.032a29.596 29.596 0 0 1 1.638 3.024l-1.044.522c-.522-1.134-1.08-2.142-1.692-3.024l1.098-.522zm6.84-.162l1.08.504a17.895 17.895 0 0 1-1.728 3.204l-1.062-.54a18.301 18.301 0 0 0 1.71-3.168zm-12.726-.54l1.26.252a34.107 34.107 0 0 1-.504 1.746h3.294v1.224h-3.726c-.486 1.242-1.044 2.376-1.692 3.384l-1.062-.666c1.116-1.8 1.926-3.78 2.43-5.94zm-.54 5.634h4.284v1.17h-1.872v2.268h2.484v1.206h-2.484v4.23c.81-.288 1.638-.684 2.466-1.17l.216 1.152c-1.134.63-2.448 1.152-3.942 1.548l-.54-1.116c.36-.126.54-.306.54-.54v-4.104h-2.484v-1.206h2.484v-2.268h-1.152v-1.17zm30.78 5.652v5.256h-1.278v-.882h-9.54v.882h-1.278v-5.256h12.096zm-10.818 3.222h9.54v-2.106h-9.54v2.106zm-1.278-9.864a19.72 19.72 0 0 1-2.124 2.124l-.396-1.278c1.872-1.71 3.204-3.582 3.978-5.598l1.26.252c-.216.54-.45 1.062-.72 1.584h4.464a11.93 11.93 0 0 0-.882-1.656l1.332-.216c.288.558.558 1.188.81 1.872h5.238v1.08h-5.472v1.314h4.68v1.026h-4.68v1.26h4.716v1.026h-4.716v1.35h5.76v1.098h-13.248v-5.238zm6.21 4.14v-1.35H688.5v1.35h4.968zm0-2.376v-1.26H688.5v1.26h4.968zm0-2.286v-1.314h-4.842a1.21 1.21 0 0 0-.126.198v1.116h4.968zm15.624 8.316v1.224c-1.692.792-3.636 1.44-5.832 1.908l-.162-1.278c2.304-.468 4.302-1.08 5.994-1.854zm-2.826-12.456l1.224.486c-.972 2.232-1.944 4.014-2.934 5.346.864-.072 1.71-.198 2.574-.342.378-.666.774-1.386 1.188-2.16l1.17.45c-1.728 3.096-3.15 5.292-4.284 6.606a28.016 28.016 0 0 0 3.996-1.188v1.188c-1.962.702-3.834 1.188-5.634 1.44l-.342-1.206c.234-.108.432-.234.594-.378.72-.702 1.584-1.89 2.61-3.564-1.044.162-2.088.306-3.168.45l-.324-1.206c.198-.072.378-.234.558-.486 1.062-1.584 1.98-3.384 2.772-5.436zm11.394.828v13.77h1.53v1.26h-10.404v-1.26h1.566v-13.77h7.308zm-6.03 13.77h4.752v-3.42h-4.752v3.42zm0-4.644h4.752v-3.402h-4.752v3.402zm0-4.626h4.752v-3.258h-4.752v3.258zm15.444 7.506v1.278c-1.8.666-3.816 1.206-6.084 1.62l-.162-1.296c2.376-.396 4.446-.936 6.246-1.602zm-2.916-12.852l1.242.486c-.99 2.376-1.98 4.284-2.988 5.688a49.018 49.018 0 0 0 2.628-.396c.396-.72.828-1.476 1.26-2.286l1.152.45c-1.71 3.096-3.132 5.292-4.266 6.606a29.4 29.4 0 0 0 3.942-1.116v1.116c-1.962.738-3.834 1.242-5.634 1.494l-.36-1.206a2.22 2.22 0 0 0 .612-.378c.72-.684 1.584-1.854 2.592-3.492-1.062.18-2.124.36-3.186.522l-.342-1.188c.216-.108.396-.27.558-.504 1.08-1.692 1.998-3.618 2.79-5.796zm3.96 1.044h8.064v8.46h-8.064v-8.46zm6.768 7.236v-5.994h-5.49v5.994h5.49zm-5.148 2.232l1.134.54c-.882 2.106-1.926 3.924-3.132 5.454l-1.098-.792c1.206-1.44 2.232-3.186 3.096-5.202zm4.554 0l-1.044.648c1.278 1.962 2.286 3.744 3.024 5.364l1.098-.774c-.72-1.476-1.746-3.222-3.078-5.238z" fill="#FFF"/><path d="M767.906 182.55v1.584c-.09 3.96-.864 7.128-2.34 9.504l-.9-.954c1.224-2.052 1.89-4.914 1.998-8.55V178.5c4.752-.036 9.036-.414 12.834-1.098l.648 1.17c-3.636.612-7.722.954-12.24 1.026v1.764h6.012a25.5 25.5 0 0 0 .216-1.638l1.296.162a32.667 32.667 0 0 1-.198 1.476h5.706v1.188h-5.904c-.108.612-.234 1.17-.378 1.71h4.626v6.12h-1.242v-4.932h-7.11v5.004h-1.242v-6.192h3.654c.144-.576.27-1.134.378-1.71h-5.814zm7.614 7.416c1.998.756 3.816 1.656 5.454 2.718l-.72 1.098c-1.746-1.188-3.546-2.142-5.382-2.844l.648-.972zm-1.332-3.798l1.26.09c-.216 2.124-.864 3.762-1.944 4.878-1.116 1.116-2.826 2.016-5.112 2.664l-.702-1.188c2.124-.54 3.69-1.278 4.698-2.25 1.008-.972 1.602-2.376 1.8-4.194zm10.566-1.332h12.528v4.59h-5.652v1.008h6.102v.864h-6.102v1.062h7.416v1.008h-16.092v-1.008h7.38v-1.062h-6.03v-.864h6.03v-1.008h-5.58v-4.59zm11.286 3.78v-1.098h-4.41v1.098h4.41zm-5.706 0v-1.098h-4.338v1.098h4.338zm-4.338-1.854h4.338v-1.116h-4.338v1.116zm5.634-1.116v1.116h4.41v-1.116h-4.41zm-6.48-8.064h11.754v4.446H785.15v-4.446zm10.494 3.672v-1.062h-9.234v1.062h9.234zm-9.234-1.836h9.234v-1.044h-9.234v1.044zm-3.474 3.546v.972h16.128v-.972h-16.128zm19.836.756a21.659 21.659 0 0 1-1.782 2.286l-.414-1.386c1.764-2.178 3.042-4.68 3.852-7.488l1.206.558a24.275 24.275 0 0 1-1.584 3.906v12.24h-1.278V183.72zm2.79-4.05h5.544c-.27-.72-.576-1.404-.936-2.088l1.242-.342c.378.792.666 1.512.882 2.178l-.684.252h5.67v1.224h-11.718v-1.224zm1.656 2.682v1.17h8.514v-1.17h-8.514zm0 2.538v1.188h8.514v-1.188h-8.514zm8.838 2.664v6.246h-1.26v-.972h-6.66v.972h-1.26v-6.246h9.18zm-7.92 4.05h6.66v-2.844h-6.66v2.844zm13.302-12.978h3.96c.252-.468.432-.936.558-1.44l1.35.18c-.144.45-.324.864-.54 1.26h5.94v8.802h-11.268v-8.802zm10.008 7.686V184.8h-8.748v1.512h8.748zm-8.748-2.556h8.748v-1.476h-8.748v1.476zm0-2.52h8.748v-1.476h-8.748v1.476zm-2.16 7.416c-.342 1.404-.9 2.7-1.674 3.852l1.098.702c.774-1.224 1.368-2.646 1.8-4.302l-1.224-.252zm8.676 4.878h-4.626c-1.044 0-1.548-.522-1.548-1.53v-3.438h1.314v3.168c0 .414.198.63.612.63h3.996c.414 0 .702-.108.846-.288.216-.252.378-.954.45-2.124l1.242.396c-.144 1.512-.396 2.43-.756 2.772-.324.27-.846.414-1.53.414zm-2.412-5.616c.972.936 1.71 1.764 2.232 2.466l-.99.684c-.54-.774-1.26-1.62-2.196-2.556l.954-.594zm5.814.414l-1.008.63c1.098 1.422 1.98 2.718 2.628 3.888l1.026-.72c-.612-1.08-1.494-2.358-2.646-3.798zm-581.71-15.778v1.584c-.09 3.96-.864 7.128-2.34 9.504l-.9-.954c1.224-2.052 1.89-4.914 1.998-8.55V168.5c4.752-.036 9.036-.414 12.834-1.098l.648 1.17c-3.636.612-7.722.954-12.24 1.026v1.764h6.012a25.5 25.5 0 0 0 .216-1.638l1.296.162a32.667 32.667 0 0 1-.198 1.476h5.706v1.188h-5.904c-.108.612-.234 1.17-.378 1.71h4.626v6.12h-1.242v-4.932h-7.11v5.004h-1.242v-6.192h3.654c.144-.576.27-1.134.378-1.71h-5.814zm7.614 7.416c1.998.756 3.816 1.656 5.454 2.718l-.72 1.098c-1.746-1.188-3.546-2.142-5.382-2.844l.648-.972zm-1.332-3.798l1.26.09c-.216 2.124-.864 3.762-1.944 4.878-1.116 1.116-2.826 2.016-5.112 2.664l-.702-1.188c2.124-.54 3.69-1.278 4.698-2.25 1.008-.972 1.602-2.376 1.8-4.194zm10.566-1.332h12.528v4.59h-5.652v1.008h6.102v.864h-6.102v1.062h7.416v1.008h-16.092v-1.008h7.38v-1.062h-6.03v-.864h6.03v-1.008h-5.58v-4.59zm11.286 3.78v-1.098h-4.41v1.098h4.41zm-5.706 0v-1.098h-4.338v1.098h4.338zm-4.338-1.854h4.338v-1.116h-4.338v1.116zm5.634-1.116v1.116h4.41v-1.116h-4.41zm-6.48-8.064h11.754v4.446H268.15v-4.446zm10.494 3.672v-1.062h-9.234v1.062h9.234zm-9.234-1.836h9.234v-1.044h-9.234v1.044zm-3.474 3.546v.972h16.128v-.972h-16.128zm19.836.756a21.659 21.659 0 0 1-1.782 2.286l-.414-1.386c1.764-2.178 3.042-4.68 3.852-7.488l1.206.558a24.275 24.275 0 0 1-1.584 3.906v12.24h-1.278V173.72zm2.79-4.05h5.544c-.27-.72-.576-1.404-.936-2.088l1.242-.342c.378.792.666 1.512.882 2.178l-.684.252h5.67v1.224h-11.718v-1.224zm1.656 2.682v1.17h8.514v-1.17h-8.514zm0 2.538v1.188h8.514v-1.188h-8.514zm8.838 2.664v6.246h-1.26v-.972h-6.66v.972h-1.26v-6.246h9.18zm-7.92 4.05h6.66v-2.844h-6.66v2.844zm13.302-12.978h3.96c.252-.468.432-.936.558-1.44l1.35.18c-.144.45-.324.864-.54 1.26h5.94v8.802h-11.268v-8.802zm10.008 7.686V174.8h-8.748v1.512h8.748zm-8.748-2.556h8.748v-1.476h-8.748v1.476zm0-2.52h8.748v-1.476h-8.748v1.476zm-2.16 7.416c-.342 1.404-.9 2.7-1.674 3.852l1.098.702c.774-1.224 1.368-2.646 1.8-4.302l-1.224-.252zm8.676 4.878h-4.626c-1.044 0-1.548-.522-1.548-1.53v-3.438h1.314v3.168c0 .414.198.63.612.63h3.996c.414 0 .702-.108.846-.288.216-.252.378-.954.45-2.124l1.242.396c-.144 1.512-.396 2.43-.756 2.772-.324.27-.846.414-1.53.414zm-2.412-5.616c.972.936 1.71 1.764 2.232 2.466l-.99.684c-.54-.774-1.26-1.62-2.196-2.556l.954-.594zm5.814.414l-1.008.63c1.098 1.422 1.98 2.718 2.628 3.888l1.026-.72c-.612-1.08-1.494-2.358-2.646-3.798zm567.8 27.872c-1.836.666-3.96 1.206-6.408 1.602l.162 1.26c2.34-.432 4.41-.972 6.246-1.638V206.2zm-3.33-12.96l1.206.468c-.918 2.34-1.854 4.212-2.79 5.616a67.48 67.48 0 0 0 2.556-.378c.342-.648.702-1.314 1.062-1.998l1.134.414c-1.638 3.042-3.006 5.202-4.104 6.498 1.368-.27 2.718-.63 4.05-1.08v1.152c-1.944.666-3.816 1.116-5.616 1.35l-.342-1.17c.234-.108.432-.234.594-.378.684-.702 1.53-1.89 2.538-3.582-1.026.162-2.052.306-3.096.45l-.324-1.188c.198-.09.378-.252.54-.486 1.008-1.656 1.872-3.546 2.592-5.688zm3.114 2.286h4.302v-2.178h1.314v2.178h4.284v1.26h-4.284v2.664h3.762v1.26h-8.784v-1.26h3.708v-2.664H883.2v-1.26zm8.856 6.984v7.236h-1.26v-.864h-5.148v.864h-1.278v-7.236h7.686zm-6.408 5.148h5.148v-3.924h-5.148v3.924zm11.538-10.296h11.844v7.074h-2.142v1.206h4.086v1.152h-4.086v3.042h-1.278v-3.042h-5.112c-.18.522-.414.972-.738 1.35-.612.702-1.62 1.242-3.006 1.638l-.666-1.026c1.26-.36 2.142-.81 2.646-1.35a4.31 4.31 0 0 0 .378-.612h-4.086v-1.152h4.41c.018-.18.036-.36.036-.504v-.702h-2.286v-7.074zm3.582 7.074v.702c0 .18-.018.342-.036.504h4.878v-1.206h-4.842zm7.002-1.008v-1.116h-9.324v1.116h9.324zm-9.324-2.052h9.324v-1.008h-9.324v1.008zm0-1.926h9.324v-1.08h-9.324v1.08zm-.72-3.852c-.432.72-.936 1.404-1.512 2.016l-1.08-.666c1.098-1.152 1.89-2.412 2.376-3.78l1.242.27c-.144.36-.306.72-.45 1.062h4.464v1.098h-2.358c.306.396.558.756.756 1.098l-1.08.396a15.103 15.103 0 0 0-.972-1.494h-1.386zm7.398-.054h1.368c.396.504.738 1.026 1.026 1.566l1.08-.396c-.216-.36-.468-.756-.792-1.17h3.006v-1.098h-5.13l.378-.972-1.26-.27a9.35 9.35 0 0 1-1.944 3.366l1.062.684a11.66 11.66 0 0 0 1.206-1.71zm9.648 4.176a21.659 21.659 0 0 1-1.782 2.286l-.414-1.386c1.764-2.178 3.042-4.68 3.852-7.488l1.206.558a24.275 24.275 0 0 1-1.584 3.906v12.24h-1.278V199.72zm2.79-4.05h5.544c-.27-.72-.576-1.404-.936-2.088l1.242-.342c.378.792.666 1.512.882 2.178l-.684.252h5.67v1.224h-11.718v-1.224zm1.656 2.682v1.17h8.514v-1.17h-8.514zm0 2.538v1.188h8.514v-1.188h-8.514zm8.838 2.664v6.246h-1.26v-.972h-6.66v.972h-1.26v-6.246h9.18zm-7.92 4.05h6.66v-2.844h-6.66v2.844zm13.302-12.978h3.96c.252-.468.432-.936.558-1.44l1.35.18c-.144.45-.324.864-.54 1.26h5.94v8.802h-11.268v-8.802zm10.008 7.686V200.8h-8.748v1.512h8.748zm-8.748-2.556h8.748v-1.476h-8.748v1.476zm0-2.52h8.748v-1.476h-8.748v1.476zm-2.16 7.416c-.342 1.404-.9 2.7-1.674 3.852l1.098.702c.774-1.224 1.368-2.646 1.8-4.302l-1.224-.252zm8.676 4.878h-4.626c-1.044 0-1.548-.522-1.548-1.53v-3.438h1.314v3.168c0 .414.198.63.612.63h3.996c.414 0 .702-.108.846-.288.216-.252.378-.954.45-2.124l1.242.396c-.144 1.512-.396 2.43-.756 2.772-.324.27-.846.414-1.53.414zm-2.412-5.616c.972.936 1.71 1.764 2.232 2.466l-.99.684c-.54-.774-1.26-1.62-2.196-2.556l.954-.594zm5.814.414l-1.008.63c1.098 1.422 1.98 2.718 2.628 3.888l1.026-.72c-.612-1.08-1.494-2.358-2.646-3.798zm-820.2-2.128c-1.836.666-3.96 1.206-6.408 1.602l.162 1.26c2.34-.432 4.41-.972 6.246-1.638V202.2zm-3.33-12.96l1.206.468c-.918 2.34-1.854 4.212-2.79 5.616a67.48 67.48 0 0 0 2.556-.378c.342-.648.702-1.314 1.062-1.998l1.134.414c-1.638 3.042-3.006 5.202-4.104 6.498 1.368-.27 2.718-.63 4.05-1.08v1.152c-1.944.666-3.816 1.116-5.616 1.35l-.342-1.17c.234-.108.432-.234.594-.378.684-.702 1.53-1.89 2.538-3.582-1.026.162-2.052.306-3.096.45l-.324-1.188c.198-.09.378-.252.54-.486 1.008-1.656 1.872-3.546 2.592-5.688zm3.114 2.286h4.302v-2.178h1.314v2.178h4.284v1.26h-4.284v2.664h3.762v1.26h-8.784v-1.26h3.708v-2.664H124.2v-1.26zm8.856 6.984v7.236h-1.26v-.864h-5.148v.864h-1.278v-7.236h7.686zm-6.408 5.148h5.148v-3.924h-5.148v3.924zm11.538-10.296h11.844v7.074h-2.142v1.206h4.086v1.152h-4.086v3.042h-1.278v-3.042h-5.112c-.18.522-.414.972-.738 1.35-.612.702-1.62 1.242-3.006 1.638l-.666-1.026c1.26-.36 2.142-.81 2.646-1.35a4.31 4.31 0 0 0 .378-.612h-4.086v-1.152h4.41c.018-.18.036-.36.036-.504v-.702h-2.286v-7.074zm3.582 7.074v.702c0 .18-.018.342-.036.504h4.878v-1.206h-4.842zm7.002-1.008v-1.116h-9.324v1.116h9.324zm-9.324-2.052h9.324v-1.008h-9.324v1.008zm0-1.926h9.324v-1.08h-9.324v1.08zm-.72-3.852c-.432.72-.936 1.404-1.512 2.016l-1.08-.666c1.098-1.152 1.89-2.412 2.376-3.78l1.242.27c-.144.36-.306.72-.45 1.062h4.464v1.098h-2.358c.306.396.558.756.756 1.098l-1.08.396a15.103 15.103 0 0 0-.972-1.494h-1.386zm7.398-.054h1.368c.396.504.738 1.026 1.026 1.566l1.08-.396c-.216-.36-.468-.756-.792-1.17h3.006v-1.098h-5.13l.378-.972-1.26-.27a9.35 9.35 0 0 1-1.944 3.366l1.062.684a11.66 11.66 0 0 0 1.206-1.71zm9.648 4.176a21.659 21.659 0 0 1-1.782 2.286l-.414-1.386c1.764-2.178 3.042-4.68 3.852-7.488l1.206.558a24.275 24.275 0 0 1-1.584 3.906v12.24h-1.278V195.72zm2.79-4.05h5.544c-.27-.72-.576-1.404-.936-2.088l1.242-.342c.378.792.666 1.512.882 2.178l-.684.252h5.67v1.224h-11.718v-1.224zm1.656 2.682v1.17h8.514v-1.17h-8.514zm0 2.538v1.188h8.514v-1.188h-8.514zm8.838 2.664v6.246h-1.26v-.972h-6.66v.972h-1.26v-6.246h9.18zm-7.92 4.05h6.66v-2.844h-6.66v2.844zm13.302-12.978h3.96c.252-.468.432-.936.558-1.44l1.35.18c-.144.45-.324.864-.54 1.26h5.94v8.802h-11.268v-8.802zm10.008 7.686V196.8h-8.748v1.512h8.748zm-8.748-2.556h8.748v-1.476h-8.748v1.476zm0-2.52h8.748v-1.476h-8.748v1.476zm-2.16 7.416c-.342 1.404-.9 2.7-1.674 3.852l1.098.702c.774-1.224 1.368-2.646 1.8-4.302l-1.224-.252zm8.676 4.878h-4.626c-1.044 0-1.548-.522-1.548-1.53v-3.438h1.314v3.168c0 .414.198.63.612.63h3.996c.414 0 .702-.108.846-.288.216-.252.378-.954.45-2.124l1.242.396c-.144 1.512-.396 2.43-.756 2.772-.324.27-.846.414-1.53.414zm-2.412-5.616c.972.936 1.71 1.764 2.232 2.466l-.99.684c-.54-.774-1.26-1.62-2.196-2.556l.954-.594zm5.814.414l-1.008.63c1.098 1.422 1.98 2.718 2.628 3.888l1.026-.72c-.612-1.08-1.494-2.358-2.646-3.798zm708.54 175.8h2.322v-3.762h1.332v3.762h3.222v-3.762h1.314v3.762h2.394v1.26h-2.394v4.212h2.898v1.242h-11.592V381.6h2.826v-4.212h-2.322v-1.26zm3.654 5.472h3.222v-4.212h-3.222v4.212zm3.762 1.908l-1.062.648c1.422 1.692 2.556 3.222 3.384 4.59l1.152-.792c-.81-1.26-1.962-2.754-3.474-4.446zm-4.554.126l1.188.558c-.936 1.764-2.052 3.294-3.33 4.59l-1.116-.81a17.023 17.023 0 0 0 3.258-4.338zm-6.066-4.914a23.335 23.335 0 0 1-1.962 2.304l-.432-1.368a20.543 20.543 0 0 0 4.284-7.506l1.224.558a21.436 21.436 0 0 1-1.782 3.978V388.8h-1.332v-10.08zm16.074 2.124v1.116h7.038l-.612 1.296h-4.914v5.598h1.224v-4.482h2.7v4.266h1.242v-4.266h2.664v4.266h1.242v-4.266h2.898v2.556c0 .522-.234.792-.702.792l-1.206-.054.288 1.116h1.278c1.062 0 1.602-.54 1.602-1.584v-3.942h-7.002l.612-1.296h7.596v-1.116h-15.948zm1.098-7.938h13.77v1.062h-6.264v1.134h6.912v3.708H921.3v-2.682h-5.67v3.978h-1.26v-3.978h-5.67v2.682h-1.242v-3.708h6.912v-1.134h-6.246v-1.062zm1.548 4.23h3.744V378h-3.744v-.864zm0 1.8h3.744v.864h-3.744v-.864zm6.894-1.8h3.726V378h-3.726v-.864zm.018 1.8h3.762v.864h-3.762v-.864zm10.188-.216a21.659 21.659 0 0 1-1.782 2.286l-.414-1.386c1.764-2.178 3.042-4.68 3.852-7.488l1.206.558a24.275 24.275 0 0 1-1.584 3.906v12.24h-1.278V378.72zm2.79-4.05h5.544c-.27-.72-.576-1.404-.936-2.088l1.242-.342c.378.792.666 1.512.882 2.178l-.684.252h5.67v1.224h-11.718v-1.224zm1.656 2.682v1.17h8.514v-1.17h-8.514zm0 2.538v1.188h8.514v-1.188h-8.514zm8.838 2.664v6.246h-1.26v-.972h-6.66v.972h-1.26v-6.246h9.18zm-7.92 4.05h6.66v-2.844h-6.66v2.844zm13.302-12.978h3.96c.252-.468.432-.936.558-1.44l1.35.18c-.144.45-.324.864-.54 1.26h5.94v8.802h-11.268v-8.802zm10.008 7.686V379.8h-8.748v1.512h8.748zm-8.748-2.556h8.748v-1.476h-8.748v1.476zm0-2.52h8.748v-1.476h-8.748v1.476zm-2.16 7.416c-.342 1.404-.9 2.7-1.674 3.852l1.098.702c.774-1.224 1.368-2.646 1.8-4.302l-1.224-.252zm8.676 4.878h-4.626c-1.044 0-1.548-.522-1.548-1.53v-3.438h1.314v3.168c0 .414.198.63.612.63h3.996c.414 0 .702-.108.846-.288.216-.252.378-.954.45-2.124l1.242.396c-.144 1.512-.396 2.43-.756 2.772-.324.27-.846.414-1.53.414zm-2.412-5.616c.972.936 1.71 1.764 2.232 2.466l-.99.684c-.54-.774-1.26-1.62-2.196-2.556l.954-.594zm5.814.414l-1.008.63c1.098 1.422 1.98 2.718 2.628 3.888l1.026-.72c-.612-1.08-1.494-2.358-2.646-3.798zm-827.46-2.2h2.322v-3.762h1.332v3.762h3.222v-3.762h1.314v3.762h2.394v1.26h-2.394v4.212h2.898v1.242h-11.592V386.6h2.826v-4.212h-2.322v-1.26zm3.654 5.472h3.222v-4.212h-3.222v4.212zm3.762 1.908l-1.062.648c1.422 1.692 2.556 3.222 3.384 4.59l1.152-.792c-.81-1.26-1.962-2.754-3.474-4.446zm-4.554.126l1.188.558c-.936 1.764-2.052 3.294-3.33 4.59l-1.116-.81a17.023 17.023 0 0 0 3.258-4.338zm-6.066-4.914a23.335 23.335 0 0 1-1.962 2.304l-.432-1.368a20.543 20.543 0 0 0 4.284-7.506l1.224.558a21.436 21.436 0 0 1-1.782 3.978V393.8h-1.332v-10.08zm16.074 2.124v1.116h7.038l-.612 1.296h-4.914v5.598h1.224v-4.482h2.7v4.266h1.242v-4.266h2.664v4.266h1.242v-4.266h2.898v2.556c0 .522-.234.792-.702.792l-1.206-.054.288 1.116h1.278c1.062 0 1.602-.54 1.602-1.584v-3.942h-7.002l.612-1.296h7.596v-1.116h-15.948zm1.098-7.938h13.77v1.062h-6.264v1.134h6.912v3.708H156.3v-2.682h-5.67v3.978h-1.26v-3.978h-5.67v2.682h-1.242v-3.708h6.912v-1.134h-6.246v-1.062zm1.548 4.23h3.744V383h-3.744v-.864zm0 1.8h3.744v.864h-3.744v-.864zm6.894-1.8h3.726V383h-3.726v-.864zm.018 1.8h3.762v.864h-3.762v-.864zm10.188-.216a21.659 21.659 0 0 1-1.782 2.286l-.414-1.386c1.764-2.178 3.042-4.68 3.852-7.488l1.206.558a24.275 24.275 0 0 1-1.584 3.906v12.24h-1.278V383.72zm2.79-4.05h5.544c-.27-.72-.576-1.404-.936-2.088l1.242-.342c.378.792.666 1.512.882 2.178l-.684.252h5.67v1.224h-11.718v-1.224zm1.656 2.682v1.17h8.514v-1.17h-8.514zm0 2.538v1.188h8.514v-1.188h-8.514zm8.838 2.664v6.246h-1.26v-.972h-6.66v.972h-1.26v-6.246h9.18zm-7.92 4.05h6.66v-2.844h-6.66v2.844zm13.302-12.978h3.96c.252-.468.432-.936.558-1.44l1.35.18c-.144.45-.324.864-.54 1.26h5.94v8.802h-11.268v-8.802zm10.008 7.686V384.8h-8.748v1.512h8.748zm-8.748-2.556h8.748v-1.476h-8.748v1.476zm0-2.52h8.748v-1.476h-8.748v1.476zm-2.16 7.416c-.342 1.404-.9 2.7-1.674 3.852l1.098.702c.774-1.224 1.368-2.646 1.8-4.302l-1.224-.252zm8.676 4.878h-4.626c-1.044 0-1.548-.522-1.548-1.53v-3.438h1.314v3.168c0 .414.198.63.612.63h3.996c.414 0 .702-.108.846-.288.216-.252.378-.954.45-2.124l1.242.396c-.144 1.512-.396 2.43-.756 2.772-.324.27-.846.414-1.53.414zm-2.412-5.616c.972.936 1.71 1.764 2.232 2.466l-.99.684c-.54-.774-1.26-1.62-2.196-2.556l.954-.594zm5.814.414l-1.008.63c1.098 1.422 1.98 2.718 2.628 3.888l1.026-.72c-.612-1.08-1.494-2.358-2.646-3.798zm521.42 14.948l1.224.324a27.07 27.07 0 0 1-.666 2.592h6.984c0 6.012-.09 9.72-.27 11.124-.198 1.584-1.17 2.376-2.916 2.376-.252 0-.702-.018-1.35-.054l-.306-1.17c.576.036 1.062.072 1.476.072 1.098 0 1.728-.576 1.89-1.728.126-1.008.198-4.14.234-9.36h-1.224c-.396 3.006-.936 5.382-1.638 7.128-.828 1.872-2.052 3.564-3.69 5.058l-.792-1.026c1.512-1.368 2.628-2.88 3.384-4.536.702-1.674 1.224-3.888 1.566-6.624h-1.404c-.72 3.924-2.088 6.768-4.104 8.55l-.846-.972c1.854-1.584 3.114-4.122 3.798-7.578h-1.242c-.486 1.152-1.026 2.088-1.638 2.844l-.954-.81c1.152-1.44 1.98-3.51 2.484-6.21zm-6.516 5.04c-.198.9-.432 1.782-.72 2.628l-1.134-.324c.684-1.908 1.062-3.906 1.152-6.012l1.134.09a25.496 25.496 0 0 1-.216 2.358h1.26v-3.744h1.26v3.744h1.512v1.26h-1.512v4.32c.504-.234.972-.468 1.44-.72v1.224c-.468.252-.954.486-1.44.72v5.94h-1.26v-5.4c-.918.36-1.854.702-2.826 1.008l-.306-1.26a22.593 22.593 0 0 0 3.132-.972v-4.86h-1.476zm21.708 2.502c3.096-.18 5.976-.414 8.622-.72.288.468.576.918.828 1.368l1.062-.756c-.648-1.116-1.566-2.394-2.79-3.87l-1.062.63c.432.54.828 1.062 1.224 1.584a88.313 88.313 0 0 1-6.174.54c.648-.702 1.386-1.8 2.232-3.294h6.57v-1.17h-4.734c-.252-.756-.504-1.44-.792-2.052l-1.314.216c.288.558.558 1.17.81 1.836h-5.022v1.17h3.15c-1.08 1.782-1.944 2.88-2.628 3.312a2.095 2.095 0 0 1-.27.108l.288 1.098zm-3.87-7.272l-.936.9c1.188.828 2.106 1.602 2.79 2.34l.918-.918c-.756-.774-1.674-1.548-2.772-2.322zm-.432 4.302l-.918.9c1.206.936 2.16 1.818 2.844 2.646l.918-.936c-.756-.864-1.71-1.746-2.844-2.61zm1.836 4.788l1.152.45c-.72 2.304-1.494 4.464-2.358 6.48l-1.206-.522a57.106 57.106 0 0 0 2.412-6.408zm6.138-.99v7.794h1.314v-7.794H731.9zm-2.916-.018h1.26c-.072 2.358-.306 4.086-.702 5.184-.432 1.152-1.17 2.142-2.178 2.97l-.828-1.026c.864-.702 1.476-1.53 1.836-2.502.342-.954.54-2.502.612-4.626zm8.568 7.992c.72-.036 1.17-.234 1.386-.558.216-.36.324-1.332.324-2.916l-1.134-.432c0 .954-.036 1.656-.108 2.088-.036.396-.216.594-.54.63h-.792c-.234-.036-.342-.18-.342-.45v-6.336h-1.242v6.57c0 .936.504 1.404 1.548 1.404h.9zm5.22-9.9a21.659 21.659 0 0 1-1.782 2.286l-.414-1.386c1.764-2.178 3.042-4.68 3.852-7.488l1.206.558a24.275 24.275 0 0 1-1.584 3.906v12.24h-1.278V409.72zm2.79-4.05h5.544c-.27-.72-.576-1.404-.936-2.088l1.242-.342c.378.792.666 1.512.882 2.178l-.684.252h5.67v1.224h-11.718v-1.224zm1.656 2.682v1.17h8.514v-1.17h-8.514zm0 2.538v1.188h8.514v-1.188h-8.514zm8.838 2.664v6.246h-1.26v-.972h-6.66v.972h-1.26v-6.246h9.18zm-7.92 4.05h6.66v-2.844h-6.66v2.844zm13.302-12.978h3.96c.252-.468.432-.936.558-1.44l1.35.18c-.144.45-.324.864-.54 1.26h5.94v8.802h-11.268v-8.802zm10.008 7.686V410.8h-8.748v1.512h8.748zm-8.748-2.556h8.748v-1.476h-8.748v1.476zm0-2.52h8.748v-1.476h-8.748v1.476zm-2.16 7.416c-.342 1.404-.9 2.7-1.674 3.852l1.098.702c.774-1.224 1.368-2.646 1.8-4.302l-1.224-.252zm8.676 4.878h-4.626c-1.044 0-1.548-.522-1.548-1.53v-3.438h1.314v3.168c0 .414.198.63.612.63h3.996c.414 0 .702-.108.846-.288.216-.252.378-.954.45-2.124l1.242.396c-.144 1.512-.396 2.43-.756 2.772-.324.27-.846.414-1.53.414zm-2.412-5.616c.972.936 1.71 1.764 2.232 2.466l-.99.684c-.54-.774-1.26-1.62-2.196-2.556l.954-.594zm5.814.414l-1.008.63c1.098 1.422 1.98 2.718 2.628 3.888l1.026-.72c-.612-1.08-1.494-2.358-2.646-3.798zm-464.58-13.052l1.224.324a27.07 27.07 0 0 1-.666 2.592h6.984c0 6.012-.09 9.72-.27 11.124-.198 1.584-1.17 2.376-2.916 2.376-.252 0-.702-.018-1.35-.054l-.306-1.17c.576.036 1.062.072 1.476.072 1.098 0 1.728-.576 1.89-1.728.126-1.008.198-4.14.234-9.36h-1.224c-.396 3.006-.936 5.382-1.638 7.128-.828 1.872-2.052 3.564-3.69 5.058l-.792-1.026c1.512-1.368 2.628-2.88 3.384-4.536.702-1.674 1.224-3.888 1.566-6.624h-1.404c-.72 3.924-2.088 6.768-4.104 8.55l-.846-.972c1.854-1.584 3.114-4.122 3.798-7.578h-1.242c-.486 1.152-1.026 2.088-1.638 2.844l-.954-.81c1.152-1.44 1.98-3.51 2.484-6.21zm-6.516 5.04c-.198.9-.432 1.782-.72 2.628l-1.134-.324c.684-1.908 1.062-3.906 1.152-6.012l1.134.09a25.496 25.496 0 0 1-.216 2.358h1.26v-3.744h1.26v3.744h1.512v1.26h-1.512v4.32c.504-.234.972-.468 1.44-.72v1.224c-.468.252-.954.486-1.44.72v5.94h-1.26v-5.4c-.918.36-1.854.702-2.826 1.008l-.306-1.26a22.593 22.593 0 0 0 3.132-.972v-4.86h-1.476zm21.708 2.502c3.096-.18 5.976-.414 8.622-.72.288.468.576.918.828 1.368l1.062-.756c-.648-1.116-1.566-2.394-2.79-3.87l-1.062.63c.432.54.828 1.062 1.224 1.584a88.313 88.313 0 0 1-6.174.54c.648-.702 1.386-1.8 2.232-3.294h6.57v-1.17h-4.734c-.252-.756-.504-1.44-.792-2.052l-1.314.216c.288.558.558 1.17.81 1.836h-5.022v1.17h3.15c-1.08 1.782-1.944 2.88-2.628 3.312a2.095 2.095 0 0 1-.27.108l.288 1.098zm-3.87-7.272l-.936.9c1.188.828 2.106 1.602 2.79 2.34l.918-.918c-.756-.774-1.674-1.548-2.772-2.322zm-.432 4.302l-.918.9c1.206.936 2.16 1.818 2.844 2.646l.918-.936c-.756-.864-1.71-1.746-2.844-2.61zm1.836 4.788l1.152.45c-.72 2.304-1.494 4.464-2.358 6.48l-1.206-.522a57.106 57.106 0 0 0 2.412-6.408zm6.138-.99v7.794h1.314v-7.794H326.9zm-2.916-.018h1.26c-.072 2.358-.306 4.086-.702 5.184-.432 1.152-1.17 2.142-2.178 2.97l-.828-1.026c.864-.702 1.476-1.53 1.836-2.502.342-.954.54-2.502.612-4.626zm8.568 7.992c.72-.036 1.17-.234 1.386-.558.216-.36.324-1.332.324-2.916l-1.134-.432c0 .954-.036 1.656-.108 2.088-.036.396-.216.594-.54.63h-.792c-.234-.036-.342-.18-.342-.45v-6.336h-1.242v6.57c0 .936.504 1.404 1.548 1.404h.9zm5.22-9.9a21.659 21.659 0 0 1-1.782 2.286l-.414-1.386c1.764-2.178 3.042-4.68 3.852-7.488l1.206.558a24.275 24.275 0 0 1-1.584 3.906v12.24h-1.278V407.72zm2.79-4.05h5.544c-.27-.72-.576-1.404-.936-2.088l1.242-.342c.378.792.666 1.512.882 2.178l-.684.252h5.67v1.224h-11.718v-1.224zm1.656 2.682v1.17h8.514v-1.17h-8.514zm0 2.538v1.188h8.514v-1.188h-8.514zm8.838 2.664v6.246h-1.26v-.972h-6.66v.972h-1.26v-6.246h9.18zm-7.92 4.05h6.66v-2.844h-6.66v2.844zm13.302-12.978h3.96c.252-.468.432-.936.558-1.44l1.35.18c-.144.45-.324.864-.54 1.26h5.94v8.802h-11.268v-8.802zm10.008 7.686V408.8h-8.748v1.512h8.748zm-8.748-2.556h8.748v-1.476h-8.748v1.476zm0-2.52h8.748v-1.476h-8.748v1.476zm-2.16 7.416c-.342 1.404-.9 2.7-1.674 3.852l1.098.702c.774-1.224 1.368-2.646 1.8-4.302l-1.224-.252zm8.676 4.878h-4.626c-1.044 0-1.548-.522-1.548-1.53v-3.438h1.314v3.168c0 .414.198.63.612.63h3.996c.414 0 .702-.108.846-.288.216-.252.378-.954.45-2.124l1.242.396c-.144 1.512-.396 2.43-.756 2.772-.324.27-.846.414-1.53.414zm-2.412-5.616c.972.936 1.71 1.764 2.232 2.466l-.99.684c-.54-.774-1.26-1.62-2.196-2.556l.954-.594zm5.814.414l-1.008.63c1.098 1.422 1.98 2.718 2.628 3.888l1.026-.72c-.612-1.08-1.494-2.358-2.646-3.798z" fill="#333"/><g transform="translate(485 346)"><circle stroke="#FAFBFC" fill="url(#l)" cx="55" cy="55" r="55"/><path d="M37 22v2.88h27.36v1.44h2.88V22zm27.36 18h2.88v-2.88h-2.88V40zm0 7.92h2.88v-2.88h-2.88v2.88zm-10.8 0h2.88v-2.88h-2.88v2.88zm-10.8 0h2.88v-2.88h-2.88v2.88zM58.6 29.2v9.687l-10.8-5.4v5.4l-10.8-5.4V56.56c0 .795.645 1.44 1.44 1.44h33.12A1.44 1.44 0 0 0 73 56.56V30.64a1.44 1.44 0 0 0-1.44-1.44H58.6zM24.338 75.902h4.32v4.158h-5.292v1.26h5.292v4.572h-7.47v1.296h15.858v-1.296h-7.074V81.32h5.562v-1.26h-5.562v-4.158h5.922v-1.26h-5.922v-3.204h-1.314v3.204h-3.852c.27-.81.504-1.674.702-2.61l-1.314-.234c-.594 3.006-1.746 5.4-3.438 7.164l.828 1.062c1.116-1.116 2.034-2.484 2.754-4.122zm22.698-4.842c.288.612.576 1.314.846 2.088H54.2v1.242h-3.132a15.184 15.184 0 0 1-.882 2.736h4.392v1.242H41.654v2.664c-.072 2.808-.72 5.058-1.962 6.75l-.99-.882c1.044-1.404 1.602-3.366 1.638-5.868v-3.906h3.69l-.756-2.736H39.98v-1.242h6.588a11.804 11.804 0 0 0-.882-1.854l1.35-.234zm-1.728 6.066h3.636c.396-.864.702-1.782.882-2.736h-5.274l.756 2.736zm17.784 6.642v1.224c-1.692.792-3.636 1.44-5.832 1.908l-.162-1.278c2.304-.468 4.302-1.08 5.994-1.854zm-2.826-12.456l1.224.486c-.972 2.232-1.944 4.014-2.934 5.346.864-.072 1.71-.198 2.574-.342.378-.666.774-1.386 1.188-2.16l1.17.45c-1.728 3.096-3.15 5.292-4.284 6.606A28.016 28.016 0 0 0 63.2 80.51v1.188c-1.962.702-3.834 1.188-5.634 1.44l-.342-1.206c.234-.108.432-.234.594-.378.72-.702 1.584-1.89 2.61-3.564-1.044.162-2.088.306-3.168.45l-.324-1.206c.198-.072.378-.234.558-.486 1.062-1.584 1.98-3.384 2.772-5.436zm11.394.828v13.77h1.53v1.26H62.786v-1.26h1.566V72.14h7.308zm-6.03 13.77h4.752v-3.42H65.63v3.42zm0-4.644h4.752v-3.402H65.63v3.402zm0-4.626h4.752v-3.258H65.63v3.258zm15.444 7.506v1.278c-1.8.666-3.816 1.206-6.084 1.62l-.162-1.296c2.376-.396 4.446-.936 6.246-1.602zm-2.916-12.852l1.242.486c-.99 2.376-1.98 4.284-2.988 5.688a49.018 49.018 0 0 0 2.628-.396c.396-.72.828-1.476 1.26-2.286l1.152.45c-1.71 3.096-3.132 5.292-4.266 6.606a29.4 29.4 0 0 0 3.942-1.116v1.116c-1.962.738-3.834 1.242-5.634 1.494l-.36-1.206a2.22 2.22 0 0 0 .612-.378c.72-.684 1.584-1.854 2.592-3.492-1.062.18-2.124.36-3.186.522l-.342-1.188c.216-.108.396-.27.558-.504 1.08-1.692 1.998-3.618 2.79-5.796zm3.96 1.044h8.064v8.46h-8.064v-8.46zm6.768 7.236V73.58h-5.49v5.994h5.49zm-5.148 2.232l1.134.54c-.882 2.106-1.926 3.924-3.132 5.454l-1.098-.792c1.206-1.44 2.232-3.186 3.096-5.202zm4.554 0l-1.044.648c1.278 1.962 2.286 3.744 3.024 5.364l1.098-.774c-.72-1.476-1.746-3.222-3.078-5.238z" fill="#FFF"/></g><rect fill="#DFDFDF" x="22" y="516" width="998" height="62" rx="2"/><path d="M422.172 534.995v24.678h1.998v-14.364c1.566 1.242 3.429 2.997 5.643 5.211l1.188-1.782c-2.322-2.079-4.59-3.942-6.831-5.589v-8.154h-1.998zm-10.908 10.719l-1.026 1.512c1.431.702 2.862 1.674 4.266 2.862-1.89 2.916-4.536 5.346-7.911 7.29l1.323 1.647c7.02-4.185 10.962-10.368 11.88-18.549v-1.701h-6.561c.378-1.107.702-2.268.972-3.483l-1.944-.324c-1.08 4.86-3.186 8.748-6.264 11.61l1.323 1.647c2.16-1.998 3.915-4.509 5.211-7.587h5.346c-.405 2.889-1.242 5.535-2.484 7.911a22.358 22.358 0 0 0-4.131-2.835zm25.812-5.265l-1.782.648c.675 1.188 1.242 2.484 1.728 3.888h-3.645v1.89h13.527v-1.89h-3.267c.702-1.215 1.323-2.592 1.89-4.131l-1.809-.621a29.85 29.85 0 0 1-1.998 4.752h-2.835c-.54-1.782-1.161-3.294-1.809-4.536zm11.07-4.374v23.571h1.89v-21.789h4.833c-.864 2.916-1.755 5.454-2.646 7.587 2.106 2.592 3.186 4.671 3.213 6.264-.027.972-.162 1.62-.432 1.971-.27.324-.891.513-1.863.567-.513 0-1.134-.054-1.89-.108l.621 2.052c2.214 0 3.699-.351 4.455-.999.702-.648 1.053-1.809 1.053-3.483-.027-1.62-1.053-3.726-3.078-6.264.972-2.43 1.863-5.076 2.7-7.911v-1.458h-8.856zm-14.256 1.485v1.89h12.825v-1.89h-5.508a43.025 43.025 0 0 0-.891-2.781l-1.998.351c.351.729.675 1.539.999 2.43h-5.427zm11.772 11.772v10.179h-1.917v-1.512h-6.912v1.512h-1.917v-10.179h10.746zm-8.829 6.831h6.912v-4.995h-6.912v4.995zm45.927-10.881l-1.512.486c.81 1.89 1.593 4.077 2.295 6.507l1.485-.675a51.033 51.033 0 0 0-2.268-6.318zm-8.91-10.125h1.89v4.644h5.481c0 8.748-.135 14.148-.405 16.2-.27 2.268-1.539 3.429-3.861 3.429-.405 0-1.08-.054-2.025-.108l-.486-1.782c.864.054 1.593.081 2.241.081 1.296 0 2.052-.81 2.268-2.403.162-1.458.27-5.967.324-13.527h-3.537v.459c-.108 8.019-2.268 13.878-6.507 17.577l-1.458-1.296c3.969-3.375 5.994-8.802 6.075-16.281v-.459h-4.59v-1.89h4.59v-4.644zm-4.104 9.99l1.566.405c-.81 3.186-1.917 5.643-3.375 7.344l-1.296-1.215c1.404-1.728 2.457-3.915 3.105-6.534zm-9.639-3.834h3.132v-6.21h1.863v6.21h3.024v1.809h-3.024V559.7h-1.863v-16.578h-3.132v-1.809zm47.871 18.279h-3.591l-.54-1.944 3.51.081c.675 0 1.026-.405 1.026-1.215v-18.63h-17.766v21.789h-1.944v-23.679h21.654v20.952c0 1.755-.783 2.646-2.349 2.646zm-15.39-18.603h13.851v1.809h-13.851v-1.809zm1.512 4.725h10.827v8.694H494.1v-8.694zm8.937 6.966v-5.211h-7.047v5.211h7.047zm17.226-9.477v5.886h-5.913v1.836h5.913v5.913h1.836v-5.913h5.886v-1.836h-5.886v-5.886h-1.836zm22.491 2.808c2.538 2.592 4.617 5.049 6.183 7.371l1.458-1.485c-1.917-2.565-4.266-5.184-7.074-7.83a27.76 27.76 0 0 0 .513-2.889h7.722v15.066c0 .864-.432 1.323-1.296 1.323l-4.131-.108.54 1.944h4.239c1.728 0 2.619-.918 2.619-2.727v-17.388h-9.477c.108-1.35.189-2.835.189-4.428h-1.971c0 1.566-.081 3.051-.216 4.428h-9.882v20.385h1.971v-18.495h7.695a28.256 28.256 0 0 1-.729 3.429c-.972 2.997-2.97 5.481-5.994 7.479l1.296 1.593c3.132-2.052 5.238-4.59 6.345-7.668zm18.657-5.562l-1.782.648c.675 1.188 1.242 2.484 1.728 3.888h-3.645v1.89h13.527v-1.89h-3.267c.702-1.215 1.323-2.592 1.89-4.131l-1.809-.621a29.85 29.85 0 0 1-1.998 4.752h-2.835c-.54-1.782-1.161-3.294-1.809-4.536zm11.07-4.374v23.571h1.89v-21.789h4.833c-.864 2.916-1.755 5.454-2.646 7.587 2.106 2.592 3.186 4.671 3.213 6.264-.027.972-.162 1.62-.432 1.971-.27.324-.891.513-1.863.567-.513 0-1.134-.054-1.89-.108l.621 2.052c2.214 0 3.699-.351 4.455-.999.702-.648 1.053-1.809 1.053-3.483-.027-1.62-1.053-3.726-3.078-6.264.972-2.43 1.863-5.076 2.7-7.911v-1.458h-8.856zm-14.256 1.485v1.89h12.825v-1.89h-5.508a43.025 43.025 0 0 0-.891-2.781l-1.998.351c.351.729.675 1.539.999 2.43h-5.427zm11.772 11.772v10.179h-1.917v-1.512h-6.912v1.512h-1.917v-10.179h10.746zm-8.829 6.831h6.912v-4.995h-6.912v4.995zm45.927-10.881l-1.512.486c.81 1.89 1.593 4.077 2.295 6.507l1.485-.675a51.033 51.033 0 0 0-2.268-6.318zm-8.91-10.125h1.89v4.644h5.481c0 8.748-.135 14.148-.405 16.2-.27 2.268-1.539 3.429-3.861 3.429-.405 0-1.08-.054-2.025-.108l-.486-1.782c.864.054 1.593.081 2.241.081 1.296 0 2.052-.81 2.268-2.403.162-1.458.27-5.967.324-13.527h-3.537v.459c-.108 8.019-2.268 13.878-6.507 17.577l-1.458-1.296c3.969-3.375 5.994-8.802 6.075-16.281v-.459h-4.59v-1.89h4.59v-4.644zm-4.104 9.99l1.566.405c-.81 3.186-1.917 5.643-3.375 7.344l-1.296-1.215c1.404-1.728 2.457-3.915 3.105-6.534zm-9.639-3.834h3.132v-6.21h1.863v6.21h3.024v1.809h-3.024V559.7h-1.863v-16.578h-3.132v-1.809zm47.871 18.279h-3.591l-.54-1.944 3.51.081c.675 0 1.026-.405 1.026-1.215v-18.63h-17.766v21.789h-1.944v-23.679h21.654v20.952c0 1.755-.783 2.646-2.349 2.646zm-15.39-18.603h13.851v1.809h-13.851v-1.809zm1.512 4.725h10.827v8.694h-10.827v-8.694zm8.937 6.966v-5.211h-7.047v5.211h7.047z" fill="#333"/><path d="M361.562 249.724l1.188.576c-.792 1.548-1.71 2.88-2.754 3.996l-1.026-.738c1.008-1.08 1.872-2.358 2.592-3.834zm-5.67.324l-1.206.396c.576.99 1.062 2.016 1.422 3.096l1.26-.306a20.16 20.16 0 0 0-1.476-3.186zm-4.914.414c.648.99 1.224 2.052 1.728 3.204l-1.188.522a20.584 20.584 0 0 0-1.782-3.33l1.242-.396zm11.358-3.078c-3.582.648-8.082.972-13.518.972l.396 1.224c5.724 0 10.296-.378 13.752-1.098l-.63-1.098zm-13.536 8.298h6.552v-1.728h1.296v1.728h6.57v1.26h-5.274c1.224 1.836 3.294 3.474 6.21 4.914l-.918 1.152c-3.024-1.8-5.13-3.834-6.354-6.066h-.234v6.768h-1.296v-6.768h-.18c-1.314 2.502-3.492 4.572-6.552 6.192l-.72-1.206c2.844-1.296 4.896-2.97 6.174-4.986H348.8v-1.26zm23.706-7.668v11.304h-1.152V249.22h-3.726v10.098h-1.17v-11.304h6.048zm2.556-.774l1.26.162c-.18.864-.396 1.692-.648 2.466h5.958c0 6.264-.108 10.098-.288 11.538-.18 1.476-1.008 2.214-2.448 2.214-.486 0-1.332-.018-2.52-.054l-.306-1.17c1.008.036 1.872.072 2.628.072.792 0 1.26-.468 1.404-1.404.144-1.062.234-4.374.27-9.936h-5.202a13.212 13.212 0 0 1-1.8 2.952l-.792-1.026c1.224-1.584 2.052-3.51 2.484-5.814zm2.772 7.974c.612 1.44 1.17 3.006 1.71 4.698l-1.062.54c-.144-.468-.27-.9-.396-1.296-1.404.324-2.934.558-4.608.738l-.216-1.116c.684-.54 1.548-2.556 2.574-6.048l1.17.378c-.774 2.34-1.53 4.194-2.268 5.562a27.95 27.95 0 0 0 3.006-.558 36.242 36.242 0 0 0-.9-2.412l.99-.486zm-8.892-4.68h1.08v5.904c-.036 1.998-.324 3.582-.882 4.77-.54 1.116-1.422 1.98-2.646 2.61l-.684-1.08c1.152-.594 1.962-1.368 2.43-2.34.432-1.008.666-2.34.702-3.96v-5.904zm1.818 9.324c1.008.972 1.854 1.944 2.538 2.916l-.936.918c-.576-.936-1.386-1.944-2.43-3.024l.828-.81zm19.332-.09v1.224c-1.692.792-3.636 1.44-5.832 1.908l-.162-1.278c2.304-.468 4.302-1.08 5.994-1.854zm-2.826-12.456l1.224.486c-.972 2.232-1.944 4.014-2.934 5.346.864-.072 1.71-.198 2.574-.342.378-.666.774-1.386 1.188-2.16l1.17.45c-1.728 3.096-3.15 5.292-4.284 6.606a28.016 28.016 0 0 0 3.996-1.188v1.188c-1.962.702-3.834 1.188-5.634 1.44l-.342-1.206c.234-.108.432-.234.594-.378.72-.702 1.584-1.89 2.61-3.564-1.044.162-2.088.306-3.168.45l-.324-1.206c.198-.072.378-.234.558-.486 1.062-1.584 1.98-3.384 2.772-5.436zm11.394.828v13.77h1.53v1.26h-10.404v-1.26h1.566v-13.77h7.308zm-6.03 13.77h4.752v-3.42h-4.752v3.42zm0-4.644h4.752v-3.402h-4.752v3.402zm0-4.626h4.752v-3.258h-4.752v3.258zm15.444 7.506v1.278c-1.8.666-3.816 1.206-6.084 1.62l-.162-1.296c2.376-.396 4.446-.936 6.246-1.602zm-2.916-12.852l1.242.486c-.99 2.376-1.98 4.284-2.988 5.688a49.018 49.018 0 0 0 2.628-.396c.396-.72.828-1.476 1.26-2.286l1.152.45c-1.71 3.096-3.132 5.292-4.266 6.606a29.4 29.4 0 0 0 3.942-1.116v1.116c-1.962.738-3.834 1.242-5.634 1.494l-.36-1.206a2.22 2.22 0 0 0 .612-.378c.72-.684 1.584-1.854 2.592-3.492-1.062.18-2.124.36-3.186.522l-.342-1.188c.216-.108.396-.27.558-.504 1.08-1.692 1.998-3.618 2.79-5.796zm3.96 1.044h8.064v8.46h-8.064v-8.46zm6.768 7.236v-5.994h-5.49v5.994h5.49zm-5.148 2.232l1.134.54c-.882 2.106-1.926 3.924-3.132 5.454l-1.098-.792c1.206-1.44 2.232-3.186 3.096-5.202zm4.554 0l-1.044.648c1.278 1.962 2.286 3.744 3.024 5.364l1.098-.774c-.72-1.476-1.746-3.222-3.078-5.238z" fill="#FFF"/><path d="M510.099 212.26h3.186v-5.373h2.862v5.373h3.969v-5.373h2.835v5.373h3.294v2.754h-3.294v5.454h4.05v2.727H509.37v-2.727h3.915v-5.454h-3.186v-2.754zm6.048 8.208h3.969v-5.454h-3.969v5.454zm5.589 3.024l-2.322 1.458c2.052 2.538 3.672 4.833 4.86 6.885l2.538-1.782c-1.188-1.863-2.862-4.05-5.076-6.561zm-7.587.243l2.565 1.242c-1.377 2.646-2.997 4.968-4.887 6.939l-2.457-1.782c1.836-1.782 3.429-3.915 4.779-6.399zm-9.153-5.913a66.911 66.911 0 0 1-2.322 2.592l-.918-3.024c2.727-3.051 4.752-6.669 6.075-10.827l2.673 1.242a31.148 31.148 0 0 1-2.646 5.886v18.117h-2.862v-13.986zm28.917 10.233h11.097c1.539-3.726 2.889-8.289 4.05-13.689l2.808.783c-1.026 4.806-2.295 9.099-3.807 12.906h5.157v2.754h-19.305v-2.754zm3.51-12.366c1.08 2.862 2.025 6.129 2.889 9.828l-2.673.702c-.702-3.375-1.566-6.615-2.646-9.72l2.43-.81zm5.157-1.971c.918 2.97 1.755 6.345 2.484 10.152l-2.673.675c-.594-3.456-1.323-6.804-2.241-10.017l2.43-.81zm.189-7.074c.405.756.81 1.62 1.188 2.565h9.666v2.727H533.94v5.508c-.081 5.994-.945 10.8-2.565 14.418l-2.403-2.133c1.35-2.943 2.052-7.047 2.106-12.285v-8.235h9.747a18.26 18.26 0 0 0-1.215-2.025l3.159-.54zm27.324 15.039h4.698v-2.484h-4.131l-.54-2.322c.756-1.269 1.485-2.862 2.133-4.806h-2.322v-2.457h3.078c.243-.891.486-1.809.702-2.754l2.484.594c-.189.756-.378 1.458-.567 2.16h4.725v2.457h-5.481c-.594 1.755-1.215 3.321-1.89 4.671h1.809v-3.348h2.592v3.348h2.7v2.457h-2.7v2.484h3.483v2.484h-3.483v3.888h-2.592v-3.888h-4.698v-2.484zm-3.483-14.445c1.134 1.674 2.025 3.105 2.673 4.347l-2.106 1.458c-.648-1.35-1.539-2.862-2.619-4.509l2.052-1.296zm10.206 21.6c1.512 0 2.97-.027 4.32-.081l-.729 2.646H576.6c-.81 0-1.62-.027-2.43-.054-1.188-.027-2.295-.189-3.267-.486a5.488 5.488 0 0 1-2.322-1.539c-.351-.378-.648-.54-.891-.54-.351 0-1.053.999-2.133 3.051l-1.62-2.133c.999-1.566 1.863-2.646 2.592-3.186v-8.397h-1.782v-2.484h4.347v11.124c.486.621 1.134 1.107 1.89 1.485.81.27 1.728.459 2.754.54 1.026.027 2.052.054 3.078.054zm-18.252-21.924l2.673.567a88.593 88.593 0 0 1-.486 2.133h3.537v2.673h-4.293a30.598 30.598 0 0 1-1.053 2.808h4.995v2.511h-1.89v2.538h2.646v2.592h-2.646v5.049c.594-.378 1.215-.81 1.809-1.323l.486 2.43c-1.35.945-2.916 1.728-4.698 2.349l-1.053-2.322c.486-.216.756-.567.756-1.053v-5.13h-2.7v-2.592h2.7v-2.538h-.972v-1.269l-.378.756-2.214-1.404c1.323-2.754 2.241-5.67 2.781-8.775zm-33.48 38.081l1.377 2.538c-2.295.756-4.833 1.215-7.614 1.377v4.185h8.181v2.673h-2.484v14.067h-2.781v-14.067h-2.916v2.565c-.135 4.779-1.188 8.586-3.159 11.448l-2.025-2.133c1.512-2.241 2.349-5.346 2.457-9.315v-11.718c3.348-.054 6.318-.594 8.964-1.62zm-22.545 1.89h4.671a15.252 15.252 0 0 0-1.053-1.863l2.916-.486c.324.702.621 1.485.945 2.349h4.914v2.592h-12.393v-2.592zm-.27 6.129h2.754a16.128 16.128 0 0 0-1.134-2.484l2.484-.945c.405.972.783 2.106 1.161 3.429h2.376a33.787 33.787 0 0 0 1.053-3.429l2.511.891a33.235 33.235 0 0 1-.999 2.538h2.619v2.565h-4.887v2.187h4.428v2.565h-4.428v7.074c0 1.674-.945 2.511-2.808 2.511h-1.404l-.621-2.592c.405.108.783.189 1.107.189.594 0 .918-.27.918-.783v-6.399h-4.698v-2.565h4.698v-2.187h-5.13v-2.565zm1.944 8.37l2.538.54c-.621 2.754-1.485 5.13-2.619 7.155l-2.349-1.485a20.108 20.108 0 0 0 2.43-6.21zm8.748-.162c.648 1.674 1.188 3.213 1.566 4.617l-2.376.918a43.132 43.132 0 0 0-1.512-4.914l2.322-.621zm24.462-14.364h3.537v-1.944h2.619v1.944h3.537v-1.944h2.646v1.944h3.888v2.484h-3.888v1.593h-2.646v-1.593h-3.537v1.593h-2.619v-1.593h-3.537v-2.484zm7.722 17.874c-.297.486-.594.918-.918 1.35-1.242 1.593-3.456 2.835-6.588 3.753l-.972-2.322c2.565-.702 4.428-1.728 5.562-3.024.108-.135.189-.243.243-.324h-5.67v-2.538h6.966c.135-.459.243-.945.351-1.431h-5.481v-8.667h13.392v8.667h-5.427c-.081.486-.162.972-.27 1.431h7.371v2.538h-5.94c1.458 1.404 3.537 2.592 6.291 3.51l-1.917 2.268c-3.186-1.404-5.535-3.132-6.993-5.211zm-9.936-7.776v12.771h-2.646v-11.718c-.702 1.971-1.512 3.807-2.484 5.508l-1.215-3.132c1.674-2.268 2.916-4.833 3.699-7.695v-.243h-2.835v-2.565h2.835v-4.887h2.646v4.887h2.538v2.565h-2.538v1.404a76.684 76.684 0 0 1 3.348 4.212l-1.485 2.241a87.754 87.754 0 0 0-1.863-3.348zm14.283 1.134v-1.188h-8.343v1.188h8.343zm-8.343-3.24h8.343v-1.161h-8.343v1.161zm15.525-5.508h12.825a80.795 80.795 0 0 1-.108-4.482h2.916c0 1.566.027 3.078.108 4.482h3.861a25.747 25.747 0 0 0-2.16-3.294l2.322-1.134c.81 1.08 1.566 2.268 2.322 3.564l-1.728.864h3.375v2.754h-7.83c.297 3.942.891 7.29 1.755 9.99 1.134 3.024 2.025 4.536 2.727 4.536.378 0 .783-1.431 1.242-4.239l2.538 1.296c-.81 4.077-1.998 6.129-3.591 6.129-2.673-.162-4.806-3.267-6.426-9.261-.567-2.43-.945-5.265-1.161-8.451h-12.987v-2.754zm.378 6.453h11.664v2.646h-4.428v5.913a95.01 95.01 0 0 0 5.481-1.296v2.754c-3.969.945-8.208 1.755-12.717 2.43l-.648-2.673c1.701-.189 3.402-.432 5.076-.702v-6.426h-4.428v-2.646z" fill="#333"/><circle stroke="#DF413A" stroke-width="1.5" fill="#FFF" opacity=".5" cx="62.5" cy="276.5" r="62.5"/><circle stroke="#DF413A" stroke-width="1.5" fill="#FFF" opacity=".5" cx="1009.5" cy="276.5" r="62.5"/><use fill="#000" filter="url(#m)" xlink:href="#n"/><use stroke="#E1473C" stroke-width="1.5" fill="#FFF" xlink:href="#n"/><use fill="#000" filter="url(#o)" xlink:href="#p"/><use stroke="#E1473C" stroke-width="1.5" fill="#FFF" xlink:href="#p"/><path d="M39.156 300.128h2.322v-3.762h1.332v3.762h3.222v-3.762h1.314v3.762h2.394v1.26h-2.394v4.212h2.898v1.242H38.652V305.6h2.826v-4.212h-2.322v-1.26zm3.654 5.472h3.222v-4.212H42.81v4.212zm3.762 1.908l-1.062.648c1.422 1.692 2.556 3.222 3.384 4.59l1.152-.792c-.81-1.26-1.962-2.754-3.474-4.446zm-4.554.126l1.188.558c-.936 1.764-2.052 3.294-3.33 4.59l-1.116-.81a17.023 17.023 0 0 0 3.258-4.338zm-6.066-4.914a23.335 23.335 0 0 1-1.962 2.304l-.432-1.368a20.543 20.543 0 0 0 4.284-7.506l1.224.558a21.436 21.436 0 0 1-1.782 3.978V312.8h-1.332v-10.08zm19.062 8.046h7.506c1.116-2.556 2.088-5.706 2.916-9.486l1.278.342c-.756 3.42-1.674 6.48-2.79 9.144h3.798v1.26H55.014v-1.26zm1.962-8.604c.72 1.908 1.368 4.122 1.944 6.606l-1.224.306a50.1 50.1 0 0 0-1.854-6.552l1.134-.36zm3.474-1.278c.612 1.98 1.17 4.266 1.674 6.822l-1.242.288a55.975 55.975 0 0 0-1.566-6.75l1.134-.36zm.018-4.734c.342.558.666 1.188.954 1.872h6.588v1.26H54.672v4.014c-.072 3.96-.684 7.128-1.854 9.504l-1.062-.954c1.008-2.052 1.548-4.896 1.584-8.55v-5.274h6.678a12.061 12.061 0 0 0-.972-1.62l1.422-.252zm14.184 10.026h6.678v4.428h-6.678v-4.428zm5.436 3.276v-2.106h-4.194v2.106h4.194zm-.342-6.786c1.476 1.044 2.718 2.07 3.726 3.096l-.972.954c-.882-1.008-2.088-2.088-3.636-3.222l.882-.828zm-1.638-6.552c.216.504.432 1.044.63 1.656h7.236v1.26h-3.888c-.324.81-.684 1.53-1.044 2.178h3.996v9.72c0 1.188-.54 1.782-1.584 1.782h-1.836l-.324-1.188 1.746.054c.504 0 .756-.324.756-.936v-8.28H72.168v10.314h-1.242v-11.466h3.798a15.916 15.916 0 0 0-.954-2.178h-3.744v-1.26h7.326a15.08 15.08 0 0 0-.666-1.422l1.422-.234zm-2.034 5.094h3.564c.378-.72.72-1.44 1.026-2.178H75.21c.306.648.594 1.386.864 2.178zm.054 1.476l.918.81c-1.026 1.242-2.304 2.322-3.816 3.24l-.828-1.08c1.476-.828 2.718-1.818 3.726-2.97zm932.164 4.536v5.634h-1.26v-.774h-7.74v.774h-1.26v-5.634h10.26zm-9 3.69h7.74v-2.52h-7.74v2.52zm1.44-11.718l1.26.27c-.27.414-.54.81-.828 1.188h6.642v1.044c-.738 1.026-1.8 1.926-3.186 2.718 1.962.774 4.158 1.242 6.588 1.422l-.288 1.17c-2.88-.216-5.418-.846-7.65-1.926-2.124.972-4.806 1.728-8.046 2.286l-.486-1.152c2.898-.468 5.31-1.062 7.218-1.818a16.303 16.303 0 0 1-2.538-1.836 17.095 17.095 0 0 1-2.25 1.692l-.828-1.008a13.338 13.338 0 0 0 4.392-4.05zm2.556 4.626c1.242-.612 2.232-1.314 2.97-2.07h-6.03l-.054.054a16.178 16.178 0 0 0 3.114 2.016zm7.02-6.174v3.402h-1.314v-2.232h-11.988v2.232h-1.314v-3.402h6.588a11.674 11.674 0 0 0-.666-1.26l1.422-.216c.216.432.414.936.63 1.476h6.642zm16.074 2.142h-10.278v3.51h10.278v-3.51zm-10.278 4.77c-.09 3.222-.936 5.994-2.556 8.316l-.954-.864c1.458-2.016 2.196-4.644 2.232-7.866v-5.634h5.868a19.123 19.123 0 0 0-1.044-2.106l1.386-.216c.324.684.648 1.458.972 2.322h5.688v6.048h-11.592zM994 282.968c0-.05.778-1.326 1.123-2.658 1.254-4.377 1.87-5.899 2.575-6.357.262-.172 1.971-.818 3.797-1.438 3.405-1.154 5.438-2.093 6.089-2.81.236-.261.403-.852.469-1.658.1-1.226.085-1.274-.75-2.311-.467-.583-1.052-1.613-1.3-2.292-.246-.677-.532-1.232-.635-1.232-.569 0-1.314-3.233-.815-3.54.09-.057.074-.65-.036-1.318-.262-1.582.116-3.828.8-4.762.27-.366.663-1.032.874-1.48.94-1.995 2.693-2.518 6.09-1.816 1.497.31 2.852.314 3.522.012.465-.21 1.008 1.075 1.008 2.386 0 .592.15 1.517.334 2.057.257.753.308 1.419.22 2.885-.064 1.076-.032 1.957.074 2.022.568.351-.108 3.167-.856 3.567-.21.113-.385.362-.387.555-.007.587-.759 2.051-1.546 3.011-.73.89-.744.942-.615 2.17.217 2.083 1.145 2.724 6.675 4.607 5.09 1.734 4.687 1.213 6.288 8.11.238.964.811 2.2.811 2.265 0 .064-33.809.076-33.809.025" fill="#DF413A"/><circle fill="#DD3730" cx="158" cy="236" r="8"/><circle fill="#DD3730" cx="896" cy="231" r="8"/><circle fill="#DD3730" cx="161" cy="354" r="8"/><circle fill="#DD3730" cx="727" cy="384" r="8"/><circle fill="#DD3730" cx="328" cy="382" r="8"/><circle fill="#DD3730" cx="913" cy="355" r="8"/><circle fill="#DD3730" cx="280" cy="211" r="8"/><circle fill="#DD3730" cx="793" cy="209" r="8"/><path d="M54.934 250.423c1.461-1.06 3.321-1.357 5.09-1.384 1 .02 2.045.156 2.913.687.321.191.58.467.787.776.843.128 1.689.43 2.324 1.015.925.844 1.351 2.087 1.475 3.303.212 2.042-.198 4.091-.786 6.04.475.367.711.98.652 1.57-.064.673-.203 1.367-.588 1.936a1.381 1.381 0 0 1-.884.595 8.589 8.589 0 0 1-.986 2.929c-.238.427-.51.85-.907 1.149-.003 1.172-.051 2.35.086 3.517.291.852 1.043 1.435 1.788 1.887 2.232 1.266 4.825 1.805 6.952 3.271 1.076.717 2.012 1.694 2.51 2.9.326.747.479 1.555.54 2.364-10.627.003-21.254 0-31.882.002.075-1.26.452-2.518 1.207-3.54.584-.805 1.377-1.434 2.211-1.966 1.923-1.185 4.137-1.76 6.146-2.77.92-.491 1.905-1.116 2.266-2.147.138-1.166.09-2.346.089-3.519-.45-.335-.744-.825-1.013-1.305a8.344 8.344 0 0 1-.924-2.77c-.526-.094-.908-.52-1.107-.993a4.827 4.827 0 0 1-.372-1.631c-.03-.564.21-1.132.66-1.48-.429-1.702-.74-3.453-.67-5.215.046-1.088.246-2.187.722-3.174a5.376 5.376 0 0 1 1.701-2.047z" fill-rule="nonzero" fill="#DF413A"/></g></svg>