<svg width="958" height="361" viewBox="0 0 958 361" xmlns="http://www.w3.org/2000/svg" xmlns:xlink="http://www.w3.org/1999/xlink"><title>Group 79</title><defs><linearGradient x1="100%" y1="40.377%" x2="7.172%" y2="79.036%" id="a"><stop stop-color="#FFC194" offset="0%"/><stop stop-color="#DD3730" offset="100%"/></linearGradient><path id="b" d="M0 31.673V.34h31.693v31.334z"/><linearGradient x1="100%" y1="30.508%" x2="7.172%" y2="79.036%" id="d"><stop stop-color="#FFC194" offset="0%"/><stop stop-color="#DD3730" offset="100%"/></linearGradient><linearGradient x1="100%" y1="26.366%" x2="7.172%" y2="79.036%" id="e"><stop stop-color="#FFC194" offset="0%"/><stop stop-color="#DD3730" offset="100%"/></linearGradient><linearGradient x1="100%" y1="33.216%" x2="7.172%" y2="79.036%" id="f"><stop stop-color="#FFC194" offset="0%"/><stop stop-color="#DD3730" offset="100%"/></linearGradient><linearGradient x1="94.087%" y1="38.803%" x2="7.172%" y2="79.036%" id="g"><stop stop-color="#FFC194" offset="0%"/><stop stop-color="#DD3730" offset="100%"/></linearGradient><path id="h" d="M0 18.953V.203h19.283v18.75z"/></defs><g fill="none" fill-rule="evenodd"><g transform="translate(613 321)"><rect fill="#DD3730" width="182" height="40" rx="2"/><path d="M55.22 23.34c1.64-.3 3.1-.74 4.38-1.34l-.46-1.22c-1.16.58-2.46 1.02-3.92 1.3v-2.3h-1.36v7.24c0 1.12.62 1.7 1.86 1.7h2.14c.68 0 1.18-.14 1.5-.42.36-.36.6-1.32.74-2.92L58.84 25c-.08 1.16-.22 1.88-.42 2.12-.16.2-.42.3-.8.3h-1.5c-.6 0-.9-.24-.9-.68v-3.4zM43.44 10.98l-1.02.98c1.6 1.06 2.88 2.06 3.8 2.98l1.02-1.02c-1.04-.98-2.3-1.96-3.8-2.94zm-.5 4.82l-1.02.98c1.46 1 2.62 1.96 3.46 2.84l1.02-1.02c-.94-.94-2.1-1.88-3.46-2.8zm2.46 5.36a55.84 55.84 0 0 1-3.28 7.02l1.4.62c1.14-2.24 2.18-4.62 3.12-7.16l-1.24-.48zm2.8-9.76h9.94v7.42H48.2V11.4zm8.56 6.22V15.7h-7.2v1.92h7.2zm-7.2-3.1h7.2V12.6h-7.2v1.92zm-.14 8.78h3.54v-1.28h-3.54v-2.26h-1.36v6.86c0 .44-.24.76-.68.94l.38 1.22c2.02-.28 3.78-.62 5.26-1l-.26-1.28c-.96.26-2.06.5-3.34.74V23.3zm21.06-12.66h1.04c2.54 2.94 5.48 5.26 8.8 6.94l-.78 1.38A28.24 28.24 0 0 1 71 11.94C68.82 14.66 65.94 17 62.38 19l-.76-1.38c3.56-1.88 6.5-4.2 8.86-6.98zm6.84 10.28v8.06h-1.4v-1.2h-9.84v1.2h-1.4v-8.06h12.64zM66.08 26.4h9.84v-4.12h-9.84v4.12zM65.8 17h10.4v1.38H65.8V17zm18.18-5.18v1.4h14.24v-1.4H83.98zm-1.92 5.58v1.44h6.74c-2.1 4.26-3.8 6.86-5.08 7.82-.08.04-.18.1-.34.14l.38 1.46c4.8-.32 9.22-.72 13.28-1.24.38.72.72 1.42 1.04 2.12l1.28-.9c-1-2.04-2.42-4.46-4.26-7.22l-1.16.72c.88 1.36 1.68 2.68 2.4 3.96-3.58.48-7.16.82-10.76 1.02 1.36-1.48 2.98-4.1 4.82-7.88h9.6V17.4H82.06zm22.7-2.66l-1.32.48c.5.88.92 1.84 1.28 2.88h-2.7v1.4h10.02v-1.4h-2.42c.52-.9.98-1.92 1.4-3.06l-1.34-.46c-.4 1.24-.9 2.42-1.48 3.52h-2.1c-.4-1.32-.86-2.44-1.34-3.36zm8.2-3.24v17.46h1.4V12.82h3.58c-.64 2.16-1.3 4.04-1.96 5.62 1.56 1.92 2.36 3.46 2.38 4.64-.02.72-.12 1.2-.32 1.46-.2.24-.66.38-1.38.42-.38 0-.84-.04-1.4-.08l.46 1.52c1.64 0 2.74-.26 3.3-.74.52-.48.78-1.34.78-2.58-.02-1.2-.78-2.76-2.28-4.64.72-1.8 1.38-3.76 2-5.86V11.5h-6.56zm-10.56 1.1V14h9.5v-1.4h-4.08c-.22-.76-.44-1.46-.66-2.06l-1.48.26c.26.54.5 1.14.74 1.8h-4.02zm8.72 8.72v7.54h-1.42v-1.12h-5.12v1.12h-1.42v-7.54h7.96zm-6.54 5.06h5.12v-3.7h-5.12v3.7zm19.3-14.98h14.16v3.8h-6.98v1.3h4.26v1.16h-4.26v1.44h2.56c1.56-.96 2.92-2.08 4.06-3.36l1.18.62c-.94 1-2.02 1.92-3.22 2.74h4.22v1.24h-6.28c-1.04.54-2.12 1.02-3.28 1.46h7.04v7.34h-1.42v-.9h-8.5v.9H126V23.1c-1 .24-2.04.44-3.1.64l-.78-1.2c3.48-.36 6.5-1.1 9.08-2.2h-8.96V19.1h7.42v-1.44h-5.24V16.5h5.24v-1.3h-5.78v-3.8zm12.78 2.74v-1.66h-2.94v1.66h2.94zm-4.24 0v-1.66h-2.88v1.66h2.88zm-4.18 0v-1.66h-2.98v1.66h2.98zm-.82 11.42v1.5h8.5v-1.5h-8.5zm8.5-1.1v-1.54h-8.5v1.54h8.5z" fill="#FFF"/></g><g transform="translate(49 260)"><rect fill="#DD3730" width="182" height="40" rx="2"/><path d="M47.58 10.86l1.32.52c-1.48 4.2-3.42 7.4-5.86 9.6L41.92 20c2.5-2.28 4.38-5.32 5.66-9.14zm6.82 10.6c1.56 2.16 2.88 4.48 4 6.94l-1.34.6c-.3-.68-.6-1.32-.9-1.92-3.52.56-7.46.96-11.82 1.24l-.26-1.4c1.6-.84 3.6-4 6.02-9.48l1.4.48c-1.72 3.8-3.44 6.78-5.16 8.94 3.26-.2 6.32-.54 9.18-1-.78-1.44-1.58-2.76-2.42-3.96l1.3-.44zm-.3-10.74c1.16 3.72 3.16 6.76 6.02 9.12l-1.02 1.18c-2.98-2.48-5.06-5.7-6.22-9.62l1.22-.68zM68 17.86v2.18h7.94v-2.18H68zm7.94 3.44H68v2.12h7.94V21.3zm0 3.38H68v4.28h-1.36V18.5c-1.12 1.4-2.42 2.7-3.86 3.86l-.94-1.22c2.52-2 4.46-4.28 5.84-6.86h-5.3v-1.4h5.96c.34-.78.64-1.56.88-2.34l1.46.18c-.24.74-.48 1.46-.76 2.16h9.94v1.4H69.32c-.4.8-.82 1.58-1.3 2.32h9.28v10.8c0 .98-.56 1.48-1.68 1.52h-2.24l-.36-1.32c.76.04 1.48.08 2.14.08.52 0 .78-.24.78-.72v-2.28zm8.04-12.86v1.4h14.24v-1.4H83.98zm-1.92 5.58v1.44h6.74c-2.1 4.26-3.8 6.86-5.08 7.82-.08.04-.18.1-.34.14l.38 1.46c4.8-.32 9.22-.72 13.28-1.24.38.72.72 1.42 1.04 2.12l1.28-.9c-1-2.04-2.42-4.46-4.26-7.22l-1.16.72c.88 1.36 1.68 2.68 2.4 3.96-3.58.48-7.16.82-10.76 1.02 1.36-1.48 2.98-4.1 4.82-7.88h9.6V17.4H82.06zm22.7-2.66l-1.32.48c.5.88.92 1.84 1.28 2.88h-2.7v1.4h10.02v-1.4h-2.42c.52-.9.98-1.92 1.4-3.06l-1.34-.46c-.4 1.24-.9 2.42-1.48 3.52h-2.1c-.4-1.32-.86-2.44-1.34-3.36zm8.2-3.24v17.46h1.4V12.82h3.58c-.64 2.16-1.3 4.04-1.96 5.62 1.56 1.92 2.36 3.46 2.38 4.64-.02.72-.12 1.2-.32 1.46-.2.24-.66.38-1.38.42-.38 0-.84-.04-1.4-.08l.46 1.52c1.64 0 2.74-.26 3.3-.74.52-.48.78-1.34.78-2.58-.02-1.2-.78-2.76-2.28-4.64.72-1.8 1.38-3.76 2-5.86V11.5h-6.56zm-10.56 1.1V14h9.5v-1.4h-4.08c-.22-.76-.44-1.46-.66-2.06l-1.48.26c.26.54.5 1.14.74 1.8h-4.02zm8.72 8.72v7.54h-1.42v-1.12h-5.12v1.12h-1.42v-7.54h7.96zm-6.54 5.06h5.12v-3.7h-5.12v3.7zm19.3-14.98h14.16v3.8h-6.98v1.3h4.26v1.16h-4.26v1.44h2.56c1.56-.96 2.92-2.08 4.06-3.36l1.18.62c-.94 1-2.02 1.92-3.22 2.74h4.22v1.24h-6.28c-1.04.54-2.12 1.02-3.28 1.46h7.04v7.34h-1.42v-.9h-8.5v.9H126V23.1c-1 .24-2.04.44-3.1.64l-.78-1.2c3.48-.36 6.5-1.1 9.08-2.2h-8.96V19.1h7.42v-1.44h-5.24V16.5h5.24v-1.3h-5.78v-3.8zm12.78 2.74v-1.66h-2.94v1.66h2.94zm-4.24 0v-1.66h-2.88v1.66h2.88zm-4.18 0v-1.66h-2.98v1.66h2.98zm-.82 11.42v1.5h8.5v-1.5h-8.5zm8.5-1.1v-1.54h-8.5v1.54h8.5z" fill="#FFF"/></g><path d="M54 172c-29.823 0-54-24.177-54-54 0-28.817 22.572-52.361 51-53.918V64c0-35.346 28.654-64 64-64 26.898 0 49.92 16.593 59.39 40.102A46.665 46.665 0 0 1 184.5 39c23.479 0 42.893 17.4 46.05 40.01.316-.007.633-.01.95-.01 25.681 0 46.5 20.819 46.5 46.5S257.181 172 231.5 172c-.167 0-.334 0-.5-.003L54 172z" fill="url(#a)" transform="translate(0 10)"/><path d="M33.7 211.98H29v-1.34h5.32v-3.94h1.4v3.94h2.3v1.34h-2.3v10.96c0 1.26-.56 1.9-1.64 1.9H31.5l-.3-1.38c.82.06 1.62.1 2.38.1.48 0 .74-.34.74-.98v-9.12c-1.18 3.52-3 6.44-5.48 8.8l-.78-1.28c2.6-2.32 4.48-5.32 5.64-9zm-5.84-4.52v12.48h-1.28V208.8H22.1v11.3h-1.32v-12.64h7.08zm-4.12 2.92h1.24v6.2c-.04 2.28-.42 4.1-1.12 5.46-.7 1.26-1.82 2.24-3.38 2.96l-.78-1.22c1.5-.68 2.56-1.56 3.16-2.68.56-1.16.84-2.66.88-4.52v-6.2zm2 10.26a22.66 22.66 0 0 1 2.8 3.04l-1 1c-.66-1-1.56-2.04-2.7-3.16l.9-.88zm20.14-14.04l1.46.2c-.22.54-.48 1.04-.76 1.52h8.72v1.16c-1.28 1.48-2.84 2.74-4.68 3.78 2.26.96 4.78 1.58 7.56 1.86l-.66 1.34c-3.16-.36-5.98-1.16-8.46-2.4-2.44 1.12-5.3 1.94-8.54 2.44l-.66-1.36c2.9-.4 5.44-1.04 7.64-1.92a20.69 20.69 0 0 1-3.12-2.26c-.76.68-1.58 1.3-2.5 1.86l-.88-1.16c2.4-1.38 4.04-3.06 4.88-5.06zm3.16 5.92c1.62-.8 3.02-1.76 4.2-2.84H45.6l-.26.32c1.12.98 2.36 1.82 3.7 2.52zm-1.22 2.98h1.42c0 .8-.08 1.56-.2 2.28h7.04c-.04 3.38-.34 5.4-.92 6.06-.58.66-1.58 1-3 1-.64 0-1.42-.04-2.34-.08l-.36-1.3 2.36.1c1.2-.02 1.94-.28 2.26-.76.3-.48.48-1.72.54-3.72H48.7c-.16.52-.38 1.02-.64 1.5-1.02 1.8-3.36 3.3-7.04 4.46l-.96-1.18c3.28-.96 5.46-2.18 6.5-3.64.24-.36.46-.74.62-1.14h-5.96v-1.3h6.36c.16-.72.24-1.48.24-2.28zm14.64 4.7l-.9.84c.74.56 1.48 1.22 2.22 2.02.64.68 1.22 1.36 1.7 2.04l1-.84c-.48-.68-1.06-1.38-1.72-2.06-.76-.8-1.54-1.46-2.3-2zm23.38-9.28h2.58v-4.18h1.48v4.18h3.58v-4.18h1.46v4.18h2.66v1.4h-2.66V217h3.22v1.38H85.28V217h3.14v-4.68h-2.58v-1.4zM89.9 217h3.58v-4.68H89.9V217zm4.18 2.12l-1.18.72c1.58 1.88 2.84 3.58 3.76 5.1l1.28-.88c-.9-1.4-2.18-3.06-3.86-4.94zm-5.06.14l1.32.62c-1.04 1.96-2.28 3.66-3.7 5.1l-1.24-.9c1.4-1.34 2.62-2.94 3.62-4.82zm-6.74-5.46c-.66.88-1.38 1.74-2.18 2.56l-.48-1.52c2.18-2.44 3.76-5.22 4.76-8.34l1.36.62c-.52 1.56-1.18 3.04-1.98 4.42V225h-1.48v-11.2zm21.18 8.94h8.34c1.24-2.84 2.32-6.34 3.24-10.54l1.42.38c-.84 3.8-1.86 7.2-3.1 10.16h4.22v1.4h-14.12v-1.4zm2.18-9.56c.8 2.12 1.52 4.58 2.16 7.34l-1.36.34c-.54-2.52-1.22-4.96-2.06-7.28l1.26-.4zm3.86-1.42c.68 2.2 1.3 4.74 1.86 7.58l-1.38.32c-.44-2.6-1.02-5.1-1.74-7.5l1.26-.4zm.02-5.26c.38.62.74 1.32 1.06 2.08h7.32v1.4h-14.82v4.46c-.08 4.4-.76 7.92-2.06 10.56l-1.18-1.06c1.12-2.28 1.72-5.44 1.76-9.5v-5.86h7.42c-.32-.64-.68-1.24-1.08-1.8l1.58-.28zm20.58 11.44h3.74v-2.46h-3.28l-.28-1.2c.68-1.1 1.3-2.46 1.86-4.1h-2v-1.26h2.38c.2-.72.4-1.48.6-2.26l1.28.3c-.16.68-.34 1.34-.52 1.96h3.82v1.26h-4.22c-.52 1.52-1.08 2.88-1.7 4.04h2.06v-2.7h1.34v2.7h2.34v1.26h-2.34v2.46h2.9v1.28h-2.9v3.32h-1.34v-3.32h-3.74v-1.28zm-2.8-10.86l-1.06.66c.88 1.18 1.58 2.26 2.1 3.26l1.08-.76c-.48-.9-1.2-1.96-2.12-3.16zm7.92 16.26c1.04 0 2.04-.02 2.98-.04l-.38 1.36h-2.7c-.6 0-1.22-.02-1.82-.04-.92-.02-1.74-.14-2.44-.36-.7-.24-1.28-.66-1.76-1.22-.26-.3-.48-.44-.66-.44-.34 0-.96.78-1.84 2.36l-.86-1.08c.84-1.32 1.54-2.14 2.1-2.48v-6.74h-1.62v-1.28h2.94v8.08c.08.08.16.14.22.22.4.52.92.92 1.54 1.22.56.22 1.24.36 2.02.4.76.02 1.52.04 2.28.04zm-13.28-16.62l1.38.28c-.14.68-.3 1.32-.46 1.96h3.02v1.36h-3.44a24.14 24.14 0 0 1-1.54 3.76l-1.14-.72c1-2 1.74-4.22 2.18-6.64zm-.44 6.22h4.04v1.3h-1.64v2.5h2.2v1.34h-2.2v4.66c.56-.28 1.14-.66 1.74-1.14l.24 1.24c-.96.68-2.04 1.26-3.28 1.7l-.54-1.2c.3-.14.46-.36.46-.64v-4.62h-2.22v-1.34h2.22v-2.5h-1.02v-1.3zm20.96 7.26l-.9.84c.74.56 1.48 1.22 2.22 2.02.64.68 1.22 1.36 1.7 2.04l1-.84c-.48-.68-1.06-1.38-1.72-2.06-.76-.8-1.54-1.46-2.3-2zm19.66-9.66h2.8v2.58h-4.84v1.34h4.84v2.1h-3.94v7.2h1.4v-5.86h2.54v7.12h1.44v-7.12h2.52v3.64c0 .52-.3.78-.86.78l-.98-.06.36 1.36h1.06c1.2 0 1.8-.6 1.8-1.78v-5.28h-3.9v-2.1h4.32v-1.34h-4.32v-2.58h3.74v-1.34h-3.74v-2.48h-1.44v2.48h-2.32c.16-.54.28-1.12.38-1.76l-1.36-.22c-.28 1.9-.92 3.38-1.92 4.46l1.16.84c.48-.52.9-1.18 1.26-1.98zm9.74-2.02h1.4v12.36h-1.4v-12.36zm3.66 16.3h-2.94l-.32-1.38c.96.06 1.88.1 2.76.1.6 0 .92-.32.92-.96v-15.86h1.42v16.22c0 1.24-.62 1.88-1.84 1.88zm6.02-18l-.98.92c1.44 1.2 2.56 2.34 3.38 3.38l1-1c-.92-1.1-2.04-2.2-3.4-3.3zm11.6 17.82c-1.08 0-2.28-.02-3.56-.04-1.28-.02-2.34-.14-3.14-.36-.78-.24-1.48-.74-2.1-1.46-.28-.34-.54-.5-.78-.5-.5 0-1.3.92-2.42 2.8l-1.08-.98c1.08-1.7 2.02-2.74 2.86-3.1v-6.08h-2.84v-1.32h4.18v7.48c.16.12.32.28.48.46.48.58 1 1 1.56 1.26.62.28 1.52.44 2.72.48 1.04.02 2.36.04 3.92.04.96 0 1.94-.02 2.94-.04.98-.02 1.74-.04 2.28-.08l-.36 1.44h-4.66zm-4.84-14.22c-.34.72-.72 1.4-1.14 2.02l-1.2-.74c.96-1.38 1.68-2.92 2.12-4.6l1.3.28c-.16.6-.34 1.16-.54 1.7h2.54v-2.4h1.38v2.4h4.1v1.34h-4.1v2.6h5.14v1.32h-12.24v-1.32h5.72v-2.6h-3.08zm-.92 5.52h8.96v5.62h-8.96v-5.62zm7.56 4.28v-2.94h-6.16v2.94h6.16zm7.52-.02l-.9.84c.74.56 1.48 1.22 2.22 2.02.64.68 1.22 1.36 1.7 2.04l1-.84c-.48-.68-1.06-1.38-1.72-2.06-.76-.8-1.54-1.46-2.3-2zm21.6-6.24h9.96v4.06h-9.96v-4.06zm8.62 2.96v-1.84h-7.28v1.84h7.28zm3.24 2.46v5.64h-1.38v-.82h-10.86v.82h-1.4v-5.64h13.64zm-12.24 3.6h10.86v-2.4h-10.86v2.4zm-3.28-14.94v1.26h4.5v1.18h1.44v-1.18h5.32v1.18h1.44v-1.18h4.5v-1.26h-4.5v-1.34h-1.44v1.34h-5.32v-1.34h-1.44v1.34h-4.5zm16.64 3.28v3.74h-1.38v-2.52h-13.32v2.62h-1.38v-3.84h16.08zm15.06-4.6h1.42v5.54h3.76v10.68c0 1.28-.58 1.94-1.74 1.94h-2l-.38-1.38 1.92.06c.5 0 .76-.32.76-.94v-2.1h-6.1v4.42h-1.44v-12.68h3.8v-5.54zm-2.36 10.36v2.2h6.1v-2.2h-6.1zm6.1-1.24v-2.22h-6.1v2.22h6.1zm-6.84-8.36c.64 1.02 1.24 2.14 1.82 3.36l-1.16.58c-.58-1.26-1.2-2.38-1.88-3.36l1.22-.58zm7.6-.18l1.2.56c-.5 1.22-1.14 2.4-1.92 3.56l-1.18-.6c.8-1.2 1.42-2.36 1.9-3.52zm-14.14-.6l1.4.28c-.18.68-.36 1.32-.56 1.94h3.66v1.36h-4.14c-.54 1.38-1.16 2.64-1.88 3.76l-1.18-.74c1.24-2 2.14-4.2 2.7-6.6zm-.6 6.26h4.76v1.3h-2.08v2.52h2.76v1.34h-2.76v4.7c.9-.32 1.82-.76 2.74-1.3l.24 1.28c-1.26.7-2.72 1.28-4.38 1.72l-.6-1.24c.4-.14.6-.34.6-.6v-4.56h-2.76v-1.34h2.76v-2.52h-1.28v-1.3z" fill="#666"/><path d="M161.611 136.218c-1.868 3.592-4.28 5.097-7.059 3.96-2.778-1.136-3.053-3.936-.982-7.86 1.956-3.715 4.366-5.16 7.048-3.968 2.759 1.199 3.053 3.926.993 7.868m5.444-9.418c-2.286-1.983-5.444-3-9.464-3-4.021 0-7.013 1.034-9.247 3.05-2.14 1.88-3.31 4.922-3.31 7.406 0 3.087 1.27 5.73 3.19 7.474 2.226 2.013 5.645 3.006 9.367 3.006 4.02 0 7.063-1.06 9.339-3.067 2.106-1.885 3.26-5.006 3.26-7.413 0-3.064-1.054-5.548-3.135-7.456m-32.307 17.916v.054h6.893c.703 0 1.11-.427 1.11-1.09v-29.844h-6.898c-.693 0-1.105.442-1.105 1.095v29.784zm54.15-20.088c-.707 0-1.13.452-1.13 1.126v14.273c-4.665 1.249-7.697-.044-7.697-2.084v-12.265c0-.634-.357-1.05-1.078-1.05h-6.961v12.975c0 6.564 8.293 9.678 22.479 5.631.801-.273 1.353-1.008 1.353-2.02v-16.586h-6.966zm-58.065 15.935c0-.594-.497-1.06-1.082-1.017-1.274.091-3.464.123-5.41-.465-.675-.204-1.29-.429-1.808-.793-.521-.37-2.193-1.634-2.301-3.98-.116-2.492.977-3.478 2.076-4.16 1.023-.636 2.659-.93 4.26-1.04 1.224-.086 2.37.013 3.165.121a.976.976 0 0 0 1.1-.978l-.001-4.196a18.67 18.67 0 0 0-1.771-.332c-.622-.08-1.25-.131-1.89-.156a48.506 48.506 0 0 0-1.998-.04c-2.074 0-3.93.259-5.524.802-1.608.524-2.968 1.264-4.077 2.205a9.198 9.198 0 0 0-2.505 3.4c-.571 1.323-.851 2.777-.851 4.375 0 1.65.28 3.12.851 4.437a9.076 9.076 0 0 0 2.542 3.378c1.113.945 2.511 1.66 4.134 2.17 1.645.497 3.528.75 5.676.75 1.279 0 2.541-.059 3.814-.198.506-.055 1.053-.15 1.599-.263l.001-4.02zm82.09-3.129c-1.868 3.592-4.28 5.097-7.059 3.961-2.778-1.137-3.053-3.937-.982-7.861 1.955-3.715 4.366-5.16 7.048-3.968 2.759 1.199 3.053 3.926.993 7.868zm2.467-23.597c-.706 0-1.124.449-1.124 1.114v11.614a9.927 9.927 0 0 0-3.968-1.549c-3.97-.639-7.013 1.035-9.247 3.05-2.14 1.88-3.31 4.922-3.31 7.406 0 3.088.988 5.467 3.19 7.474 2.476 2.257 8.12 2.732 11.268 1.236.807-.383 1.482-.76 2.067-1.137v1.637h7.015c.716 0 1.13-.436 1.13-1.11v-29.735h-7.02z" fill="#FFF"/><g transform="translate(57 113.366)"><mask id="c" fill="#fff"><use xlink:href="#b"/></mask><path d="M31.542 2.551l.15-2.212h-9.821c-.076 0-.156 1.199-.246 3.594a362.99 362.99 0 0 1-.444 8.156c-.223 3.487-.403 5.721-.536 6.704-.118.967-.297 1.754-.534 2.36-.237.645-.511 1.182-.823 1.61-.252.358-.55.671-.89.94a4.632 4.632 0 0 1-1.313.67 6.596 6.596 0 0 1-2.003.296 7.11 7.11 0 0 1-2.393-.407c-.763-.27-1.36-.671-1.791-1.205-.43-.534-.726-1.182-.89-1.948-.163-.766-.244-1.72-.244-2.86 0-.602.033-1.69.1-3.267.066-1.577.164-3.267.296-5.068l.664-9.575C8.849.37 7.27.385 6.083.385 5.133.385 3.5.369 1.186.339L.783 9.237c-.09 1.832-.172 3.221-.246 4.168L.246 17.01a96.17 96.17 0 0 0-.202 3.142A43.39 43.39 0 0 0 0 21.784c0 1.067.133 2.066.4 2.997.239.825.566 1.536.981 2.129.415.592 1.01 1.174 1.783 1.745.846.615 1.84 1.153 2.984 1.61 1.145.459 2.429.808 3.854 1.048 1.546.24 3.149.36 4.814.36 1.856 0 3.689-.157 5.501-.473 1.812-.316 3.43-.852 4.857-1.61.335-.179.65-.363.946-.552-1.132-1.03-1.877-2.454-2.159-4.345v-1.331c.551-4.535 3.303-6.844 6.72-8.478-1.965-1.183-3.706-2.627-3.462-5.815.22-2.906 1.956-5.103 4.323-6.518" fill="#FFF" mask="url(#c)"/></g><path d="M96.446 117.677c-.273 0-.556.014-.836.039-2.261.2-4.66 1.694-4.876 4.16-.184 2.115 1.27 2.854 2.675 3.569 1.198.608 2.288 1.146 3.423 1.525 1.063-.665 2.138-1.4 2.824-2.371.683-.966 1.366-2.538 1.238-4.056-.223-2.657-3.46-2.866-4.448-2.866zm-4.454 12.274a9.807 9.807 0 0 0-1.687 1.118c-1.676 1.413-2.704 3.344-2.826 5.298-.183 2.954 1.898 4.467 4.042 4.657.283.024.564.037.84.037 3.699 0 6.348-2.19 6.593-5.453.124-1.65-.422-2.412-1.281-3.052-1.22-.907-2.683-1.46-4.23-2.043a58.768 58.768 0 0 1-1.451-.562zm.48 15.161l-1.504-.002c-5.06-.384-7.942-2.7-8.566-6.882l-.004-.065.003-1.384c.577-4.754 3.527-7.049 6.265-8.47-1.778-1.191-3.24-2.797-3.011-5.804.417-5.482 5.81-8.37 10.647-8.736l.032-.001 1.492.001c2.34.203 3.942.68 5.192 1.547 2.087 1.444 2.986 3.408 2.749 6.002-.31 3.352-2.912 5.88-5.476 7.273 2.047 1.21 4.078 2.77 3.812 6.52-.197 2.79-1.532 5.236-3.858 7.077-2.09 1.65-4.842 2.689-7.756 2.922l-.018.002z" fill="#FFF"/><path d="M553 228h263m-291-31h223.176l17.778-28.81 40.263-65.253h81.795M767 168h126.36M558 104h263M486 36h264.422l40.017 45h110.29" stroke="#DD3730" stroke-dasharray="3"/><path d="M884 112.899c-7.777-.263-14-6.637-14-14.462 0-7.487 5.697-13.646 13-14.395v-.076C883 74.596 890.611 67 900 67c7.454 0 13.788 4.788 16.081 11.45a12.532 12.532 0 0 1 3.419-.472 12.498 12.498 0 0 1 12.25 9.982c6.788.133 12.25 5.666 12.25 12.473 0 6.89-5.596 12.474-12.5 12.474-.167 0-.334-.003-.5-.01v.01h-47v-.008z" stroke="#DD3730" fill="#FFF"/><path d="M889.542 94.672h6.972v2.842h-6.972v-2.842zm6.034 2.072v-1.288h-5.096v1.288h5.096zm2.268 1.722v3.948h-.966v-.574h-7.602v.574h-.98v-3.948h9.548zm-8.568 2.52h7.602v-1.68h-7.602v1.68zm-2.296-10.458v.882h3.15v.826h1.008v-.826h3.724v.826h1.008v-.826h3.15v-.882h-3.15v-.938h-1.008v.938h-3.724v-.938h-1.008v.938h-3.15zm11.648 2.296v2.618h-.966v-1.764h-9.324v1.834h-.966v-2.688h11.256zm10.542-3.22h.994v3.878h2.632v7.476c0 .896-.406 1.358-1.218 1.358h-1.4l-.266-.966 1.344.042c.35 0 .532-.224.532-.658v-1.47h-4.27v3.094h-1.008v-8.876h2.66v-3.878zm-1.652 7.252v1.54h4.27v-1.54h-4.27zm4.27-.868v-1.554h-4.27v1.554h4.27zM907 90.136a23.02 23.02 0 0 1 1.274 2.352l-.812.406a15.45 15.45 0 0 0-1.316-2.352l.854-.406zm5.32-.126l.84.392c-.35.854-.798 1.68-1.344 2.492l-.826-.42c.56-.84.994-1.652 1.33-2.464zm-9.898-.42l.98.196c-.126.476-.252.924-.392 1.358h2.562v.952h-2.898a14.897 14.897 0 0 1-1.316 2.632l-.826-.518c.868-1.4 1.498-2.94 1.89-4.62zm-.42 4.382h3.332v.91h-1.456v1.764h1.932v.938h-1.932v3.29a11.3 11.3 0 0 0 1.918-.91l.168.896c-.882.49-1.904.896-3.066 1.204l-.42-.868c.28-.098.42-.238.42-.42v-3.192h-1.932v-.938h1.932v-1.764h-.896v-.91zm14.084-3.598v.98h9.968v-.98h-9.968zm-1.344 3.906v1.008h4.718c-1.47 2.982-2.66 4.802-3.556 5.474-.056.028-.126.07-.238.098l.266 1.022c3.36-.224 6.454-.504 9.296-.868.266.504.504.994.728 1.484l.896-.63c-.7-1.428-1.694-3.122-2.982-5.054l-.812.504a52.442 52.442 0 0 1 1.68 2.772 97.164 97.164 0 0 1-7.532.714c.952-1.036 2.086-2.87 3.374-5.516h6.72V94.28h-12.558z" fill="#DD3730"/><path d="M772 112.899c-7.777-.263-14-6.637-14-14.462 0-7.487 5.697-13.646 13-14.395v-.076C771 74.596 778.611 67 788 67c7.454 0 13.788 4.788 16.081 11.45a12.532 12.532 0 0 1 3.419-.472 12.498 12.498 0 0 1 12.25 9.982c6.788.133 12.25 5.666 12.25 12.473 0 6.89-5.596 12.474-12.5 12.474-.167 0-.334-.003-.5-.01v.01h-47v-.008z" stroke="#DD3730" fill="#FFF"/><path d="M784.29 93.286H781v-.938h3.724V89.59h.98v2.758h1.61v.938h-1.61v7.672c0 .882-.392 1.33-1.148 1.33h-1.806l-.21-.966c.574.042 1.134.07 1.666.07.336 0 .518-.238.518-.686v-6.384c-.826 2.464-2.1 4.508-3.836 6.16l-.546-.896c1.82-1.624 3.136-3.724 3.948-6.3zm-4.088-3.164v8.736h-.896V91.06h-3.136v7.91h-.924v-8.848h4.956zm-2.884 2.044h.868v4.34c-.028 1.596-.294 2.87-.784 3.822-.49.882-1.274 1.568-2.366 2.072l-.546-.854c1.05-.476 1.792-1.092 2.212-1.876.392-.812.588-1.862.616-3.164v-4.34zm1.4 7.182a15.862 15.862 0 0 1 1.96 2.128l-.7.7c-.462-.7-1.092-1.428-1.89-2.212l.63-.616zm14.098-9.828l1.022.14a8.38 8.38 0 0 1-.532 1.064h6.104v.812c-.896 1.036-1.988 1.918-3.276 2.646 1.582.672 3.346 1.106 5.292 1.302l-.462.938c-2.212-.252-4.186-.812-5.922-1.68-1.708.784-3.71 1.358-5.978 1.708l-.462-.952c2.03-.28 3.808-.728 5.348-1.344a14.483 14.483 0 0 1-2.184-1.582c-.532.476-1.106.91-1.75 1.302l-.616-.812c1.68-.966 2.828-2.142 3.416-3.542zm2.212 4.144a12.588 12.588 0 0 0 2.94-1.988h-5.348l-.182.224a13.209 13.209 0 0 0 2.59 1.764zm-.854 2.086h.994c0 .56-.056 1.092-.14 1.596h4.928c-.028 2.366-.238 3.78-.644 4.242-.406.462-1.106.7-2.1.7-.448 0-.994-.028-1.638-.056l-.252-.91 1.652.07c.84-.014 1.358-.196 1.582-.532.21-.336.336-1.204.378-2.604h-4.144a5.777 5.777 0 0 1-.448 1.05c-.714 1.26-2.352 2.31-4.928 3.122l-.672-.826c2.296-.672 3.822-1.526 4.55-2.548.168-.252.322-.518.434-.798h-4.172v-.91h4.452a7.34 7.34 0 0 0 .168-1.596zm9.912-5.376v.98h9.968v-.98h-9.968zm-1.344 3.906v1.008h4.718c-1.47 2.982-2.66 4.802-3.556 5.474-.056.028-.126.07-.238.098l.266 1.022c3.36-.224 6.454-.504 9.296-.868.266.504.504.994.728 1.484l.896-.63c-.7-1.428-1.694-3.122-2.982-5.054l-.812.504a52.442 52.442 0 0 1 1.68 2.772 97.164 97.164 0 0 1-7.532.714c.952-1.036 2.086-2.87 3.374-5.516h6.72V94.28h-12.558z" fill="#DD3730"/><path d="M25.54 83.735C11.354 83.255 0 71.625 0 57.35c0-13.658 10.393-24.894 23.717-26.26v-.14C23.716 13.857 37.6 0 54.73 0c13.598 0 25.153 8.735 29.337 20.889a22.863 22.863 0 0 1 6.237-.862c11.034 0 20.238 7.821 22.349 18.211C125.036 38.481 135 48.575 135 60.992c0 12.569-10.21 22.758-22.804 22.758-.306 0-.61-.006-.912-.018v.018H25.54v-.015z" fill="url(#d)" transform="translate(406)"/><path d="M440.313 38.004a5.797 5.797 0 0 1-1.204 1.022 5.95 5.95 0 0 1-1.4.602v1.148c.938-.28 1.722-.728 2.352-1.372V48h1.148v-9.996h-.896zm6.734-.196c1.848 0 2.912.882 3.192 2.674h-1.134c-.224-1.148-.91-1.708-2.072-1.708-.784 0-1.4.378-1.848 1.162-.448.728-.658 1.666-.658 2.8 0 .056 0 .182.014.364h.056c.252-.518.602-.924 1.078-1.204.448-.294.966-.434 1.554-.434.952 0 1.722.308 2.31.924.574.616.868 1.4.868 2.38s-.322 1.806-.952 2.45c-.644.644-1.442.98-2.422.98-1.218 0-2.128-.462-2.744-1.358-.588-.854-.868-2.044-.868-3.57 0-1.596.308-2.898.938-3.892.658-1.05 1.554-1.568 2.688-1.568zm-.042 4.606c-.658 0-1.204.224-1.638.672-.434.448-.644 1.008-.644 1.708s.196 1.274.616 1.722c.42.476.966.714 1.666.714.672 0 1.218-.238 1.638-.686.42-.476.63-1.064.63-1.778s-.21-1.274-.616-1.694c-.42-.448-.966-.658-1.652-.658zm8.302-4.606c1.036 0 1.862.266 2.45.812a2.41 2.41 0 0 1 .812 1.834c0 .532-.126.98-.378 1.344-.28.392-.672.686-1.19.868v.028c.518.126.966.42 1.33.868.392.476.588 1.036.588 1.68 0 .882-.308 1.596-.924 2.128-.644.546-1.54.826-2.688.826-1.162 0-2.058-.28-2.688-.826-.616-.532-.924-1.246-.924-2.128 0-.644.196-1.204.588-1.68.364-.448.798-.742 1.33-.868v-.028c-.532-.182-.924-.476-1.19-.868-.252-.364-.378-.812-.378-1.344 0-.728.266-1.344.812-1.834.588-.546 1.4-.812 2.45-.812zm0 .938c-.714 0-1.274.182-1.666.546-.35.308-.518.714-.518 1.204 0 .504.154.924.462 1.232.364.364.938.56 1.722.56.77 0 1.344-.196 1.722-.56.308-.308.462-.728.462-1.232 0-.49-.182-.896-.518-1.204-.406-.364-.966-.546-1.666-.546zm0 4.438c-.812 0-1.428.196-1.862.602-.42.364-.616.854-.616 1.456 0 .588.196 1.078.616 1.442.42.378 1.05.574 1.862.574s1.428-.196 1.876-.588c.392-.364.602-.84.602-1.428 0-.602-.21-1.092-.602-1.456-.448-.406-1.078-.602-1.876-.602zm8.4-5.376c1.036 0 1.862.266 2.45.812a2.41 2.41 0 0 1 .812 1.834c0 .532-.126.98-.378 1.344-.28.392-.672.686-1.19.868v.028c.518.126.966.42 1.33.868.392.476.588 1.036.588 1.68 0 .882-.308 1.596-.924 2.128-.644.546-1.54.826-2.688.826-1.162 0-2.058-.28-2.688-.826-.616-.532-.924-1.246-.924-2.128 0-.644.196-1.204.588-1.68.364-.448.798-.742 1.33-.868v-.028c-.532-.182-.924-.476-1.19-.868-.252-.364-.378-.812-.378-1.344 0-.728.266-1.344.812-1.834.588-.546 1.4-.812 2.45-.812zm0 .938c-.714 0-1.274.182-1.666.546-.35.308-.518.714-.518 1.204 0 .504.154.924.462 1.232.364.364.938.56 1.722.56.77 0 1.344-.196 1.722-.56.308-.308.462-.728.462-1.232 0-.49-.182-.896-.518-1.204-.406-.364-.966-.546-1.666-.546zm0 4.438c-.812 0-1.428.196-1.862.602-.42.364-.616.854-.616 1.456 0 .588.196 1.078.616 1.442.42.378 1.05.574 1.862.574s1.428-.196 1.876-.588c.392-.364.602-.84.602-1.428 0-.602-.21-1.092-.602-1.456-.448-.406-1.078-.602-1.876-.602zm6.622 2.856l-.63.588c.518.392 1.036.854 1.554 1.414.448.476.854.952 1.19 1.428l.7-.588a12.168 12.168 0 0 0-1.204-1.442 11.055 11.055 0 0 0-1.61-1.4zm12.684-4.522v.966h4.872c-.238.924-.532 1.694-.896 2.31-.882 1.484-2.366 2.758-4.452 3.822l.63.826c2.24-1.19 3.822-2.618 4.774-4.27.364-.644.658-1.456.896-2.408.994 2.884 2.926 5.11 5.81 6.678l.63-.812c-2.744-1.428-4.606-3.486-5.586-6.146h5.152v-.966h-5.74c.168-.952.28-2.016.364-3.22h4.97v-.98h-11.06v.98h5.068c-.07 1.19-.182 2.268-.35 3.22h-5.082zm25.816-.196v8.05h-.966V48.7h-5.222v.672h-.966v-8.05h7.154zm-6.188 6.454h2.156v-2.268h-2.156v2.268zm3.08 0h2.142v-2.268h-2.142v2.268zm-3.08-3.178h2.156V42.26h-2.156v2.338zm3.08-2.338v2.338h2.142V42.26h-2.142zm-2.66-5.698h.952v1.624h2.436v-1.624h.952v1.624h1.862v.938h-1.862v1.54h-.952v-1.54h-2.436v1.526h-.952v-1.526h-1.862v-.938h1.862v-1.624zm-2.632.154l.826.518c-.546.91-1.092 1.652-1.638 2.226.098.196.182.406.266.602.406 1.12.63 2.688.672 4.732 0 2.254-.28 3.612-.84 4.088-.322.238-.784.364-1.372.364-.392 0-.714-.014-.952-.014l-.294-.938c.35.028.686.056 1.022.056.476 0 .784-.084.938-.252.35-.364.532-1.484.532-3.36 0-.56-.028-1.064-.056-1.526-.7 1.008-1.512 1.862-2.45 2.548l-.574-.84c1.232-.84 2.184-1.862 2.856-3.038a7.676 7.676 0 0 0-.35-1.386c-.056-.126-.098-.238-.14-.322-.518.434-1.12.868-1.792 1.302l-.546-.868a8.63 8.63 0 0 0 1.876-1.33 8.074 8.074 0 0 0-1.498-1.75l.784-.616a12.45 12.45 0 0 1 1.4 1.666c.476-.546.924-1.162 1.33-1.862zM429.176 66.83h-4.732c.644.532 1.12.994 1.456 1.386l-.7.504c-.364-.448-.84-.938-1.456-1.47l.658-.42h-5.04v-.756h8.834v-.868h-8.246v-.7h8.246v-.854h-8.666v-.742h1.638v-.784h-2.52v-.728h2.52V60.6h-1.988v-.728h1.988v-.784h-2.282v-.728h2.282v-.756h.98v.756h2.044v.728h-2.044v.784h1.862v.728h-1.862v.798h2.044v.728h-2.044v.784h4.76v-.784h-2.212v-.728h2.212V60.6h-1.918v-.728h1.918v-.784h-2.142v-.728h2.142v-.756h.98v.756h2.254v.728h-2.254v.784h1.96v.728h-1.96v.798h2.45v.728h-2.45v.784h1.288v3.92zm-9.59.574l.882.182c-.322.98-.756 1.834-1.316 2.562l-.812-.504a6.8 6.8 0 0 0 1.246-2.24zm6.874 2.758h-3.78c-.826 0-1.232-.364-1.232-1.078v-1.736h.966v1.526c0 .28.168.42.532.42h3.332c.28 0 .476-.056.588-.168.154-.154.266-.588.322-1.302l.91.294c-.084.98-.266 1.568-.532 1.792-.252.168-.616.252-1.106.252zm2.674-2.968c.784.84 1.386 1.582 1.806 2.212l-.742.518c-.448-.686-1.036-1.442-1.792-2.282l.728-.448zm8.134-.882v.966c-.238.084-.462.154-.686.238v2.688h-.924V67.81c-1.092.336-2.226.63-3.388.882l-.252-.952 1.078-.21v-8.414h-.854v-.924h5.334v.924h-.994v7.448l.686-.252zm-1.61.56v-1.918h-1.638v2.366c.56-.14 1.106-.28 1.638-.448zm-1.638-2.814h1.638v-2.016h-1.638v2.016zm0-2.912h1.638v-2.03h-1.638v2.03zm3.92-.784h3.332c.476-.854.896-1.778 1.246-2.758l.952.336a14.47 14.47 0 0 1-1.218 2.422h1.68v4.214h-5.992v-4.214zm5.054 3.318v-2.436h-4.116v2.436h4.116zm-3.836-5.992c.42.644.798 1.358 1.162 2.128l-.84.406c-.364-.784-.742-1.498-1.162-2.128l.84-.406zm4.382 7.812a21.467 21.467 0 0 1 1.47 3.388l-.798.42a24.451 24.451 0 0 0-1.47-3.458l.798-.35zm-5.628.434l.84.154c-.238 1.4-.56 2.618-.98 3.626l-.77-.49c.42-.994.714-2.086.91-3.29zm3.794 4.242h-1.316c-.728 0-1.078-.378-1.078-1.134v-3.136h.924v2.954c0 .28.14.434.434.434h.882c.224 0 .392-.07.504-.182.126-.14.21-.574.266-1.302l.84.266c-.084.994-.238 1.61-.476 1.834-.21.168-.532.266-.98.266zm-1.008-5.348c.588.644 1.12 1.372 1.61 2.17l-.672.518a19.113 19.113 0 0 0-1.582-2.198l.644-.49zm7.224 2.212l-.63.588c.518.392 1.036.854 1.554 1.414.448.476.854.952 1.19 1.428l.7-.588a12.168 12.168 0 0 0-1.204-1.442 11.055 11.055 0 0 0-1.61-1.4zm13.286-9.31l-.728.686c1.008.686 1.792 1.33 2.366 1.946l.714-.714a16.34 16.34 0 0 0-2.352-1.918zm-.336 3.374l-.714.686c1.036.728 1.848 1.414 2.436 2.058l.714-.714a16.982 16.982 0 0 0-2.436-2.03zm1.722 3.78a41.55 41.55 0 0 1-2.338 5.082l1.008.434a47.135 47.135 0 0 0 2.24-5.152l-.91-.364zm5.376-2.618h-2.562v8.106h-.924v-8.974h1.862a7.869 7.869 0 0 0-.812-1.372l.91-.336a8.82 8.82 0 0 1 .854 1.708h1.974c.336-.574.63-1.176.882-1.806l.952.336a8.16 8.16 0 0 1-.812 1.47h1.974v7.616c0 .882-.49 1.33-1.456 1.33h-1.316l-.224-.868 1.26.042c.546 0 .826-.238.826-.7v-6.552h-2.52v1.344h1.904v.812h-1.904v1.162h1.47v3.164h-3.822v-3.164h1.484v-1.162h-1.904v-.812h1.904v-1.344zm1.526 5.74V66.34h-2.212v1.666h2.212zm-1.12-10.57l-1.022.168c.168.308.336.644.504 1.022h-3.906v.882h8.764v-.882h-3.822c-.168-.448-.336-.84-.518-1.19zm6.832.294l-.728.686c1.008.686 1.792 1.33 2.366 1.946l.714-.714a16.34 16.34 0 0 0-2.352-1.918zm-.336 3.374l-.714.686c1.036.728 1.848 1.414 2.436 2.058l.714-.714a16.982 16.982 0 0 0-2.436-2.03zm1.722 3.78a41.55 41.55 0 0 1-2.338 5.082l1.008.434a47.135 47.135 0 0 0 2.24-5.152l-.91-.364zm5.376-2.618h-2.562v8.106h-.924v-8.974h1.862a7.869 7.869 0 0 0-.812-1.372l.91-.336a8.82 8.82 0 0 1 .854 1.708h1.974c.336-.574.63-1.176.882-1.806l.952.336a8.16 8.16 0 0 1-.812 1.47h1.974v7.616c0 .882-.49 1.33-1.456 1.33h-1.316l-.224-.868 1.26.042c.546 0 .826-.238.826-.7v-6.552h-2.52v1.344h1.904v.812h-1.904v1.162h1.47v3.164h-3.822v-3.164h1.484v-1.162h-1.904v-.812h1.904v-1.344zm1.526 5.74V66.34h-2.212v1.666h2.212zm-1.12-10.57l-1.022.168c.168.308.336.644.504 1.022h-3.906v.882h8.764v-.882h-3.822c-.168-.448-.336-.84-.518-1.19zm7.546 9.604l-.63.588c.518.392 1.036.854 1.554 1.414.448.476.854.952 1.19 1.428l.7-.588a12.168 12.168 0 0 0-1.204-1.442 11.055 11.055 0 0 0-1.61-1.4zm18.914-.924h-1.918v-.896h6.23v.448c-.112.42-.238.798-.378 1.134h1.82v.504c-.112 1.316-.308 2.142-.588 2.45-.224.252-.588.392-1.092.42-.504 0-1.148.014-1.932.014l-.294-.924c.742.056 1.302.098 1.666.098.406-.014.7-.098.868-.252.196-.168.322-.672.406-1.512h-2.002c.196-.462.378-.952.518-1.484h-2.324c-.364 2.212-1.456 3.612-3.276 4.172l-.434-.924c1.512-.462 2.422-1.54 2.73-3.248zm-1.274-5.32a17.289 17.289 0 0 1-1.176 1.498l-.294-.952c.966-1.176 1.652-2.45 2.044-3.85l.896.168c-.112.378-.252.742-.392 1.106h2.31a8.588 8.588 0 0 0-.574-1.134l.952-.168c.196.392.392.826.56 1.302h2.674v.784h-2.702v.896h2.38v.714h-2.38v.854h2.408v.7h-2.408v.882h2.8v.784h-7.098v-3.584zm3.374 2.8v-.882h-2.492v.882h2.492zm0-1.582v-.854h-2.492v.854h2.492zm0-1.568v-.896h-2.492v.896h2.492zm-4.466 2.604v1.008c-.448.252-.91.476-1.372.7v4.256c0 .77-.364 1.162-1.078 1.162h-1.246l-.21-.952c.392.042.756.07 1.106.07.308 0 .462-.182.462-.532v-3.57c-.56.224-1.12.434-1.694.616L502.2 64.8a15.563 15.563 0 0 0 1.932-.63v-3.15h-1.624v-.98h1.624v-2.464h.966v2.464h1.12v.98h-1.12v2.744c.462-.224.924-.462 1.372-.714zm15.624-4.97h5.81v4.046h-5.81V58.08zm4.83 3.136v-2.24h-3.836v2.24h3.836zm-5.376 2.212h6.958v.924h-3.052v1.792h2.618v.91h-2.618v1.89h3.388v.952h-7.854v-.952h3.43v-1.89h-2.548v-.91h2.548v-1.792h-2.87v-.924zm-5.236-2.03h2.044v-2.03c-.588.084-1.204.168-1.834.238l-.196-.952c1.75-.168 3.304-.462 4.648-.882l.35.952a24.74 24.74 0 0 1-2.002.476v2.198h1.806v.966h-1.806v.742c.658.644 1.33 1.372 2.002 2.17l-.56.84a34.799 34.799 0 0 0-1.442-2.086v6.314h-.966V64.03a14.797 14.797 0 0 1-1.932 3.71l-.434-1.12a11.079 11.079 0 0 0 2.268-4.256h-1.946v-.966z" fill="#FFF"/><path d="M25.54 83.735C11.354 83.255 0 71.625 0 57.35c0-13.658 10.393-24.894 23.717-26.26v-.14C23.716 13.857 37.6 0 54.73 0c13.598 0 25.153 8.735 29.337 20.889a22.863 22.863 0 0 1 6.237-.862c11.034 0 20.238 7.821 22.349 18.211C125.036 38.481 135 48.575 135 60.992c0 12.569-10.21 22.758-22.804 22.758-.306 0-.61-.006-.912-.018v.018H25.54v-.015z" fill="url(#e)" transform="translate(505 49)"/><path d="M538.408 86.59l.98.196c-.126.476-.252.924-.392 1.358h2.716v.966h-3.052a15.478 15.478 0 0 1-1.288 2.646l-.812-.518c.854-1.4 1.47-2.94 1.848-4.648zm-.364 4.27h3.36v.924h-1.47v1.834h1.932v.938h-1.932v3.29a10.078 10.078 0 0 0 1.568-.686l.168.868c-.798.42-1.722.756-2.758 1.022l-.392-.826c.308-.084.462-.224.462-.42v-3.248h-2.058v-.938h2.058v-1.834h-.938v-.924zm5.418-.308v1.596h4.004v-1.596h-4.004zm4.004-.896v-1.624h-4.004v1.624h4.004zm1.148 4.13l.644.644c-.63.756-1.344 1.33-2.128 1.722.574.896 1.344 1.652 2.296 2.282l-.532.854c-2.142-1.512-3.43-3.584-3.878-6.23h-1.554v4.928a17.825 17.825 0 0 0 2.422-.854l.224.882c-.98.406-2.212.798-3.696 1.162l-.21-.84c.196-.07.308-.168.308-.308V87.122h5.88v5.936h-2.478c.154.854.406 1.624.77 2.324.672-.364 1.316-.896 1.932-1.596zm7.336-6.328v.994h6.706v-.994h-6.706zm-.378 3.556v.994h4.41v5.866c0 .364-.238.546-.686.546-.616 0-1.246-.028-1.918-.07l.21.994h2.058c.896 0 1.358-.406 1.358-1.218v-6.118h2.268v-.994h-7.7zm-1.834-4.326l.91.42c-.784 1.554-2.044 2.926-3.78 4.116l-.294-1.008c1.456-1.036 2.506-2.212 3.164-3.528zm.658 3.192l.91.42c-.406.784-.91 1.54-1.526 2.24v6.86h-.994v-5.838a17.84 17.84 0 0 1-1.834 1.456l-.294-1.008c1.708-1.204 2.954-2.576 3.738-4.13zm16.058-.308h3.276c.518-.938.966-1.96 1.358-3.066l.952.336c-.378 1.036-.798 1.946-1.274 2.73h1.61v4.438h-1.498v3.766c0 .336.126.518.392.518h.616a.446.446 0 0 0 .42-.266c.112-.21.182-.84.224-1.89l.882.28c-.084 1.316-.224 2.128-.448 2.422-.196.252-.49.378-.91.378h-1.078c-.686 0-1.022-.42-1.022-1.232V94.01h-1.288c-.112 2.506-.966 4.326-2.576 5.46l-.532-.882c1.344-.924 2.072-2.45 2.184-4.578h-1.288v-4.438zm4.998 3.542v-2.646h-4.06v2.646h4.06zm-3.836-6.426c.434.728.854 1.54 1.26 2.408l-.84.42c-.392-.91-.798-1.722-1.246-2.436l.826-.392zm-6.678 3.668h2.016v-2.058a38.53 38.53 0 0 1-1.89.252l-.196-.924c1.694-.168 3.206-.448 4.522-.868l.35.938a21.33 21.33 0 0 1-1.806.434v2.226h1.722v.966h-1.722v.882c.672.7 1.344 1.498 2.03 2.38l-.56.854a27.402 27.402 0 0 0-1.47-2.212v6.076h-.98V93.17a14.893 14.893 0 0 1-1.918 3.584l-.448-1.162a11.495 11.495 0 0 0 2.296-4.27h-1.946v-.966zm17.878-3.836l1.022.14a8.38 8.38 0 0 1-.532 1.064h6.104v.812c-.896 1.036-1.988 1.918-3.276 2.646 1.582.672 3.346 1.106 5.292 1.302l-.462.938c-2.212-.252-4.186-.812-5.922-1.68-1.708.784-3.71 1.358-5.978 1.708l-.462-.952c2.03-.28 3.808-.728 5.348-1.344a14.483 14.483 0 0 1-2.184-1.582c-.532.476-1.106.91-1.75 1.302l-.616-.812c1.68-.966 2.828-2.142 3.416-3.542zm2.212 4.144a12.588 12.588 0 0 0 2.94-1.988h-5.348l-.182.224a13.209 13.209 0 0 0 2.59 1.764zm-.854 2.086h.994c0 .56-.056 1.092-.14 1.596h4.928c-.028 2.366-.238 3.78-.644 4.242-.406.462-1.106.7-2.1.7-.448 0-.994-.028-1.638-.056l-.252-.91 1.652.07c.84-.014 1.358-.196 1.582-.532.21-.336.336-1.204.378-2.604h-4.144a5.777 5.777 0 0 1-.448 1.05c-.714 1.26-2.352 2.31-4.928 3.122l-.672-.826c2.296-.672 3.822-1.526 4.55-2.548.168-.252.322-.518.434-.798h-4.172v-.91h4.452a7.34 7.34 0 0 0 .168-1.596zm10.15-2.058h4.172v-.882h1.008v.882h4.116v.882h-4.116v1.358h5.712v.882h-2.702v1.344h2.1v.882h-2.1v2.198c0 .77-.42 1.162-1.246 1.162h-2.03l-.21-.952c.672.042 1.302.07 1.89.07.392 0 .588-.182.588-.518v-1.96h-7.91v-.882h7.91v-1.344h-8.736v-.882h5.726v-1.358h-4.172v-.882zm1.638 5.74c.756.728 1.33 1.386 1.722 1.946l-.784.546c-.434-.602-1.022-1.26-1.75-1.988l.812-.504zm-1.134-7.994a10.519 10.519 0 0 1-1.162 1.778l-.868-.546a9.579 9.579 0 0 0 1.792-3.178l.952.21c-.112.308-.21.602-.322.882h3.584v.854h-2.366c.364.49.658.938.882 1.358l-.91.336c-.28-.588-.63-1.148-1.022-1.694h-.56zm5.684-.042a9.536 9.536 0 0 1-.784 1.288l-.84-.532a7.985 7.985 0 0 0 1.33-2.674l.952.196c-.084.294-.182.588-.28.868h4.032v.854h-2.534c.378.49.672.952.882 1.372l-.868.322a10.36 10.36 0 0 0-1.064-1.694h-.826zm-66.906 19.306l.924.364c-1.036 2.94-2.394 5.18-4.102 6.72l-.784-.686c1.75-1.596 3.066-3.724 3.962-6.398zm4.774 7.42a28.263 28.263 0 0 1 2.8 4.858l-.938.42c-.21-.476-.42-.924-.63-1.344-2.464.392-5.222.672-8.274.868l-.182-.98c1.12-.588 2.52-2.8 4.214-6.636l.98.336c-1.204 2.66-2.408 4.746-3.612 6.258a65.91 65.91 0 0 0 6.426-.7 28.5 28.5 0 0 0-1.694-2.772l.91-.308zm-.21-7.518c.812 2.604 2.212 4.732 4.214 6.384l-.714.826c-2.086-1.736-3.542-3.99-4.354-6.734l.854-.476zm6.286 2.8h2.548v-2.912h1.022v2.912h3.948v-2.856h1.022v2.856h2.562v.98h-2.562v3.374h3.248v.98h-12.488v-.98h3.248v-3.374h-2.548v-.98zm3.57 4.354h3.948v-3.374h-3.948v3.374zm0 1.47c-1.148 1.232-2.576 2.324-4.27 3.248l.7.896c1.708-.98 3.15-2.142 4.326-3.458l-.756-.686zm4.06.028l-.728.7c1.736 1.204 3.094 2.338 4.088 3.402l.784-.798c-1.12-1.092-2.492-2.198-4.144-3.304zm7.462-3.906v2.338h2.254v-2.338h-2.254zm2.254-.91v-2.366h-2.254v2.366h2.254zm-2.268 4.158c-.084 1.96-.42 3.57-.994 4.83l-.756-.7c.56-1.26.84-2.884.854-4.844v-6.72h4.088v10.92c0 .84-.392 1.274-1.176 1.274h-1.12l-.238-.896c.392.028.742.056 1.078.056.35 0 .532-.252.532-.756v-3.164h-2.268zm5.32-1.386v6.202h-.952V108.15h5.67c0 1.736-.084 2.884-.252 3.444-.168.574-.686.868-1.568.868h-1.134l-.266-.868c.238 0 .546.014.938.014.336 0 .574-.028.742-.07.168-.056.294-.196.378-.406.098-.308.154-.994.182-2.058h-3.738v4.242h4.76v.854c-.266 1.442-.728 2.674-1.372 3.682a10.95 10.95 0 0 0 2.226 1.652l-.504.854a11.433 11.433 0 0 1-2.296-1.722 7.47 7.47 0 0 1-2.17 1.736l-.532-.812a6.882 6.882 0 0 0 2.03-1.652 8.784 8.784 0 0 1-1.806-3.696h-.336zm1.204 0a7.731 7.731 0 0 0 1.512 2.912c.518-.84.896-1.806 1.148-2.912h-2.66zm9.758-6.692l1.022.14a8.38 8.38 0 0 1-.532 1.064h6.104v.812c-.896 1.036-1.988 1.918-3.276 2.646 1.582.672 3.346 1.106 5.292 1.302l-.462.938c-2.212-.252-4.186-.812-5.922-1.68-1.708.784-3.71 1.358-5.978 1.708l-.462-.952c2.03-.28 3.808-.728 5.348-1.344a14.483 14.483 0 0 1-2.184-1.582c-.532.476-1.106.91-1.75 1.302l-.616-.812c1.68-.966 2.828-2.142 3.416-3.542zm2.212 4.144a12.588 12.588 0 0 0 2.94-1.988h-5.348l-.182.224a13.209 13.209 0 0 0 2.59 1.764zm-.854 2.086h.994c0 .56-.056 1.092-.14 1.596h4.928c-.028 2.366-.238 3.78-.644 4.242-.406.462-1.106.7-2.1.7-.448 0-.994-.028-1.638-.056l-.252-.91 1.652.07c.84-.014 1.358-.196 1.582-.532.21-.336.336-1.204.378-2.604h-4.144a5.777 5.777 0 0 1-.448 1.05c-.714 1.26-2.352 2.31-4.928 3.122l-.672-.826c2.296-.672 3.822-1.526 4.55-2.548.168-.252.322-.518.434-.798h-4.172v-.91h4.452a7.34 7.34 0 0 0 .168-1.596zm9.184-5.558h11.312v.98h-5.208v5.292h5.74v.966h-5.74v4.956h-1.036v-4.956h-5.628v-.966h5.628v-5.292h-5.068v-.98zm1.708 1.876c.532.98 1.036 2.044 1.512 3.206l-.938.462a25.497 25.497 0 0 0-1.512-3.206l.938-.462zm7.938-.07l.924.434a17.403 17.403 0 0 1-1.666 3.248l-.896-.462c.686-1.092 1.232-2.156 1.638-3.22zm14.672 4.578v5.838h-1.022v-.7h-7.308v.7h-1.022v-5.838h9.352zm-8.33 4.172h7.308v-3.206h-7.308v3.206zm-2.016-5.614c3.64-.14 6.93-.336 9.884-.602.336.532.686 1.078 1.036 1.666l.98-.476a35.6 35.6 0 0 0-3.36-4.648l-.91.434c.56.644 1.106 1.358 1.638 2.114-2.408.224-4.956.406-7.644.518 1.26-1.036 2.534-2.464 3.794-4.256l-1.036-.35c-1.82 2.674-3.346 4.228-4.578 4.648l.196.952z" fill="#FFF"/><path d="M25.54 83.735C11.354 83.255 0 71.625 0 57.35c0-13.658 10.393-24.894 23.717-26.26v-.14C23.716 13.857 37.6 0 54.73 0c13.598 0 25.153 8.735 29.337 20.889a22.863 22.863 0 0 1 6.237-.862c11.034 0 20.238 7.821 22.349 18.211C125.036 38.481 135 48.575 135 60.992c0 12.569-10.21 22.758-22.804 22.758-.306 0-.61-.006-.912-.018v.018H25.54v-.015z" fill="url(#f)" transform="translate(402 72)"/><path d="M425.636 117.604h.728c1.778 1.96 3.822 3.5 6.132 4.62l-.546.966a19.344 19.344 0 0 1-5.95-4.69c-1.512 1.82-3.514 3.388-6.006 4.704l-.532-.966c2.464-1.232 4.522-2.786 6.174-4.634zm.252 3.696h1.022v3.15h3.822v.966h-3.822v3.444h4.83v.98h-11.648v-.98h2.114v-5.544h.994v5.544h2.688v-7.56zm12.082-3.598h1.022v11.13h1.988v-11.13h1.022v11.13h4.2v.98h-12.404v-.98h4.172v-11.13zm6.958 2.548l.896.252c-.56 2.436-1.26 4.564-2.114 6.398l-.91-.322c.812-1.652 1.526-3.766 2.128-6.328zm-9.926-.028c.728 1.89 1.386 4.06 1.96 6.51l-.924.238a52.42 52.42 0 0 0-1.89-6.468l.854-.28zm12.852 1.022v.98h5.278c-.728 3.444-2.576 5.908-5.558 7.378l.63.84c2.982-1.554 4.914-4.032 5.782-7.434 1.05 3.164 2.982 5.6 5.796 7.336l.63-.812c-2.87-1.708-4.802-4.144-5.782-7.308h5.516v-.98h-5.81c.112-.868.182-1.778.182-2.758v-.91h-1.036v1.134c-.014.882-.07 1.722-.182 2.534h-5.446zm22.358-.574l-.182.728c.35 1.638.798 3.052 1.358 4.228.546-1.414.84-3.066.896-4.956h-2.072zm.714 5.964c-.546-1.078-1.008-2.31-1.386-3.71a12.35 12.35 0 0 1-.826 1.722l-.63-.77c.826-1.568 1.386-3.682 1.666-6.342l.98.168a32.092 32.092 0 0 1-.308 2.002h3.696v.966h-.91c-.07 2.338-.504 4.34-1.288 5.992.728 1.26 1.582 2.226 2.59 2.912l-.546.826c-.98-.7-1.82-1.652-2.52-2.828a9.392 9.392 0 0 1-2.59 2.814l-.518-.84a8.24 8.24 0 0 0 2.59-2.912zm-6.636-2.562l.938.112c-.098.266-.196.518-.28.77h2.926v.826a5.639 5.639 0 0 1-1.554 2.394c.672.308 1.316.616 1.932.952l-.546.784a20.369 20.369 0 0 0-2.156-1.106c-.924.644-2.086 1.162-3.486 1.554l-.476-.84c1.148-.308 2.142-.686 2.954-1.148a37.472 37.472 0 0 0-1.946-.784c.364-.616.686-1.19.966-1.75h-1.652v-.882h2.044c.126-.308.238-.602.336-.882zm1.106 3.71c.7-.56 1.232-1.218 1.568-1.946h-2.408c-.224.476-.476.924-.756 1.344.56.196 1.092.392 1.596.602zm-2.38-9.954c.336.546.616 1.134.868 1.75l-.728.336a12.95 12.95 0 0 0-.938-1.82l.798-.266zm4.256-.042l.728.336a9.322 9.322 0 0 1-1.078 1.806l-.714-.364c.448-.602.812-1.19 1.064-1.778zm-5.334 2.464h2.73v-2.674h.938v2.674h2.548v.882h-2.548v.154c.756.378 1.54.812 2.324 1.288l-.518.784c-.7-.56-1.302-1.008-1.806-1.344v1.82h-.938v-2.66c-.462 1.106-1.302 2.058-2.506 2.87l-.49-.812c1.078-.63 1.834-1.33 2.254-2.1h-1.988v-.882zm15.358 10.024h-1.19l-.21-.952c.364.042.728.07 1.064.07.35 0 .532-.21.532-.602v-3.43c-.56.21-1.106.406-1.652.574l-.252-.98c.644-.154 1.288-.35 1.904-.574v-3.164h-1.68v-.966h1.68v-2.646h.98v2.646h1.344v.966h-1.344v2.758c.448-.196.882-.406 1.302-.63v.994c-.434.224-.868.42-1.302.616v4.088c0 .812-.392 1.232-1.176 1.232zm4.186-6.188c-.168 2.394-.714 4.494-1.638 6.314l-.784-.7c.994-1.848 1.498-4.256 1.512-7.196v-4.382h7.378v3.402h-2.632v1.652h2.996v.91h-2.996v1.722h2.352v4.592h-.938v-.686h-3.794v.686H482v-4.592h2.338v-1.722h-2.856zm2.856-2.562h-2.786v.98c0 .224-.014.448-.014.672h2.8v-1.652zm-1.4 7.294h3.794v-2.114h-3.794v2.114zm4.032-9.758h-5.418v1.554h5.418v-1.554zm3.752-1.358l-.7.658c1.022.812 1.82 1.554 2.408 2.254l.714-.714c-.658-.728-1.47-1.456-2.422-2.198zm8.176 12.446c-.756 0-1.568-.014-2.45-.028-.882-.014-1.61-.098-2.17-.252-.532-.168-1.022-.518-1.456-1.022-.182-.238-.364-.35-.532-.35-.336 0-.896.644-1.68 1.932l-.756-.686c.756-1.176 1.414-1.89 2.002-2.142v-4.256h-2.002v-.924h2.94v5.25c.112.084.21.182.322.308.336.406.686.7 1.078.882.42.196 1.05.308 1.862.336.728.014 1.624.028 2.702.028.672 0 1.358-.014 2.058-.028a33.588 33.588 0 0 0 1.582-.056l-.252 1.008h-3.248zm-4.186-11.788v.924h6.426v-.924h-6.426zm-.854 3.178h8.302v.966h-4.368c-.77 1.988-1.456 3.402-2.072 4.242 1.82-.196 3.318-.448 4.508-.728a24.373 24.373 0 0 0-1.12-2.268l.826-.266c.756 1.288 1.428 2.758 2.016 4.41l-.896.238c-.14-.434-.294-.854-.462-1.246-1.54.364-3.556.658-6.048.896l-.252-.882c.588-.168 1.414-1.638 2.506-4.396h-2.94v-.966zm12.684 1.134h6.972v2.842h-6.972v-2.842zm6.034 2.072v-1.288h-5.096v1.288h5.096zm2.268 1.722v3.948h-.966v-.574h-7.602v.574h-.98v-3.948h9.548zm-8.568 2.52h7.602v-1.68h-7.602v1.68zm-2.296-10.458v.882h3.15v.826h1.008v-.826h3.724v.826h1.008v-.826h3.15v-.882h-3.15v-.938h-1.008v.938h-3.724v-.938h-1.008v.938h-3.15zm11.648 2.296v2.618h-.966v-1.764h-9.324v1.834h-.966v-2.688h11.256z" fill="#FFF"/><path d="M580 252h317.532" stroke="#DD3730" stroke-dasharray="3"/><path d="M30 95C13.431 95 0 81.792 0 65.5c0-15.637 12.372-28.432 28.016-29.437A35.65 35.65 0 0 1 28 35C28 15.67 43.67 0 63 0c15.019 0 27.828 9.46 32.795 22.745A26.062 26.062 0 0 1 102 22c12.65 0 23.191 9.035 25.52 21.004.16-.003.32-.004.48-.004 14.36 0 26 11.64 26 26s-11.64 26-26 26H30z" fill="url(#g)" transform="translate(444 180)"/><path d="M528.649 247.894c-1.136 2.15-2.604 3.05-4.295 2.37-1.69-.68-1.858-2.356-.598-4.704 1.19-2.223 2.657-3.088 4.289-2.374 1.678.717 1.857 2.349.604 4.708m3.312-5.636c-1.39-1.187-3.312-1.795-5.758-1.795-2.447 0-4.267.619-5.626 1.825-1.302 1.125-2.014 2.945-2.014 4.432 0 1.847.772 3.429 1.94 4.472 1.355 1.205 3.436 1.8 5.7 1.8 2.446 0 4.298-.635 5.682-1.836 1.281-1.128 1.984-2.996 1.984-4.436 0-1.834-.642-3.32-1.908-4.462m-19.656 10.722v.032h4.193c.428 0 .675-.256.675-.653V234.5h-4.196c-.422 0-.672.265-.672.656v17.823zm32.946-12.022c-.43 0-.688.271-.688.674v8.541c-2.838.747-4.682-.026-4.682-1.247v-7.34c0-.379-.218-.628-.656-.628h-4.236v7.765c0 3.928 5.046 5.791 13.677 3.37.488-.164.824-.604.824-1.21v-9.925h-4.24zm-35.328 9.536a.612.612 0 0 0-.659-.609c-.775.055-2.107.074-3.291-.278-.411-.122-.785-.256-1.1-.475-.318-.221-1.335-.977-1.4-2.38-.071-1.493.594-2.082 1.263-2.491.622-.38 1.617-.556 2.592-.622a9.756 9.756 0 0 1 1.925.073.59.59 0 0 0 .67-.586l-.001-2.51a11.54 11.54 0 0 0-1.078-.2c-.378-.047-.76-.078-1.15-.092a30.006 30.006 0 0 0-1.215-.025c-1.262 0-2.392.155-3.362.48-.978.314-1.805.757-2.48 1.32a5.51 5.51 0 0 0-1.524 2.034c-.347.792-.518 1.662-.518 2.618 0 .988.17 1.868.518 2.656a5.444 5.444 0 0 0 1.547 2.021c.677.566 1.528.993 2.515 1.298 1 .298 2.147.45 3.453.45.779 0 1.547-.036 2.32-.12.309-.032.642-.09.974-.157v-2.405zm49.946-1.873c-1.137 2.15-2.604 3.05-4.295 2.37-1.69-.68-1.858-2.355-.598-4.703 1.19-2.223 2.657-3.088 4.289-2.375 1.678.718 1.857 2.35.604 4.708zm1.501-14.12c-.43 0-.684.269-.684.667v6.95a6.1 6.1 0 0 0-2.414-.927c-2.416-.383-4.267.619-5.627 1.825-1.302 1.125-2.013 2.945-2.013 4.431 0 1.848.6 3.272 1.94 4.473 1.507 1.35 4.941 1.635 6.856.74.491-.23.902-.455 1.258-.68v.979h4.268c.436 0 .687-.26.687-.665v-17.793h-4.271z" fill="#FFF"/><g transform="translate(465 234.22)"><mask id="i" fill="#fff"><use xlink:href="#h"/></mask><path d="M19.191 1.527l.092-1.324h-5.976c-.046 0-.095.717-.15 2.15a213.669 213.669 0 0 1-.27 4.881c-.136 2.087-.245 3.424-.326 4.012-.072.579-.18 1.05-.325 1.413a3.934 3.934 0 0 1-.5.963 2.708 2.708 0 0 1-.542.562c-.235.17-.501.304-.799.4a4.05 4.05 0 0 1-1.219.178c-.505 0-.99-.082-1.456-.244-.464-.161-.827-.401-1.09-.72a2.716 2.716 0 0 1-.54-1.166c-.1-.458-.15-1.03-.15-1.712 0-.36.021-1.011.061-1.955.04-.943.1-1.954.18-3.033l.405-5.73C5.384.223 4.424.23 3.7.23 3.123.23 2.129.221.72.203L.476 5.528a92.117 92.117 0 0 1-.15 2.494L.15 10.178a56.612 56.612 0 0 0-.123 1.88c-.018.436-.027.762-.027.978 0 .638.08 1.236.244 1.793.145.494.344.919.597 1.274.252.355.614.703 1.084 1.044.515.369 1.12.69 1.816.964.697.274 1.477.483 2.345.627.94.143 1.915.215 2.928.215 1.13 0 2.245-.094 3.348-.283 1.102-.188 2.087-.51 2.955-.964.203-.106.395-.217.576-.33-.69-.616-1.142-1.468-1.314-2.6v-.796c.335-2.714 2.01-4.095 4.088-5.073-1.195-.708-2.254-1.573-2.106-3.48.134-1.74 1.19-3.054 2.63-3.9" fill="#FFF" mask="url(#i)"/></g><path d="M489 236.799c-.166 0-.338.008-.508.023-1.376.12-2.836 1.014-2.967 2.49-.112 1.265.773 1.707 1.627 2.135.73.364 1.393.686 2.083.913.647-.398 1.3-.838 1.718-1.42.416-.577.831-1.518.754-2.426-.136-1.59-2.106-1.715-2.707-1.715zm-2.71 7.345a5.976 5.976 0 0 0-1.026.668c-1.02.846-1.645 2.002-1.72 3.171-.11 1.768 1.155 2.673 2.46 2.787.172.014.343.022.511.022 2.25 0 3.862-1.31 4.011-3.263.076-.987-.257-1.444-.78-1.826-.742-.544-1.631-.874-2.573-1.223a36.123 36.123 0 0 1-.883-.336zm.292 9.072l-.915-.001c-3.079-.23-4.832-1.616-5.211-4.119l-.003-.038.002-.829c.35-2.845 2.146-4.217 3.812-5.068-1.082-.713-1.972-1.673-1.832-3.473.253-3.28 3.535-5.009 6.478-5.228h.927c1.424.122 2.398.407 3.159.926 1.27.864 1.817 2.04 1.672 3.591-.188 2.006-1.772 3.519-3.332 4.353 1.246.724 2.482 1.658 2.32 3.901-.12 1.67-.932 3.134-2.348 4.235-1.27.988-2.945 1.61-4.718 1.749l-.011.001z" fill="#FFF"/><path d="M806 241.899c-7.777-.263-14-6.637-14-14.462 0-7.487 5.697-13.646 13-14.395v-.076c0-9.37 7.611-16.966 17-16.966 7.454 0 13.788 4.788 16.081 11.45a12.532 12.532 0 0 1 3.419-.472 12.498 12.498 0 0 1 12.25 9.982c6.788.133 12.25 5.666 12.25 12.473 0 6.89-5.596 12.474-12.5 12.474-.167 0-.334-.003-.5-.01v.01h-47v-.008z" stroke="#DD3730" fill="#FFF"/><path d="M820.32 223.924l-.784.252c.42.98.826 2.114 1.19 3.374l.77-.35a26.462 26.462 0 0 0-1.176-3.276zm-4.62-5.25h.98v2.408h2.842c0 4.536-.07 7.336-.21 8.4-.14 1.176-.798 1.778-2.002 1.778-.21 0-.56-.028-1.05-.056l-.252-.924c.448.028.826.042 1.162.042.672 0 1.064-.42 1.176-1.246.084-.756.14-3.094.168-7.014h-1.834v.238c-.056 4.158-1.176 7.196-3.374 9.114l-.756-.672c2.058-1.75 3.108-4.564 3.15-8.442v-.238h-2.38v-.98h2.38v-2.408zm-2.128 5.18l.812.21c-.42 1.652-.994 2.926-1.75 3.808l-.672-.63c.728-.896 1.274-2.03 1.61-3.388zm-4.998-1.988h1.624v-3.22h.966v3.22h1.568v.938h-1.568v8.596h-.966v-8.596h-1.624v-.938zm24.822 9.478h-1.862l-.28-1.008 1.82.042c.35 0 .532-.21.532-.63v-9.66h-9.212v11.298h-1.008v-12.278h11.228v10.864c0 .91-.406 1.372-1.218 1.372zm-7.98-9.646h7.182v.938h-7.182v-.938zm.784 2.45h5.614v4.508H826.2v-4.508zm4.634 3.612v-2.702h-3.654v2.702h3.654zm7.252-8.386v.98h9.968v-.98h-9.968zm-1.344 3.906v1.008h4.718c-1.47 2.982-2.66 4.802-3.556 5.474-.056.028-.126.07-.238.098l.266 1.022c3.36-.224 6.454-.504 9.296-.868.266.504.504.994.728 1.484l.896-.63c-.7-1.428-1.694-3.122-2.982-5.054l-.812.504a52.442 52.442 0 0 1 1.68 2.772 97.164 97.164 0 0 1-7.532.714c.952-1.036 2.086-2.87 3.374-5.516h6.72v-1.008h-12.558z" fill="#DD3730"/><path d="M897 264.899c-7.777-.263-14-6.637-14-14.462 0-7.487 5.697-13.646 13-14.395v-.076c0-9.37 7.611-16.966 17-16.966 7.454 0 13.788 4.788 16.081 11.45a12.532 12.532 0 0 1 3.419-.472 12.498 12.498 0 0 1 12.25 9.982c6.788.133 12.25 5.666 12.25 12.473 0 6.89-5.596 12.474-12.5 12.474-.167 0-.334-.003-.5-.01v.01h-47v-.008z" stroke="#DD3730" fill="#FFF"/><path d="M906.504 241.59h-1.022c0 .532-.014 1.274-.028 2.226-.126 4.032-2.114 7.238-5.964 9.604l.616.896c3.108-2.002 5.096-4.522 5.936-7.574.994 3.164 2.926 5.684 5.782 7.56l.658-.882c-3.262-2.002-5.292-4.914-6.076-8.722.056-.868.098-1.904.098-3.108zm12.334.014v1.288c-.014.448-.028.91-.056 1.358h-4.158v.966h4.088c-.154 1.694-.476 3.15-.952 4.354-.728 1.638-2.002 2.954-3.822 3.934l.546.882c1.876-.966 3.22-2.31 4.046-4.032.616-1.372 1.022-3.094 1.218-5.138h4.41c-.084 3.402-.238 5.614-.49 6.65-.252.994-.756 1.498-1.526 1.498-.532 0-1.078-.014-1.666-.042l.28.98h1.89c.714-.056 1.232-.364 1.554-.938.336-.602.574-1.652.714-3.15.14-1.526.224-3.514.28-5.964h-5.376c.028-.434.042-.882.056-1.358v-1.288h-1.036zm10.248.77v.98h9.968v-.98h-9.968zm-1.344 3.906v1.008h4.718c-1.47 2.982-2.66 4.802-3.556 5.474-.056.028-.126.07-.238.098l.266 1.022c3.36-.224 6.454-.504 9.296-.868.266.504.504.994.728 1.484l.896-.63c-.7-1.428-1.694-3.122-2.982-5.054l-.812.504a52.442 52.442 0 0 1 1.68 2.772 97.164 97.164 0 0 1-7.532.714c.952-1.036 2.086-2.87 3.374-5.516h6.72v-1.008h-12.558z" fill="#DD3730"/><path d="M884 179.899c-7.777-.263-14-6.637-14-14.462 0-7.487 5.697-13.646 13-14.395v-.076c0-9.37 7.611-16.966 17-16.966 7.454 0 13.788 4.788 16.081 11.45a12.532 12.532 0 0 1 3.419-.472 12.498 12.498 0 0 1 12.25 9.982c6.788.133 12.25 5.666 12.25 12.473 0 6.89-5.596 12.474-12.5 12.474-.167 0-.334-.003-.5-.01v.01h-47v-.008z" stroke="#DD3730" fill="#FFF"/><path d="M897.326 158.452l.924.448c-.616 1.204-1.33 2.24-2.142 3.108l-.798-.574c.784-.84 1.456-1.834 2.016-2.982zm-4.41.252l-.938.308c.448.77.826 1.568 1.106 2.408l.98-.238a15.68 15.68 0 0 0-1.148-2.478zm-3.822.322c.504.77.952 1.596 1.344 2.492l-.924.406a16.01 16.01 0 0 0-1.386-2.59l.966-.308zm8.834-2.394c-2.786.504-6.286.756-10.514.756l.308.952c4.452 0 8.008-.294 10.696-.854l-.49-.854zm-10.528 6.454h5.096v-1.344h1.008v1.344h5.11v.98h-4.102c.952 1.428 2.562 2.702 4.83 3.822l-.714.896c-2.352-1.4-3.99-2.982-4.942-4.718h-.182v5.264h-1.008v-5.264h-.14c-1.022 1.946-2.716 3.556-5.096 4.816l-.56-.938c2.212-1.008 3.808-2.31 4.802-3.878H887.4v-.98zm18.438-5.964v8.792h-.896v-7.854h-2.898v7.854h-.91v-8.792h4.704zm1.988-.602l.98.126c-.14.672-.308 1.316-.504 1.918h4.634c0 4.872-.084 7.854-.224 8.974-.14 1.148-.784 1.722-1.904 1.722-.378 0-1.036-.014-1.96-.042l-.238-.91c.784.028 1.456.056 2.044.056.616 0 .98-.364 1.092-1.092.112-.826.182-3.402.21-7.728h-4.046c-.378.84-.84 1.61-1.4 2.296l-.616-.798c.952-1.232 1.596-2.73 1.932-4.522zm2.156 6.202a42.1 42.1 0 0 1 1.33 3.654l-.826.42c-.112-.364-.21-.7-.308-1.008-1.092.252-2.282.434-3.584.574l-.168-.868c.532-.42 1.204-1.988 2.002-4.704l.91.294c-.602 1.82-1.19 3.262-1.764 4.326.826-.112 1.61-.252 2.338-.434a28.188 28.188 0 0 0-.7-1.876l.77-.378zm-6.916-3.64h.84v4.592c-.028 1.554-.252 2.786-.686 3.71-.42.868-1.106 1.54-2.058 2.03l-.532-.84c.896-.462 1.526-1.064 1.89-1.82.336-.784.518-1.82.546-3.08v-4.592zm1.414 7.252a15.862 15.862 0 0 1 1.974 2.268l-.728.714c-.448-.728-1.078-1.512-1.89-2.352l.644-.63zm11.606-8.96v.98h9.968v-.98h-9.968zm-1.344 3.906v1.008h4.718c-1.47 2.982-2.66 4.802-3.556 5.474-.056.028-.126.07-.238.098l.266 1.022c3.36-.224 6.454-.504 9.296-.868.266.504.504.994.728 1.484l.896-.63c-.7-1.428-1.694-3.122-2.982-5.054l-.812.504a52.442 52.442 0 0 1 1.68 2.772 97.164 97.164 0 0 1-7.532.714c.952-1.036 2.086-2.87 3.374-5.516h6.72v-1.008h-12.558z" fill="#DD3730"/></g></svg>