<svg width="217" height="42" viewBox="0 0 217 42" xmlns="http://www.w3.org/2000/svg" xmlns:xlink="http://www.w3.org/1999/xlink"><title>Group 12</title><defs><path id="a" d="M0 40.935V.44h41.43v40.496z"/></defs><g fill="none" fill-rule="evenodd"><path d="M136.75 30.007c-2.44 4.643-5.594 6.587-9.227 5.12-3.632-1.47-3.99-5.089-1.284-10.16 2.557-4.802 5.708-6.67 9.213-5.128 3.607 1.55 3.991 5.074 1.299 10.168m7.116-12.172c-2.988-2.563-7.116-3.877-12.372-3.877s-9.167 1.337-12.088 3.942c-2.797 2.43-4.326 6.361-4.326 9.571 0 3.99 1.66 7.407 4.17 9.66 2.91 2.602 7.38 3.886 12.244 3.886 5.256 0 9.234-1.37 12.208-3.965 2.754-2.435 4.263-6.469 4.263-9.58 0-3.96-1.379-7.17-4.099-9.637M101.635 40.99v.07h9.01c.92 0 1.45-.552 1.45-1.409V1.081h-9.016c-.906 0-1.444.57-1.444 1.415V40.99zm70.785-25.961c-.923 0-1.477.584-1.477 1.455V34.93c-6.097 1.613-10.06-.058-10.06-2.694V16.385c0-.82-.468-1.356-1.41-1.356h-9.1v16.769c0 8.484 10.841 12.508 29.385 7.277 1.047-.352 1.77-1.303 1.77-2.61V15.028h-9.108zM96.517 35.623c0-.767-.65-1.369-1.415-1.314-1.666.118-4.528.159-7.072-.6-.882-.264-1.686-.555-2.364-1.027-.681-.478-2.866-2.11-3.008-5.142-.151-3.222 1.279-4.496 2.715-5.378 1.337-.822 3.475-1.2 5.569-1.344 1.599-.11 3.097.017 4.136.157a1.271 1.271 0 0 0 1.439-1.264l-.002-5.423a24.277 24.277 0 0 0-2.315-.429 27.782 27.782 0 0 0-2.47-.201 64.133 64.133 0 0 0-2.612-.053c-2.712 0-5.139.335-7.222 1.036-2.102.679-3.879 1.635-5.328 2.85a11.897 11.897 0 0 0-3.275 4.394c-.747 1.71-1.114 3.59-1.114 5.655 0 2.133.367 4.034 1.114 5.735.742 1.692 1.85 3.143 3.322 4.366 1.455 1.221 3.283 2.144 5.404 2.803 2.15.644 4.613.97 7.42.97a45.99 45.99 0 0 0 4.986-.256 22.42 22.42 0 0 0 2.09-.34l.002-5.195zm107.31-4.044c-2.441 4.643-5.594 6.587-9.228 5.12-3.631-1.47-3.99-5.088-1.283-10.16 2.555-4.802 5.707-6.67 9.213-5.128 3.606 1.549 3.99 5.074 1.298 10.168zm3.225-30.498c-.922 0-1.47.581-1.47 1.44v15.011a13.064 13.064 0 0 0-5.187-2.002c-5.19-.826-9.167 1.338-12.088 3.942-2.797 2.43-4.326 6.36-4.326 9.571 0 3.991 1.291 7.066 4.17 9.66 3.236 2.917 10.615 3.53 14.73 1.597a23.793 23.793 0 0 0 2.702-1.469v2.115h9.17c.936 0 1.476-.562 1.476-1.435V1.081h-9.177z" fill="#E31E25"/><g transform="translate(0 .474)"><mask id="b" fill="#fff"><use xlink:href="#a"/></mask><path d="M41.232 3.298l.197-2.86H28.59c-.098 0-.202 1.55-.32 4.646-.135 3.188-.33 6.702-.58 10.54-.293 4.507-.527 7.394-.701 8.665-.155 1.25-.388 2.266-.698 3.05-.31.833-.669 1.527-1.076 2.08-.33.463-.72.868-1.164 1.215a6.082 6.082 0 0 1-1.716.865 8.713 8.713 0 0 1-2.618.383 9.39 9.39 0 0 1-3.129-.526c-.997-.349-1.777-.867-2.34-1.556-.563-.69-.95-1.528-1.163-2.518-.214-.99-.32-2.223-.32-3.698 0-.776.043-2.183.13-4.221a211.6 211.6 0 0 1 .387-6.55L14.15.438c-2.58.04-4.645.06-6.198.06-1.24 0-3.376-.02-6.401-.06l-.526 11.5a199.982 199.982 0 0 1-.322 5.387l-.38 4.657c-.137 1.767-.225 3.12-.264 4.061A52.207 52.207 0 0 0 0 28.154c0 1.379.174 2.67.524 3.873.31 1.067.739 1.985 1.282 2.752.542.766 1.32 1.518 2.33 2.256 1.105.795 2.407 1.49 3.9 2.081 1.498.592 3.176 1.043 5.04 1.354 2.02.31 4.115.465 6.291.465a42.25 42.25 0 0 0 7.192-.612c2.368-.407 4.484-1.1 6.35-2.081.437-.23.848-.469 1.236-.712-1.48-1.331-2.453-3.172-2.823-5.616v-1.72c.72-5.861 4.319-8.845 8.785-10.957-2.569-1.529-4.844-3.396-4.526-7.517.288-3.755 2.558-6.594 5.651-8.422" fill="#E31E25" mask="url(#b)"/></g><path d="M51.565 6.045c-.357 0-.727.018-1.093.05-2.956.26-6.092 2.19-6.374 5.376-.24 2.734 1.66 3.69 3.496 4.613 1.567.787 2.992 1.481 4.475 1.971 1.39-.859 2.795-1.809 3.692-3.064.894-1.249 1.785-3.28 1.618-5.242-.29-3.435-4.523-3.704-5.814-3.704zm-5.822 15.863c-.866.459-1.606.944-2.206 1.444-2.19 1.827-3.535 4.323-3.694 6.849-.24 3.817 2.481 5.773 5.284 6.018.37.031.737.048 1.099.048 4.834 0 8.297-2.831 8.618-7.048.161-2.132-.553-3.118-1.675-3.944-1.596-1.173-3.507-1.886-5.529-2.641a72.68 72.68 0 0 1-1.897-.726zm.626 19.595l-1.965-.003c-6.616-.497-10.382-3.49-11.197-8.895l-.006-.084.004-1.789c.754-6.144 4.61-9.11 8.19-10.946-2.325-1.54-4.237-3.615-3.937-7.502C38.004 5.2 45.054 1.466 51.376.994l.042-.002 1.95.002c3.06.263 5.154.879 6.788 1.999 2.729 1.866 3.904 4.404 3.593 7.757-.405 4.333-3.807 7.6-7.158 9.4 2.677 1.565 5.33 3.58 4.983 8.427-.258 3.606-2.002 6.767-5.043 9.146-2.731 2.133-6.33 3.475-10.138 3.777l-.024.003z" fill="#717172"/></g></svg>