<svg width="200" height="58" viewBox="0 0 200 58" xmlns="http://www.w3.org/2000/svg" xmlns:xlink="http://www.w3.org/1999/xlink"><title>Group 24 Copy 13</title><defs><rect id="a" width="200" height="58" rx="2"/><linearGradient x1="50%" y1="0%" x2="50%" y2="100%" id="c"><stop stop-color="#FFF" stop-opacity="0" offset="0%"/><stop stop-color="#FFF" offset="100%"/></linearGradient></defs><g fill="none" fill-rule="evenodd"><mask id="b" fill="#fff"><use xlink:href="#a"/></mask><use fill="#EA606B" xlink:href="#a"/><path d="M80.233 20c-.074 3.126.278 11.414-7.233 15.429.74.5 1.443 1.202 1.831 1.794 3.848-2.257 5.79-5.605 6.808-8.861 1.073 3.182 3.127 6.79 7.234 8.75.296-.629.925-1.369 1.609-1.905-6.456-2.85-7.585-9.824-7.844-12.321a69.1 69.1 0 0 0 .13-2.886h-2.535zm20.128 3.83v-3.812h-2.35v3.811h-5.66v2.257h5.568c-.315 3.238-1.554 6.975-6.142 9.472.536.407 1.369 1.24 1.72 1.795 5.199-2.942 6.494-7.437 6.79-11.267h5.18c-.296 5.495-.666 7.918-1.221 8.492-.26.24-.481.296-.87.296-.48 0-1.572 0-2.738-.093.426.63.722 1.61.759 2.276 1.128.055 2.275.055 2.96-.037.795-.111 1.332-.315 1.887-1.036.814-.962 1.184-3.737 1.554-11.1.037-.296.055-1.055.055-1.055h-7.492zm24.734-2.628H112.44v2.257h12.654v-2.257zM127 28.64v-2.294h-16.65v2.294h5.014c-1.036 1.98-2.257 3.737-2.757 4.274-.61.684-.999 1.091-1.517 1.24.296.702.722 1.96.851 2.46 1-.37 2.313-.444 11.618-1.166a30.39 30.39 0 0 1 1.036 1.943l2.146-1.295c-.925-1.74-2.682-4.366-4.218-6.401l-2.016 1.054c.555.796 1.165 1.702 1.757 2.59l-7.381.444a36.712 36.712 0 0 0 3.626-5.143H127z" fill="#FFF" mask="url(#b)"/><g opacity=".4" mask="url(#b)"><g transform="translate(120 7)" fill="url(#c)"><path d="M69 19.162V12h-2.464C61.27 12 57 16.404 57 21.838V29h2.464C64.73 29 69 24.595 69 19.162M12.278 54.13V12.183H9.757C4.368 12.182 0 16.516 0 21.862v41.95h2.52c5.39 0 9.758-4.335 9.758-9.681m28.698-.001V12.183h-2.521c-5.389 0-9.757 4.334-9.757 9.68v41.95h2.52c5.39 0 9.758-4.335 9.758-9.681m7.072-41.95h-7.073V9.68c0-5.347 4.369-9.68 9.757-9.68h7.073v2.5c0 5.346-4.369 9.68-9.757 9.68"/><path d="M0 28.879h57.805v2.5c0 5.348-4.369 9.681-9.757 9.681H0V28.88z"/></g></g></g></svg>