<svg width="80" height="80" viewBox="0 0 80 80" xmlns="http://www.w3.org/2000/svg"><title>Artboard 2 Copy</title><path d="M20 62c0-11.046 8.954-20 20-20s20 8.954 20 20H20zm20-20c-6.627 0-12-5.373-12-12s5.373-12 12-12 12 5.373 12 12-5.373 12-12 12zM10 59.3c0-9.615 7.794-17.41 17.41-17.41m0 0c-5.77 0-10.446-4.676-10.446-10.445C16.964 25.677 21.64 21 27.409 21M70.41 59.3c0-9.615-7.795-17.41-17.41-17.41m0 0c5.769 0 10.445-4.676 10.445-10.445C63.445 25.677 58.77 21 53 21" stroke="#FFF" stroke-width="2.5" fill="none"/></svg>