<svg width="102" height="102" viewBox="0 0 102 102" xmlns="http://www.w3.org/2000/svg"><title>Group 105</title><g transform="translate(1 1)" stroke="#DF413A" fill="none" fill-rule="evenodd"><circle stroke-width="1.5" cx="50" cy="50" r="50"/><path d="M30 72c0-11.046 8.954-20 20-20s20 8.954 20 20H30zm20-20c-6.627 0-12-5.373-12-12s5.373-12 12-12 12 5.373 12 12-5.373 12-12 12zM20 69.3c0-9.615 7.794-17.41 17.41-17.41m0 0c-5.77 0-10.446-4.676-10.446-10.445C26.964 35.677 31.64 31 37.409 31M80.41 69.3c0-9.615-7.795-17.41-17.41-17.41m0 0c5.769 0 10.445-4.676 10.445-10.445C73.445 35.677 68.77 31 63 31" stroke-width="2.5"/></g></svg>