<svg width="200" height="58" viewBox="0 0 200 58" xmlns="http://www.w3.org/2000/svg" xmlns:xlink="http://www.w3.org/1999/xlink"><title>Group 24 Copy 10</title><defs><rect id="a" width="200" height="58" rx="2"/><linearGradient x1="50%" y1="1.457%" x2="50%" y2="63.351%" id="c"><stop stop-color="#FFF" stop-opacity="0" offset="0%"/><stop stop-color="#FFF" offset="100%"/></linearGradient></defs><g fill="none" fill-rule="evenodd"><mask id="b" fill="#fff"><use xlink:href="#a"/></mask><use fill="#F07D3F" xlink:href="#a"/><path d="M80.682 26.425h-1.764v10.919h-2.117V26.425H75v-2.043h1.801V20h2.117v4.382h1.764v2.043zm.279.483l1.95.39c-.39 1.894-1.115 3.825-1.932 5.07-.39-.316-1.207-.855-1.67-1.115.798-1.04 1.355-2.711 1.652-4.345zm11.55 5.404l-1.913.482c-.13-1.021-.464-2.6-.817-4.066-.13 4.753-.334 6.666-.854 7.372-.427.65-.873.835-1.523.965-.594.112-1.56.093-2.506.056-.038-.613-.298-1.504-.669-2.117.91.093 1.746.093 2.136.093.315 0 .52-.074.687-.316.408-.52.575-2.952.687-9.192H86.03c-.13 3.826-.947 8.43-4.94 11.792-.37-.483-1.15-1.226-1.67-1.523 3.602-2.952 4.363-6.926 4.512-10.269h-2.767v-2.135h2.804V20.13h2.08v3.324h3.844s-.019.724-.019 1.003l-.056 2.748 1.356-.279c.539 1.727 1.114 4.03 1.337 5.386zm11.309-2.916h-3.473v2.563h3.473v-2.563zm2.042 4.383h-5.515v1.225h-2.042v-7.428h7.557v6.203zm.836-9.49v1.857h-9.266V24.29h9.266zm3.268-3.398v13.927c0 1.152-.241 1.783-.947 2.136-.705.371-1.745.427-3.287.427-.092-.613-.427-1.616-.76-2.191.983.056 2.06.056 2.376.037.316-.019.446-.13.446-.427V22.99h-11.42v14.372h-2.155v-16.47h15.747zm17.121.353h-12.701v2.266h12.701v-2.266zM129 28.71v-2.303h-16.713v2.303h5.033c-1.04 1.987-2.266 3.751-2.767 4.29-.613.687-1.003 1.095-1.523 1.244.297.705.724 1.968.854 2.47 1.003-.372 2.322-.446 11.662-1.17a30.87 30.87 0 0 1 1.04 1.95l2.154-1.3c-.928-1.746-2.693-4.383-4.234-6.425l-2.024 1.058c.557.798 1.17 1.708 1.764 2.6l-7.409.445a36.85 36.85 0 0 0 3.64-5.162H129z" fill="#FFF" mask="url(#b)"/><g opacity=".4" mask="url(#b)" fill="url(#c)"><path d="M151.656 62.111h-3.331c-7.36 0-13.325-5.949-13.325-13.286v-12.65c0-7.337 5.966-13.286 13.325-13.286h3.331V62.11h24.354c8.831 0 15.99 7.138 15.99 15.944V82h-24.354c-8.83 0-15.99-7.138-15.99-15.944v-3.945zM178.997 3H192v3.945c0 8.806-7.16 15.944-15.99 15.944h-24.354v-3.945c0-8.806 7.16-15.944 15.99-15.944h11.351z"/></g></g></svg>