<svg width="901" height="546" viewBox="0 0 901 546" xmlns="http://www.w3.org/2000/svg"><title>Group 76</title><defs><linearGradient x1="128.612%" y1="26.854%" x2="-7.95%" y2="57.56%" id="a"><stop stop-color="#FFC194" offset="0%"/><stop stop-color="#DD3730" offset="100%"/></linearGradient><linearGradient x1="102%" y1="45.745%" x2="0%" y2="76.613%" id="b"><stop stop-color="#FFC194" offset="0%"/><stop stop-color="#DD3730" offset="100%"/></linearGradient></defs><g fill="none" fill-rule="evenodd"><path stroke="url(#a)" stroke-width="30" d="M447 135l121 70v140l-121 70-121-70V205z"/><path d="M368.715 281.914h-2.592c0 1.026-.027 2.43-.027 4.239-.216 7.749-3.969 13.824-11.259 18.252l1.566 2.295c5.67-3.672 9.396-8.316 11.178-13.932 2.052 5.778 5.67 10.422 10.854 13.878l1.701-2.241c-6.156-3.78-10.044-9.261-11.61-16.443.108-1.674.189-3.672.189-6.048zm23.22.027v2.781l-.081 2.106h-7.803v2.457h7.614c-.324 3.078-.918 5.697-1.782 7.884-1.296 2.997-3.699 5.454-7.263 7.398l1.404 2.241c3.618-1.836 6.237-4.401 7.857-7.695 1.188-2.646 1.998-5.913 2.43-9.828h7.803c-.135 6.21-.432 10.287-.891 12.177-.432 1.809-1.35 2.727-2.727 2.727a68.24 68.24 0 0 1-3.24-.081l.702 2.484h3.78c1.404-.108 2.43-.729 3.078-1.863.648-1.188 1.134-3.24 1.404-6.183.27-2.997.432-6.912.54-11.718H394.5l.081-2.106v-2.781h-2.646zm37.449 10.53v5.67h-13.149v1.431h14.418v7.209h-2.565v-.972h-11.853v.945h-2.565v-14.283h15.714zm-13.149 11.07h11.853v-1.944h-11.853v1.944zm0-7.452h10.638v-1.566h-10.638v1.566zm16.875-6.993v5.157h-2.511v-2.997h-18.198v2.997h-2.511v-5.157h10.449a12.257 12.257 0 0 0-.702-1.458l2.268-.378-.459-.297c1.242-1.62 2.16-3.348 2.7-5.211l2.457.54c-.162.459-.297.891-.459 1.323h7.506v2.241h-4.401c.432.594.783 1.188 1.08 1.728l-2.268.837a19.543 19.543 0 0 0-1.539-2.565h-1.377a17.498 17.498 0 0 1-1.539 2.484l-1.296-.837c.216.486.405 1.026.621 1.593h10.179zm-19.575-3.24a22.509 22.509 0 0 1-1.944 2.727l-2.241-1.404c1.566-1.674 2.673-3.51 3.348-5.454l2.457.54c-.162.459-.351.918-.513 1.35h6.804v2.241h-4.05c.486.675.918 1.323 1.242 1.944l-2.349.891a24.26 24.26 0 0 0-1.566-2.835h-1.188zm32.454-3.078h13.662v12.906h-5.535v2.7h5.886v2.376h-5.886v2.808h6.831v2.457h-16.335v-2.457h6.966v-2.808h-5.913v-2.376h5.913v-2.7h-5.589v-12.906zm11.205 10.638v-3.078h-3.078v3.078h3.078zm-5.616 0v-3.078h-3.132v3.078h3.132zm-3.132-5.292h3.132v-3.078h-3.132v3.078zm5.67-3.078v3.078h3.078v-3.078h-3.078zm-17.442 6.615h2.673v-5.778h-3.078v-2.43h8.721v2.43h-3.051v5.778h2.727v2.457h-2.727v5.4c.918-.324 1.809-.648 2.673-1.026v2.484a59.842 59.842 0 0 1-7.965 2.484l-.621-2.457a42.491 42.491 0 0 0 3.321-.702v-6.183h-2.673v-2.457zm32.157-9.909l2.565.189-.351 3.348h14.499v2.457h-14.742l-.405 3.834h15.579c0 7.56-.513 11.934-1.512 13.122-1.026 1.134-3.213 1.701-6.534 1.701-.945 0-1.917-.054-2.943-.108l-.675-2.349c1.458.135 2.484.216 3.078.216 2.862 0 4.59-.486 5.13-1.431.594-1.026.891-3.942.891-8.775h-15.903l1.323-12.204zm-4.104 15.957h15.714v2.484h-15.714v-2.484zm29.457-6.264v3.942h3.78v-3.942h-3.78zm3.78-2.295v-3.996h-3.78v3.996h3.78zm-3.834 8.559c-.189 3.672-.837 6.723-1.944 9.126l-1.944-1.755c1.08-2.349 1.62-5.346 1.647-8.991v-13.257h8.397v21.114c0 1.836-.837 2.754-2.484 2.754h-2.16l-.621-2.268c.756.081 1.431.135 2.079.135.567 0 .864-.486.864-1.431v-5.427h-3.834zm10.395-2.673v9.639a12.926 12.926 0 0 0 3.591-2.862c-1.566-1.998-2.646-4.266-3.24-6.777h-.351zm0 9.72v2.052h-2.403v-23.976h11.367c0 3.51-.162 5.832-.486 6.993-.324 1.134-1.35 1.701-3.078 1.701h-2.268l-.675-2.16c.432 0 1.026.027 1.782.027.567 0 .999-.054 1.269-.135.27-.081.486-.324.648-.702.162-.459.27-1.593.324-3.402h-6.48v7.614h9.126v2.16c-.486 2.646-1.296 4.914-2.43 6.777 1.107 1.053 2.403 1.998 3.861 2.862l-1.269 2.16c-1.539-.918-2.889-1.944-4.023-3.051a14.248 14.248 0 0 1-3.942 3.078l-1.323-1.998zm2.538-9.72a14.876 14.876 0 0 0 2.457 4.779c.81-1.404 1.431-2.997 1.863-4.779h-4.32zm17.874-13.284l2.619.378c-.27.648-.567 1.269-.891 1.836h11.556v2.079c-1.62 1.863-3.591 3.483-5.886 4.833 2.889 1.08 6.102 1.809 9.666 2.133l-1.161 2.403c-4.185-.486-7.965-1.512-11.313-3.105-3.24 1.458-7.02 2.511-11.286 3.159l-1.188-2.403c3.618-.459 6.858-1.215 9.666-2.268a26.746 26.746 0 0 1-3.591-2.538 23.445 23.445 0 0 1-3.024 2.187l-1.566-2.052c3.159-1.809 5.292-4.023 6.399-6.642zm4.563 7.857a23.886 23.886 0 0 0 4.968-3.24h-9.477a.861.861 0 0 0-.162.189 25.314 25.314 0 0 0 4.671 3.051zm-1.944 4.347h2.538c0 .972-.081 1.89-.216 2.754h9.315c-.054 4.725-.459 7.56-1.215 8.478-.756.918-2.106 1.404-3.996 1.404-.918 0-2.052-.054-3.348-.135l-.648-2.322c1.404.054 2.538.108 3.402.162 1.377-.027 2.241-.324 2.592-.864.351-.567.567-2.052.648-4.428h-7.317a12.665 12.665 0 0 1-.837 1.836c-1.35 2.43-4.509 4.428-9.504 6.021l-1.701-2.079c4.401-1.296 7.29-2.862 8.64-4.725.216-.351.432-.702.594-1.053h-7.587v-2.295h8.37c.162-.864.27-1.782.27-2.754z" fill="#DD3730"/><path d="M45.407 37.153c-3.125-2.44-12.133-6.495-12.133-6.495l-5.848 10.789-.867-2.57 1.6-3.244-3.203-3.245-3.204 3.245 1.603 3.244-1.033 2.63-5.686-10.849S7.63 34.714 4.505 37.153C1.38 39.593 0 47 0 47h50s-.916-6.975-4.593-9.847zm-20.153-7.422c7.34-.012 12.233-9.808 12.233-15.082C37.487 9.376 37.467 0 25.254 0 13.042 0 13.02 9.377 13.02 14.65c0 5.274 4.894 15.093 12.234 15.08z" transform="translate(421 214)" fill-rule="nonzero" fill="url(#b)"/><circle stroke="#DD3730" stroke-width="2" fill="#F7F8FA" cx="288" cy="186" r="9"/><circle stroke="#DD3730" stroke-width="2" fill="#F7F8FA" cx="446" cy="99" r="9"/><circle stroke="#DD3730" stroke-width="2" fill="#F7F8FA" cx="605" cy="195" r="9"/><circle stroke="#DD3730" stroke-width="2" fill="#F7F8FA" cx="605" cy="356" r="9"/><circle stroke="#DD3730" stroke-width="2" fill="#F7F8FA" cx="446" cy="448" r="9"/><circle stroke="#DD3730" stroke-width="2" fill="#F7F8FA" cx="287" cy="356" r="9"/><path d="M407.528 16.616v2.16c-2.304 1.128-4.92 2.016-7.848 2.688l-.288-2.28c3.12-.624 5.832-1.488 8.136-2.568zM403.424.248l2.16.84c-1.2 2.784-2.424 5.04-3.672 6.768a54.264 54.264 0 0 0 2.76-.36c.48-.864.96-1.752 1.488-2.712l2.064.768c-2.088 3.744-3.864 6.504-5.304 8.256a39.178 39.178 0 0 0 4.8-1.488v2.088c-2.712.984-5.28 1.656-7.68 1.992l-.6-2.088a4.036 4.036 0 0 0 1.032-.672c.792-.792 1.776-2.136 2.976-4.032-1.248.168-2.496.336-3.792.504L399.08 8c.36-.144.696-.432.984-.864 1.296-2.064 2.4-4.344 3.36-6.888zm15.648 1.128v18.048h1.92v2.208h-14.016v-2.208h1.968V1.376h10.128zm-7.896 18.048h5.664v-3.888h-5.664v3.888zm0-6.048h5.664V9.44h-5.664v3.936zm0-6.072h5.664V3.56h-5.664v3.744zm20.28 9.96v2.232c-2.4.864-5.136 1.56-8.16 2.112l-.312-2.256c3.216-.528 6.048-1.224 8.472-2.088zm-4.32-17.04l2.184.84c-1.224 2.976-2.448 5.376-3.672 7.224a56.12 56.12 0 0 0 2.808-.36 227.87 227.87 0 0 0 1.632-3l2.04.792c-2.064 3.744-3.816 6.528-5.256 8.328a38.655 38.655 0 0 0 4.632-1.344v1.968c-2.664 1.008-5.184 1.704-7.56 2.04l-.624-2.136a3.8 3.8 0 0 0 1.056-.672c.768-.768 1.728-2.088 2.88-3.912-1.224.192-2.472.36-3.768.552l-.6-2.088c.384-.168.696-.456.984-.888 1.248-2.208 2.328-4.656 3.264-7.344zm5.472 1.344h11.184V13.28h-11.184V1.568zm8.928 9.576V3.728h-6.696v7.416h6.696zm-6.84 3.168l1.992.96c-1.152 2.784-2.496 5.184-4.056 7.2l-1.944-1.392c1.56-1.872 2.904-4.128 4.008-6.768zm6.6 0l-1.848 1.152c1.632 2.592 2.928 4.92 3.888 7.032l1.944-1.344c-.936-1.944-2.256-4.224-3.984-6.84zm23.712-4.56v5.04H453.32v1.272h12.816v6.408h-2.28v-.864H453.32v.84h-2.28V9.752h13.968zm-11.688 9.84h10.536v-1.728H453.32v1.728zm0-6.624h9.456v-1.392h-9.456v1.392zm15-6.216v4.584h-2.232V8.672h-16.176v2.664h-2.232V6.752h9.288c-.192-.48-.408-.912-.624-1.296l2.016-.336-.408-.264c1.104-1.44 1.92-2.976 2.4-4.632l2.184.48c-.144.408-.264.792-.408 1.176h6.672v1.992h-3.912c.384.528.696 1.056.96 1.536l-2.016.744a17.372 17.372 0 0 0-1.368-2.28h-1.224a15.554 15.554 0 0 1-1.368 2.208l-1.152-.744c.192.432.36.912.552 1.416h9.048zm-17.4-2.88a20.008 20.008 0 0 1-1.728 2.424L447.2 5.048c1.392-1.488 2.376-3.12 2.976-4.848l2.184.48c-.144.408-.312.816-.456 1.2h6.048v1.992h-3.6c.432.6.816 1.176 1.104 1.728l-2.088.792a21.565 21.565 0 0 0-1.392-2.52h-1.056zm28.848-2.736h12.144v11.472h-4.92v2.4h5.232v2.112h-5.232v2.496h6.072V21.8h-14.52v-2.184h6.192V17.12h-5.256v-2.112h5.256v-2.4h-4.968V1.136zm9.96 9.456V7.856h-2.736v2.736h2.736zm-4.992 0V7.856h-2.784v2.736h2.784zm-2.784-4.704h2.784V3.152h-2.784v2.736zm5.04-2.736v2.736h2.736V3.152h-2.736zm-15.504 5.88h2.376V3.896h-2.736v-2.16h7.752v2.16h-2.712v5.136h2.424v2.184h-2.424v4.8a34.825 34.825 0 0 0 2.376-.912v2.208a53.193 53.193 0 0 1-7.08 2.208l-.552-2.184a37.77 37.77 0 0 0 2.952-.624v-5.496h-2.376V9.032zM185.792 190.128v10.296h-2.256v-.84h-6.888v.84h-2.256v-10.296h11.4zm-9.144 7.272h6.888v-5.064h-6.888v5.064zm-8.688 2.808c1.584 0 2.376-.792 2.376-2.376v-6.72c.768-.384 1.56-.768 2.328-1.2v-2.304a42.62 42.62 0 0 1-2.328 1.2v-4.08h2.64v-2.184h-2.64v-4.2h-2.256v4.2h-2.88v2.184h2.88v5.016a28.35 28.35 0 0 1-3.36 1.008l.624 2.376c.912-.336 1.824-.672 2.736-1.032v5.16c0 .576-.312.864-.912.864-.6 0-1.224-.048-1.872-.12l.504 2.208h2.16zm9.768-18.912c-.312 1.464-.744 2.664-1.32 3.6-.72 1.056-1.776 2.016-3.192 2.88l1.392 1.8c1.68-1.104 2.928-2.328 3.768-3.672.648-1.152 1.176-2.688 1.584-4.608h4.032c-.048 2.544-.192 4.104-.384 4.704-.24.624-.768.936-1.584.984a52.501 52.501 0 0 0-1.872-.144l.552 1.992c.696.072 1.296.12 1.824.12 1.32 0 2.256-.456 2.832-1.368.528-.936.816-3.744.84-8.448h-12.216v2.16h3.744zm21.336-1.104h4.488v-1.728h2.088v1.728h4.488v8.592h-11.064v-8.592zm9 6.768v-1.56h-2.424v1.56h2.424zm-4.512 0v-1.56h-2.472v1.56h2.472zm-2.472-3.288h2.472v-1.632h-2.472v1.632zm4.56-1.632v1.632h2.424v-1.632h-2.424zm-7.68 7.944h13.032v1.992h-7.68l-.72 1.608h7.176c-.168 3.264-.528 5.184-1.056 5.808-.552.576-1.608.888-3.168.888a22.07 22.07 0 0 1-2.688-.168l-.72-1.944c1.104.12 2.088.192 2.952.192 1.008 0 1.656-.168 1.92-.48.216-.36.384-1.152.504-2.4h-7.728l1.32-3.504h-3.144v-1.992zm-8.664-10.848h9.168v2.112h-1.128v12.24c.336-.096.648-.216.96-.336v2.208c-.336.096-.648.216-.96.312v4.8h-2.112v-4.152c-1.824.528-3.744.984-5.712 1.416l-.528-2.184 1.368-.216v-14.088h-1.056v-2.112zm3.144 15.768c.96-.216 1.872-.456 2.784-.72v-2.952h-2.784v3.672zm0-5.736h2.784v-2.904h-2.784v2.904zm0-4.968h2.784v-2.952h-2.784v2.952zm24.168 2.64v3.504h3.36v-3.504h-3.36zm3.36-2.04v-3.552h-3.36v3.552h3.36zm-3.408 7.608c-.168 3.264-.744 5.976-1.728 8.112l-1.728-1.56c.96-2.088 1.44-4.752 1.464-7.992v-11.784h7.464v18.768c0 1.632-.744 2.448-2.208 2.448h-1.92l-.552-2.016c.672.072 1.272.12 1.848.12.504 0 .768-.432.768-1.272v-4.824h-3.408zm9.24-2.376v8.568a11.49 11.49 0 0 0 3.192-2.544 15.406 15.406 0 0 1-2.88-6.024h-.312zm0 8.64v1.824h-2.136v-21.312h10.104c0 3.12-.144 5.184-.432 6.216-.288 1.008-1.2 1.512-2.736 1.512h-2.016l-.6-1.92c.384 0 .912.024 1.584.024.504 0 .888-.048 1.128-.12.24-.072.432-.288.576-.624.144-.408.24-1.416.288-3.024h-5.76v6.768h8.112v1.92c-.432 2.352-1.152 4.368-2.16 6.024.984.936 2.136 1.776 3.432 2.544l-1.128 1.92c-1.368-.816-2.568-1.728-3.576-2.712a12.665 12.665 0 0 1-3.504 2.736l-1.176-1.776zm2.256-8.64c.48 1.56 1.2 2.976 2.184 4.248.72-1.248 1.272-2.664 1.656-4.248h-3.84zm15.888-11.808l2.328.336a14.71 14.71 0 0 1-.792 1.632h10.272v1.848c-1.44 1.656-3.192 3.096-5.232 4.296 2.568.96 5.424 1.608 8.592 1.896l-1.032 2.136c-3.72-.432-7.08-1.344-10.056-2.76-2.88 1.296-6.24 2.232-10.032 2.808l-1.056-2.136c3.216-.408 6.096-1.08 8.592-2.016a23.774 23.774 0 0 1-3.192-2.256 20.84 20.84 0 0 1-2.688 1.944l-1.392-1.824c2.808-1.608 4.704-3.576 5.688-5.904zm4.056 6.984a21.232 21.232 0 0 0 4.416-2.88h-8.424a.766.766 0 0 0-.144.168 22.501 22.501 0 0 0 4.152 2.712zm-1.728 3.864h2.256c0 .864-.072 1.68-.192 2.448h8.28c-.048 4.2-.408 6.72-1.08 7.536-.672.816-1.872 1.248-3.552 1.248-.816 0-1.824-.048-2.976-.12l-.576-2.064c1.248.048 2.256.096 3.024.144 1.224-.024 1.992-.288 2.304-.768.312-.504.504-1.824.576-3.936h-6.504a11.258 11.258 0 0 1-.744 1.632c-1.2 2.16-4.008 3.936-8.448 5.352l-1.512-1.848c3.912-1.152 6.48-2.544 7.68-4.2.192-.312.384-.624.528-.936h-6.744v-2.04h7.44c.144-.768.24-1.584.24-2.448zm407.808-12.704h-2.304c0 .912-.024 2.16-.024 3.768-.192 6.888-3.528 12.288-10.008 16.224l1.392 2.04c5.04-3.264 8.352-7.392 9.936-12.384 1.824 5.136 5.04 9.264 9.648 12.336l1.512-1.992c-5.472-3.36-8.928-8.232-10.32-14.616.096-1.488.168-3.264.168-5.376zm14.688 4.272h7.104v-1.2h-9.216v-1.944h9.216v-1.248h2.256v1.248h9.216v1.944h-9.216v1.2h7.104v4.944h-7.104v1.2h7.44v3.144h2.424v1.848h-2.424v3.144h-7.44v1.224c0 1.488-.792 2.232-2.376 2.232H672.8l-.48-2.16c.912.096 1.8.168 2.664.168.576 0 .888-.264.888-.768v-.696h-7.704v-1.824h7.704v-1.32h-9.864v-1.848h9.864v-1.368h-7.68v-1.776h7.68v-1.2h-7.104v-4.944zm14.208 3.24v-1.56h-4.848v1.56h4.848zm-7.104 0v-1.56h-4.848v1.56h4.848zm2.256 4.68v1.368h5.256v-1.368h-5.256zm5.256 3.216h-5.256v1.32h5.256v-1.32zm24.624-6.024v5.04H696.32v1.272h12.816v6.408h-2.28v-.864H696.32v.84h-2.28v-12.696h13.968zm-11.688 9.84h10.536v-1.728H696.32v1.728zm0-6.624h9.456v-1.392h-9.456v1.392zm15-6.216v4.584h-2.232v-2.664h-16.176v2.664h-2.232v-4.584h9.288c-.192-.48-.408-.912-.624-1.296l2.016-.336-.408-.264c1.104-1.44 1.92-2.976 2.4-4.632l2.184.48c-.144.408-.264.792-.408 1.176h6.672v1.992h-3.912c.384.528.696 1.056.96 1.536l-2.016.744a17.372 17.372 0 0 0-1.368-2.28h-1.224a15.554 15.554 0 0 1-1.368 2.208l-1.152-.744c.192.432.36.912.552 1.416h9.048zm-17.4-2.88a20.008 20.008 0 0 1-1.728 2.424l-1.992-1.248c1.392-1.488 2.376-3.12 2.976-4.848l2.184.48c-.144.408-.312.816-.456 1.2h6.048v1.992h-3.6c.432.6.816 1.176 1.104 1.728l-2.088.792a21.565 21.565 0 0 0-1.392-2.52h-1.056zm28.848-2.736h12.144v11.472h-4.92v2.4h5.232v2.112h-5.232v2.496h6.072v2.184h-14.52v-2.184h6.192v-2.496h-5.256v-2.112h5.256v-2.4h-4.968v-11.472zm9.96 9.456v-2.736h-2.736v2.736h2.736zm-4.992 0v-2.736h-2.784v2.736h2.784zm-2.784-4.704h2.784v-2.736h-2.784v2.736zm5.04-2.736v2.736h2.736v-2.736h-2.736zm-15.504 5.88h2.376v-5.136h-2.736v-2.16h7.752v2.16h-2.712v5.136h2.424v2.184h-2.424v4.8a34.825 34.825 0 0 0 2.376-.912v2.208a53.193 53.193 0 0 1-7.08 2.208l-.552-2.184a37.77 37.77 0 0 0 2.952-.624v-5.496h-2.376v-2.184zM653.08 353.368h-2.304c0 .912-.024 2.16-.024 3.768-.192 6.888-3.528 12.288-10.008 16.224l1.392 2.04c5.04-3.264 8.352-7.392 9.936-12.384 1.824 5.136 5.04 9.264 9.648 12.336l1.512-1.992c-5.472-3.36-8.928-8.232-10.32-14.616.096-1.488.168-3.264.168-5.376zm20.64.024v2.472l-.072 1.872h-6.936v2.184h6.768c-.288 2.736-.816 5.064-1.584 7.008-1.152 2.664-3.288 4.848-6.456 6.576l1.248 1.992c3.216-1.632 5.544-3.912 6.984-6.84 1.056-2.352 1.776-5.256 2.16-8.736h6.936c-.12 5.52-.384 9.144-.792 10.824-.384 1.608-1.2 2.424-2.424 2.424-.912 0-1.872-.024-2.88-.072l.624 2.208h3.36c1.248-.096 2.16-.648 2.736-1.656.576-1.056 1.008-2.88 1.248-5.496.24-2.664.384-6.144.48-10.416H676l.072-1.872v-2.472h-2.352zm32.4-.24l-1.44 1.392a17.975 17.975 0 0 1 2.472 2.256h-3.696a79.938 79.938 0 0 1-.096-3.528h-2.304c0 1.224 0 2.4.048 3.528h-9.888v7.992c-.072 3.912-.864 6.96-2.352 9.144l1.728 1.536c1.824-2.688 2.808-6.24 2.904-10.68v-.144h3.624c-.048 2.496-.12 4.08-.264 4.704-.144.528-.408.792-.84.816-.672 0-1.464-.048-2.424-.096l.696 2.064c.744.072 1.416.12 1.992.12 1.248-.024 2.064-.528 2.448-1.536.384-1.152.6-3.888.648-8.232h-5.88v-3.504h7.728c.168 2.928.504 5.352 1.032 7.296.264 1.008.552 1.944.888 2.808a15.508 15.508 0 0 1-5.832 4.488l1.296 1.92c2.112-.936 3.984-2.304 5.592-4.104.312.576.648 1.104 1.032 1.584 1.152 1.416 2.256 2.136 3.312 2.136 1.152 0 2.04-1.68 2.64-4.992l-2.064-1.104c-.312 2.352-.624 3.528-.936 3.528-.384 0-.96-.552-1.68-1.608a11.517 11.517 0 0 1-.792-1.464c1.488-2.16 2.688-4.8 3.648-7.872l-2.088-.888c-.672 2.28-1.512 4.296-2.52 6.072-.12-.384-.24-.792-.336-1.2-.408-1.56-.696-3.768-.864-6.6h7.152V356.8h-2.88l1.104-1.104c-.768-.864-1.704-1.704-2.808-2.544zm7.536 4.392v2.184h7.392c-1.728 3.984-4.488 7.272-8.28 9.816l1.32 2.136c4.08-3.12 7.008-7.104 8.736-11.952h.024v8.832h-4.752v2.184h4.752v4.728h2.304v-4.728h4.944v-2.184h-4.944v-8.832h.024c1.608 4.296 4.416 8.184 8.424 11.64l1.56-1.968c-3.888-2.832-6.624-6.072-8.208-9.672h7.368v-2.184h-9.168v-4.152h-2.304v4.152h-9.192zM168.424 362h4.176v-4.752h2.28V362h6.24v-4.656h2.28V362h4.2v2.208h-4.2v5.208h5.376v2.232h-21.552v-2.232h5.376v-5.208h-4.176V362zm6.456 7.416h6.24v-5.208h-6.24v5.208zm-.504 2.664c-1.944 2.04-4.344 3.816-7.2 5.352l1.584 2.064c2.904-1.68 5.352-3.624 7.344-5.856l-1.728-1.56zm7.464.048l-1.656 1.608c2.928 2.064 5.208 3.96 6.84 5.736l1.824-1.824c-1.92-1.824-4.248-3.648-7.008-5.52zm12.744-9.816h14.856v5.208h-14.856v-5.208zm12.648 3.264v-1.344h-10.44v1.344h10.44zm-5.184-8.304l-2.64.408c.36.432.696.912 1.008 1.44h-8.904v2.136h20.976v-2.136h-9.48a18.86 18.86 0 0 0-.96-1.848zm-11.064 15.864v2.064h10.32v1.128c0 .816-.384 1.248-1.104 1.248-.744 0-1.752-.072-3.024-.168l.6 2.064h3.336c1.608 0 2.424-.84 2.424-2.496V375.2h9.48v-2.064h-9.48v-.12c2.592-1.008 4.896-1.944 6.864-2.808V368.6h-17.088v2.016h12.528l-4.536 1.824v.696h-10.32zm27.624-7.296v3.504h3.36v-3.504h-3.36zm3.36-2.04v-3.552h-3.36v3.552h3.36zm-3.408 7.608c-.168 3.264-.744 5.976-1.728 8.112l-1.728-1.56c.96-2.088 1.44-4.752 1.464-7.992v-11.784h7.464v18.768c0 1.632-.744 2.448-2.208 2.448h-1.92l-.552-2.016c.672.072 1.272.12 1.848.12.504 0 .768-.432.768-1.272v-4.824h-3.408zm9.24-2.376v8.568a11.49 11.49 0 0 0 3.192-2.544 15.406 15.406 0 0 1-2.88-6.024h-.312zm0 8.64v1.824h-2.136v-21.312h10.104c0 3.12-.144 5.184-.432 6.216-.288 1.008-1.2 1.512-2.736 1.512h-2.016l-.6-1.92c.384 0 .912.024 1.584.024.504 0 .888-.048 1.128-.12.24-.072.432-.288.576-.624.144-.408.24-1.416.288-3.024h-5.76v6.768h8.112v1.92c-.432 2.352-1.152 4.368-2.16 6.024.984.936 2.136 1.776 3.432 2.544l-1.128 1.92c-1.368-.816-2.568-1.728-3.576-2.712a12.665 12.665 0 0 1-3.504 2.736l-1.176-1.776zm2.256-8.64c.48 1.56 1.2 2.976 2.184 4.248.72-1.248 1.272-2.664 1.656-4.248h-3.84zm15.888-11.808l2.328.336a14.71 14.71 0 0 1-.792 1.632h10.272v1.848c-1.44 1.656-3.192 3.096-5.232 4.296 2.568.96 5.424 1.608 8.592 1.896l-1.032 2.136c-3.72-.432-7.08-1.344-10.056-2.76-2.88 1.296-6.24 2.232-10.032 2.808l-1.056-2.136c3.216-.408 6.096-1.08 8.592-2.016a23.774 23.774 0 0 1-3.192-2.256 20.84 20.84 0 0 1-2.688 1.944l-1.392-1.824c2.808-1.608 4.704-3.576 5.688-5.904zm4.056 6.984a21.232 21.232 0 0 0 4.416-2.88h-8.424a.766.766 0 0 0-.144.168 22.501 22.501 0 0 0 4.152 2.712zm-1.728 3.864h2.256c0 .864-.072 1.68-.192 2.448h8.28c-.048 4.2-.408 6.72-1.08 7.536-.672.816-1.872 1.248-3.552 1.248-.816 0-1.824-.048-2.976-.12l-.576-2.064c1.248.048 2.256.096 3.024.144 1.224-.024 1.992-.288 2.304-.768.312-.504.504-1.824.576-3.936h-6.504a11.258 11.258 0 0 1-.744 1.632c-1.2 2.16-4.008 3.936-8.448 5.352l-1.512-1.848c3.912-1.152 6.48-2.544 7.68-4.2.192-.312.384-.624.528-.936h-6.744v-2.04h7.44c.144-.768.24-1.584.24-2.448zM401.6 491.552h6.24v-2.28h2.256v2.28h5.328v1.176a35.716 35.716 0 0 0 2.52-2.952l1.68 1.272a31.283 31.283 0 0 1-4.224 4.68h5.208v2.16h-7.848a50.528 50.528 0 0 1-3.024 1.992h9.552v2.04H407.36l-.672 1.992h11.448c-.168 3.504-.552 5.568-1.128 6.24-.576.624-1.728.96-3.456.96-1.128 0-2.136-.072-3-.168l-.744-1.992c1.224.096 2.304.168 3.264.168 1.176 0 1.92-.192 2.232-.528.24-.384.432-1.296.576-2.688H404l1.032-3.648a48.902 48.902 0 0 1-5.28 1.92l-.912-2.04c3.744-1.104 7.056-2.52 9.984-4.248h-9v-2.16h8.016v-2.088h-6.24v-2.088zm10.416 4.176a35.407 35.407 0 0 0 2.472-2.088h-4.392v2.088h1.92zm25.68-6.336h2.208v4.32h4.392c0 8.016-.12 12.984-.36 14.88-.24 1.776-1.296 2.688-3.192 2.688-.336 0-.96-.048-1.824-.12l-.528-2.088c.744.048 1.416.096 1.992.096.816 0 1.296-.552 1.44-1.632.144-1.152.24-5.04.288-11.664h-2.28c-.312 7.008-1.92 12.24-4.8 15.648l-1.704-1.488.12-.168c-2.064.312-5.328.6-9.744.84l-.312-2.112c1.776-.048 3.408-.096 4.872-.168v-1.392h-4.032v-1.776h4.032v-1.128h-4.488v-1.776h4.488v-1.08h-4.152v-4.776h4.152v-1.032h-2.592v-2.736h-2.688v-2.016h2.688v-1.32h2.088v1.32h3.216v-1.32h2.088v1.32h2.52v2.016h-2.52v2.736H430.4v1.032h4.128v4.776H430.4v1.08h4.488v1.776H430.4v1.128h3.792v1.776H430.4v1.272c1.296-.096 2.424-.216 3.432-.312v1.368c2.256-3.072 3.528-7.584 3.816-13.488h-2.472v-2.16h2.52v-4.32zm-9.936 3.336v1.104h3.216v-1.104h-3.216zm4.848 6.816v-1.32H430.4v1.32h2.208zm-4.344 0v-1.32h-2.232v1.32h2.232zm36.744-.792v5.04H453.32v1.272h12.816v6.408h-2.28v-.864H453.32v.84h-2.28v-12.696h13.968zm-11.688 9.84h10.536v-1.728H453.32v1.728zm0-6.624h9.456v-1.392h-9.456v1.392zm15-6.216v4.584h-2.232v-2.664h-16.176v2.664h-2.232v-4.584h9.288c-.192-.48-.408-.912-.624-1.296l2.016-.336-.408-.264c1.104-1.44 1.92-2.976 2.4-4.632l2.184.48c-.144.408-.264.792-.408 1.176h6.672v1.992h-3.912c.384.528.696 1.056.96 1.536l-2.016.744a17.372 17.372 0 0 0-1.368-2.28h-1.224a15.554 15.554 0 0 1-1.368 2.208l-1.152-.744c.192.432.36.912.552 1.416h9.048zm-17.4-2.88a20.008 20.008 0 0 1-1.728 2.424l-1.992-1.248c1.392-1.488 2.376-3.12 2.976-4.848l2.184.48c-.144.408-.312.816-.456 1.2h6.048v1.992h-3.6c.432.6.816 1.176 1.104 1.728l-2.088.792a21.565 21.565 0 0 0-1.392-2.52h-1.056zm28.848-2.736h12.144v11.472h-4.92v2.4h5.232v2.112h-5.232v2.496h6.072v2.184h-14.52v-2.184h6.192v-2.496h-5.256v-2.112h5.256v-2.4h-4.968v-11.472zm9.96 9.456v-2.736h-2.736v2.736h2.736zm-4.992 0v-2.736h-2.784v2.736h2.784zm-2.784-4.704h2.784v-2.736h-2.784v2.736zm5.04-2.736v2.736h2.736v-2.736h-2.736zm-15.504 5.88h2.376v-5.136h-2.736v-2.16h7.752v2.16h-2.712v5.136h2.424v2.184h-2.424v4.8a34.825 34.825 0 0 0 2.376-.912v2.208a53.193 53.193 0 0 1-7.08 2.208l-.552-2.184a37.77 37.77 0 0 0 2.952-.624v-5.496h-2.376v-2.184z" fill="#DD3730"/><path d="M317.34 38.96h4.58v-1.28h1.4v1.28h5.36v-1.28h1.4v1.28h4.58v1.26h-4.58v1.52h-1.4v-1.52h-5.36v1.44h-1.4v-1.44h-4.58v-1.26zm1.58 2.52c1.3.72 2.38 1.46 3.26 2.22l-.98 1c-.8-.72-1.9-1.48-3.28-2.28l1-.94zm-.74 4.06l-1 .94c1.42.8 2.54 1.56 3.36 2.24l1-.98c-.92-.74-2.04-1.48-3.36-2.2zm1.82 4.3c-.82 1.78-1.78 3.52-2.88 5.24l1.4.62c1-1.68 1.9-3.46 2.7-5.38l-1.22-.48zm12.74.14v6.06h-1.34v-.84h-6.24v.84h-1.34v-5.96c-.48.16-.96.3-1.44.46l-.84-1.12c2.18-.6 4.04-1.3 5.6-2.12-.84-.62-1.56-1.28-2.14-1.98-.72.68-1.54 1.28-2.46 1.84l-.82-1.08c2.28-1.32 3.84-2.94 4.64-4.86l1.32.24c-.18.46-.4.9-.64 1.32h5.82v1.02c-.78 1.32-1.88 2.48-3.32 3.48 1.6.82 3.5 1.46 5.74 1.9l-.82 1.18c-2.42-.52-4.46-1.28-6.14-2.28-1.24.72-2.64 1.34-4.2 1.9h8.62zm-6.9-5.54c.68.82 1.52 1.54 2.5 2.16 1.18-.78 2.14-1.64 2.88-2.58h-5.02c-.12.16-.24.3-.36.42zm-.68 9.5h6.24v-2.7h-6.24v2.7zm29.3-12.42c0 4.04-.1 6.5-.3 7.38-.2.84-1.06 1.28-2.56 1.28h-.12l-.4-1.42c.3.02.58.04.82.04.54 0 .88-.22 1-.66.1-.42.16-2 .18-4.72l-2.92.88v7.56h-1.4v-7.14l-2.92.88v7.76c0 .6.34.92 1.04.92h5.62c.42 0 .72-.14.88-.4.22-.32.38-1.3.46-2.92l1.34.42c-.14 2.02-.4 3.24-.8 3.68-.34.38-.88.58-1.62.58h-6.32c-1.34 0-2-.68-2-2v-7.62l-1.68.52v-1.4l1.68-.52V39.7h1.4v4.48l2.92-.9v-5.62h1.4v5.18l4.3-1.32zm-11.44 8.5v1.42a35.29 35.29 0 0 1-5.94 2.14l-.36-1.44c.84-.18 1.68-.4 2.52-.64v-7.12h-2.28v-1.4h2.28v-5.16h1.42v5.16h2.08v1.4h-2.08v6.64c.8-.3 1.6-.64 2.36-1zm17.26-12.28h1.4v3.46h4v1.32h-4v3.72h3.1v7.54h-5.76v1.48h-1.38v-9.02h2.64v-8.5zm-1.26 14.72h4.38v-4.9h-4.38v4.9zm15.52-10.34l.2 1.32-5.46.98c.12 1.44.3 2.66.5 3.62.12.62.26 1.2.42 1.72 1.08-1.32 2.04-2.86 2.88-4.6l1.12.76c-1.08 2.1-2.26 3.88-3.52 5.34.22.54.44 1.02.68 1.42.56.96 1.02 1.44 1.36 1.44.44-.02.82-1.06 1.14-3.14l1.18.64c-.48 2.72-1.18 4.08-2.08 4.08-.76 0-1.54-.6-2.38-1.8-.32-.46-.62-1-.88-1.6-1.44 1.4-2.98 2.44-4.6 3.1l-.82-1.1c1.82-.78 3.44-1.9 4.88-3.38-.26-.76-.48-1.6-.68-2.5-.26-1.08-.46-2.32-.58-3.74l-2.76.5-.22-1.32 2.86-.52c-.12-1.68-.18-3.54-.18-5.62h1.4c0 2.02.06 3.82.18 5.38l5.36-.98zm-3.3-4c1 1.08 1.78 2 2.34 2.8l-1.06.74c-.56-.88-1.32-1.84-2.3-2.9l1.02-.64zm22.44 10.36v7.42h-1.4v-.88h-5v.88h-1.4v-7.42h7.8zm-6.4 5.18h5v-3.84h-5v3.84zm-8.42-.28v.92h-1.3V39.08h6.64v8.26c1.84-.72 3.38-1.58 4.64-2.56-.84-.8-1.56-1.66-2.12-2.56-.48.66-1 1.26-1.56 1.8l-.94-1.1c1.4-1.34 2.54-3.08 3.44-5.24l1.42.3c-.24.54-.46 1.04-.68 1.52h5.42v1.1c-.68 1.6-1.68 3.02-2.96 4.26 1.24.9 2.7 1.68 4.42 2.34l-.62 1.28c-1.86-.82-3.44-1.74-4.76-2.78-1.4 1.1-3.06 2.04-4.98 2.84l-.72-.96v6.72h-1.24v-.92h-4.1zm4.1-1.28v-5.3h-1.48v5.3h1.48zm0-6.56V40.4h-1.48v5.14h1.48zm-2.64-5.14h-1.46v5.14h1.46V40.4zm-1.46 6.4v5.3h1.46v-5.3h-1.46zm10.92-2.82c1-.96 1.8-2 2.4-3.12h-4.54c-.08.1-.14.2-.18.3.6 1.04 1.36 1.98 2.32 2.82zm23.2-5.22v17.22h-1.46v-1.3h-11.04v1.3h-1.46V38.76h13.96zm-12.5 14.52h11.04v-3.46h-11.04v3.46zm0-4.82h11.04v-3.5h-11.04v3.5zm0-4.86h11.04v-3.44h-11.04v3.44zm19.34-5.88h1.42v3.78h2.32v1.38h-2.32v1.54c.98 1 1.96 2.12 2.94 3.34l-.82 1.22c-.82-1.26-1.52-2.26-2.12-3.02v10.02h-1.42v-9.96c-.64 1.88-1.46 3.6-2.46 5.16l-.62-1.56c1.44-1.96 2.46-4.22 3.08-6.74h-2.44V41.5h2.44v-3.78zm5.9 9.04l1.32.3c-.64 2.8-1.58 5.2-2.78 7.24l-1.24-.8c1.24-2.02 2.14-4.26 2.7-6.74zm7.24-.1c.84 2.26 1.56 4.68 2.16 7.24l-1.3.58c-.66-2.78-1.38-5.24-2.16-7.4l1.3-.42zm-4.48 9.12h-2.04l-.28-1.34c.64.04 1.24.08 1.82.08.54 0 .82-.3.82-.88V45.1h-4.88v-1.38h11.22v1.38h-4.9V54c0 1.18-.6 1.78-1.76 1.78zm-3.5-16.92v1.36h9.12v-1.36h-9.12zm14.66 12.78c-.36 0-.64.1-.88.32-.24.2-.34.5-.34.88 0 .34.1.62.34.84.24.2.52.32.88.32.12 0 .24-.02.32-.04-.08 1.04-.64 1.9-1.68 2.58l.54.86c1.5-.82 2.26-2.1 2.26-3.82 0-1.3-.48-1.94-1.44-1.94zm25.58-13.98h1.48v2.62h7.86v1.4h-7.86v3.06h5.38v1.28c-1.12 2.24-2.74 4.16-4.86 5.76 1 .56 2.1 1.1 3.3 1.58 1.42.54 2.94 1 4.56 1.4l-.84 1.26c-1.72-.46-3.36-1.02-4.9-1.66-1.22-.52-2.34-1.1-3.34-1.74-2.28 1.44-5 2.58-8.18 3.44l-.82-1.28c3.04-.72 5.64-1.72 7.8-3-1.04-.78-1.96-1.68-2.74-2.68a9.061 9.061 0 0 1-1.56-3.02h-1.54v-1.34h6.26v-3.06h-7.78v-1.4h7.78v-2.62zm.76 13.34c1.94-1.36 3.44-3 4.48-4.92h-8.54c.36 1.06.92 2 1.68 2.82.7.8 1.5 1.5 2.38 2.1zm22.6-13.28v2.08h-3.92v1.3h3.92v2.34h-4.64v1.36h10.92v-1.36H490V41.1h4.1v-1.3H490v-2.08h-1.42zm-4.96 9.64h7.36v-1.54h1.44v1.54h2.46v1.34h-2.46v5.38c0 1.18-.6 1.78-1.76 1.78H488l-.32-1.4c.86.04 1.68.08 2.46.08.56 0 .84-.28.84-.82V48.7h-7.36v-1.34zm-4.28 8.46c1.14 0 1.72-.6 1.72-1.8v-5.68c.72-.3 1.42-.62 2.1-.98v-1.48c-.68.36-1.38.7-2.1 1.02v-4.02h2.08V41.5h-2.08v-3.58h-1.42v3.58h-2.46v1.38h2.46v4.58c-.88.32-1.76.58-2.68.8l.36 1.44c.76-.24 1.54-.5 2.32-.78v4.74c0 .58-.28.88-.8.88-.5 0-1.02-.04-1.56-.1l.3 1.38h1.76zm6.36-6.18c1.04 1.22 1.84 2.3 2.4 3.22l-1.14.8c-.6-1-1.4-2.1-2.42-3.32l1.16-.7zm12.1-10.58h7.24v1.38h-7.24v-1.38zm-.78 5.4h8.78v1.4h-4.62c-.8 3.04-1.5 5.2-2.1 6.52 1.58-.32 3.16-.78 4.72-1.36-.52-1.08-1.02-2.06-1.54-2.98l1.22-.6c.96 1.72 1.86 3.58 2.7 5.6l-1.24.64c-.2-.52-.4-1-.6-1.46-2.12.76-4.44 1.36-6.92 1.8l-.34-1.36c.14-.04.24-.08.32-.12.6-.82 1.4-3.04 2.4-6.68h-2.78v-1.4zm11.76-6.74h1.46v3.64h4.38c0 6.58-.1 10.64-.28 12.2-.2 1.48-1.12 2.24-2.72 2.24-.36 0-.96-.02-1.84-.06l-.32-1.28c.76.04 1.42.08 1.98.08.86 0 1.36-.52 1.5-1.54.14-1.12.22-4.54.26-10.26h-2.96v.36c-.04 5.92-1.44 10.24-4.2 12.98l-1.14-1c2.54-2.48 3.84-6.48 3.88-11.98v-.36h-2.48v-1.38h2.48v-3.64zm16.5-.24c-.08.8-.24 1.56-.46 2.28h-7.06v1.38h6.56c-.36.78-.8 1.48-1.36 2.08-1.26 1.32-3.32 2.36-6.16 3.08l.56 1.32c2.4-.64 4.28-1.44 5.6-2.42.96.76 1.92 1.62 2.88 2.58l1-1c-1.08-.98-2.04-1.78-2.92-2.4.06-.08.12-.14.2-.22.74-.84 1.34-1.86 1.78-3.02h.3c1 2.72 3.7 4.86 8.14 6.42l.76-1.24c-3.98-1.24-6.46-2.96-7.44-5.18h6.4v-1.38h-7.72c.16-.68.3-1.38.38-2.14l-1.44-.14zm-6.42 11.82c-.38 1.8-1 3.44-1.84 4.92l1.24.78c.86-1.52 1.54-3.32 2.02-5.4l-1.42-.3zm7.58-.72c.7 1.04 1.32 2.16 1.84 3.36l-1.32.58c-.56-1.34-1.14-2.52-1.78-3.54l1.26-.4zm5.98.42c.96 1.48 1.8 3.08 2.52 4.8l-1.32.58c-.78-1.88-1.64-3.52-2.58-4.94l1.38-.44zm-3.66 6.58h-5.08c-1.28 0-1.9-.68-1.9-2v-4.34h1.48v4.04c0 .6.28.9.88.9h4.36c.42 0 .72-.12.9-.36.24-.28.4-1.1.48-2.48l1.36.44c-.14 1.8-.42 2.88-.82 3.28-.36.34-.9.52-1.66.52zm22.52-13.66c1.52 1 2.78 2 3.82 3l-1 1c-.92-.96-2.18-2-3.78-3.08l.96-.92zm-5.08-4.5c.24.6.46 1.26.68 2h7.72v1.4h-5.52v5.4h-1.44v-5.4h-3.26v5.4h-1.44v-5.4h-5.54v-1.4h8.02c-.24-.64-.5-1.24-.78-1.76l1.56-.24zm-5.46 4.56l1.06.94c-1.08 1.14-2.42 2.16-4 3.04l-.88-1.16c1.52-.8 2.78-1.74 3.82-2.82zm-1.98 5.3h13.66v1.1c-1.32 1.64-2.94 3.04-4.86 4.18 2.16.94 4.72 1.62 7.66 2.02l-.66 1.32c-3.3-.56-6.1-1.42-8.4-2.58-2.4 1.18-5.22 2.04-8.42 2.58l-.66-1.36c2.88-.42 5.4-1.1 7.6-2.04-1.78-1.12-3.22-2.42-4.34-3.94h-1.58v-1.28zm3.18 1.28c1.08 1.28 2.46 2.38 4.12 3.28 1.72-.92 3.18-2.02 4.42-3.28h-8.54zm21-11.04l1.34.62c-.7 1.68-1.6 3.24-2.68 4.72v13.18h-1.44V44.62c-.9.98-1.88 1.92-2.94 2.8l-.46-1.5c2.84-2.44 4.9-5.24 6.18-8.4zm9.22 18.16h-3.82c-1.4 0-2.1-.72-2.1-2.12v-6.1c-.84.48-1.7.92-2.58 1.34l-.64-1.36c1.12-.52 2.2-1.06 3.22-1.66v-8.02h1.44v7.14c2.1-1.4 3.94-3 5.52-4.78l1 1.14c-1.86 2-4.04 3.78-6.52 5.34v6.76c0 .62.32.94 1 .94h3.24c.52 0 .92-.18 1.16-.5.22-.32.36-1.48.44-3.46l1.34.44c-.14 2.3-.38 3.7-.72 4.18-.36.48-1.02.72-1.98.72zM9.04 216.82v12.24c.44-.14.88-.28 1.3-.42v1.38c-2.58.92-5.6 1.78-9.04 2.54l-.4-1.38c.48-.1.94-.2 1.38-.3v-14.06h6.76zm-5.3 13.72c1.36-.34 2.64-.68 3.86-1.04v-2.64H3.74v3.68zm0-4.98H7.6v-3.1H3.74v3.1zm0-4.4H7.6v-3.02H3.74v3.02zm8.8-5.4h1.48v3.7h4.44c0 6.42-.1 10.38-.3 11.9-.22 1.62-1.28 2.44-3.18 2.44-.3 0-.8-.02-1.5-.06l-.34-1.28c.64.04 1.18.08 1.64.08 1.16 0 1.82-.58 2-1.72.12-1.08.2-4.42.24-10h-3v.18c-.06 5.96-1.46 10.32-4.22 13.1l-1.14-1.02c2.54-2.5 3.84-6.52 3.88-12.08v-.18h-2.42v-1.36h2.42v-3.7zm15.8-.04v1.84c-.02.64-.04 1.3-.08 1.94h-5.94v1.38h5.84c-.22 2.42-.68 4.5-1.36 6.22-1.04 2.34-2.86 4.22-5.46 5.62l.78 1.26c2.68-1.38 4.6-3.3 5.78-5.76.88-1.96 1.46-4.42 1.74-7.34h6.3c-.12 4.86-.34 8.02-.7 9.5-.36 1.42-1.08 2.14-2.18 2.14-.76 0-1.54-.02-2.38-.06l.4 1.4h2.7c1.02-.08 1.76-.52 2.22-1.34.48-.86.82-2.36 1.02-4.5.2-2.18.32-5.02.4-8.52h-7.68c.04-.62.06-1.26.08-1.94v-1.84h-1.48zm21.14 0h1.04c2.54 2.8 5.46 5 8.76 6.6l-.78 1.38c-3.32-1.7-6.14-3.94-8.5-6.7-2.16 2.6-5.02 4.84-8.58 6.72l-.76-1.38c3.52-1.76 6.46-3.98 8.82-6.62zm.36 5.28h1.46v4.5h5.46v1.38H51.3v4.92h6.9v1.4H41.56v-1.4h3.02v-7.92H46v7.92h3.84V221zm17.26-5.14h1.46v15.9h2.84v-15.9h1.46v15.9h6v1.4H61.14v-1.4h5.96v-15.9zm9.94 3.64l1.28.36c-.8 3.48-1.8 6.52-3.02 9.14l-1.3-.46c1.16-2.36 2.18-5.38 3.04-9.04zm-14.18-.04c1.04 2.7 1.98 5.8 2.8 9.3l-1.32.34c-.72-3.2-1.62-6.28-2.7-9.24l1.22-.4zm18.22 3.3h2.86v-7.06h1.38v7.06h2.4v1.3h-2.4v.64c1 1.04 1.98 2.2 2.98 3.46l-.82 1.22c-.84-1.42-1.56-2.56-2.16-3.44V234h-1.38v-7.7c-.66 1.76-1.54 3.38-2.66 4.82l-.62-1.56c1.48-1.62 2.56-3.46 3.2-5.5h-2.78v-1.3zm5.88-5.76l1.08.14c-.12 1.68-.44 3.18-.92 4.5l-.98-.32c.42-1.24.7-2.68.82-4.32zm-4.76.34c.3 1.22.58 2.62.84 4.2l-1 .24a42.38 42.38 0 0 0-.9-4.1l1.06-.34zm10.9-1.7v1.32h-4.28v1.18h4.28v1.34h-3.72v1.16h3.72V222h-4.74v1.2h10.8V222h-4.68v-1.36h3.6v-1.16h-3.6v-1.34h4.16v-1.18h-4.16v-1.32H93.1zm-2.28 12.6v1.42h5.82v-1.42h-5.82zm5.82-1.12v-1.48h-5.82v1.48h5.82zm-5.82 3.64v3.2h-1.36v-9.5h8.58v7.8c0 1.06-.56 1.6-1.64 1.6H95l-.36-1.28 1.36.08c.42 0 .64-.24.64-.7v-1.2h-5.82zm11.4-14.44c1.36 1.74 2.42 3.26 3.14 4.56l-1.2.82c-.76-1.38-1.82-2.92-3.16-4.62l1.22-.76zm1.94 8.7l1.3.52a83.96 83.96 0 0 1-3.08 8.32l-1.36-.58c1.2-2.7 2.26-5.46 3.14-8.26zm4.74-.5v2.74h4.14v-2.74h-4.14zm0 4.08v2.98h4.14v-2.98h-4.14zm0 4.32v1.1h-1.4v-11.8c-.58.94-1.22 1.84-1.9 2.7l-.48-1.52a22.28 22.28 0 0 0 3.68-7.78l1.38.28c-.3 1.1-.66 2.16-1.08 3.18h4.26c-.32-1.12-.7-2.18-1.16-3.2l1.38-.4c.48 1.24.84 2.38 1.1 3.4l-.54.2h4.5v1.36h-4.22v2.74h3.8v1.34h-3.8v2.74h3.84v1.34h-3.84v2.98h4.64v1.34H108.9zm4.14-12.48h-4.14v2.74h4.14v-2.74zm10.6 9.2c-.36 0-.64.1-.88.32-.24.2-.34.5-.34.88 0 .34.1.62.34.84.24.2.52.32.88.32.12 0 .24-.02.32-.04-.08 1.04-.64 1.9-1.68 2.58l.54.86c1.5-.82 2.26-2.1 2.26-3.82 0-1.3-.48-1.94-1.44-1.94zm26.62-14.1l-1.58.28c.24.46.48.96.68 1.52h-8.2v1.32h17.66v-1.32h-7.92c-.2-.66-.42-1.26-.64-1.8zm5.36 18.4h-1.68l-.34-1.3 1.6.06c.82 0 1.24-.32 1.24-.96v-5.44h-12.88v7.7h-1.38v-8.96h15.64v7c0 1.26-.74 1.9-2.2 1.9zm-11.2-13.98h11.18v3.88h-11.18v-3.88zm9.78 2.76v-1.64h-8.38v1.64h8.38zm-8.12 4.86h7.86v4h-7.86v-4zm6.58 2.92v-1.84h-5.28v1.84h5.28zm11.04-10.42l1.24.62c-.86 1.84-1.86 3.42-3 4.78l-1.16-.84c1.12-1.26 2.1-2.78 2.92-4.56zm5.26 3.72c-.92-1.16-1.82-2.14-2.72-2.98l.88-.86c.8.64 1.72 1.6 2.78 2.88l-.94.96zm-5.34 1.2c.82.64 1.6 1.32 2.36 2.02.46-.92.86-1.9 1.18-2.94l1.24.52c-.36 1.24-.82 2.4-1.36 3.44.84.82 1.64 1.66 2.4 2.54l-1.02 1.14c-.72-.86-1.44-1.64-2.12-2.36-1.24 1.88-2.8 3.38-4.72 4.48l-.88-1.28c1.86-1.02 3.38-2.44 4.56-4.26-.84-.84-1.7-1.6-2.54-2.28l.9-1.02zm2.06-9.48c.3.68.6 1.42.9 2.26h3.76v1.38h-9.26v-1.38h4.1c-.3-.72-.64-1.4-1-2.02l1.5-.24zm7.3 4.78c-.16.48-.3.96-.46 1.4.48 2.04 1.1 3.82 1.86 5.34.96-1.96 1.5-4.2 1.58-6.74h-2.98zm.62 8.1c-.74-1.44-1.36-3.04-1.86-4.8-.36.72-.76 1.36-1.16 1.96l-.92-1.1c1.4-2.2 2.36-5.16 2.84-8.9l1.44.24c-.16 1.12-.36 2.14-.58 3.1h5.62v1.4h-1.7c-.12 3.18-.82 5.9-2.12 8.18 1.14 1.84 2.52 3.26 4.12 4.24l-.84 1.26c-1.6-1.02-2.96-2.44-4.08-4.24-1.26 1.72-2.9 3.16-4.9 4.3l-.82-1.3c2.12-1.12 3.78-2.56 4.96-4.34zm18.76-12.56h1.3c1.06 2.38 2.88 4.46 5.48 6.26l-.78 1.2c-2.4-1.64-4.2-3.64-5.36-6.02-.98 1.96-2.14 3.6-3.5 4.92h7.16v4.96c-.02 1.1-.58 1.68-1.66 1.74-.76 0-1.48-.04-2.16-.08l-.36-1.32c.72.06 1.4.1 2.02.1.5 0 .76-.3.76-.86v-3.26h-4.48v7.82c0 .68.32 1.02.96 1.02h3.8c.86 0 1.4-.18 1.62-.54.2-.42.38-1.24.5-2.44l1.34.44c-.18 1.82-.48 2.94-.88 3.36-.38.34-1.12.52-2.2.52h-4.72c-1.24 0-1.86-.64-1.86-1.88v-9.42c-.54.48-1.08.92-1.6 1.3l-.76-1.2c2.32-1.7 4.1-3.9 5.38-6.62zm-5.06 7.74v1.44c-.72.38-1.42.72-2.14 1.04v5.92c0 1.2-.6 1.8-1.78 1.8h-1.76l-.3-1.38c.54.04 1.06.08 1.56.08.54 0 .82-.3.82-.88v-4.92c-.88.34-1.76.66-2.64.94l-.36-1.36c1.04-.26 2.04-.58 3-.96v-4.42h-2.6v-1.38h2.6v-3.78h1.46v3.78h1.94v1.38h-1.94v3.8c.72-.34 1.44-.7 2.14-1.1zm14.66-5.84h6.78c.22-.64.38-1.32.48-2.06h1.4c-.1.74-.24 1.42-.42 2.06h7.9v1.34h-6.68c1.54 2 4.02 3.32 7.44 3.94l-.64 1.26c-3.88-.8-6.66-2.54-8.3-5.2h-.22c-.42.88-.94 1.66-1.56 2.3-1.28 1.28-3.42 2.26-6.42 2.98l-.54-1.28c2.68-.6 4.64-1.46 5.84-2.58.44-.42.8-.9 1.12-1.42h-6.18v-1.34zm-.68 7.88h11.94v-1.78h1.44v1.78h4.08v1.4h-4.08v5.08c0 1.18-.58 1.78-1.72 1.78h-2.82l-.32-1.42c.92.06 1.8.1 2.64.1.52 0 .78-.28.78-.8v-4.74h-11.94v-1.4zm3.88 2.18c1.52 1.12 2.8 2.24 3.84 3.36l-1.02 1.02c-.92-1.08-2.2-2.22-3.8-3.44l.98-.94zm25.56-12.1h-1.46c0 .76-.02 1.82-.04 3.18-.18 5.76-3.02 10.34-8.52 13.72l.88 1.28c4.44-2.86 7.28-6.46 8.48-10.82 1.42 4.52 4.18 8.12 8.26 10.8l.94-1.26c-4.66-2.86-7.56-7.02-8.68-12.46.08-1.24.14-2.72.14-4.44zm21.02 18.14c1.2 0 1.82-.66 1.82-1.96v-11.16h5.02v-1.38h-5.02v-3.66h-1.46v3.66h-10.98v1.38H250c-1.86 3.68-4.94 6.7-9.22 9.06l.76 1.22c4.68-2.66 7.98-6.08 9.9-10.28h.66v10.8c0 .66-.3 1-.86 1-.94 0-1.92-.04-2.96-.08l.32 1.4h3.14zm396.18-11.82c3.44-.2 6.64-.46 9.58-.8.32.52.64 1.02.92 1.52l1.18-.84c-.72-1.24-1.74-2.66-3.1-4.3l-1.18.7c.48.6.92 1.18 1.36 1.76-2.28.28-4.56.48-6.86.6.72-.78 1.54-2 2.48-3.66h7.3v-1.3h-5.26c-.28-.84-.56-1.6-.88-2.28l-1.46.24c.32.62.62 1.3.9 2.04h-5.58v1.3h3.5c-1.2 1.98-2.16 3.2-2.92 3.68-.08.04-.18.08-.3.12l.32 1.22zm-4.3-8.08l-1.04 1c1.32.92 2.34 1.78 3.1 2.6l1.02-1.02c-.84-.86-1.86-1.72-3.08-2.58zm-.48 4.78l-1.02 1c1.34 1.04 2.4 2.02 3.16 2.94l1.02-1.04c-.84-.96-1.9-1.94-3.16-2.9zm2.04 5.32l1.28.5c-.8 2.56-1.66 4.96-2.62 7.2l-1.34-.58a63.45 63.45 0 0 0 2.68-7.12zm6.82-1.1v8.66h1.46v-8.66H652zm-3.24-.02h1.4c-.08 2.62-.34 4.54-.78 5.76-.48 1.28-1.3 2.38-2.42 3.3l-.92-1.14c.96-.78 1.64-1.7 2.04-2.78.38-1.06.6-2.78.68-5.14zm9.52 8.88c.8-.04 1.3-.26 1.54-.62.24-.4.36-1.48.36-3.24l-1.26-.48c0 1.06-.04 1.84-.12 2.32-.04.44-.24.66-.6.7h-.88c-.26-.04-.38-.2-.38-.5v-7.04h-1.38v7.3c0 1.04.56 1.56 1.72 1.56h1zm12.14-17.4h8.3v5.78h-8.3v-5.78zm6.9 4.48v-3.2h-5.48v3.2h5.48zm-7.68 3.16h9.94v1.32h-4.36v2.56h3.74v1.3h-3.74v2.7h4.84v1.36h-11.22v-1.36h4.9v-2.7h-3.64v-1.3h3.64v-2.56h-4.1v-1.32zm-7.48-2.9h2.92v-2.9c-.84.12-1.72.24-2.62.34l-.28-1.36c2.5-.24 4.72-.66 6.64-1.26l.5 1.36c-.9.26-1.86.48-2.86.68v3.14h2.58v1.38h-2.58v1.06c.94.92 1.9 1.96 2.86 3.1l-.8 1.2c-.8-1.24-1.5-2.24-2.06-2.98v9.02h-1.38v-9.02c-.7 1.96-1.62 3.72-2.76 5.3l-.62-1.6c1.52-1.78 2.6-3.8 3.24-6.08h-2.78v-1.38zm29.6 10.86h8.48v1.36h-9.88v-16.78h9.62v1.36h-8.22V230zm1.58-11.8c1.02 1.24 1.98 2.48 2.86 3.72.64-1.54 1.14-3.2 1.5-4.96l1.26.24c-.46 2.24-1.08 4.22-1.88 5.98.98 1.44 1.88 2.86 2.68 4.26l-1 1c-.68-1.28-1.44-2.6-2.32-3.92-.86 1.6-1.86 2.98-3.02 4.14l-.9-1.1c1.2-1.24 2.22-2.68 3.06-4.3a74.83 74.83 0 0 0-3.18-4.18l.94-.88zm-6.14-2.3h-5.1v-1.32h6.54l-.96 8.22h1.5c0 4.56-.22 7.2-.62 7.9-.4.68-1.28 1.04-2.64 1.04-.5 0-1.02-.02-1.56-.06l-.38-1.28c.78.08 1.32.12 1.64.12 1.04 0 1.68-.32 1.9-.92.2-.64.3-2.46.3-5.48h-5.4l.94-6.88 1.34.08-.8 5.48h2.4l.9-6.9zm-.44 10v1.3c-1.44.44-3.08.8-4.92 1.08l-.18-1.38c1.94-.24 3.64-.58 5.1-1zm16.04-10.84h7.24v1.38h-7.24v-1.38zm-.78 5.4h8.78v1.4h-4.62c-.8 3.04-1.5 5.2-2.1 6.52 1.58-.32 3.16-.78 4.72-1.36-.52-1.08-1.02-2.06-1.54-2.98l1.22-.6c.96 1.72 1.86 3.58 2.7 5.6l-1.24.64c-.2-.52-.4-1-.6-1.46-2.12.76-4.44 1.36-6.92 1.8l-.34-1.36c.14-.04.24-.08.32-.12.6-.82 1.4-3.04 2.4-6.68h-2.78v-1.4zm11.76-6.74h1.46v3.64h4.38c0 6.58-.1 10.64-.28 12.2-.2 1.48-1.12 2.24-2.72 2.24-.36 0-.96-.02-1.84-.06l-.32-1.28c.76.04 1.42.08 1.98.08.86 0 1.36-.52 1.5-1.54.14-1.12.22-4.54.26-10.26h-2.96v.36c-.04 5.92-1.44 10.24-4.2 12.98l-1.14-1c2.54-2.48 3.84-6.48 3.88-11.98v-.36h-2.48v-1.38h2.48v-3.64zm15.3 3.4v13.64h-1.4v-1.14h-3.64v1.72h-1.4v-14.22h1.86c.4-1.12.68-2.28.86-3.48l1.44.2c-.24 1.18-.54 2.28-.94 3.28h3.22zm-5.04 11.16h3.64v-4.38h-3.64v4.38zm0-5.68h3.64v-4.12h-3.64v4.12zm8.52-.84c1.44 1.66 2.52 3.12 3.28 4.36l-1.14.8c-.82-1.32-1.92-2.8-3.3-4.44l1.16-.72zm6.86-4.62c0 6.64-.1 10.76-.3 12.32-.2 1.52-1.12 2.3-2.8 2.3-.4 0-1.08-.04-2.04-.08l-.34-1.32c.84.04 1.56.06 2.18.06.94 0 1.48-.52 1.64-1.54.12-1.12.2-4.58.24-10.34h-5.5c-.56 1.26-1.22 2.4-2 3.42l-.86-1.14c1.4-1.96 2.34-4.36 2.86-7.2l1.42.18c-.24 1.18-.52 2.3-.88 3.34h6.38zm12.3-3.44h-1.46c0 .76-.02 1.82-.04 3.18-.18 5.76-3.02 10.34-8.52 13.72l.88 1.28c4.44-2.86 7.28-6.46 8.48-10.82 1.42 4.52 4.18 8.12 8.26 10.8l.94-1.26c-4.66-2.86-7.56-7.02-8.68-12.46.08-1.24.14-2.72.14-4.44zm12.64 3.58h5.92v-1.24h-7.84v-1.24h7.84v-1.2h1.44v1.2h7.84v1.24h-7.84v1.24h5.92v3.9h-5.92v1.24h6.2v2.7h2.18v1.18h-2.18v2.62h-6.2v1.32c0 1.12-.6 1.68-1.78 1.68h-2.46l-.3-1.36c.8.06 1.56.1 2.28.1.54 0 .82-.26.82-.76v-.98h-6.58v-1.16h6.58v-1.46h-8.38v-1.18h8.38v-1.54h-6.58v-1.16h6.58v-1.24h-5.92v-3.9zm11.84 2.8v-1.7h-4.48v1.7h4.48zm-5.92 0v-1.7h-4.48v1.7h4.48zm1.44 3.5v1.54h4.82v-1.54h-4.82zm4.82 2.72h-4.82v1.46h4.82v-1.46zm11.56-12.44h1.46v15.9h2.84v-15.9h1.46v15.9h6v1.4h-17.72v-1.4h5.96v-15.9zm9.94 3.64l1.28.36c-.8 3.48-1.8 6.52-3.02 9.14l-1.3-.46c1.16-2.36 2.18-5.38 3.04-9.04zm-14.18-.04c1.04 2.7 1.98 5.8 2.8 9.3l-1.32.34c-.72-3.2-1.62-6.28-2.7-9.24l1.22-.4zm24.02-3.86l1.46.2c-.22.54-.48 1.04-.76 1.52h8.72v1.16c-1.28 1.48-2.84 2.74-4.68 3.78 2.26.96 4.78 1.58 7.56 1.86l-.66 1.34c-3.16-.36-5.98-1.16-8.46-2.4-2.44 1.12-5.3 1.94-8.54 2.44l-.66-1.36c2.9-.4 5.44-1.04 7.64-1.92a20.69 20.69 0 0 1-3.12-2.26c-.76.68-1.58 1.3-2.5 1.86l-.88-1.16c2.4-1.38 4.04-3.06 4.88-5.06zm3.16 5.92c1.62-.8 3.02-1.76 4.2-2.84h-7.64l-.26.32c1.12.98 2.36 1.82 3.7 2.52zm-1.22 2.98h1.42c0 .8-.08 1.56-.2 2.28h7.04c-.04 3.38-.34 5.4-.92 6.06-.58.66-1.58 1-3 1-.64 0-1.42-.04-2.34-.08l-.36-1.3 2.36.1c1.2-.02 1.94-.28 2.26-.76.3-.48.48-1.72.54-3.72h-5.92c-.16.52-.38 1.02-.64 1.5-1.02 1.8-3.36 3.3-7.04 4.46l-.96-1.18c3.28-.96 5.46-2.18 6.5-3.64.24-.36.46-.74.62-1.14h-5.96v-1.3h6.36c.16-.72.24-1.48.24-2.28zm21.44-8.96l-1.58.28c.24.46.48.96.68 1.52h-8.2v1.32h17.66v-1.32h-7.92c-.2-.66-.42-1.26-.64-1.8zm5.36 18.4h-1.68l-.34-1.3 1.6.06c.82 0 1.24-.32 1.24-.96v-5.44h-12.88v7.7h-1.38v-8.96h15.64v7c0 1.26-.74 1.9-2.2 1.9zm-11.2-13.98h11.18v3.88h-11.18v-3.88zm9.78 2.76v-1.64h-8.38v1.64h8.38zm-8.12 4.86h7.86v4h-7.86v-4zm6.58 2.92v-1.84h-5.28v1.84h5.28zm11.04-10.42l1.24.62c-.86 1.84-1.86 3.42-3 4.78l-1.16-.84c1.12-1.26 2.1-2.78 2.92-4.56zm5.26 3.72c-.92-1.16-1.82-2.14-2.72-2.98l.88-.86c.8.64 1.72 1.6 2.78 2.88l-.94.96zm-5.34 1.2c.82.64 1.6 1.32 2.36 2.02.46-.92.86-1.9 1.18-2.94l1.24.52c-.36 1.24-.82 2.4-1.36 3.44.84.82 1.64 1.66 2.4 2.54l-1.02 1.14c-.72-.86-1.44-1.64-2.12-2.36-1.24 1.88-2.8 3.38-4.72 4.48l-.88-1.28c1.86-1.02 3.38-2.44 4.56-4.26-.84-.84-1.7-1.6-2.54-2.28l.9-1.02zm2.06-9.48c.3.68.6 1.42.9 2.26h3.76v1.38h-9.26v-1.38h4.1c-.3-.72-.64-1.4-1-2.02l1.5-.24zm7.3 4.78c-.16.48-.3.96-.46 1.4.48 2.04 1.1 3.82 1.86 5.34.96-1.96 1.5-4.2 1.58-6.74h-2.98zm.62 8.1c-.74-1.44-1.36-3.04-1.86-4.8-.36.72-.76 1.36-1.16 1.96l-.92-1.1c1.4-2.2 2.36-5.16 2.84-8.9l1.44.24c-.16 1.12-.36 2.14-.58 3.1h5.62v1.4h-1.7c-.12 3.18-.82 5.9-2.12 8.18 1.14 1.84 2.52 3.26 4.12 4.24l-.84 1.26c-1.6-1.02-2.96-2.44-4.08-4.24-1.26 1.72-2.9 3.16-4.9 4.3l-.82-1.3c2.12-1.12 3.78-2.56 4.96-4.34zm11.22-12.76l1.42.24c-.18 1-.38 1.94-.62 2.86h4.48v1.28c-.54 3.5-1.56 6.44-3.08 8.8.48.74.98 1.3 1.54 1.7 1.56 1.1 4.04 1.66 7.42 1.7 1.04 0 2.08-.04 3.16-.1l-.28 1.5h-2.2c-4.12 0-7.1-.7-8.94-2.06-.56-.42-1.06-.96-1.52-1.6-1.24 1.56-2.68 2.84-4.36 3.84l-.78-1.36c1.72-1 3.16-2.3 4.3-3.88-.66-1.26-1.24-2.8-1.74-4.62-.52.94-1.1 1.78-1.7 2.52l-.98-1.22c1.92-2.38 3.2-5.58 3.88-9.6zm-.36 6.56c.52 2.06 1.08 3.76 1.72 5.1 1.18-2.02 2.02-4.42 2.5-7.18h-3.46c-.24.74-.5 1.44-.76 2.08zm8.32-6.44h1.46v5.08c1.64 1.18 3.3 2.54 5 4.08l-.86 1.28c-1.62-1.64-3-2.94-4.14-3.86v8.32h-1.46v-14.9zm15.54.7h9.78v9.24h-4.16v2.36h4.5v1.36h-4.5v2.6h5.24v1.38h-12.04v-1.38h5.36v-2.6h-4.52v-1.36h4.52v-2.36h-4.18v-9.24zm8.4 7.96v-2.7h-2.78v2.7h2.78zm-4.22 0v-2.7h-2.8v2.7h2.8zm-2.8-3.96h2.8v-2.72h-2.8v2.72zm4.24-2.72v2.72h2.78v-2.72h-2.78zm-12.68 5.34h2.18v-4.74h-2.46v-1.36h6.38v1.36h-2.44v4.74h2.2v1.38h-2.2V227c.76-.26 1.48-.54 2.2-.86v1.4c-1.84.76-3.82 1.4-5.94 1.92l-.36-1.38c.88-.16 1.76-.36 2.62-.6v-5.02h-2.18v-1.38zM641.1 391.86h17.84v1.4h-2.64v13.6c0 1.32-.64 2-1.92 2h-3.34l-.32-1.4c1.1.04 2.16.08 3.16.08.64 0 .98-.36.98-1.04v-13.24H641.1v-1.4zm10.1 4.46v7.34h-6.38v1.76h-1.4v-9.1h7.78zm-6.38 6.02h5v-4.72h-5v4.72zm20.4-.68h11.72v1.06a15.517 15.517 0 0 1-4.1 3.5c1.8.76 3.88 1.3 6.26 1.62l-.62 1.24c-2.76-.46-5.1-1.16-7-2.12-2.02.96-4.36 1.68-7 2.12l-.62-1.26c2.32-.34 4.4-.88 6.2-1.64-1.48-.92-2.7-2.02-3.62-3.28h-1.22v-1.24zm2.74 1.24c.92 1.04 2.06 1.92 3.44 2.64 1.4-.74 2.62-1.62 3.66-2.64h-7.1zm-3.9-5.72v1.56c-.08 4.24-.8 7.64-2.16 10.2l-1.08-.96c1.16-2.22 1.76-5.3 1.8-9.24v-6.52h7.7c-.24-.52-.48-.98-.76-1.42l1.52-.24c.24.5.48 1.06.7 1.66h6.86v1.36h-14.58v2.28h3.36v-1.62h1.4v1.62h5.3v-1.64h1.4v1.64h3.08v1.32h-3.08v3.12h-8.1v-3.12h-3.36zm4.76 0v1.9h5.3v-1.9h-5.3zm14.24 1.86h13.92v5.1h-6.28v1.12h6.78v.96h-6.78v1.18h8.24v1.12h-17.88v-1.12h8.2v-1.18h-6.7v-.96h6.7v-1.12h-6.2v-5.1zm12.54 4.2v-1.22h-4.9v1.22h4.9zm-6.34 0v-1.22h-4.82v1.22h4.82zm-4.82-2.06h4.82v-1.24h-4.82v1.24zm6.26-1.24v1.24h4.9v-1.24h-4.9zm-7.2-8.96h13.06v4.94H683.5v-4.94zm11.66 4.08v-1.18H684.9v1.18h10.26zm-10.26-2.04h10.26v-1.16H684.9v1.16zm-3.86 3.94v1.08h17.92v-1.08h-17.92zm27.04-2.84v13.64h-1.4v-1.14h-3.64v1.72h-1.4v-14.22h1.86c.4-1.12.68-2.28.86-3.48l1.44.2c-.24 1.18-.54 2.28-.94 3.28h3.22zm-5.04 11.16h3.64v-4.38h-3.64v4.38zm0-5.68h3.64v-4.12h-3.64v4.12zm8.52-.84c1.44 1.66 2.52 3.12 3.28 4.36l-1.14.8c-.82-1.32-1.92-2.8-3.3-4.44l1.16-.72zm6.86-4.62c0 6.64-.1 10.76-.3 12.32-.2 1.52-1.12 2.3-2.8 2.3-.4 0-1.08-.04-2.04-.08l-.34-1.32c.84.04 1.56.06 2.18.06.94 0 1.48-.52 1.64-1.54.12-1.12.2-4.58.24-10.34h-5.5c-.56 1.26-1.22 2.4-2 3.42l-.86-1.14c1.4-1.96 2.34-4.36 2.86-7.2l1.42.18c-.24 1.18-.52 2.3-.88 3.34h6.38zm12.3-3.44h-1.46c0 .76-.02 1.82-.04 3.18-.18 5.76-3.02 10.34-8.52 13.72l.88 1.28c4.44-2.86 7.28-6.46 8.48-10.82 1.42 4.52 4.18 8.12 8.26 10.8l.94-1.26c-4.66-2.86-7.56-7.02-8.68-12.46.08-1.24.14-2.72.14-4.44zm17.62.02v1.84c-.02.64-.04 1.3-.08 1.94h-5.94v1.38h5.84c-.22 2.42-.68 4.5-1.36 6.22-1.04 2.34-2.86 4.22-5.46 5.62l.78 1.26c2.68-1.38 4.6-3.3 5.78-5.76.88-1.96 1.46-4.42 1.74-7.34h6.3c-.12 4.86-.34 8.02-.7 9.5-.36 1.42-1.08 2.14-2.18 2.14-.76 0-1.54-.02-2.38-.06l.4 1.4h2.7c1.02-.08 1.76-.52 2.22-1.34.48-.86.82-2.36 1.02-4.5.2-2.18.32-5.02.4-8.52h-7.68c.04-.62.06-1.26.08-1.94v-1.84h-1.48zm26.54-.12l-.92.88c1.02.78 1.82 1.52 2.42 2.24h-3.74c-.04-.96-.06-1.98-.06-3.1h-1.48c0 1.08.02 2.1.06 3.1h-8.26v6.66c-.06 3.26-.72 5.8-2 7.64l1.1.98c1.48-2.16 2.28-5.04 2.36-8.62v-.6h3.46c-.04 2.2-.1 3.64-.22 4.32-.12.56-.4.86-.84.88-.54 0-1.2-.02-1.98-.06l.44 1.3c.64.04 1.22.08 1.7.08 1-.04 1.62-.48 1.88-1.34.26-.98.42-3.16.46-6.54h-4.9v-3.32h6.86c.16 2.5.44 4.6.88 6.28.22.86.48 1.66.76 2.4a13.446 13.446 0 0 1-5.08 3.96l.8 1.2c1.88-.84 3.52-2.06 4.92-3.7.3.62.64 1.18 1 1.66.96 1.2 1.86 1.8 2.7 1.8.9 0 1.58-1.34 2.06-4l-1.3-.72c-.3 2.06-.64 3.1-1 3.12-.4 0-.94-.48-1.6-1.44-.32-.46-.62-1.02-.9-1.66 1.28-1.8 2.32-4.04 3.12-6.68l-1.3-.56c-.62 2.14-1.42 4.02-2.42 5.62-.14-.44-.28-.9-.4-1.4-.36-1.44-.62-3.4-.76-5.88h6.16v-1.38h-2.44l.92-.92c-.68-.74-1.5-1.48-2.46-2.2zm6.56 3.74v1.38h6.54c-1.48 3.54-3.88 6.44-7.24 8.68l.82 1.34c3.56-2.62 6.08-5.96 7.56-10.02h.14v7.8h-4.12v1.38h4.12v4.1h1.48v-4.1h4.28v-1.38h-4.28v-7.8h.16c1.36 3.62 3.8 6.88 7.32 9.76l.98-1.24c-3.44-2.5-5.84-5.34-7.18-8.52h6.52v-1.38h-7.8v-3.62h-1.48v3.62h-7.82zm23.86-3.76l1.44.1-.28 2.64h10.98v1.38h-11.12l-.36 3.28h11.46c0 5.48-.36 8.66-1.06 9.54-.72.82-2.22 1.24-4.5 1.24-.72 0-1.48-.02-2.26-.06l-.38-1.32c1.12.08 1.88.12 2.32.12 2.12 0 3.38-.4 3.78-1.16.44-.82.66-3.16.66-7.02h-11.66l.98-8.74zm-3.3 11.98h11.64v1.4H802v-1.4zm24.04 2.2v1.32c-1.4.74-3 1.34-4.78 1.78l-.18-1.4c1.88-.42 3.54-.98 4.96-1.7zM824 390.62l1.34.52c-.94 2.54-1.9 4.56-2.86 6.06.86-.12 1.72-.26 2.56-.44.32-.64.68-1.32 1.04-2.04l1.26.46c-1.68 3.24-3.08 5.54-4.16 6.9 1.16-.24 2.3-.58 3.46-.98v1.28c-1.8.6-3.5 1.02-5.14 1.26l-.4-1.3c.26-.1.48-.24.66-.4.72-.76 1.58-2.06 2.6-3.9-1.06.22-2.12.4-3.18.56l-.36-1.3c.22-.08.42-.26.58-.52 1-1.8 1.88-3.84 2.6-6.16zm13.08 18.32h-.86l-.32-1.12.8.04c.36 0 .54-.2.54-.6v-2.7h-1.6v4.1h-1.06v-4.1h-1.46v4.1h-1.06v-4.1h-1.58v4.46h-1.18v-9.52h9.14v8.04c0 .92-.46 1.4-1.36 1.4zm-6.6-5.58h1.58v-2.62h-1.58v2.62zm2.64-2.62v2.62h1.46v-2.62h-1.46zm2.52 0v2.62h1.6v-2.62h-1.6zm1.4-6.78h-7.8v2.56h7.8v-2.56zm-7.8 3.8c-.06 4.36-.96 8.1-2.72 11.22l-1.04-.92c1.6-2.72 2.4-6.22 2.42-10.52v-4.86h4.56c-.26-.68-.54-1.32-.86-1.88l1.5-.24c.26.62.52 1.32.76 2.12h4.5v5.08h-9.12zm13.88-3.22h2.8v2.58h-4.84v1.34h4.84v2.1h-3.94v7.2h1.4v-5.86h2.54v7.12h1.44v-7.12h2.52v3.64c0 .52-.3.78-.86.78l-.98-.06.36 1.36h1.06c1.2 0 1.8-.6 1.8-1.78v-5.28h-3.9v-2.1h4.32v-1.34h-4.32v-2.58h3.74v-1.34h-3.74v-2.48h-1.44v2.48h-2.32c.16-.54.28-1.12.38-1.76l-1.36-.22c-.28 1.9-.92 3.38-1.92 4.46l1.16.84c.48-.52.9-1.18 1.26-1.98zm9.74-2.02h1.4v12.36h-1.4v-12.36zm3.66 16.3h-2.94l-.32-1.38c.96.06 1.88.1 2.76.1.6 0 .92-.32.92-.96v-15.86h1.42v16.22c0 1.24-.62 1.88-1.84 1.88zm19.2-10.26v3.92h-9.98v1.38h10.9V409h-1.42v-.84h-9.48v.82h-1.44v-10.42h11.42zm-9.98 8.32h9.48v-1.86h-9.48v1.86zm0-5.56h8.58v-1.6h-8.58v1.6zm12.74-5.18v3.62h-1.4v-2.38h-14.16v2.38h-1.4v-3.62h7.92c-.2-.48-.4-.9-.62-1.3l1.4-.24-.12-.08c.96-1.2 1.64-2.5 2.08-3.94l1.38.3c-.14.42-.28.82-.44 1.22h5.78v1.26h-3.56c.42.56.76 1.08 1 1.56l-1.28.48c-.36-.72-.78-1.4-1.26-2.04h-1.26c-.36.68-.78 1.32-1.22 1.92l-1.08-.66c.22.46.44.96.64 1.52h7.6zm-14.56-2.78c-.48.78-1 1.5-1.6 2.16l-1.26-.8c1.2-1.24 2.08-2.64 2.64-4.16l1.38.3c-.16.44-.34.84-.5 1.24h5.36v1.26h-3.36c.44.6.82 1.18 1.1 1.72l-1.32.5c-.36-.76-.8-1.5-1.3-2.22h-1.14zm28.46 9.22v4.38h-5.46v1.4h12.22v-1.4h-5.32v-4.38h4.58v-1.34h-10.68v1.34h4.66zm-9.12 6.24c1.16 0 1.76-.58 1.76-1.74v-5.9c.58-.26 1.16-.54 1.74-.82v-1.46c-.56.3-1.14.58-1.74.86v-3.88h1.66v-1.38h-1.66v-3.82h-1.48v3.82h-2.44v1.38h2.44v4.48c-.9.32-1.82.6-2.76.84l.36 1.44c.8-.26 1.6-.54 2.4-.84v4.92c0 .52-.26.78-.78.78-.5 0-1.02-.04-1.56-.08l.3 1.4h1.76zm9.66-18.38c.34.72.68 1.52 1 2.42h4.7v3.78h-1.34v-2.48h-8.4v2.48h-1.36v-3.78h4.96c-.32-.8-.66-1.54-1.02-2.18l1.46-.24zm-1.86 4.96l1.26.5c-.92 1.98-2.12 3.5-3.62 4.54l-1.04-.9c1.5-1.04 2.64-2.42 3.4-4.14zm3.86-.04c1.24 1.28 2.34 2.72 3.3 4.28l-1.26.64c-.98-1.64-2.06-3.12-3.26-4.4l1.22-.52zM9.54 396.84c1.82 2.1 3.22 3.94 4.18 5.5l-1.22.84c-1.02-1.68-2.4-3.54-4.16-5.6l1.2-.74zm6.88 9.8c-1.32 2.42-3.44 4.48-6.36 6.16l-.96-1.18c3.4-1.96 5.66-4.4 6.76-7.36.84-2.5 1.26-5.68 1.28-9.54h1.5c0 3.8-.42 7-1.26 9.64-.1.3-.2.6-.32.9 1.64 2.08 3.02 4.16 4.14 6.24l-1.1 1.1c-.94-1.88-2.16-3.86-3.68-5.96zm-11.84 4.08l-.48-1.36c.36-.28.54-.64.54-1.1v-13.02h1.48v13.36c1.56-.64 3.1-1.42 4.64-2.34l.4 1.4c-2.04 1.18-4.24 2.2-6.58 3.06zm34.16-8.8v7.46h-1.42v-6.14H26.7v6.38h-1.42v-7.7h13.46zm-12.26-6.52h11.06v5.02H26.48v-5.02zm9.66 3.76v-2.48h-8.26v2.48h8.26zm-4.68 5.38l1.46.12c-.28 2.94-.9 4.92-1.86 5.96-1.04 1.24-3.42 2.04-7.14 2.38l-.56-1.3c3.24-.2 5.4-.84 6.46-1.94.92-1.02 1.48-2.76 1.64-5.22zm1.98 4.64c2.6.74 4.98 1.64 7.14 2.68l-.78 1.2c-2.3-1.2-4.66-2.12-7.08-2.8l.72-1.08zm17.9-11.76v13.24h-8.02v1.4h17.34v-1.4h-7.84v-13.24h6.98v-1.4H44.38v1.4h6.96zm13.88 4.8c-.62.9-1.3 1.76-2.02 2.58l-.42-1.44c2.08-2.56 3.58-5.48 4.5-8.78l1.3.6c-.52 1.66-1.16 3.24-1.94 4.72v13.12h-1.42v-10.8zm3.02-4.14h5.3v-3.44h1.42v3.44h5.46v1.4h-4.08c.92 3.3 2.54 6.24 4.86 8.82l-.94 1.18c-2.44-2.96-4.14-6.3-5.06-10h-.24v8.02h3.1v1.38h-3.1V413h-1.42v-4.12h-3.06v-1.38h3.06v-8.02h-.24c-1 4.16-2.74 7.58-5.2 10.24l-.74-1.24c2.24-2.32 3.82-5.32 4.78-9h-3.9v-1.4zm24.42 2.46c-.72.8-1.48 1.52-2.28 2.14l-.76-1.16c2.24-1.74 3.98-4 5.18-6.78h1.32c1 2.56 2.76 4.78 5.24 6.7l-.78 1.2c-.86-.66-1.62-1.36-2.3-2.1v1.24h-5.62v-1.24zm5.56-.08a16.512 16.512 0 0 1-2.76-4.32c-.8 1.68-1.7 3.12-2.74 4.32h5.5zm-8.02 10.46h6.5c.76-2.12 1.44-4.76 2.04-7.9l1.38.34c-.56 2.84-1.22 5.36-2.02 7.56h3.02v1.38H90.2v-1.38zm1.84-7.32c.64 1.66 1.2 3.58 1.72 5.74l-1.24.3c-.44-1.96-1.02-3.82-1.72-5.62l1.24-.42zm3.08-.58c.54 1.58 1.02 3.4 1.46 5.46l-1.26.3a38.62 38.62 0 0 0-1.44-5.38l1.24-.38zm-7.16-6.12h-4.84v-1.32h6.28l-.96 8.24h1.24c0 4.56-.2 7.18-.58 7.88-.4.68-1.22 1.04-2.48 1.04-.46 0-.94-.02-1.42-.06l-.38-1.28c.7.08 1.2.12 1.48.12.96 0 1.54-.32 1.74-.92.2-.64.32-2.46.32-5.5h-5.1l.94-6.86 1.32.08-.8 5.5h2.36l.88-6.92zm-.74 9.98v1.3c-1.32.5-2.8.9-4.46 1.22l-.18-1.36c1.76-.3 3.32-.68 4.64-1.16zm18.46-11.72c1.16 1.2 2.06 2.26 2.7 3.18l-1.12.78c-.7-1-1.6-2.06-2.68-3.18l1.1-.78zm7.04 8.44c1.44 1.58 2.54 2.96 3.32 4.12l-1.26.88c-.8-1.28-1.86-2.72-3.22-4.28l1.16-.72zm-2.5-8.94h1.42v2.38c-.02.88-.06 1.74-.12 2.56h8.24c0 5.72-.26 9.36-.76 10.92-.52 1.56-1.46 2.34-2.8 2.34-.98 0-1.8-.04-2.48-.08l-.38-1.4c1.02.08 1.94.12 2.78.12 1.12-.08 1.78-1.22 1.94-3.38.16-2.18.24-4.56.24-7.12h-6.92c-.32 2.52-.88 4.62-1.7 6.34-1.18 2.38-3.12 4.24-5.84 5.58l-.82-1.28c2.68-1.36 4.56-3.16 5.6-5.42.62-1.48 1.06-3.22 1.32-5.22h-6.22v-1.4h6.38c.06-.84.1-1.68.12-2.56v-2.38zm17 8.16V413h-1.38v-10.02c-.64 2.04-1.48 3.88-2.5 5.52l-.6-1.46c1.42-2.08 2.44-4.44 3.04-7.08h-2.7v-1.38h2.76v-3.9h1.38v3.9h2.36v1.38h-2.36v1.3c.96 1.1 1.92 2.34 2.92 3.74l-.8 1.22c-.82-1.4-1.52-2.54-2.12-3.4zm2.86-5.96h5c-.28-.72-.6-1.38-.96-1.98l1.48-.24c.3.64.6 1.38.88 2.22h4.44v1.3h-5.48c-1.1 1.94-2.06 3.32-2.9 4.14 1.28-.08 2.54-.16 3.78-.26.52-.72.98-1.46 1.38-2.26l1.16.62c-2 3.96-4.92 6.68-8.8 8.12l-.78-1.2c2.42-.86 4.44-2.2 6.08-4.04-1.4.08-2.9.16-4.48.22l-.3-1.18c.12-.04.2-.08.28-.12.8-.52 1.82-1.86 3.1-4.04h-3.88v-1.3zm6.4 12.08a19.355 19.355 0 0 1-6.7 3.92l-.78-1.24c4.7-1.54 8.22-4.5 10.56-8.88l1.22.64c-.96 1.8-2.1 3.36-3.4 4.68 1.44 1.28 2.68 2.54 3.68 3.8l-1.04 1.04c-.88-1.24-2.06-2.56-3.54-3.96zm18.08 3.4h-4.46c-1.4 0-2.08-.68-2.08-2.02v-11.48h1.44v11.18c0 .6.36.9 1.08.9h3.76c.48 0 .82-.2 1.02-.58.24-.48.42-1.88.52-4.22l1.36.46c-.16 2.74-.44 4.4-.86 5-.38.5-.98.76-1.78.76zm-9.5-11.36c-.48 3.04-1.22 5.84-2.26 8.38l1.24.78c1.04-2.48 1.84-5.44 2.4-8.88l-1.38-.28zm12.88-.62c1.28 2.6 2.38 5.36 3.34 8.3l-1.32.6c-1.04-3.18-2.18-6-3.42-8.44l1.4-.46zm-7.2-5.62c1.84 1.94 3.26 3.64 4.24 5.1l-1.2.82c-1.04-1.56-2.44-3.3-4.24-5.18l1.2-.74zm19.34 3.38v13.64h-1.4v-1.14h-3.64v1.72h-1.4v-14.22h1.86c.4-1.12.68-2.28.86-3.48l1.44.2c-.24 1.18-.54 2.28-.94 3.28h3.22zm-5.04 11.16h3.64v-4.38h-3.64v4.38zm0-5.68h3.64v-4.12h-3.64v4.12zm8.52-.84c1.44 1.66 2.52 3.12 3.28 4.36l-1.14.8c-.82-1.32-1.92-2.8-3.3-4.44l1.16-.72zm6.86-4.62c0 6.64-.1 10.76-.3 12.32-.2 1.52-1.12 2.3-2.8 2.3-.4 0-1.08-.04-2.04-.08l-.34-1.32c.84.04 1.56.06 2.18.06.94 0 1.48-.52 1.64-1.54.12-1.12.2-4.58.24-10.34h-5.5c-.56 1.26-1.22 2.4-2 3.42l-.86-1.14c1.4-1.96 2.34-4.36 2.86-7.2l1.42.18c-.24 1.18-.52 2.3-.88 3.34h6.38zm18.32 3.78v7.46h-1.42v-6.14H186.7v6.38h-1.42v-7.7h13.46zm-12.26-6.52h11.06v5.02h-11.06v-5.02zm9.66 3.76v-2.48h-8.26v2.48h8.26zm-4.68 5.38l1.46.12c-.28 2.94-.9 4.92-1.86 5.96-1.04 1.24-3.42 2.04-7.14 2.38l-.56-1.3c3.24-.2 5.4-.84 6.46-1.94.92-1.02 1.48-2.76 1.64-5.22zm1.98 4.64c2.6.74 4.98 1.64 7.14 2.68l-.78 1.2c-2.3-1.2-4.66-2.12-7.08-2.8l.72-1.08zm17.9-11.76v13.24h-8.02v1.4h17.34v-1.4h-7.84v-13.24h6.98v-1.4h-15.42v1.4h6.96zm14.3 4.08v3.34h3.22v-3.34h-3.22zm3.22-1.3v-3.38h-3.22v3.38h3.22zm-3.24 5.94c-.12 2.8-.6 5.1-1.42 6.9l-1.08-1c.8-1.8 1.2-4.12 1.22-6.92v-9.6h5.84v15.6c0 1.2-.56 1.82-1.68 1.82h-1.6l-.34-1.28c.56.04 1.06.08 1.54.08.5 0 .76-.36.76-1.08v-4.52h-3.24zm7.6-1.98v8.86h-1.36V395.5h8.1c0 2.48-.12 4.12-.36 4.92-.24.82-.98 1.24-2.24 1.24h-1.62l-.38-1.24c.34 0 .78.02 1.34.02.48 0 .82-.04 1.06-.1.24-.08.42-.28.54-.58.14-.44.22-1.42.26-2.94h-5.34v6.06h6.8v1.22c-.38 2.06-1.04 3.82-1.96 5.26.9.88 1.96 1.66 3.18 2.36l-.72 1.22c-1.28-.74-2.36-1.56-3.28-2.46-.88 1.02-1.9 1.84-3.1 2.48l-.76-1.16a9.83 9.83 0 0 0 2.9-2.36 12.548 12.548 0 0 1-2.58-5.28h-.48zm1.72 0c.42 1.54 1.14 2.92 2.16 4.16.74-1.2 1.28-2.58 1.64-4.16h-3.8zm13.94-9.56l1.46.2c-.22.54-.48 1.04-.76 1.52h8.72v1.16c-1.28 1.48-2.84 2.74-4.68 3.78 2.26.96 4.78 1.58 7.56 1.86l-.66 1.34c-3.16-.36-5.98-1.16-8.46-2.4-2.44 1.12-5.3 1.94-8.54 2.44l-.66-1.36c2.9-.4 5.44-1.04 7.64-1.92a20.69 20.69 0 0 1-3.12-2.26c-.76.68-1.58 1.3-2.5 1.86l-.88-1.16c2.4-1.38 4.04-3.06 4.88-5.06zm3.16 5.92c1.62-.8 3.02-1.76 4.2-2.84h-7.64l-.26.32c1.12.98 2.36 1.82 3.7 2.52zm-1.22 2.98h1.42c0 .8-.08 1.56-.2 2.28h7.04c-.04 3.38-.34 5.4-.92 6.06-.58.66-1.58 1-3 1-.64 0-1.42-.04-2.34-.08l-.36-1.3 2.36.1c1.2-.02 1.94-.28 2.26-.76.3-.48.48-1.72.54-3.72h-5.92c-.16.52-.38 1.02-.64 1.5-1.02 1.8-3.36 3.3-7.04 4.46l-.96-1.18c3.28-.96 5.46-2.18 6.5-3.64.24-.36.46-.74.62-1.14h-5.96v-1.3h6.36c.16-.72.24-1.48.24-2.28zm37.88 123.94h15.44v1.36h-5.26v4.96h5.66v1.38h-14.26v2.8c-.08 2.96-.9 5.34-2.46 7.12l-1.08-.96c1.32-1.48 2.02-3.52 2.1-6.16v-4.18h5.1v-4.96h-5.24v-1.36zm6.58 6.32h2.26v-4.96h-2.26v4.96zm6.48-4.22l1.18.32c-.36 1.22-.84 2.3-1.42 3.22l-1.18-.42c.54-.82 1.02-1.86 1.42-3.12zm-10.9.04c.58.94 1.08 1.94 1.5 3.02l-1.16.52c-.48-1.2-1-2.24-1.56-3.14l1.22-.4zm21.96-1.54h2.54v-1.38h1.36v1.38h4.3v-1.38h1.36v1.38h2.5v1.28h-2.5v2.52h-2.82v1.22h4.34v3.92h-4.34v1.26h4.7v1.18h-4.7v1.26h4.22v1.16h-4.22v1.3h5.54v1.26h-12.58v-1.26h5.66v-1.3H314v-1.16h4.18v-1.26h-4.78v-1.18h4.78v-1.26h-4.38v-3.92h4.38v-1.22h-2.82v-2.52h-2.54v-1.28zm3.9 1.28v1.4h4.3v-1.4h-4.3zm5.9 6.48v-1.58h-3.06v1.58h3.06zm-4.44 0v-1.58h-3.1v1.58h3.1zm-9.06-8.92l-1 .98c1.36 1.1 2.44 2.14 3.24 3.14l.98-.98c-.88-1.04-1.94-2.1-3.22-3.14zm-2.28 5.9h4.02v8.78c.54-.52 1.12-1.12 1.72-1.78l.38 1.44a25.159 25.159 0 0 1-3.32 3.08l-.54-1.28c.24-.22.36-.48.36-.76v-8.1h-2.62v-1.38zm20.58-3.22h2.86v-2.74h1.44v2.74h2.66v1.38h-2.66v3.3h2.94v1.4h-3.02c-.04.52-.1 1.02-.16 1.5a47.21 47.21 0 0 1 3.44 3.64l-.8 1.24c-1.12-1.52-2.08-2.7-2.86-3.56-.58 2.82-1.68 5.02-3.32 6.6l-1.06-.94c1.94-1.88 3.04-4.7 3.32-8.48h-3.06v-1.4h3.14v-3.3h-2.86v-1.38zm16.24-2.06v10.98h-1.38v-9.64h-5.34v9.64h-1.38V527.5h8.1zm-.54 17.24h-1.66c-1.04 0-1.54-.56-1.54-1.66v-4.5h1.3v4.2c0 .44.2.66.64.66h1.02c.34 0 .58-.1.72-.3.18-.26.3-1.02.38-2.26l1.24.4c-.12 1.64-.36 2.64-.68 3-.32.3-.78.46-1.42.46zm-4.16-14.24h1.3v3.54c-.04 2.98-.58 5.36-1.6 7.14-1 1.64-2.64 2.94-4.88 3.88l-.76-1.22c2.2-.9 3.74-2.12 4.62-3.64.82-1.58 1.26-3.64 1.32-6.16v-3.54zm8.24-2.06h4.72v-1.8h1.46v1.8h5.24v-1.8h1.46v1.8h4.72v1.34h-4.72v1.9h-1.46v-1.9h-5.24v1.9h-1.46v-1.9h-4.72v-1.34zm2.6 3.04c1.26.88 2.32 1.76 3.16 2.64l-.98.98c-.76-.84-1.82-1.74-3.18-2.68l1-.94zm-1.26 3.4c1.24.86 2.3 1.72 3.16 2.6l-.98.98c-.76-.84-1.82-1.72-3.16-2.64l.98-.94zm2.34 4.32c-.76 1.72-1.8 3.48-3.08 5.24l1.34.7c1.22-1.72 2.2-3.52 2.96-5.36l-1.22-.58zm10.78-5.54v3.74c0 .48-.28.74-.8.74-.72 0-1.5-.04-2.36-.1l.34 1.36c.82.04 1.66.06 2.54.06 1.12-.04 1.68-.58 1.7-1.62v-5.46h-8.66v10.38c0 1.24.64 1.88 1.94 1.88h5.36c1.04 0 1.74-.18 2.12-.54.4-.44.68-1.62.84-3.54l-1.38-.44c-.1 1.28-.26 2.14-.48 2.58-.18.38-.68.58-1.48.58h-4.42c-.7 0-1.04-.34-1.04-1v-8.62h5.78zm7.8 6.54l-.9.84c.74.56 1.48 1.22 2.22 2.02.64.68 1.22 1.36 1.7 2.04l1-.84c-.48-.68-1.06-1.38-1.72-2.06-.76-.8-1.54-1.46-2.3-2zm20.24-9.58v1.26h11.4v1.88h-12.26v1.3h13.7v-7.64h-13.38v1.3h11.94v1.9h-11.4zm1.46 5.92l1.24.62c-.7 1.48-1.52 2.76-2.44 3.84l-1.14-.8c.92-1.02 1.7-2.24 2.34-3.66zm5.64-.76c0 .8-.06 1.54-.16 2.2 1.1 2.84 3.98 4.76 8.64 5.72l-.58 1.32c-4.5-1.02-7.36-2.78-8.6-5.28-1.16 2.44-3.86 4.2-8.1 5.3l-.6-1.34c4.26-1 6.8-2.72 7.64-5.14.2-.66.3-1.58.32-2.78h1.44zm5.22.6l1.26.6c-.72 1.44-1.54 2.68-2.5 3.72l-1.16-.82c.92-.98 1.72-2.14 2.4-3.5zm10.14-3.9h5.72v-3.14c-1.52.14-3.14.22-4.86.22l-.44-1.3c4.36 0 8-.5 10.88-1.48l.7 1.24c-1.4.5-3 .88-4.82 1.14v3.32h5.76v1.38h-5.76v3.1h4.5v8.02h-1.42v-1.06h-7.5v1.1h-1.42v-8.06h4.38v-3.1h-5.72v-1.38zm2.76 10.08h7.5v-4.24h-7.5v4.24zm-6.38-15.62l-.98.94c1.44.96 2.58 1.84 3.4 2.68l.98-.98c-.92-.88-2.06-1.76-3.4-2.64zm-.46 4.78l-1 .98c1.46 1.04 2.6 2.04 3.44 2.98l1-1c-.92-1-2.08-1.98-3.44-2.96zm2.36 5.32c-.84 2.42-1.86 4.78-3.02 7.1l1.44.62c1.04-2.24 2-4.66 2.88-7.22l-1.3-.5zm25.48-10.44l1.28.68c-.36.4-.74.78-1.14 1.14h5.74v1.14c-2.16 3.84-6.18 6-12.02 6.46l-.62-1.3c1.8-.12 3.4-.38 4.84-.8-.62-.76-1.28-1.46-1.96-2.08l1.26-.6c.72.68 1.4 1.4 2.04 2.2 2.08-.84 3.7-2.1 4.82-3.74h-5.84c-1.56.92-3.4 1.62-5.54 2.1l-.84-1.32c3.56-.68 6.22-1.96 7.98-3.88zm-.76 12.5c.76.78 1.5 1.62 2.18 2.52 2.22-.96 3.96-2.34 5.24-4.1h-5.92c-1.76.84-3.84 1.48-6.26 1.9l-.86-1.28c4.36-.44 7.58-1.78 9.66-3.98l1.24.68c-.48.48-.98.94-1.54 1.36h5.48v1.14c-2.84 4.72-8.12 7.16-15.88 7.34l-.58-1.38c3.12-.02 5.82-.4 8.08-1.16-.68-.9-1.38-1.72-2.12-2.44l1.28-.6zm26.12-8.18c1.52 1 2.78 2 3.82 3l-1 1c-.92-.96-2.18-2-3.78-3.08l.96-.92zm-5.08-4.5c.24.6.46 1.26.68 2h7.72v1.4h-5.52v5.4h-1.44v-5.4h-3.26v5.4h-1.44v-5.4h-5.54v-1.4h8.02c-.24-.64-.5-1.24-.78-1.76l1.56-.24zm-5.46 4.56l1.06.94c-1.08 1.14-2.42 2.16-4 3.04l-.88-1.16c1.52-.8 2.78-1.74 3.82-2.82zm-1.98 5.3h13.66v1.1c-1.32 1.64-2.94 3.04-4.86 4.18 2.16.94 4.72 1.62 7.66 2.02l-.66 1.32c-3.3-.56-6.1-1.42-8.4-2.58-2.4 1.18-5.22 2.04-8.42 2.58l-.66-1.36c2.88-.42 5.4-1.1 7.6-2.04-1.78-1.12-3.22-2.42-4.34-3.94h-1.58v-1.28zm3.18 1.28c1.08 1.28 2.46 2.38 4.12 3.28 1.72-.92 3.18-2.02 4.42-3.28h-8.54zm17.52 2.64l-.9.84c.74.56 1.48 1.22 2.22 2.02.64.68 1.22 1.36 1.7 2.04l1-.84c-.48-.68-1.06-1.38-1.72-2.06-.76-.8-1.54-1.46-2.3-2zm17.96-10.64h2.86v-2.74h1.44v2.74h2.66v1.38h-2.66v3.3h2.94v1.4h-3.02c-.04.52-.1 1.02-.16 1.5a47.21 47.21 0 0 1 3.44 3.64l-.8 1.24c-1.12-1.52-2.08-2.7-2.86-3.56-.58 2.82-1.68 5.02-3.32 6.6l-1.06-.94c1.94-1.88 3.04-4.7 3.32-8.48h-3.06v-1.4h3.14v-3.3h-2.86v-1.38zm16.24-2.06v10.98h-1.38v-9.64h-5.34v9.64h-1.38V527.5h8.1zm-.54 17.24h-1.66c-1.04 0-1.54-.56-1.54-1.66v-4.5h1.3v4.2c0 .44.2.66.64.66h1.02c.34 0 .58-.1.72-.3.18-.26.3-1.02.38-2.26l1.24.4c-.12 1.64-.36 2.64-.68 3-.32.3-.78.46-1.42.46zm-4.16-14.24h1.3v3.54c-.04 2.98-.58 5.36-1.6 7.14-1 1.64-2.64 2.94-4.88 3.88l-.76-1.22c2.2-.9 3.74-2.12 4.62-3.64.82-1.58 1.26-3.64 1.32-6.16v-3.54zm9.32-3.56l-.96.92c1.32 1.16 2.36 2.24 3.12 3.24l.98-.98c-.84-1.06-1.9-2.12-3.14-3.18zm11.9 17.7c-1.14 0-2.38-.02-3.72-.04-1.36-.02-2.46-.14-3.3-.36-.82-.24-1.54-.74-2.18-1.46-.28-.34-.56-.5-.82-.5-.42 0-1.12.9-2.12 2.74l-1.02-.94c.96-1.66 1.78-2.68 2.5-3.04v-6.12h-2.44v-1.32h3.8v7.48c.16.12.34.26.52.46.52.58 1.08 1 1.64 1.26.66.28 1.6.44 2.82.48 1.12.02 2.48.04 4.12.04.94 0 1.9-.02 2.88-.04.96-.02 1.72-.04 2.24-.08l-.34 1.44h-4.58zm-3.36-15.68h-2.48v3.2h2.48v-3.2zm-2.5 4.4c-.12 3.06-.7 5.72-1.76 7.98l-.96-.86c.98-2.08 1.48-4.76 1.5-8.04v-4.74h4.96v5.66h-3.74zm.16 1.76h3.9v6.56h-3.9v-6.56zm2.78 5.44v-4.34h-1.66v4.34h1.66zm4.78-13.88l-1.28.24c.24.5.46 1.06.66 1.66h-2.52v1.24h6.16v-1.24h-2.42c-.2-.7-.4-1.34-.6-1.9zm-1.52 3.78c.4.76.74 1.56 1.02 2.42l-1 .44c-.32-.92-.68-1.74-1.06-2.44l1.04-.42zm2.74-.08l1.18.16c-.22 1.06-.54 2.04-.94 2.96h1.64v1.24h-2.5v2.24h2.14v1.22h-2.14v3.92h-1.32v-3.92h-2.2v-1.22h2.2v-2.24h-2.5v-1.24h3.5c.42-1 .74-2.04.94-3.12zm7 3.26v3.5h5.08v-3.5h-5.08zm-.08 4.82c-.22 2.56-.96 4.68-2.24 6.36l-1.1-.98c1.28-1.78 1.94-4.04 1.98-6.78v-9.6h14.9v14.98c0 1.4-.7 2.1-2.1 2.1h-2.3l-.38-1.42c.8.04 1.54.08 2.22.08.72 0 1.1-.42 1.1-1.26v-3.48h-5.44v5.86h-1.48v-5.86h-5.16zm12.08-1.32v-3.5h-5.44v3.5h5.44zm0-4.84v-3.44h-5.44v3.44h5.44zm-6.92-3.44h-5.08v3.44h5.08v-3.44zm20 .56v13.24h-8.02v1.4h17.34v-1.4h-7.84v-13.24h6.98v-1.4h-15.42v1.4h6.96zm17.4 1.82c1.16 1.44 2.24 2.82 3.22 4.14.8-1.5 1.44-3.12 1.92-4.84l1.42.24c-.6 2.16-1.4 4.12-2.4 5.88 1.22 1.72 2.26 3.32 3.12 4.78l-1.3.88c-.8-1.38-1.68-2.82-2.68-4.3-1.24 1.8-2.7 3.34-4.42 4.64l-.96-1.22c1.78-1.36 3.28-2.92 4.48-4.72-1.08-1.54-2.28-3.12-3.58-4.76l1.18-.72zm-3.56-3.78h12.94v8c0 3.28.1 5.38.34 6.3.22.9.48 1.36.8 1.36.26 0 .48-.92.66-2.74l1.28.62c-.24 1.5-.5 2.52-.78 3.08-.3.48-.64.72-1 .72-.96 0-1.64-.64-2.08-1.88-.48-1.22-.7-3.7-.7-7.46v-6.6h-10.02v6.36c-.04 3.88-.86 7.14-2.44 9.78l-1.2-.98c1.4-2.34 2.14-5.28 2.2-8.8v-7.76zm18.52.06h5.92v1.1c-.6 1.8-1.3 3.7-2.1 5.66 1.24 1.78 1.9 3.4 2 4.84 0 .82-.2 1.42-.6 1.8-.56.44-1.5.68-2.84.7l-.46-1.44c.3.04.56.08.76.08.68-.04 1.16-.14 1.4-.3.22-.16.34-.44.34-.84 0-1.38-.68-2.92-2.02-4.62.9-2.08 1.6-3.98 2.1-5.66h-3.1v16.18h-1.4v-17.5zm8.28 5.06c-.76.78-1.56 1.46-2.4 2.06l-.72-1.14c2.4-1.74 4.26-4 5.56-6.76h1.3c1.08 2.56 2.98 4.78 5.68 6.7l-.78 1.2c-.9-.64-1.7-1.3-2.4-2.02v1.16h-6.24v-1.2zm6.08-.12c-1.26-1.3-2.26-2.74-3-4.3-.88 1.68-1.86 3.1-2.96 4.3h5.96zm-8.96 10.46h7.02c.94-2.16 1.76-4.8 2.44-7.92l1.4.38c-.66 2.84-1.46 5.34-2.4 7.54h3.4v1.38H593.1v-1.38zm2.32-7.2c.68 1.68 1.3 3.6 1.86 5.76l-1.26.32c-.48-1.96-1.1-3.86-1.84-5.66l1.24-.42zm3.18-.78c.58 1.62 1.1 3.48 1.54 5.58l-1.24.32c-.4-1.92-.92-3.74-1.54-5.5l1.24-.4z" fill="#666"/></g></svg>