<svg width="200" height="58" viewBox="0 0 200 58" xmlns="http://www.w3.org/2000/svg" xmlns:xlink="http://www.w3.org/1999/xlink"><title>Group 24 Copy 12</title><defs><rect id="a" width="200" height="58" rx="2"/><linearGradient x1="50%" y1="122.518%" x2="50%" y2="-70.231%" id="c"><stop stop-color="#FFF" offset="0%"/><stop stop-color="#FFF" stop-opacity="0" offset="100%"/></linearGradient><linearGradient x1="50%" y1="0%" x2="50%" y2="98.384%" id="d"><stop stop-color="#FFF" stop-opacity="0" offset="0%"/><stop stop-color="#FFF" offset="100%"/></linearGradient></defs><g fill="none" fill-rule="evenodd"><mask id="b" fill="#fff"><use xlink:href="#a"/></mask><use fill="#7272F4" xlink:href="#a"/><path d="M85.66 33.63h-8.683v1.532h8.683V33.63zm-10.811 3.866v-5.789h13.033v5.789H85.66v-.523h-8.683v.523H74.85zm9.168-7.917v-1.12H78.49v1.12h5.527zm-7.6-2.596h9.803v4.052h-9.803v-4.052zm-3.006 1.438v-3.846h15.852v3.846h-2.147v-2.166h-11.67v2.166h-2.035zm12.36-7.095v-1.289H83.55v1.289h-4.687v-1.289h-2.185v1.289H73v1.979h3.678v.896h2.185v-.896h4.687v.896h2.222v-.896h3.772v-1.98h-3.772zm20.839-.86l1.942.766a40.14 40.14 0 0 1-1.793 3.51l-1.699-.727c.504-.934 1.195-2.447 1.55-3.548zm-10.587 6.816h1.96v-1.98h-4.985c.299-.373.56-.746.822-1.157h4.48v-2.091h-3.304c.187-.467.392-.934.56-1.4l-1.867-.58c-.56 1.625-1.569 3.194-2.67 4.24.336.466.821 1.624.97 2.053.206-.168.411-.373.598-.597v1.512h1.4v1.83h-2.333v1.98h2.334v2.856c0 .803-.523 1.345-.915 1.587.317.43.765 1.326.915 1.849.354-.355.99-.71 4.332-2.446-.15-.43-.318-1.326-.355-1.923l-1.942.952V31.09h2.334v-1.979h-2.334v-1.83zm5.882-3.38l-1.812.934c-.224-.896-.877-2.315-1.53-3.417l1.698-.803c.691 1.008 1.42 2.372 1.644 3.286zm-1.065 8.01h5.135v-1.4h-5.135v1.4zm5.135-4.611h-5.135v1.344h5.135v-1.344zm0-2.091h1.98v9.858c0 .971-.169 1.569-.822 1.905-.635.336-1.55.373-2.876.373-.056-.578-.336-1.475-.597-2.016.821.037 1.699.037 1.979.019.261-.02.336-.094.336-.318v-1.25h-5.135v3.659h-1.96V25.228h3.585V20h2.016v5.228l1.494-.018zm19.102-3.959h-12.772v2.278h12.772v-2.278zM127 28.757v-2.315h-16.805v2.315h5.06c-1.045 1.998-2.278 3.772-2.782 4.314-.616.69-1.008 1.101-1.531 1.25.299.71.728 1.98.859 2.484 1.008-.373 2.334-.448 11.726-1.176.43.728.766 1.4 1.046 1.96l2.166-1.307c-.934-1.755-2.708-4.406-4.258-6.46l-2.035 1.064a154.5 154.5 0 0 1 1.774 2.614l-7.45.448a37.055 37.055 0 0 0 3.66-5.19H127z" fill="#FFF" mask="url(#b)"/><g opacity=".4" mask="url(#b)"><path d="M22.278 14H13v-3.712C13 4.606 17.8 0 23.722 0H33v3.712C33 9.394 28.2 14 22.278 14m30 0H43v-3.712C43 4.606 47.8 0 53.722 0H63v3.712C63 9.394 58.2 14 52.278 14" fill="url(#c)" transform="translate(121 12)"/><path d="M69 46.55V14h-2.6C60.656 14 56 18.231 56 23.45V56h2.6c5.743 0 10.4-4.23 10.4-9.45m-26 0V14h-2.6C34.657 14 30 18.231 30 23.45V56h2.6c5.744 0 10.4-4.23 10.4-9.45m-30 0V14h-2.6C4.656 14 0 18.231 0 23.45V56h2.6C8.344 56 13 51.77 13 46.55" fill="url(#d)" transform="translate(121 12)"/></g></g></svg>