<svg width="1137" height="683" viewBox="0 0 1137 683" xmlns="http://www.w3.org/2000/svg" xmlns:xlink="http://www.w3.org/1999/xlink"><title>Group 7</title><defs><linearGradient x1="9.069%" y1="50%" x2="139.534%" y2="-20.169%" id="a"><stop stop-color="#DD3730" offset="0%"/><stop stop-color="#FFC194" offset="100%"/></linearGradient><path id="b" d="M37.925 53.299H75.85V.729H0V53.3z"/><linearGradient x1="118.428%" y1="-17.809%" x2="7.395%" y2="103.36%" id="d"><stop stop-color="#FFC194" offset="0%"/><stop stop-color="#DD3730" offset="100%"/></linearGradient></defs><g fill="none" fill-rule="evenodd"><path d="M130.84 73.58v14.2h-4.44v1.5h-1.9v-15.7h6.34zm-4.44 12.34h2.6v-4.46h-2.6v4.46zm0-6.3h2.6v-4.18h-2.6v4.18zm8.22.16v3.02h4.7v-3.02h-4.7zm4.7-1.78v-3.04h-4.7V78h4.7zm-4.82 6.58c-.28 2.66-1.12 4.88-2.48 6.64l-1.5-1.4c1.42-1.84 2.14-4.18 2.18-7.02v-9.66h8.56v15.68c0 1.36-.7 2.06-2.08 2.06h-2.56l-.52-1.86c.88.04 1.7.08 2.46.08.5 0 .76-.32.76-.96v-3.56h-4.82zm15.64 2.14c-1.78.74-3.86 1.32-6.24 1.76l.24 1.82c2.24-.44 4.24-1.04 6-1.8v-1.78zm-3.42-14.18c-.64 2.24-1.38 4.28-2.22 6.12-.2.32-.46.56-.74.68l.46 1.62 2.74-.48c-.84 1.68-1.54 2.86-2.1 3.54-.22.2-.48.36-.8.5l.46 1.64c1.76-.22 3.64-.64 5.6-1.28V83.2c-1.16.38-2.32.68-3.44.92 1-1.44 2.22-3.74 3.7-6.9l-1.66-.6c-.34.78-.68 1.52-1 2.22-.6.12-1.22.24-1.82.32.86-1.52 1.72-3.5 2.56-5.94l-1.74-.68zm8.66 3.28h-2.78v5.16h2.78v-5.16zm0 6.88h-2.78v5.36h2.78V82.7zm1.72 5.36h2.7V82.7h-2.7v5.36zm0-7.08h2.7v-5.16h-2.7v5.16zm2.7 8.8h-7.2v1.18h-1.74V74.08h10.74v16.88h-1.8v-1.18zm8.64-8.4v9.68h-1.82v-9.24c-.58 1.72-1.3 3.32-2.18 4.76l-.78-1.96c1.32-1.88 2.26-4.04 2.86-6.44h-2.5v-1.82h2.6v-3.74h1.82v3.74h2.2v1.82h-2.2v1.08c.92 1.02 1.84 2.16 2.78 3.42l-1.06 1.62c-.66-1.16-1.24-2.14-1.72-2.92zm2.58-6.74h4.74c-.26-.64-.54-1.22-.86-1.74l1.94-.32c.28.6.54 1.3.78 2.06h4.36v1.74h-5.48c-.98 1.7-1.84 2.94-2.58 3.72 1.08-.04 2.16-.12 3.24-.22.48-.7.92-1.42 1.32-2.18l1.54.82c-2 3.98-4.92 6.68-8.78 8.12l-1.04-1.58c2.22-.78 4.1-1.98 5.64-3.58-1.28.08-2.64.14-4.06.2l-.38-1.54c.16-.04.28-.1.36-.16.72-.46 1.64-1.66 2.78-3.6h-3.52v-1.74zm6.48 12.58c-1.88 1.66-4.06 2.92-6.54 3.8l-1.04-1.62c4.64-1.52 8.1-4.42 10.42-8.74l1.58.82c-.92 1.72-2 3.26-3.24 4.58 1.36 1.2 2.54 2.38 3.52 3.58l-1.4 1.4c-.82-1.2-1.92-2.48-3.3-3.82zm8.86-10.14h7.8l-1.46-.94c.98-1.14 1.68-2.36 2.1-3.66l1.82.4c-.12.3-.22.6-.32.88h5.38v1.6h-2.98c.28.36.5.72.68 1.04l-1.54.56c-.3-.56-.64-1.08-1-1.6h-1.32c-.36.62-.78 1.2-1.22 1.72h5.58v8.12h-2.34v1.04h4.38v1.66h-4.38v3.2h-1.86v-3.2h-5.32c-.2.52-.46.96-.78 1.34-.7.8-1.82 1.4-3.38 1.84l-.98-1.5c1.38-.38 2.32-.86 2.84-1.42.08-.1.14-.18.18-.26h-4.16v-1.66h4.74l.04-.42v-.62h-2.5v-8.12zm4.38 8.12v.62c0 .14-.02.28-.02.42h4.96V85.2h-4.94zm7.28-1.44v-.92h-9.8v.92h9.8zm-9.8-2.24h9.8v-.82h-9.8v.82zm0-2.12h9.8v-.88h-9.8v.88zm-.96-3.96c-.46.76-.98 1.48-1.56 2.12l-1.58-1c1.2-1.28 2.06-2.64 2.58-4.12l1.8.4c-.14.36-.28.68-.4 1h4.64v1.6h-2.22c.24.32.44.64.62.94l-1.56.56c-.28-.52-.6-1.02-.96-1.5h-1.36z" fill="#333"/><path fill="#DFDFDF" d="M16 111h40v111H16zm60 0h40v111H76zm60 0h40v111h-40zm60 0h40v111h-40zm59 0h40v111h-40zm119 0h40v111h-40zm118 0h101v40H492zm342 0h101v40H834z"/><path d="M936 128h32.347a4 4 0 0 1 4 4v23.06a4 4 0 0 0 4 4h58.967" stroke="#D6D6D6"/><path d="M936 190.06h32.347a4 4 0 0 0 4-4V163a4 4 0 0 1 4-4h58.967" stroke="#D6D6D6"/><path fill="#DFDFDF" d="M648 111h136v40H648zm2 55h53v53h-53zm80 0h53v53h-53zm104 4h101v40H834zm-342 1h101v40H492z"/><path d="M35.494 8.42h-6.075V6.017h6.966V.887h2.484v5.13h2.889V8.42h-2.889v14.202c0 1.917-.837 2.889-2.457 2.889h-3.51l-.567-2.43c1.107.108 2.16.162 3.186.162.567 0 .864-.432.864-1.269V11.525c-1.593 4.185-3.888 7.722-6.858 10.584l-1.404-2.295c3.375-2.97 5.832-6.75 7.371-11.394zm-7.398-6.642V18.95h-2.268V4.127h-5.346v14.877H18.16V1.778h9.936zm-5.994 4.104h2.16v8.694c-.081 3.051-.594 5.481-1.539 7.317-.918 1.701-2.43 3.024-4.509 3.942l-1.377-2.16c1.998-.891 3.375-2.025 4.104-3.402.702-1.458 1.08-3.375 1.161-5.697V5.882zm3.213 13.851c1.458 1.296 2.7 2.565 3.699 3.834l-1.782 1.782c-.864-1.269-2.025-2.619-3.537-4.05l1.62-1.566zM51.937.752l2.619.378c-.27.648-.567 1.269-.891 1.836h11.556v2.079c-1.62 1.863-3.591 3.483-5.886 4.833 2.889 1.08 6.102 1.809 9.666 2.133l-1.161 2.403c-4.185-.486-7.965-1.512-11.313-3.105-3.24 1.458-7.02 2.511-11.286 3.159l-1.188-2.403c3.618-.459 6.858-1.215 9.666-2.268a26.746 26.746 0 0 1-3.591-2.538 23.445 23.445 0 0 1-3.024 2.187l-1.566-2.052c3.159-1.809 5.292-4.023 6.399-6.642zM56.5 8.609a23.886 23.886 0 0 0 4.968-3.24h-9.477a.861.861 0 0 0-.162.189A25.314 25.314 0 0 0 56.5 8.609zm-1.944 4.347h2.538c0 .972-.081 1.89-.216 2.754h9.315c-.054 4.725-.459 7.56-1.215 8.478-.756.918-2.106 1.404-3.996 1.404-.918 0-2.052-.054-3.348-.135l-.648-2.322c1.404.054 2.538.108 3.402.162 1.377-.027 2.241-.324 2.592-.864.351-.567.567-2.052.648-4.428h-7.317a12.665 12.665 0 0 1-.837 1.836c-1.35 2.43-4.509 4.428-9.504 6.021l-1.701-2.079c4.401-1.296 7.29-2.862 8.64-4.725.216-.351.432-.702.594-1.053h-7.587V15.71h8.37c.162-.864.27-1.782.27-2.754zm20.925-6.561l-2.322.837a26.625 26.625 0 0 1 1.485 3.456h-3.348v2.457h13.581v-2.457h-2.916c.567-1.08 1.08-2.295 1.566-3.645l-2.349-.81a36.34 36.34 0 0 1-1.728 4.455h-2.403c-.486-1.674-.999-3.105-1.566-4.293zM85.93 1.778v23.949h2.484V4.154h4.05c-.864 2.808-1.728 5.238-2.619 7.263 2.106 2.511 3.186 4.536 3.213 6.075-.027.945-.108 1.566-.27 1.836-.162.324-.567.486-1.161.513-.675 0-1.485-.054-2.457-.162l.81 2.7c2.268 0 3.807-.378 4.563-1.08.702-.702 1.08-1.971 1.08-3.807-.027-1.566-1.053-3.591-3.051-6.075a87.612 87.612 0 0 0 2.727-7.695V1.778H85.93zM71.809 3.29v2.457h12.825V3.29h-5.346a35.089 35.089 0 0 0-.702-2.592l-2.619.432c.27.648.54 1.377.81 2.16h-4.968zm11.988 11.826V25.7h-2.565v-1.404h-5.994V25.7h-2.511V15.116h11.07zm-8.559 6.75h5.994v-4.32h-5.994v4.32zm43.281 3.699c2.025 0 3.051-1.026 3.051-3.078V2.048h-12.636v2.376h10.152v17.361c0 .945-.378 1.431-1.08 1.431l-2.349-.054.648 2.403h2.214zM99.376 5.342h2.484v20.466h-2.484V5.342zM103.885.59a28.532 28.532 0 0 1 3.294 4.806l-2.295 1.215a32.093 32.093 0 0 0-3.321-4.995L103.885.59zm21.195 4.563v2.43h8.694v-2.43h-2.97a52.097 52.097 0 0 0-1.026-3.969l-2.565.432c.432 1.08.81 2.241 1.161 3.537h-3.294zm2.673 3.672c.486 3.051.891 6.561 1.269 10.503l-2.052.513c-.351-3.564-.783-7.02-1.323-10.341l2.106-.675zm5.913 10.611v2.457c-2.484.918-5.157 1.674-8.019 2.295l-.648-2.538a51.766 51.766 0 0 0 4.617-.945c.54-3.834.945-7.884 1.215-12.15l2.295.324c-.324 4.023-.756 7.749-1.323 11.205l1.863-.648zm12.447-13.554h-2.997V.914h-2.484v4.968h-2.916V1.967h-2.457v6.156h13.284V1.967h-2.43v3.915zm-11.799 3.969v2.376h5.994a17.846 17.846 0 0 1-.594 2.052h-4.806v11.394h2.295v-9.126h1.809v8.667h2.133v-8.667h1.647v8.64h2.133v-8.64h1.863v6.399c0 .351-.135.54-.405.54l-1.08-.108.621 2.295h1.215c1.296 0 1.944-.756 1.944-2.241v-9.153h-6.858c.216-.675.432-1.35.594-2.052h6.858V9.851h-15.363zM1069.582.833h1.836c3.375 3.483 7.263 6.237 11.664 8.235l-1.269 2.295a35.944 35.944 0 0 1-3.78-2.079v2.43h-6.237v4.05h7.587v2.484h-7.587v4.266h10.044v2.511h-22.653v-2.511h10.017v-4.266h-7.614v-2.484h7.614v-4.05h-6.237v-2.43a53.331 53.331 0 0 1-3.888 2.133l-1.242-2.241c4.698-2.241 8.613-5.022 11.745-8.343zm-6.561 8.424h14.958a35.861 35.861 0 0 1-7.479-6.102c-2.052 2.268-4.563 4.293-7.479 6.102zm43.794 1.269v10.233h-2.538v-7.884h-13.527v8.289h-2.538V10.526h18.603zm-17.01-8.856h15.417v7.209h-15.417V1.67zm12.933 4.995V3.938h-10.449v2.727h10.449zm-6.291 7.614l2.592.243c-.378 4.05-1.215 6.75-2.511 8.1-1.35 1.674-4.644 2.781-9.855 3.267l-.999-2.349c4.347-.216 7.236-1.026 8.64-2.43 1.215-1.323 1.917-3.591 2.133-6.831zm3.186 6.102c3.51.945 6.696 2.079 9.612 3.402l-1.404 2.133c-3.078-1.539-6.237-2.754-9.477-3.618l1.269-1.917zm12.447-15.228v2.43h8.694v-2.43h-2.97a52.097 52.097 0 0 0-1.026-3.969l-2.565.432c.432 1.08.81 2.241 1.161 3.537h-3.294zm2.673 3.672c.486 3.051.891 6.561 1.269 10.503l-2.052.513c-.351-3.564-.783-7.02-1.323-10.341l2.106-.675zm5.913 10.611v2.457c-2.484.918-5.157 1.674-8.019 2.295l-.648-2.538a51.766 51.766 0 0 0 4.617-.945c.54-3.834.945-7.884 1.215-12.15l2.295.324c-.324 4.023-.756 7.749-1.323 11.205l1.863-.648zm12.447-13.554h-2.997V.914h-2.484v4.968h-2.916V1.967h-2.457v6.156h13.284V1.967h-2.43v3.915zm-11.799 3.969v2.376h5.994a17.846 17.846 0 0 1-.594 2.052h-4.806v11.394h2.295v-9.126h1.809v8.667h2.133v-8.667h1.647v8.64h2.133v-8.64h1.863v6.399c0 .351-.135.54-.405.54l-1.08-.108.621 2.295h1.215c1.296 0 1.944-.756 1.944-2.241v-9.153h-6.858c.216-.675.432-1.35.594-2.052h6.858V9.851h-15.363z" fill="#DD3730"/><path d="M1073.332 237.778h4.95c.108-.792.198-1.62.288-2.466h1.296c-.09.864-.18 1.692-.288 2.466h9.342v1.26h-9.522a56.926 56.926 0 0 1-.504 2.7h8.244v1.134a12.857 12.857 0 0 1-3.438 5.13c1.494 1.134 3.33 1.98 5.49 2.556l-.648 1.188c-2.358-.684-4.302-1.656-5.832-2.898-1.584 1.188-3.51 2.178-5.742 2.952l-.684-1.224c2.178-.666 3.996-1.53 5.472-2.574-1.422-1.404-2.43-3.096-3.024-5.058h-.126a22.426 22.426 0 0 1-.72 2.322c-.936 2.376-2.34 4.482-4.212 6.354l-.81-1.044c1.692-1.746 2.97-3.69 3.834-5.814.576-1.548 1.044-3.456 1.404-5.724h-4.77v-1.26zm6.606 5.166c.612 1.674 1.548 3.096 2.808 4.266 1.386-1.224 2.394-2.646 3.024-4.266h-5.832zm17.028-.414c-.684.36-1.368.684-2.07.99v-3.672h2.016v-1.242h-2.016v-3.258h-1.278v3.258h-2.61v1.242h2.61v4.176c-.936.324-1.89.612-2.88.846l.324 1.278c.864-.27 1.728-.558 2.556-.864v4.536c0 .504-.252.774-.738.774s-.99-.036-1.512-.09l.288 1.242h1.674c1.044 0 1.566-.54 1.566-1.62v-5.364a30.618 30.618 0 0 0 2.07-.954v-1.278zm2.214 1.134v8.136h-1.224v-15.768h7.902c0 1.998-.108 3.33-.306 3.996-.216.648-.9.99-2.052.99h-1.296l-.36-1.134c.288 0 .63.018 1.062.018.432 0 .774-.036.99-.072a.897.897 0 0 0 .486-.414c.126-.342.198-1.08.234-2.196h-5.436v5.256h6.84v1.116c-.36 1.908-.99 3.546-1.926 4.896.864.828 1.926 1.584 3.186 2.286l-.864.99c-1.188-.756-2.214-1.53-3.042-2.358-.864.99-1.926 1.8-3.15 2.412l-.63-1.134c1.152-.576 2.124-1.314 2.916-2.214-1.242-1.476-1.998-3.078-2.286-4.806h-1.044zm2.214 0a8.251 8.251 0 0 0 1.818 3.87c.72-1.098 1.242-2.394 1.566-3.87h-3.384zm14.292-7.65v11.304h-1.152V237.22h-3.888v10.098h-1.188v-11.304h6.228zm-3.69 2.52h1.116v5.85c-.036 2.016-.324 3.636-.9 4.842-.558 1.116-1.458 1.998-2.718 2.628l-.702-1.08c1.188-.594 2.034-1.386 2.502-2.376.432-1.044.666-2.376.702-4.014v-5.85zm1.728 9.288c1.008 1.008 1.836 1.998 2.502 2.97l-.918.918c-.576-.972-1.386-1.998-2.412-3.078l.828-.81zm6.858-3.816h-1.584v6.12a14.26 14.26 0 0 0 2.448-1.242l.234 1.152c-1.116.702-2.376 1.278-3.816 1.728l-.54-1.152c.27-.126.414-.306.414-.558v-6.048h-1.296v-1.26h1.296v-7.434h1.26v7.434h5.976v1.26h-3.258c.828 2.88 2.034 5.076 3.6 6.624l-.882 1.008c-1.692-1.728-2.988-4.284-3.852-7.632zm3.132-7.884l.99.81c-1.26 2.016-2.754 3.528-4.446 4.5l-.702-1.008c1.62-.936 3.006-2.376 4.158-4.302z" fill="#333"/><rect fill="#DD3730" y="315" width="998" height="62" rx="2"/><rect fill="#DFDFDF" y="621" width="998" height="62" rx="2"/><g fill-rule="nonzero" fill="#DD3730"><path d="M554.17 640c-.848 0-1.534.67-1.534 1.5v1.5h11.762c.848 0 1.534.67 1.534 1.5V660h1.534c.849 0 1.534-.67 1.534-1.5v-17c0-.83-.685-1.5-1.534-1.5H554.17z"/><path d="M563.83 643.636h-13.296c-.848 0-1.534.697-1.534 1.558v15.975c0 .862.686 1.558 1.534 1.558h13.296c.848 0 1.534-.696 1.534-1.558v-15.975c0-.861-.686-1.558-1.534-1.558zm-3.17 11.592c.423 0 .72.326.72.725 0 .4-.297.682-.72.682h-3.05v1.94c0 .338-.329.613-.734.613-.402 0-.688-.275-.688-.613v-1.94h-2.44c-.422 0-.764-.28-.764-.682 0-.4.342-.725.764-.725h2.44v-1.405h-2.44c-.422 0-.764-.28-.764-.681 0-.4.342-.726.764-.726h2.004l-2.231-2.45c-.202-.225-.12-.624.184-.89.302-.265.71-.299.91-.075l2.283 2.554 2.238-2.554c.202-.224.61-.19.911.076.302.265.384.664.185.888L558 652.416h2.615c.422 0 .765.324.765.726 0 .401-.343.681-.765.681h-3.005v1.405h3.05z"/></g><g fill-rule="nonzero" fill="#DD3730"><path d="M835.17 640c-.848 0-1.534.67-1.534 1.5v1.5h11.762c.848 0 1.534.67 1.534 1.5V660h1.534c.849 0 1.534-.67 1.534-1.5v-17c0-.83-.685-1.5-1.534-1.5H835.17z"/><path d="M844.83 643.636h-13.296c-.848 0-1.534.697-1.534 1.558v15.975c0 .862.686 1.558 1.534 1.558h13.296c.848 0 1.534-.696 1.534-1.558v-15.975c0-.861-.686-1.558-1.534-1.558zm-3.17 11.592c.423 0 .72.326.72.725 0 .4-.297.682-.72.682h-3.05v1.94c0 .338-.329.613-.734.613-.402 0-.688-.275-.688-.613v-1.94h-2.44c-.422 0-.764-.28-.764-.682 0-.4.342-.725.764-.725h2.44v-1.405h-2.44c-.422 0-.764-.28-.764-.681 0-.4.342-.726.764-.726h2.004l-2.231-2.45c-.202-.225-.12-.624.184-.89.302-.265.71-.299.91-.075l2.283 2.554 2.238-2.554c.202-.224.61-.19.911.076.302.265.384.664.185.888L839 652.416h2.615c.422 0 .765.324.765.726 0 .401-.343.681-.765.681h-3.005v1.405h3.05z"/></g><rect fill="#DD3730" x="408" y="407" width="182" height="40" rx="2"/><path d="M506.04 393.738v6.303l8-8-8-8v6.465h-16.08v3.232h16.08z" fill="url(#a)" transform="rotate(90 502 392.04)"/><path d="M162.05 288.173v7.878l10-10-10-10v8.081h-20.1v4.04h20.1z" fill="url(#a)" transform="rotate(90 157 286.05)"/><path d="M401.05 288.173v7.878l10-10-10-10v8.081h-20.1v4.04h20.1z" fill="url(#a)" transform="rotate(90 396 286.05)"/><path d="M547.05 288.173v7.878l10-10-10-10v8.081h-20.1v4.04h20.1z" fill="url(#a)" transform="rotate(90 542 286.05)"/><path d="M723.05 288.173v7.878l10-10-10-10v8.081h-20.1v4.04h20.1z" fill="url(#a)" transform="rotate(90 718 286.05)"/><path d="M886.05 288.173v7.878l10-10-10-10v8.081h-20.1v4.04h20.1z" fill="url(#a)" transform="rotate(90 881 286.05)"/><path d="M506.04 463.738v6.303l8-8-8-8v6.465h-16.08v3.232h16.08z" fill="url(#a)" transform="rotate(90 502 462.04)"/><path d="M506.04 534.738v6.303l8-8-8-8v6.465h-16.08v3.232h16.08z" fill="url(#a)" transform="rotate(90 502 533.04)"/><rect fill="#DD3730" x="408" y="477" width="182" height="40" rx="2"/><rect fill="#DD3730" x="408" y="548" width="182" height="40" rx="2"/><path d="M456.555 333.806h1.89c3.402 3.726 7.29 6.669 11.718 8.829l-1.404 2.484a34.157 34.157 0 0 1-4.509-2.781v2.025h-13.419v-2.133a49.576 49.576 0 0 1-4.698 2.916l-1.377-2.484c4.725-2.376 8.667-5.319 11.799-8.856zm-5.319 8.127h12.474a36.443 36.443 0 0 1-6.21-5.832c-1.755 2.133-3.834 4.077-6.264 5.832zm-4.644 5.427v2.484h6.318a30.883 30.883 0 0 1-3.726 5.373c-.27.297-.702.54-1.323.702l.702 2.214c6.318-.378 11.583-.891 15.768-1.539.513.729.999 1.458 1.458 2.16l2.133-1.512c-1.35-1.971-3.24-4.293-5.697-6.966l-1.998 1.269a53.998 53.998 0 0 1 2.673 3.186c-3.618.432-7.344.756-11.232.972 1.593-1.674 2.997-3.618 4.212-5.859h12.582v-2.484h-21.87zm33.993-5.616h7.074v-7.911h2.646v7.911h6.696v2.538h-6.696v14.553h-2.646v-14.553h-7.074v-2.538zm-4.914-7.668l-1.782 1.755c1.917 1.404 3.402 2.754 4.482 4.023l1.755-1.782c-1.215-1.35-2.7-2.673-4.455-3.996zm-3.564 7.83h6.237v11.502c.864-.702 1.755-1.512 2.7-2.403l.675 2.619a39.054 39.054 0 0 1-5.562 4.347l-.972-2.295c.459-.378.702-.837.702-1.377v-9.936h-3.78v-2.457zm28.431-7.02h21.978v2.511h-9.828v9.558h10.854v2.457h-10.854v9.342h-2.592v-9.342h-10.638v-2.457h10.638v-9.558h-9.558v-2.511zm3.78 3.78a70.993 70.993 0 0 1 2.835 6.048l-2.403 1.188c-.891-2.268-1.836-4.293-2.835-6.075l2.403-1.161zm14.58-.108l2.349 1.107c-.783 2.079-1.809 4.104-3.051 6.102l-2.322-1.188c1.269-2.052 2.268-4.05 3.024-6.021zm28.836 8.775v11.475h-2.592v-1.107h-13.284v1.107h-2.592v-11.475h18.468zm-15.876 7.911h13.284v-5.454h-13.284v5.454zm-4.347-10.422c6.912-.27 13.203-.648 18.846-1.134.621.999 1.242 2.052 1.89 3.186l2.511-1.242c-1.971-3.267-4.05-6.237-6.237-8.937l-2.322 1.107a57.034 57.034 0 0 1 2.646 3.618c-4.293.405-8.721.702-13.311.864 2.268-2.052 4.482-4.59 6.669-7.614l-2.673-.918c-3.618 5.292-6.453 8.181-8.505 8.64l.486 2.43zm-58.979 147.526h.936c2.286 2.52 4.914 4.5 7.884 5.94l-.702 1.242a24.87 24.87 0 0 1-7.65-6.03c-1.944 2.34-4.518 4.356-7.722 6.048l-.684-1.242c3.168-1.584 5.814-3.582 7.938-5.958zm.324 4.752h1.314v4.05h4.914v1.242h-4.914v4.428h6.21v1.26h-14.976v-1.26h2.718v-7.128h1.278v7.128h3.456v-9.72zm15.534-4.626h1.314v14.31h2.556v-14.31h1.314v14.31h5.4v1.26h-15.948v-1.26h5.364v-14.31zm8.946 3.276l1.152.324c-.72 3.132-1.62 5.868-2.718 8.226l-1.17-.414c1.044-2.124 1.962-4.842 2.736-8.136zm-12.762-.036c.936 2.43 1.782 5.22 2.52 8.37l-1.188.306a67.398 67.398 0 0 0-2.43-8.316l1.098-.36zm22.392 3.816c-.684.36-1.368.684-2.07.99v-3.672h2.016v-1.242h-2.016v-3.258h-1.278v3.258h-2.61v1.242h2.61v4.176c-.936.324-1.89.612-2.88.846l.324 1.278c.864-.27 1.728-.558 2.556-.864v4.536c0 .504-.252.774-.738.774s-.99-.036-1.512-.09l.288 1.242h1.674c1.044 0 1.566-.54 1.566-1.62v-5.364a30.618 30.618 0 0 0 2.07-.954v-1.278zm2.214 1.134v8.136h-1.224v-15.768h7.902c0 1.998-.108 3.33-.306 3.996-.216.648-.9.99-2.052.99h-1.296l-.36-1.134c.288 0 .63.018 1.062.018.432 0 .774-.036.99-.072a.897.897 0 0 0 .486-.414c.126-.342.198-1.08.234-2.196h-5.436v5.256h6.84v1.116c-.36 1.908-.99 3.546-1.926 4.896.864.828 1.926 1.584 3.186 2.286l-.864.99c-1.188-.756-2.214-1.53-3.042-2.358-.864.99-1.926 1.8-3.15 2.412l-.63-1.134c1.152-.576 2.124-1.314 2.916-2.214-1.242-1.476-1.998-3.078-2.286-4.806h-1.044zm2.214 0a8.251 8.251 0 0 0 1.818 3.87c.72-1.098 1.242-2.394 1.566-3.87h-3.384zm14.292-7.65v11.304h-1.152V494.22h-3.888v10.098h-1.188v-11.304h6.228zm-3.69 2.52h1.116v5.85c-.036 2.016-.324 3.636-.9 4.842-.558 1.116-1.458 1.998-2.718 2.628l-.702-1.08c1.188-.594 2.034-1.386 2.502-2.376.432-1.044.666-2.376.702-4.014v-5.85zm1.728 9.288c1.008 1.008 1.836 1.998 2.502 2.97l-.918.918c-.576-.972-1.386-1.998-2.412-3.078l.828-.81zm6.858-3.816h-1.584v6.12a14.26 14.26 0 0 0 2.448-1.242l.234 1.152c-1.116.702-2.376 1.278-3.816 1.728l-.54-1.152c.27-.126.414-.306.414-.558v-6.048h-1.296v-1.26h1.296v-7.434h1.26v7.434h5.976v1.26h-3.258c.828 2.88 2.034 5.076 3.6 6.624l-.882 1.008c-1.692-1.728-2.988-4.284-3.852-7.632zm3.132-7.884l.99.81c-1.26 2.016-2.754 3.528-4.446 4.5l-.702-1.008c1.62-.936 3.006-2.376 4.158-4.302zm-61.182 69.154h.936c2.286 2.646 4.932 4.734 7.92 6.246l-.702 1.242a25.416 25.416 0 0 1-7.686-6.318c-1.962 2.448-4.554 4.554-7.758 6.354l-.684-1.242c3.204-1.692 5.85-3.78 7.974-6.282zm6.156 9.252v7.254h-1.26v-1.08h-8.856v1.08h-1.26v-7.254h11.376zm-10.116 4.932h8.856v-3.708h-8.856v3.708zm-.252-8.46h9.36v1.242h-9.36V568zm19.134-5.904c.594.9 1.17 1.89 1.71 2.97l-1.17.576a20.83 20.83 0 0 0-1.728-2.97l1.188-.576zm6.012 4.842h-4.626v1.746c-.018.9-.072 1.728-.162 2.484h4.788v-4.23zm0 5.472h-4.968c-.216 1.116-.522 2.07-.9 2.88-.756 1.53-1.98 2.718-3.69 3.564l-.756-1.188c1.62-.828 2.772-1.944 3.42-3.348.234-.576.432-1.206.576-1.908h-4.158v-1.242h4.356c.108-.774.162-1.602.18-2.484v-1.746h-3.798v-1.242h9.09c.684-1.116 1.26-2.322 1.764-3.6l1.386.504c-.504 1.152-1.062 2.196-1.674 3.096h4.032v1.242h-3.528v4.23h4.23v1.242h-4.23v6.3h-1.332v-6.3zm13.5-2.88c-.684.36-1.368.684-2.07.99v-3.672h2.016v-1.242h-2.016v-3.258h-1.278v3.258h-2.61v1.242h2.61v4.176c-.936.324-1.89.612-2.88.846l.324 1.278c.864-.27 1.728-.558 2.556-.864v4.536c0 .504-.252.774-.738.774s-.99-.036-1.512-.09l.288 1.242h1.674c1.044 0 1.566-.54 1.566-1.62v-5.364a30.618 30.618 0 0 0 2.07-.954v-1.278zm2.214 1.134v8.136h-1.224v-15.768h7.902c0 1.998-.108 3.33-.306 3.996-.216.648-.9.99-2.052.99h-1.296l-.36-1.134c.288 0 .63.018 1.062.018.432 0 .774-.036.99-.072a.897.897 0 0 0 .486-.414c.126-.342.198-1.08.234-2.196h-5.436v5.256h6.84v1.116c-.36 1.908-.99 3.546-1.926 4.896.864.828 1.926 1.584 3.186 2.286l-.864.99c-1.188-.756-2.214-1.53-3.042-2.358-.864.99-1.926 1.8-3.15 2.412l-.63-1.134c1.152-.576 2.124-1.314 2.916-2.214-1.242-1.476-1.998-3.078-2.286-4.806h-1.044zm2.214 0a8.251 8.251 0 0 0 1.818 3.87c.72-1.098 1.242-2.394 1.566-3.87h-3.384zm8.478-6.804v1.188h6.462v1.71h-5.418v1.188h5.418v1.71h-7.092v1.17h5.778c-1.332 1.566-3.42 2.844-6.3 3.852l.684 1.116a21.363 21.363 0 0 0 3.276-1.62V577c0 .288-.198.504-.576.648l.432 1.116a41.022 41.022 0 0 0 5.688-1.836l-.252-1.206a42.67 42.67 0 0 1-4.014 1.422v-3.834c.99-.756 1.8-1.584 2.43-2.484h.63c1.512 3.906 3.96 6.534 7.308 7.884l.684-1.134a11.32 11.32 0 0 1-4.302-2.844c1.152-.504 2.178-1.224 3.096-2.142l-.9-.864c-.936.99-1.908 1.71-2.916 2.178a13.515 13.515 0 0 1-1.782-3.078h6.552v-1.17h-7.092v-1.71h5.418v-1.188h-5.418v-1.71h6.462v-1.188h-6.462v-1.53h-1.332v1.53h-6.462z" fill="#FFF"/><path d="M67.72 642.5l1.7.88c-.28.3-.54.58-.8.84h5.34v1.48c-2.16 3.84-6.16 6.02-12.02 6.5l-.8-1.72c1.68-.1 3.18-.32 4.5-.68-.56-.68-1.16-1.3-1.76-1.86l1.64-.78c.66.64 1.3 1.32 1.9 2.04 1.84-.78 3.3-1.88 4.36-3.3H66.4c-1.56.92-3.38 1.6-5.48 2.06l-1.12-1.74c3.54-.64 6.18-1.88 7.92-3.72zM67.4 655c.72.72 1.4 1.48 2.04 2.3 1.96-.88 3.54-2.06 4.7-3.56h-5.48c-1.74.8-3.78 1.44-6.12 1.9l-1.14-1.7c4.36-.42 7.58-1.7 9.62-3.86l1.62.88c-.36.38-.76.74-1.16 1.06h5.1v1.48c-2.86 4.68-8.18 7.12-15.98 7.32l-.76-1.82c3.02 0 5.62-.34 7.8-1.02-.62-.8-1.26-1.54-1.92-2.18l1.68-.8zm18.2-11.7h11.06v1.76h-5.48l-.38 1.76h4.72v3.86h1.78v1.76H85.12v-1.76h2.98l.46-2.14h-2.48v-1.72h2.84l.38-1.76h-3.7v-1.76zm4.38 7.38h3.64v-2.14h-3.18l-.46 2.14zm6.06 3.28v7.14h-1.86v-.84h-5.8v.84h-1.86v-7.14h9.52zm-7.66 4.52h5.8v-2.78h-5.8v2.78zm-6.88-15.7l-1.34 1.3c1.4 1.04 2.48 2 3.26 2.92l1.3-1.32c-.88-.96-1.96-1.94-3.22-2.9zm-2.74 5.78h4.62v8.42c.54-.5 1.12-1.06 1.74-1.68l.52 2c-1.2 1.18-2.5 2.24-3.86 3.16l-.72-1.7c.32-.28.5-.62.5-1.02v-7.36h-2.8v-1.82zm20.22-3.68v1.78h18.06v-1.78h-7.9l.1-.04c-.22-.72-.54-1.52-.98-2.4l-2 .54c.36.62.68 1.26.96 1.9h-8.24zm2.54 3.2v1.7h12.98v-1.7h-12.98zm0 3.06v1.7h12.98v-1.7h-12.98zm13.38 3.22v6.74h-1.86v-.8h-10.08v.8h-1.86v-6.74h13.8zm-11.94 4.14h10.08v-2.34h-10.08v2.34zm18.52-2.46l-1.14 1.04c.8.64 1.56 1.34 2.28 2.1.64.68 1.24 1.38 1.76 2.14l1.3-1.1c-.56-.76-1.16-1.46-1.8-2.12-.76-.8-1.56-1.48-2.4-2.06zm26.24-13.54l1.7.88c-.28.3-.54.58-.8.84h5.34v1.48c-2.16 3.84-6.16 6.02-12.02 6.5l-.8-1.72c1.68-.1 3.18-.32 4.5-.68-.56-.68-1.16-1.3-1.76-1.86l1.64-.78c.66.64 1.3 1.32 1.9 2.04 1.84-.78 3.3-1.88 4.36-3.3h-5.38c-1.56.92-3.38 1.6-5.48 2.06l-1.12-1.74c3.54-.64 6.18-1.88 7.92-3.72zm-.32 12.5c.72.72 1.4 1.48 2.04 2.3 1.96-.88 3.54-2.06 4.7-3.56h-5.48c-1.74.8-3.78 1.44-6.12 1.9l-1.14-1.7c4.36-.42 7.58-1.7 9.62-3.86l1.62.88c-.36.38-.76.74-1.16 1.06h5.1v1.48c-2.86 4.68-8.18 7.12-15.98 7.32l-.76-1.82c3.02 0 5.62-.34 7.8-1.02-.62-.8-1.26-1.54-1.92-2.18l1.68-.8zm26.22 3.64c1.26 0 1.9-.7 1.9-2.06v-8.14H169v-2.86c2.82-.28 5.3-.68 7.42-1.24l-.96-1.66c-4.4 1-9.8 1.52-16.22 1.52l.58 1.78c2.6 0 5.02-.08 7.26-.24v2.7h-6.54v10.24h1.88v-8.4h4.66v10.82H169v-10.82h4.64v5.88c0 .44-.22.66-.64.66l-1.74-.08.5 1.9h1.86zm17.18-15.96h1.9v3.36h3.9v9.34h-1.84v-.9h-2.06v6.58h-1.9v-6.58h-1.98v.9H187v-9.34h3.8v-3.36zm-1.98 10.06h1.98v-4.9h-1.98v4.9zm3.88 0h2.06v-4.9h-2.06v4.9zm-13.26-7.08c.84-.08 1.66-.18 2.46-.3v2.56h-2.92v1.82h2.72c-.66 2.04-1.7 3.86-3.12 5.48l.78 2a20.3 20.3 0 0 0 2.54-4.68v8.54h1.84v-8.82c.52.72 1.12 1.62 1.82 2.72l1.06-1.6a42.55 42.55 0 0 0-2.88-2.84v-.8h2.42v-1.82h-2.42v-2.88c.86-.2 1.68-.4 2.46-.62l-.66-1.76c-1.9.62-4.06 1.04-6.48 1.24l.38 1.76z" fill="#DD3730"/><path d="M453.33 647.462h6.93a17.657 17.657 0 0 0 1.908-3.366l1.242.45c-.576 1.152-1.152 2.124-1.746 2.916h3.006v5.868h-11.34v-5.868zm10.044 4.644v-3.42h-8.748v3.42h8.748zm-7.83-7.938c.684.81 1.332 1.71 1.944 2.682l-1.098.54a19.78 19.78 0 0 0-1.944-2.682l1.098-.54zm-2.97 10.656c-.378 1.62-.972 3.114-1.8 4.464l1.098.702c.828-1.368 1.476-3.006 1.944-4.896l-1.242-.27zm6.786-.774a17.632 17.632 0 0 1 1.728 3.006l-1.188.522a19.112 19.112 0 0 0-1.674-3.15l1.134-.378zm5.67.432a27.89 27.89 0 0 1 2.106 4.428l-1.188.522c-.648-1.728-1.368-3.24-2.16-4.554l1.242-.396zm-3.456 6.084h-4.59c-1.134 0-1.692-.612-1.692-1.8v-3.78h1.314v3.51c0 .558.252.846.774.846h3.96c.396 0 .666-.108.828-.324.216-.27.342-1.026.414-2.286l1.242.396c-.126 1.62-.378 2.628-.738 3.006-.324.288-.828.432-1.512.432zm14.112-15.552v11.304h-1.152V646.22h-3.888v10.098h-1.188v-11.304h6.228zm-3.69 2.52h1.116v5.85c-.036 2.016-.324 3.636-.9 4.842-.558 1.116-1.458 1.998-2.718 2.628l-.702-1.08c1.188-.594 2.034-1.386 2.502-2.376.432-1.044.666-2.376.702-4.014v-5.85zm1.728 9.288c1.008 1.008 1.836 1.998 2.502 2.97l-.918.918c-.576-.972-1.386-1.998-2.412-3.078l.828-.81zm6.858-3.816h-1.584v6.12a14.26 14.26 0 0 0 2.448-1.242l.234 1.152c-1.116.702-2.376 1.278-3.816 1.728l-.54-1.152c.27-.126.414-.306.414-.558v-6.048h-1.296v-1.26h1.296v-7.434h1.26v7.434h5.976v1.26h-3.258c.828 2.88 2.034 5.076 3.6 6.624l-.882 1.008c-1.692-1.728-2.988-4.284-3.852-7.632zm3.132-7.884l.99.81c-1.26 2.016-2.754 3.528-4.446 4.5l-.702-1.008c1.62-.936 3.006-2.376 4.158-4.302zm11.214-.882l1.152.612c-.324.36-.666.702-1.026 1.026h5.166v1.026c-1.944 3.456-5.562 5.4-10.818 5.814l-.558-1.17c1.62-.108 3.06-.342 4.356-.72a17.562 17.562 0 0 0-1.764-1.872l1.134-.54c.648.612 1.26 1.26 1.836 1.98 1.872-.756 3.33-1.89 4.338-3.366h-5.256c-1.404.828-3.06 1.458-4.986 1.89l-.756-1.188c3.204-.612 5.598-1.764 7.182-3.492zm-.684 11.25c.684.702 1.35 1.458 1.962 2.268 1.998-.864 3.564-2.106 4.716-3.69h-5.328c-1.584.756-3.456 1.332-5.634 1.71l-.774-1.152c3.924-.396 6.822-1.602 8.694-3.582l1.116.612c-.432.432-.882.846-1.386 1.224h4.932v1.026c-2.556 4.248-7.308 6.444-14.292 6.606l-.522-1.242c2.808-.018 5.238-.36 7.272-1.044a19.206 19.206 0 0 0-1.908-2.196l1.152-.54zm17.442-10.476v11.304h-1.152V646.22h-3.888v10.098h-1.188v-11.304h6.228zm-3.69 2.52h1.116v5.85c-.036 2.016-.324 3.636-.9 4.842-.558 1.116-1.458 1.998-2.718 2.628l-.702-1.08c1.188-.594 2.034-1.386 2.502-2.376.432-1.044.666-2.376.702-4.014v-5.85zm1.728 9.288c1.008 1.008 1.836 1.998 2.502 2.97l-.918.918c-.576-.972-1.386-1.998-2.412-3.078l.828-.81zm6.858-3.816h-1.584v6.12a14.26 14.26 0 0 0 2.448-1.242l.234 1.152c-1.116.702-2.376 1.278-3.816 1.728l-.54-1.152c.27-.126.414-.306.414-.558v-6.048h-1.296v-1.26h1.296v-7.434h1.26v7.434h5.976v1.26h-3.258c.828 2.88 2.034 5.076 3.6 6.624l-.882 1.008c-1.692-1.728-2.988-4.284-3.852-7.632zm3.132-7.884l.99.81c-1.26 2.016-2.754 3.528-4.446 4.5l-.702-1.008c1.62-.936 3.006-2.376 4.158-4.302zm9.54 8.046v.882h2.97v-.882h-2.97zm4.23 0v.882h2.952v-.882h-2.952zm2.952-.81v-.99h-2.952v.99h2.952zm-4.212 0v-.99h-2.97v.99h2.97zm-2.97 2.502v1.134h-1.224v-5.472h4.194v-1.044h-5.112v-.918h5.112v-.828h1.26v.828h3.348a11.737 11.737 0 0 0-.468-1.062l1.08-.18c.144.36.27.774.414 1.242h.864v.918h-5.238v1.044h4.176v5.364h-1.098v.828h2.412v1.044h-2.412v1.728c0 .792-.45 1.206-1.332 1.206h-1.89l-.234-1.062c.612.036 1.188.072 1.746.072.306 0 .468-.162.468-.486v-1.458h-8.244v-1.044h8.244v-.846h1.116v-1.008h-2.952v1.098h-1.26v-1.098h-2.97zm-5.004-6.336l-.828.792c1.008.702 1.818 1.368 2.412 1.98l.81-.81c-.648-.666-1.458-1.314-2.394-1.962zm-.342 3.15l-.828.81c1.008.72 1.8 1.386 2.376 2.034l.828-.81a16.224 16.224 0 0 0-2.376-2.034zm1.53 3.726a38.825 38.825 0 0 1-2.178 4.644l1.152.522a38.211 38.211 0 0 0 2.088-4.752l-1.062-.414zm4.302 2.466a18.735 18.735 0 0 1 2.574 1.746l-.81.792c-.612-.576-1.458-1.17-2.538-1.782l.774-.756zm-4.302-11.322a10.109 10.109 0 0 1-1.332 1.44l-1.044-.666c1.134-.936 1.962-1.98 2.484-3.114l1.134.234c-.18.36-.342.72-.522 1.044h4.572v1.062h-2.394c.324.414.576.792.774 1.152l-1.026.396a12.812 12.812 0 0 0-1.026-1.548h-1.62zm7.47 0c-.324.432-.648.81-.99 1.17l-.99-.63c.882-.864 1.512-1.8 1.908-2.844l1.17.252c-.144.36-.306.684-.45.99h5.4v1.062h-3.636c.252.396.468.756.648 1.116l-1.044.378a11.024 11.024 0 0 0-.846-1.494h-1.17zm166.07 1.52h4.374v-1.944h1.296v1.944h4.374v1.224h-4.374v1.962h3.078v4.95h-7.434v-4.95h3.06v-1.962h-4.374v-1.224zm7.524 7.002v-2.7h-4.986v2.7h4.986zm4.77-10.98V659.8h-1.296v-.81h-11.952v.81h-1.278v-15.714h14.526zm-13.248 13.68h11.952V645.31h-11.952v12.456zm18.702-9.126h10.584v1.224h-4.572v3.168h5.364v1.224h-5.364v3.726c1.26.18 2.772.288 4.572.306.918 0 1.854-.036 2.826-.108l-.234 1.296h-2.016c-3.636 0-6.228-.342-7.812-1.008-1.188-.558-2.16-1.422-2.898-2.592-.702 1.548-1.566 2.844-2.592 3.888l-.828-1.026c1.728-1.836 2.88-4.302 3.492-7.398l1.26.216a22.422 22.422 0 0 1-.828 3.078c.864 1.548 1.944 2.52 3.24 2.934.162.054.342.108.522.144v-7.848h-4.716v-1.224zm12.636-3.51v3.834h-1.26v-2.646h-12.204v2.736h-1.26v-3.924h6.876a13.72 13.72 0 0 0-.9-1.782l1.386-.216c.288.594.576 1.26.828 1.998h6.534zm3.762-1.458l-.63.972c.99.324 1.962.756 2.934 1.332l.684-1.044c-.9-.504-1.908-.918-2.988-1.26zm5.796-.432l1.278.162c-.144.396-.288.792-.468 1.152h7.254v.774a17.937 17.937 0 0 1-.864 2.628l-1.242-.378c.306-.558.558-1.188.774-1.89h-3.06c-.072.432-.18.828-.324 1.188.936 1.386 2.79 2.34 5.562 2.862l-.468 1.152c-2.628-.54-4.5-1.512-5.616-2.952-.216.324-.45.63-.72.918-.882.828-2.322 1.494-4.338 1.962l-.486-1.152c1.764-.378 3.042-.9 3.834-1.584.648-.594 1.098-1.386 1.314-2.394h-2.304a10.431 10.431 0 0 1-1.782 1.782l-.756-1.008c1.188-.864 1.98-1.944 2.412-3.222zm6.84 8.064v5.346h-1.296v-4.14h-8.982v4.284h-1.296v-5.49h11.574zm-6.3 1.89l1.296.108c-.252 2.286-.792 3.816-1.638 4.608-.936.972-3.024 1.602-6.264 1.854l-.504-1.152c2.862-.162 4.752-.648 5.67-1.476.81-.774 1.296-2.088 1.44-3.942zm-3.834-6.138l.756.882c-.9.936-2.016 1.818-3.348 2.646l-.864-1.008c1.368-.774 2.52-1.62 3.456-2.52zm5.544 9.54c2.34.612 4.464 1.35 6.39 2.214l-.702 1.08a35.316 35.316 0 0 0-6.354-2.304l.666-.99zm16.866-13.536c.288.612.576 1.314.846 2.088h6.318v1.242h-3.132a15.184 15.184 0 0 1-.882 2.736h4.392v1.242h-12.924v2.664c-.072 2.808-.72 5.058-1.962 6.75l-.99-.882c1.044-1.404 1.602-3.366 1.638-5.868v-3.906h3.69l-.756-2.736h-3.294v-1.242h6.588a11.804 11.804 0 0 0-.882-1.854l1.35-.234zm-1.728 6.066h3.636c.396-.864.702-1.782.882-2.736h-5.274l.756 2.736zm19.62-5.886l1.152.612c-.324.36-.666.702-1.026 1.026h5.166v1.026c-1.944 3.456-5.562 5.4-10.818 5.814l-.558-1.17c1.62-.108 3.06-.342 4.356-.72a17.562 17.562 0 0 0-1.764-1.872l1.134-.54c.648.612 1.26 1.26 1.836 1.98 1.872-.756 3.33-1.89 4.338-3.366h-5.256c-1.404.828-3.06 1.458-4.986 1.89l-.756-1.188c3.204-.612 5.598-1.764 7.182-3.492zm-.684 11.25c.684.702 1.35 1.458 1.962 2.268 1.998-.864 3.564-2.106 4.716-3.69h-5.328c-1.584.756-3.456 1.332-5.634 1.71l-.774-1.152c3.924-.396 6.822-1.602 8.694-3.582l1.116.612c-.432.432-.882.846-1.386 1.224h4.932v1.026c-2.556 4.248-7.308 6.444-14.292 6.606l-.522-1.242c2.808-.018 5.238-.36 7.272-1.044a19.206 19.206 0 0 0-1.908-2.196l1.152-.54zm17.442-10.476v11.304h-1.152V645.22h-3.888v10.098h-1.188v-11.304h6.228zm-3.69 2.52h1.116v5.85c-.036 2.016-.324 3.636-.9 4.842-.558 1.116-1.458 1.998-2.718 2.628l-.702-1.08c1.188-.594 2.034-1.386 2.502-2.376.432-1.044.666-2.376.702-4.014v-5.85zm1.728 9.288c1.008 1.008 1.836 1.998 2.502 2.97l-.918.918c-.576-.972-1.386-1.998-2.412-3.078l.828-.81zm6.858-3.816h-1.584v6.12a14.26 14.26 0 0 0 2.448-1.242l.234 1.152c-1.116.702-2.376 1.278-3.816 1.728l-.54-1.152c.27-.126.414-.306.414-.558v-6.048h-1.296v-1.26h1.296v-7.434h1.26v7.434h5.976v1.26h-3.258c.828 2.88 2.034 5.076 3.6 6.624l-.882 1.008c-1.692-1.728-2.988-4.284-3.852-7.632zm3.132-7.884l.99.81c-1.26 2.016-2.754 3.528-4.446 4.5l-.702-1.008c1.62-.936 3.006-2.376 4.158-4.302zm9.54 8.046v.882h2.97v-.882h-2.97zm4.23 0v.882h2.952v-.882h-2.952zm2.952-.81v-.99h-2.952v.99h2.952zm-4.212 0v-.99h-2.97v.99h2.97zm-2.97 2.502v1.134h-1.224v-5.472h4.194v-1.044h-5.112v-.918h5.112v-.828h1.26v.828h3.348a11.737 11.737 0 0 0-.468-1.062l1.08-.18c.144.36.27.774.414 1.242h.864v.918h-5.238v1.044h4.176v5.364h-1.098v.828h2.412v1.044h-2.412v1.728c0 .792-.45 1.206-1.332 1.206h-1.89l-.234-1.062c.612.036 1.188.072 1.746.072.306 0 .468-.162.468-.486v-1.458h-8.244v-1.044h8.244v-.846h1.116v-1.008h-2.952v1.098h-1.26v-1.098h-2.97zm-5.004-6.336l-.828.792c1.008.702 1.818 1.368 2.412 1.98l.81-.81c-.648-.666-1.458-1.314-2.394-1.962zm-.342 3.15l-.828.81c1.008.72 1.8 1.386 2.376 2.034l.828-.81a16.224 16.224 0 0 0-2.376-2.034zm1.53 3.726a38.825 38.825 0 0 1-2.178 4.644l1.152.522a38.211 38.211 0 0 0 2.088-4.752l-1.062-.414zm4.302 2.466a18.735 18.735 0 0 1 2.574 1.746l-.81.792c-.612-.576-1.458-1.17-2.538-1.782l.774-.756zm-4.302-11.322a10.109 10.109 0 0 1-1.332 1.44l-1.044-.666c1.134-.936 1.962-1.98 2.484-3.114l1.134.234c-.18.36-.342.72-.522 1.044h4.572v1.062h-2.394c.324.414.576.792.774 1.152l-1.026.396a12.812 12.812 0 0 0-1.026-1.548h-1.62zm7.47 0c-.324.432-.648.81-.99 1.17l-.99-.63c.882-.864 1.512-1.8 1.908-2.844l1.17.252c-.144.36-.306.684-.45.99h5.4v1.062h-3.636c.252.396.468.756.648 1.116l-1.044.378a11.024 11.024 0 0 0-.846-1.494h-1.17z" fill="#333"/><path d="M463.33 422.462h6.93a17.657 17.657 0 0 0 1.908-3.366l1.242.45c-.576 1.152-1.152 2.124-1.746 2.916h3.006v5.868h-11.34v-5.868zm10.044 4.644v-3.42h-8.748v3.42h8.748zm-7.83-7.938c.684.81 1.332 1.71 1.944 2.682l-1.098.54a19.78 19.78 0 0 0-1.944-2.682l1.098-.54zm-2.97 10.656c-.378 1.62-.972 3.114-1.8 4.464l1.098.702c.828-1.368 1.476-3.006 1.944-4.896l-1.242-.27zm6.786-.774a17.632 17.632 0 0 1 1.728 3.006l-1.188.522a19.112 19.112 0 0 0-1.674-3.15l1.134-.378zm5.67.432a27.89 27.89 0 0 1 2.106 4.428l-1.188.522c-.648-1.728-1.368-3.24-2.16-4.554l1.242-.396zm-3.456 6.084h-4.59c-1.134 0-1.692-.612-1.692-1.8v-3.78h1.314v3.51c0 .558.252.846.774.846h3.96c.396 0 .666-.108.828-.324.216-.27.342-1.026.414-2.286l1.242.396c-.126 1.62-.378 2.628-.738 3.006-.324.288-.828.432-1.512.432zm50.076-15.552v11.304h-1.152V421.22h-3.888v10.098h-1.188v-11.304h6.228zm-3.69 2.52h1.116v5.85c-.036 2.016-.324 3.636-.9 4.842-.558 1.116-1.458 1.998-2.718 2.628l-.702-1.08c1.188-.594 2.034-1.386 2.502-2.376.432-1.044.666-2.376.702-4.014v-5.85zm1.728 9.288c1.008 1.008 1.836 1.998 2.502 2.97l-.918.918c-.576-.972-1.386-1.998-2.412-3.078l.828-.81zm6.858-3.816h-1.584v6.12a14.26 14.26 0 0 0 2.448-1.242l.234 1.152c-1.116.702-2.376 1.278-3.816 1.728l-.54-1.152c.27-.126.414-.306.414-.558v-6.048h-1.296v-1.26h1.296v-7.434h1.26v7.434h5.976v1.26h-3.258c.828 2.88 2.034 5.076 3.6 6.624l-.882 1.008c-1.692-1.728-2.988-4.284-3.852-7.632zm3.132-7.884l.99.81c-1.26 2.016-2.754 3.528-4.446 4.5l-.702-1.008c1.62-.936 3.006-2.376 4.158-4.302z" fill="#FFF"/><path d="M1075.834 70.576v3.15h4.572v-3.15h-4.572zm-.072 4.338c-.198 2.304-.864 4.212-2.016 5.724l-.99-.882c1.152-1.602 1.746-3.636 1.782-6.102v-8.64h13.41v13.482c0 1.26-.63 1.89-1.89 1.89h-2.07l-.342-1.278c.72.036 1.386.072 1.998.072.648 0 .99-.378.99-1.134v-3.132h-4.896v5.274h-1.332v-5.274h-4.644zm10.872-1.188v-3.15h-4.896v3.15h4.896zm0-4.356v-3.096h-4.896v3.096h4.896zm-6.228-3.096h-4.572v3.096h4.572v-3.096zm10.926.504h4.95c.108-.792.198-1.62.288-2.466h1.296c-.09.864-.18 1.692-.288 2.466h9.342v1.26h-9.522a56.926 56.926 0 0 1-.504 2.7h8.244v1.134a12.857 12.857 0 0 1-3.438 5.13c1.494 1.134 3.33 1.98 5.49 2.556l-.648 1.188c-2.358-.684-4.302-1.656-5.832-2.898-1.584 1.188-3.51 2.178-5.742 2.952l-.684-1.224c2.178-.666 3.996-1.53 5.472-2.574-1.422-1.404-2.43-3.096-3.024-5.058h-.126a22.426 22.426 0 0 1-.72 2.322c-.936 2.376-2.34 4.482-4.212 6.354l-.81-1.044c1.692-1.746 2.97-3.69 3.834-5.814.576-1.548 1.044-3.456 1.404-5.724h-4.77v-1.26zm6.606 5.166c.612 1.674 1.548 3.096 2.808 4.266 1.386-1.224 2.394-2.646 3.024-4.266h-5.832zm12.744-6.606v1.26h12.816v-1.26h-12.816zm-1.728 5.022v1.296h6.066c-1.89 3.834-3.42 6.174-4.572 7.038-.072.036-.162.09-.306.126l.342 1.314c4.32-.288 8.298-.648 11.952-1.116.342.648.648 1.278.936 1.908l1.152-.81c-.9-1.836-2.178-4.014-3.834-6.498l-1.044.648a67.425 67.425 0 0 1 2.16 3.564c-3.222.432-6.444.738-9.684.918 1.224-1.332 2.682-3.69 4.338-7.092h8.64V70.36h-16.146z" fill="#333"/><path d="M1112.473 151.123c-1.81 0-3.145-1.31-3.174-3.116-.004-.266.014-.51.055-.746.386-2.224 2.477-4.034 4.66-4.034 1.007 0 1.884.391 2.47 1.102.602.728.832 1.708.65 2.759-.042.24-.109.487-.206.754-.69 1.901-2.564 3.28-4.455 3.28m-26.648.001c-1.812 0-3.147-1.31-3.175-3.116a4.031 4.031 0 0 1 .057-.746c.385-2.224 2.476-4.034 4.66-4.034 1.005 0 1.882.391 2.468 1.1.601.73.832 1.71.65 2.76a4.47 4.47 0 0 1-.204.755c-.689 1.901-2.562 3.28-4.456 3.28" fill="#DD3730"/><g transform="translate(1056 122.5)"><mask id="c" fill="#fff"><use xlink:href="#b"/></mask><path d="M68.99 35.239H56.933l-.576 3.26h12.056L66.8 47.622c-.25 1.417-1.61 2.57-3.032 2.57H14.406c-1.422 0-2.374-1.153-2.123-2.57l1.613-9.123h9.893l.576-3.26h-9.892l1.774-10.036h7.114a6.532 6.532 0 0 1 .097-1.2c.61-3.457 3.814-6.162 7.294-6.162 1.798 0 3.459.749 4.557 2.053 1.13 1.342 1.574 3.09 1.25 4.923-.023.128-.056.258-.087.386h14.28c-.004-.416.025-.81.094-1.2.611-3.457 3.815-6.162 7.294-6.162 1.799 0 3.46.749 4.558 2.054 1.13 1.341 1.573 3.09 1.249 4.923-.023.128-.057.257-.088.385h6.905L68.99 35.239zM40.838 5.019c.518-.616 1.275-.987 2.016-.987h8.864c.74 0 1.367.371 1.667.987l1.88 3.867H37.59l3.247-3.867zm30.234 3.867H59.234l-2.928-6.154C55.712 1.483 54.453.73 52.959.73H42.761c-1.496 0-3.026.757-4.061 2.01l-5.08 6.146H.057c-.354 2 .985 3.658 2.99 3.658h12.7a6.415 6.415 0 0 0-.733 2.018l-.138.778h-10.6c-.355 2 .984 3.62 2.99 3.62h6.97l-.494 2.797H8.565c-.353 2 .986 3.62 2.991 3.62h1.545L9.168 47.622c-.555 3.135 1.545 5.677 4.69 5.677h49.36c3.144 0 6.142-2.542 6.697-5.677l5.846-33.06c.555-3.134-1.545-5.676-4.69-5.676z" fill="#DD3730" mask="url(#c)"/></g><path d="M1095.197 163.379c-3.234-.077-5.648-2.018-6.3-5.064l-3.287.774c.993 4.639 4.726 7.71 9.51 7.823.09.002.181.003.271.003 4.502 0 9.16-2.672 11.934-6.869l-2.769-2.014c-2.2 3.332-5.855 5.452-9.36 5.347" fill="#DD3730"/><path d="M348.92 77.78v1.8h2.02v6.74c-.72.22-1.46.42-2.22.58l.48 1.88c2.04-.6 3.94-1.36 5.72-2.24v-1.9c-.7.36-1.4.68-2.12 1v-6.06h1.86v-1.8h-1.86V72.7h-1.86v5.08h-2.02zm10.02-5.2c.26.72.52 1.54.76 2.46h2.52c.32-.82.54-1.68.7-2.56l1.88.26c-.18.82-.42 1.58-.72 2.3h2.48v7.1h-11.22v-7.1h2.58c-.28-.76-.56-1.48-.88-2.14l1.9-.32zm5.98 8.02v-4h-3.28v4h3.28zm-4.76 0v-4h-3.18v4h3.18zm-1.44-3.38c.32.74.6 1.6.86 2.56l-1.2.32c-.24-.88-.52-1.7-.84-2.5l1.18-.38zm4.34-.1l1.26.32c-.24 1.02-.56 1.92-.94 2.72l-1.18-.42c.32-.7.62-1.58.86-2.62zm2.78 6.12v7.84h-1.82v-.72h-6.08v.72h-1.82v-7.84h9.72zm-7.9 5.58h6.08V87.5h-6.08v1.32zm0-2.76h6.08v-1.3h-6.08v1.3zm21.74-13.42h1.88v1.7h5.04v1.72h-5.04v1.32h3.8v11.4h1.84v1.72h-13.26v-1.72h1.98v-11.4h3.76v-1.32h-4.88v-1.72h4.88v-1.7zm-1.94 16.14h5.82v-1.32h-5.82v1.32zm0-2.82h5.82v-1.28h-5.82v1.28zm0-2.78h5.82v-1.24h-5.82v1.24zm0-2.74h5.82V79.1h-5.82v1.34zm-6.38-.34c-.6.86-1.24 1.68-1.92 2.46l-.62-2.04c1.84-2.28 3.2-4.96 4.06-8l1.72.8c-.38 1.26-.84 2.48-1.4 3.64V91.1h-1.84v-11zm25.68-3.34h2.14c-.52-1.24-1.06-2.34-1.64-3.3l1.54-.74c.6 1.02 1.18 2.14 1.74 3.38l-1.3.66h2.24c.68-1.32 1.26-2.74 1.78-4.26l1.82.64c-.5 1.34-1.06 2.54-1.66 3.62h2.16v6.74h-2.1v4.96c0 .4.14.62.42.62h.74c.2 0 .36-.14.44-.38.12-.28.2-1.1.24-2.48l1.66.52c-.12 1.96-.34 3.12-.66 3.52-.3.36-.76.54-1.36.54h-1.62c-1.08 0-1.62-.66-1.62-1.96V83.5h-1.42c-.2 3.52-1.44 6.08-3.7 7.66l-1-1.66c1.78-1.18 2.76-3.18 2.94-6h-1.78v-6.74zm7.1 5.06v-3.38h-5.36v3.38h5.36zm-14.86-3.96H392v-2.44c-.8.12-1.6.22-2.42.3l-.38-1.76c2.4-.2 4.54-.6 6.42-1.18l.66 1.76c-.78.2-1.6.4-2.44.58v2.74h2.3v1.82h-2.3v1.04c.9.92 1.82 1.96 2.76 3.12l-1.06 1.6c-.66-1.12-1.22-2.02-1.7-2.74v8.22H392v-8.08c-.64 1.62-1.44 3.1-2.4 4.46l-.86-2.2c1.42-1.6 2.46-3.42 3.1-5.42h-2.56v-1.82zm34.56 2.6v4.2h-9.74v1.06h10.68v5.34h-1.9v-.72h-8.78v.7h-1.9V80.46h11.64zm-9.74 8.2h8.78v-1.44h-8.78v1.44zm0-5.52h7.88v-1.16h-7.88v1.16zm12.5-5.18v3.82h-1.86v-2.22h-13.48v2.22h-1.86v-3.82h7.74c-.16-.4-.34-.76-.52-1.08l1.68-.28-.34-.22c.92-1.2 1.6-2.48 2-3.86l1.82.4c-.12.34-.22.66-.34.98H427v1.66h-3.26c.32.44.58.88.8 1.28l-1.68.62c-.32-.64-.7-1.28-1.14-1.9h-1.02c-.34.66-.72 1.28-1.14 1.84l-.96-.62c.16.36.3.76.46 1.18h7.54zm-14.5-2.4c-.44.72-.92 1.4-1.44 2.02L409 76.54c1.16-1.24 1.98-2.6 2.48-4.04l1.82.4c-.12.34-.26.68-.38 1h5.04v1.66h-3c.36.5.68.98.92 1.44l-1.74.66c-.34-.72-.72-1.42-1.16-2.1h-.88zm24.04-2.28h10.12v9.56h-4.1v2h4.36v1.76h-4.36v2.08h5.06v1.82h-12.1v-1.82h5.16V86.6h-4.38v-1.76h4.38v-2h-4.14v-9.56zm8.3 7.88v-2.28h-2.28v2.28h2.28zm-4.16 0v-2.28h-2.32v2.28h2.32zm-2.32-3.92h2.32v-2.28h-2.32v2.28zm4.2-2.28v2.28h2.28v-2.28h-2.28zm-12.92 4.9h1.98v-4.28h-2.28v-1.8h6.46v1.8h-2.26v4.28h2.02v1.82h-2.02v4c.68-.24 1.34-.48 1.98-.76v1.84c-1.84.72-3.8 1.34-5.9 1.84l-.46-1.82c.84-.14 1.66-.32 2.46-.52v-4.58h-1.98v-1.82zm85.5-6.58v11.26h-1.92V75.1h-5.44v9.44h-1.88V73.28h9.24zm-.6 17.46h-2.08c-1.24 0-1.86-.66-1.86-1.94v-3.16c-.26.76-.58 1.44-.94 2.02-.98 1.52-2.6 2.68-4.84 3.5l-1.04-1.6c2.2-.84 3.68-1.9 4.46-3.14.78-1.36 1.2-3.12 1.28-5.28v-4.78h1.82v4.78c-.04 1.24-.18 2.34-.4 3.32h1.56v3.94c0 .4.16.6.52.6h1.18c.24 0 .42-.1.54-.3.12-.24.22-.92.28-2.06l1.76.58c-.14 1.7-.38 2.72-.72 3.06-.34.3-.84.46-1.52.46zm-15.94-10.9h2.14V75.6h-2.4v-1.82h6.68v1.82h-2.36v4.24h2.08v1.84h-2.08v3.96c.82-.28 1.62-.58 2.4-.9v1.82c-2 .8-4.14 1.48-6.4 2.04l-.46-1.82c.86-.16 1.7-.34 2.54-.56v-4.54h-2.14v-1.84zm23.5-1.22c-.88.52-1.8 1-2.76 1.44l-1.1-1.58c3.46-1.52 6.26-3.46 8.42-5.82h1.52c1.86 2.32 4.64 4.24 8.36 5.78l-1.08 1.58c-.96-.4-1.88-.84-2.72-1.32v1.04h-4.38v2.42h6.96v1.76h-6.96v4.9h1.88c.62-1.24 1.16-2.58 1.64-4l1.72.62c-.44 1.26-.92 2.38-1.44 3.38h3.86v1.8H518.4v-1.8h3.92a19.62 19.62 0 0 0-1.42-3.24l1.7-.62c.56 1.08 1.08 2.36 1.56 3.86h1.92v-4.9h-6.98v-1.76h6.98v-2.42h-4.38v-1.12zm9.54-.58c-1.64-1.04-3.04-2.24-4.22-3.6a25.29 25.29 0 0 1-4.38 3.6h8.6zm12.56 3.18c3.42-.2 6.6-.48 9.52-.82.32.48.62.98.9 1.46l1.58-1.1c-.72-1.24-1.78-2.68-3.16-4.32l-1.54.94c.4.5.78 1 1.16 1.5-2 .22-4.02.4-6.02.54.64-.76 1.34-1.84 2.14-3.24h7.28v-1.7h-5.12c-.26-.78-.52-1.48-.78-2.12l-1.94.32c.28.56.54 1.16.78 1.8h-5.34v1.7h3.16c-1.08 1.76-1.96 2.86-2.66 3.28-.08.04-.22.1-.38.16l.42 1.6zm-4-8.44l-1.38 1.32c1.32.92 2.36 1.8 3.1 2.6l1.36-1.36c-.84-.86-1.88-1.72-3.08-2.56zm-.48 4.78l-1.36 1.32c1.36 1.04 2.4 2.02 3.14 2.94l1.36-1.36c-.84-.96-1.9-1.94-3.14-2.9zm1.62 5.4l1.68.64c-.76 2.56-1.62 4.96-2.56 7.2l-1.74-.78c1-2.3 1.88-4.66 2.62-7.06zm6.78-1.06v8.76h1.92V81.9h-1.92zm-3.26 0h1.84c-.08 2.64-.34 4.56-.78 5.8-.48 1.28-1.3 2.38-2.42 3.34l-1.22-1.5c.92-.76 1.56-1.66 1.94-2.7.36-1 .56-2.64.64-4.94zm9.8 8.96c.88-.06 1.44-.28 1.7-.68.26-.42.4-1.58.4-3.46l-1.66-.62c0 .96-.04 1.72-.08 2.24-.04.48-.18.76-.44.8h-.72c-.2-.04-.3-.18-.3-.4V81.9h-1.8v7.2c0 1.16.66 1.76 2.02 1.76h.88zm18.58-10.4v4.2h-9.74v1.06h10.68v5.34h-1.9v-.72h-8.78v.7h-1.9V80.46h11.64zm-9.74 8.2h8.78v-1.44h-8.78v1.44zm0-5.52h7.88v-1.16h-7.88v1.16zm12.5-5.18v3.82h-1.86v-2.22h-13.48v2.22h-1.86v-3.82h7.74c-.16-.4-.34-.76-.52-1.08l1.68-.28-.34-.22c.92-1.2 1.6-2.48 2-3.86l1.82.4c-.12.34-.22.66-.34.98H576v1.66h-3.26c.32.44.58.88.8 1.28l-1.68.62c-.32-.64-.7-1.28-1.14-1.9h-1.02c-.34.66-.72 1.28-1.14 1.84l-.96-.62c.16.36.3.76.46 1.18h7.54zm-14.5-2.4c-.44.72-.92 1.4-1.44 2.02L558 76.54c1.16-1.24 1.98-2.6 2.48-4.04l1.82.4c-.12.34-.26.68-.38 1h5.04v1.66h-3c.36.5.68.98.92 1.44l-1.74.66c-.34-.72-.72-1.42-1.16-2.1h-.88zm24.04-2.28h10.12v9.56h-4.1v2h4.36v1.76h-4.36v2.08h5.06v1.82h-12.1v-1.82h5.16V86.6h-4.38v-1.76h4.38v-2h-4.14v-9.56zm8.3 7.88v-2.28h-2.28v2.28h2.28zm-4.16 0v-2.28h-2.32v2.28h2.32zm-2.32-3.92h2.32v-2.28h-2.32v2.28zm4.2-2.28v2.28h2.28v-2.28h-2.28zm-12.92 4.9h1.98v-4.28h-2.28v-1.8h6.46v1.8h-2.26v4.28h2.02v1.82h-2.02v4c.68-.24 1.34-.48 1.98-.76v1.84c-1.84.72-3.8 1.34-5.9 1.84l-.46-1.82c.84-.14 1.66-.32 2.46-.52v-4.58h-1.98v-1.82zm-71.144 43.47l1.26.252a34.107 34.107 0 0 1-.504 1.746h3.492v1.242h-3.924a19.9 19.9 0 0 1-1.656 3.402l-1.044-.666c1.098-1.8 1.89-3.78 2.376-5.976zm-.468 5.49h4.32v1.188h-1.89v2.358h2.484v1.206h-2.484v4.23c.666-.216 1.332-.522 2.016-.882l.216 1.116c-1.026.54-2.214.972-3.546 1.314l-.504-1.062c.396-.108.594-.288.594-.54v-4.176h-2.646v-1.206h2.646v-2.358h-1.206v-1.188zm6.966-.396v2.052h5.148v-2.052h-5.148zm5.148-1.152v-2.088h-5.148v2.088h5.148zm1.476 5.31l.828.828c-.81.972-1.728 1.71-2.736 2.214.738 1.152 1.728 2.124 2.952 2.934l-.684 1.098c-2.754-1.944-4.41-4.608-4.986-8.01h-1.998v6.336a22.918 22.918 0 0 0 3.114-1.098l.288 1.134c-1.26.522-2.844 1.026-4.752 1.494l-.27-1.08c.252-.09.396-.216.396-.396v-14.022h7.56v7.632h-3.186c.198 1.098.522 2.088.99 2.988.864-.468 1.692-1.152 2.484-2.052zm10.314-9.234h.936c2.286 2.52 4.914 4.5 7.884 5.94l-.702 1.242a24.87 24.87 0 0 1-7.65-6.03c-1.944 2.34-4.518 4.356-7.722 6.048l-.684-1.242c3.168-1.584 5.814-3.582 7.938-5.958zm.324 4.752h1.314v4.05h4.914v1.242h-4.914v4.428h6.21v1.26h-14.976v-1.26h2.718v-7.128h1.278v7.128h3.456v-9.72zm10.512-3.168h6.948c.072-.576.144-1.134.198-1.692l1.314.18a34.919 34.919 0 0 1-.18 1.512h6.984v1.242h-7.182a27.22 27.22 0 0 1-.306 1.494h5.184v10.512h2.664v1.206h-15.966v-1.206h2.574v-10.512h4.212c.108-.504.216-1.008.306-1.494h-6.75v-1.242zm3.51 13.248h8.172v-1.584h-8.172v1.584zm0-2.646h8.172v-1.53h-8.172v1.53zm0-2.574h8.172v-1.512h-8.172v1.512zm0-2.574h8.172v-1.566h-8.172v1.566zm21.402-3.168h4.482a23.9 23.9 0 0 0 1.764-3.888l1.188.45c-.54 1.368-1.08 2.502-1.656 3.438h2.682v1.224h-3.69v.54c0 .9-.054 1.746-.144 2.556h4.14v1.242h-3.726c.432 1.98 1.764 3.996 3.996 6.048l-.9.954c-2.07-2.052-3.366-4.086-3.888-6.084-.702 2.772-2.088 4.824-4.14 6.156l-.774-1.026c2.016-1.224 3.312-3.24 3.87-6.048h-3.474v-1.242h3.654c.072-.72.126-1.476.144-2.268v-.828h-3.528v-1.224zm1.782-3.78c.72 1.062 1.278 1.998 1.674 2.808l-.972.666c-.414-.864-.972-1.8-1.692-2.844l.99-.63zm-9.234.594h7.164v1.206h-1.17v9.882c.414-.144.81-.27 1.206-.396v1.26c-.396.126-.81.252-1.206.36v3.546h-1.242v-3.204c-1.44.36-2.916.702-4.464.99l-.324-1.224 1.134-.18v-11.034h-1.098v-1.206zm2.34 12.006c.828-.18 1.62-.36 2.412-.558v-2.664h-2.412v3.222zm0-4.41h2.412v-2.574h-2.412v2.574zm0-3.744h2.412v-2.646h-2.412v2.646zm-41.364 55.13v9.954h-1.314v-8.712h-5.4v8.712h-1.278v-9.954h7.992zm-.396 15.498h-1.872c-.99 0-1.476-.504-1.476-1.494v-4.122h1.296v3.852c0 .378.18.576.558.576h1.26c.288 0 .504-.108.63-.288.144-.234.252-.918.324-2.034l1.206.378c-.108 1.476-.324 2.394-.63 2.718-.288.27-.72.414-1.296.414zm-4.302-12.978h1.242v4.392c-.072 2.412-.558 4.338-1.458 5.778-.864 1.332-2.304 2.394-4.32 3.15l-.702-1.098c1.944-.756 3.312-1.728 4.086-2.916.72-1.26 1.116-2.898 1.152-4.914v-4.392zm-9.972 3.42h2.07v-4.212H504.9V183.5h5.904v1.242h-2.268v4.212h2.016v1.26h-2.016v4.086c.792-.27 1.548-.558 2.304-.864v1.242c-1.782.72-3.69 1.314-5.724 1.8l-.306-1.242c.81-.144 1.602-.324 2.394-.54v-4.482h-2.07v-1.26zm21.15-1.512a27.57 27.57 0 0 1-2.7 1.44l-.756-1.08c3.132-1.404 5.688-3.186 7.668-5.364h1.044c1.728 2.142 4.266 3.906 7.614 5.31l-.738 1.08a21.627 21.627 0 0 1-2.664-1.332v.99h-4.086v2.592h6.408v1.206h-6.408v4.806h1.998a27.763 27.763 0 0 0 1.62-3.78l1.188.414c-.45 1.26-.954 2.394-1.494 3.366h3.726v1.242h-15.39v-1.242h3.726a17.376 17.376 0 0 0-1.44-3.222l1.17-.432c.558 1.008 1.062 2.232 1.53 3.654h2.07v-4.806h-6.426v-1.206h6.426v-2.592h-4.086v-1.044zm9.162-.126c-1.764-1.044-3.24-2.268-4.428-3.654a22.82 22.82 0 0 1-4.536 3.654h8.964zm18.702 2.088v3.528h-8.982v1.242h9.81v4.626h-1.278v-.756h-8.532v.738h-1.296v-9.378h10.278zm-8.982 7.488h8.532v-1.674h-8.532v1.674zm0-5.004h7.722v-1.44h-7.722v1.44zm11.466-4.662v3.258h-1.26v-2.142h-12.744v2.142h-1.26v-3.258h7.128c-.18-.432-.36-.81-.558-1.17l1.26-.216-.108-.072a10.509 10.509 0 0 0 1.872-3.546l1.242.27c-.126.378-.252.738-.396 1.098h5.202v1.134h-3.204c.378.504.684.972.9 1.404l-1.152.432a11.99 11.99 0 0 0-1.134-1.836h-1.134a14.076 14.076 0 0 1-1.098 1.728l-.972-.594c.198.414.396.864.576 1.368h6.84zm-13.104-2.502c-.432.702-.9 1.35-1.44 1.944l-1.134-.72a10.662 10.662 0 0 0 2.376-3.744l1.242.27c-.144.396-.306.756-.45 1.116h4.824v1.134h-3.024c.396.54.738 1.062.99 1.548l-1.188.45c-.324-.684-.72-1.35-1.17-1.998h-1.026zm21.96-1.71h8.802v8.316h-3.744v2.124h4.05v1.224h-4.05v2.34h4.716v1.242h-10.836v-1.242h4.824v-2.34h-4.068v-1.224h4.068v-2.124h-3.762v-8.316zm7.56 7.164v-2.43h-2.502v2.43h2.502zm-3.798 0v-2.43h-2.52v2.43h2.52zm-2.52-3.564h2.52v-2.448h-2.52v2.448zm3.816-2.448v2.448h2.502v-2.448h-2.502zm-11.412 4.806h1.962v-4.266h-2.214v-1.224h5.742v1.224h-2.196v4.266h1.98v1.242h-1.98v4.086a23.773 23.773 0 0 0 1.98-.774v1.26a37.208 37.208 0 0 1-5.346 1.728l-.324-1.242a26.302 26.302 0 0 0 2.358-.54v-4.518h-1.962v-1.242zm101.99-14.3l-.63.972c.99.324 1.962.756 2.934 1.332l.684-1.044c-.9-.504-1.908-.918-2.988-1.26zm5.796-.432l1.278.162c-.144.396-.288.792-.468 1.152h7.254v.774a17.937 17.937 0 0 1-.864 2.628l-1.242-.378c.306-.558.558-1.188.774-1.89h-3.06c-.072.432-.18.828-.324 1.188.936 1.386 2.79 2.34 5.562 2.862l-.468 1.152c-2.628-.54-4.5-1.512-5.616-2.952-.216.324-.45.63-.72.918-.882.828-2.322 1.494-4.338 1.962l-.486-1.152c1.764-.378 3.042-.9 3.834-1.584.648-.594 1.098-1.386 1.314-2.394h-2.304a10.431 10.431 0 0 1-1.782 1.782l-.756-1.008c1.188-.864 1.98-1.944 2.412-3.222zm6.84 8.064v5.346h-1.296v-4.14h-8.982v4.284h-1.296v-5.49h11.574zm-6.3 1.89l1.296.108c-.252 2.286-.792 3.816-1.638 4.608-.936.972-3.024 1.602-6.264 1.854l-.504-1.152c2.862-.162 4.752-.648 5.67-1.476.81-.774 1.296-2.088 1.44-3.942zm-3.834-6.138l.756.882c-.9.936-2.016 1.818-3.348 2.646l-.864-1.008c1.368-.774 2.52-1.62 3.456-2.52zm5.544 9.54c2.34.612 4.464 1.35 6.39 2.214l-.702 1.08a35.316 35.316 0 0 0-6.354-2.304l.666-.99zm12.114-8.154a27.57 27.57 0 0 1-2.7 1.44l-.756-1.08c3.132-1.404 5.688-3.186 7.668-5.364h1.044c1.728 2.142 4.266 3.906 7.614 5.31l-.738 1.08a21.627 21.627 0 0 1-2.664-1.332v.99h-4.086v2.592h6.408v1.206h-6.408v4.806h1.998a27.763 27.763 0 0 0 1.62-3.78l1.188.414c-.45 1.26-.954 2.394-1.494 3.366h3.726v1.242h-15.39v-1.242h3.726a17.376 17.376 0 0 0-1.44-3.222l1.17-.432c.558 1.008 1.062 2.232 1.53 3.654h2.07v-4.806h-6.426v-1.206h6.426v-2.592h-4.086v-1.044zm9.162-.126c-1.764-1.044-3.24-2.268-4.428-3.654a22.82 22.82 0 0 1-4.536 3.654h8.964zm-24.03 27.884c-1.836.666-3.96 1.206-6.408 1.602l.162 1.26c2.34-.432 4.41-.972 6.246-1.638V207.2zm-3.33-12.96l1.206.468c-.918 2.34-1.854 4.212-2.79 5.616a67.48 67.48 0 0 0 2.556-.378c.342-.648.702-1.314 1.062-1.998l1.134.414c-1.638 3.042-3.006 5.202-4.104 6.498 1.368-.27 2.718-.63 4.05-1.08v1.152c-1.944.666-3.816 1.116-5.616 1.35l-.342-1.17c.234-.108.432-.234.594-.378.684-.702 1.53-1.89 2.538-3.582-1.026.162-2.052.306-3.096.45l-.324-1.188c.198-.09.378-.252.54-.486 1.008-1.656 1.872-3.546 2.592-5.688zm3.114 2.286h4.302v-2.178h1.314v2.178h4.284v1.26h-4.284v2.664h3.762v1.26h-8.784v-1.26h3.708v-2.664H666.2v-1.26zm8.856 6.984v7.236h-1.26v-.864h-5.148v.864h-1.278v-7.236h7.686zm-6.408 5.148h5.148v-3.924h-5.148v3.924zm11.538-10.296h11.844v7.074h-2.142v1.206h4.086v1.152h-4.086v3.042h-1.278v-3.042h-5.112c-.18.522-.414.972-.738 1.35-.612.702-1.62 1.242-3.006 1.638l-.666-1.026c1.26-.36 2.142-.81 2.646-1.35a4.31 4.31 0 0 0 .378-.612h-4.086v-1.152h4.41c.018-.18.036-.36.036-.504v-.702h-2.286v-7.074zm3.582 7.074v.702c0 .18-.018.342-.036.504h4.878v-1.206h-4.842zm7.002-1.008v-1.116h-9.324v1.116h9.324zm-9.324-2.052h9.324v-1.008h-9.324v1.008zm0-1.926h9.324v-1.08h-9.324v1.08zm-.72-3.852c-.432.72-.936 1.404-1.512 2.016l-1.08-.666c1.098-1.152 1.89-2.412 2.376-3.78l1.242.27c-.144.36-.306.72-.45 1.062h4.464v1.098h-2.358c.306.396.558.756.756 1.098l-1.08.396a15.103 15.103 0 0 0-.972-1.494h-1.386zm7.398-.054h1.368c.396.504.738 1.026 1.026 1.566l1.08-.396c-.216-.36-.468-.756-.792-1.17h3.006v-1.098h-5.13l.378-.972-1.26-.27a9.35 9.35 0 0 1-1.944 3.366l1.062.684a11.66 11.66 0 0 0 1.206-1.71zm52-21.872l-.63.972c.99.324 1.962.756 2.934 1.332l.684-1.044c-.9-.504-1.908-.918-2.988-1.26zm5.796-.432l1.278.162c-.144.396-.288.792-.468 1.152h7.254v.774a17.937 17.937 0 0 1-.864 2.628l-1.242-.378c.306-.558.558-1.188.774-1.89h-3.06c-.072.432-.18.828-.324 1.188.936 1.386 2.79 2.34 5.562 2.862l-.468 1.152c-2.628-.54-4.5-1.512-5.616-2.952-.216.324-.45.63-.72.918-.882.828-2.322 1.494-4.338 1.962l-.486-1.152c1.764-.378 3.042-.9 3.834-1.584.648-.594 1.098-1.386 1.314-2.394h-2.304a10.431 10.431 0 0 1-1.782 1.782l-.756-1.008c1.188-.864 1.98-1.944 2.412-3.222zm6.84 8.064v5.346h-1.296v-4.14h-8.982v4.284h-1.296v-5.49h11.574zm-6.3 1.89l1.296.108c-.252 2.286-.792 3.816-1.638 4.608-.936.972-3.024 1.602-6.264 1.854l-.504-1.152c2.862-.162 4.752-.648 5.67-1.476.81-.774 1.296-2.088 1.44-3.942zm-3.834-6.138l.756.882c-.9.936-2.016 1.818-3.348 2.646l-.864-1.008c1.368-.774 2.52-1.62 3.456-2.52zm5.544 9.54c2.34.612 4.464 1.35 6.39 2.214l-.702 1.08a35.316 35.316 0 0 0-6.354-2.304l.666-.99zm12.114-8.154a27.57 27.57 0 0 1-2.7 1.44l-.756-1.08c3.132-1.404 5.688-3.186 7.668-5.364h1.044c1.728 2.142 4.266 3.906 7.614 5.31l-.738 1.08a21.627 21.627 0 0 1-2.664-1.332v.99h-4.086v2.592h6.408v1.206h-6.408v4.806h1.998a27.763 27.763 0 0 0 1.62-3.78l1.188.414c-.45 1.26-.954 2.394-1.494 3.366h3.726v1.242h-15.39v-1.242h3.726a17.376 17.376 0 0 0-1.44-3.222l1.17-.432c.558 1.008 1.062 2.232 1.53 3.654h2.07v-4.806h-6.426v-1.206h6.426v-2.592h-4.086v-1.044zm9.162-.126c-1.764-1.044-3.24-2.268-4.428-3.654a22.82 22.82 0 0 1-4.536 3.654h8.964zM747 198.308h2.07v-1.422h1.224v1.422h2.088v1.062h-2.088v1.692h2.394v1.08h-5.976v-1.08h2.358v-1.692H747v-1.062zm.288 5.112h4.788v4.59h-4.788v-4.59zm3.672 3.528V204.5h-2.556v2.448h2.556zm3.618-11.934v14.094c0 1.062-.54 1.602-1.62 1.602h-1.728l-.306-1.188c.594.036 1.152.054 1.656.054s.774-.306.774-.9v-12.492h-7.29v8.694c-.036 2.43-.558 4.41-1.602 5.922l-.954-.882c.864-1.314 1.296-2.97 1.332-4.968v-9.936h9.738zm-13.626-.504c1.134.9 2.088 1.8 2.862 2.7l-.882.9c-.72-.864-1.674-1.764-2.88-2.718l.9-.882zm-2.196 5.292h3.762v7.506c.432-.396.882-.81 1.35-1.278l.324 1.278a21.22 21.22 0 0 1-2.826 2.43l-.504-1.152c.252-.216.396-.45.396-.738v-6.804h-2.502v-1.242zm21.942 4.392h10.548v.954a13.966 13.966 0 0 1-3.69 3.15c1.62.684 3.492 1.17 5.634 1.458l-.558 1.116c-2.484-.414-4.59-1.044-6.3-1.908-1.818.864-3.924 1.512-6.3 1.908l-.558-1.134c2.088-.306 3.96-.792 5.58-1.476-1.332-.828-2.43-1.818-3.258-2.952h-1.098v-1.116zm2.466 1.116c.828.936 1.854 1.728 3.096 2.376 1.26-.666 2.358-1.458 3.294-2.376h-6.39zm-3.51-5.148v1.404c-.072 3.816-.72 6.876-1.944 9.18l-.972-.864c1.044-1.998 1.584-4.77 1.62-8.316v-5.868h6.93a10.664 10.664 0 0 0-.684-1.278l1.368-.216c.216.45.432.954.63 1.494h6.174v1.224h-13.122v2.052h3.024v-1.458h1.26v1.458h4.77v-1.476h1.26v1.476h2.772v1.188h-2.772v2.808h-7.29v-2.808h-3.024zm4.284 0v1.71h4.77v-1.71h-4.77zM665.94 86.36c-1.16.96-3.12 1.86-5.84 2.66l1 1.62c3.24-1.2 5.5-2.64 6.76-4.28h.26v4.72H670v-4.72h.26c1.38 1.72 3.66 3.12 6.84 4.2l.82-1.68c-2.5-.64-4.4-1.48-5.72-2.52h5.48v-1.74H670v-.8h-1.88v.8h-7.8v1.74h5.62zm-3.8-8.3c-.4.44-.84.88-1.3 1.32l-1.1-1.44a14.61 14.61 0 0 0 3.78-5.42l1.78.4c-.18.48-.38.96-.6 1.4h3.84c-.26-.56-.54-1.08-.84-1.56l1.94-.32c.26.56.52 1.18.78 1.88h6.3v1.56h-6.2v1.02h5.4v1.44h-5.4v.98h5.4v1.44h-5.4v1.06h6.58v1.58h-14.96v-5.34zm6.52 3.76v-1.06h-4.76v1.06h4.76zm0-2.5v-.98h-4.76v.98h4.76zm0-2.42v-1.02h-4.76v1.02h4.76zm19.36-4.38h1.96v3.46h7.12v9.66h-1.9V84.5h-5.22v6.7h-1.96v-6.7h-5.2v1.14h-1.9v-9.66h7.1v-3.46zm-5.2 10.12h5.2v-4.8h-5.2v4.8zm7.16 0h5.22v-4.8h-5.22v4.8zm11.48-9.76c1.2.38 2.32.84 3.32 1.4l-1.02 1.54c-1.06-.66-2.14-1.16-3.24-1.52l.94-1.42zm6.12-.36l1.86.24c-.12.4-.26.76-.42 1.12h7.84v1.14c-.22.96-.52 1.94-.88 2.9l-1.82-.54c.3-.54.56-1.16.76-1.84H712c-.08.4-.18.76-.3 1.12 1.06 1.42 3.06 2.4 6.02 2.94l-.68 1.66c-2.82-.58-4.86-1.62-6.12-3.1-.2.28-.4.52-.62.76-.94.94-2.56 1.68-4.84 2.24l-.7-1.7c1.88-.4 3.24-.94 4.08-1.66.64-.58 1.1-1.34 1.36-2.26h-2.18a9.94 9.94 0 0 1-1.88 1.9l-1.12-1.48c1.26-.92 2.12-2.08 2.56-3.44zm7.96 8.94v5.98h-1.92v-4.22h-9.3v4.42h-1.9v-6.18h13.12zm-7.36 2.3l1.9.16c-.28 2.56-.9 4.26-1.82 5.08-1 1.06-3.36 1.74-7.1 2.06l-.74-1.72c3.14-.16 5.2-.64 6.2-1.46.88-.8 1.4-2.16 1.56-4.12zM704 76.7l1.12 1.3c-1 1.02-2.24 1.96-3.72 2.84l-1.26-1.46c1.52-.84 2.82-1.72 3.86-2.68zm6.46 10.6c2.58.64 4.94 1.42 7.08 2.34l-1.04 1.58a38.9 38.9 0 0 0-7-2.48l.96-1.44zm13.24-8.68c-.88.52-1.8 1-2.76 1.44l-1.1-1.58c3.46-1.52 6.26-3.46 8.42-5.82h1.52c1.86 2.32 4.64 4.24 8.36 5.78l-1.08 1.58c-.96-.4-1.88-.84-2.72-1.32v1.04h-4.38v2.42h6.96v1.76h-6.96v4.9h1.88c.62-1.24 1.16-2.58 1.64-4l1.72.62c-.44 1.26-.92 2.38-1.44 3.38h3.86v1.8H720.4v-1.8h3.92a19.62 19.62 0 0 0-1.42-3.24l1.7-.62c.56 1.08 1.08 2.36 1.56 3.86h1.92v-4.9h-6.98v-1.76h6.98v-2.42h-4.38v-1.12zm9.54-.58c-1.64-1.04-3.04-2.24-4.22-3.6a25.29 25.29 0 0 1-4.38 3.6h8.6zm21.6 2.42v4.2h-9.74v1.06h10.68v5.34h-1.9v-.72h-8.78v.7h-1.9V80.46h11.64zm-9.74 8.2h8.78v-1.44h-8.78v1.44zm0-5.52h7.88v-1.16h-7.88v1.16zm12.5-5.18v3.82h-1.86v-2.22h-13.48v2.22h-1.86v-3.82h7.74c-.16-.4-.34-.76-.52-1.08l1.68-.28-.34-.22c.92-1.2 1.6-2.48 2-3.86l1.82.4c-.12.34-.22.66-.34.98H758v1.66h-3.26c.32.44.58.88.8 1.28l-1.68.62c-.32-.64-.7-1.28-1.14-1.9h-1.02c-.34.66-.72 1.28-1.14 1.84l-.96-.62c.16.36.3.76.46 1.18h7.54zm-14.5-2.4c-.44.72-.92 1.4-1.44 2.02L740 76.54c1.16-1.24 1.98-2.6 2.48-4.04l1.82.4c-.12.34-.26.68-.38 1h5.04v1.66h-3c.36.5.68.98.92 1.44l-1.74.66c-.34-.72-.72-1.42-1.16-2.1h-.88zm24.04-2.28h10.12v9.56h-4.1v2h4.36v1.76h-4.36v2.08h5.06v1.82h-12.1v-1.82h5.16V86.6h-4.38v-1.76h4.38v-2h-4.14v-9.56zm8.3 7.88v-2.28h-2.28v2.28h2.28zm-4.16 0v-2.28h-2.32v2.28h2.32zm-2.32-3.92h2.32v-2.28h-2.32v2.28zm4.2-2.28v2.28h2.28v-2.28h-2.28zm-12.92 4.9h1.98v-4.28h-2.28v-1.8h6.46v1.8h-2.26v4.28h2.02v1.82h-2.02v4c.68-.24 1.34-.48 1.98-.76v1.84c-1.84.72-3.8 1.34-5.9 1.84l-.46-1.82c.84-.14 1.66-.32 2.46-.52v-4.58h-1.98v-1.82zm-92.294 50.814c1.692 1.728 3.078 3.366 4.122 4.914l.972-.99c-1.278-1.71-2.844-3.456-4.716-5.22.144-.594.252-1.242.342-1.926h5.148v10.044c0 .576-.288.882-.864.882l-2.754-.072.36 1.296h2.826c1.152 0 1.746-.612 1.746-1.818v-11.592h-6.318c.072-.9.126-1.89.126-2.952h-1.314a30.31 30.31 0 0 1-.144 2.952h-6.588v13.59h1.314v-12.33h5.13a18.837 18.837 0 0 1-.486 2.286c-.648 1.998-1.98 3.654-3.996 4.986l.864 1.062c2.088-1.368 3.492-3.06 4.23-5.112zm12.438-3.708l-1.188.432c.45.792.828 1.656 1.152 2.592h-2.43v1.26h9.018v-1.26h-2.178c.468-.81.882-1.728 1.26-2.754l-1.206-.414a19.9 19.9 0 0 1-1.332 3.168h-1.89c-.36-1.188-.774-2.196-1.206-3.024zm7.38-2.916v15.714h1.26v-14.526h3.222c-.576 1.944-1.17 3.636-1.764 5.058 1.404 1.728 2.124 3.114 2.142 4.176-.018.648-.108 1.08-.288 1.314-.18.216-.594.342-1.242.378-.342 0-.756-.036-1.26-.072l.414 1.368c1.476 0 2.466-.234 2.97-.666.468-.432.702-1.206.702-2.322-.018-1.08-.702-2.484-2.052-4.176.648-1.62 1.242-3.384 1.8-5.274v-.972h-5.904zm-9.504.99v1.26h8.55v-1.26h-3.672a28.683 28.683 0 0 0-.594-1.854l-1.332.234c.234.486.45 1.026.666 1.62h-3.618zm7.848 7.848v6.786h-1.278v-1.008h-4.608v1.008h-1.278v-6.786h7.164zm-5.886 4.554h4.608v-3.33h-4.608v3.33zm22.464-13.428v11.304h-1.152V125.22h-3.888v10.098h-1.188v-11.304h6.228zm-3.69 2.52h1.116v5.85c-.036 2.016-.324 3.636-.9 4.842-.558 1.116-1.458 1.998-2.718 2.628l-.702-1.08c1.188-.594 2.034-1.386 2.502-2.376.432-1.044.666-2.376.702-4.014v-5.85zm1.728 9.288c1.008 1.008 1.836 1.998 2.502 2.97l-.918.918c-.576-.972-1.386-1.998-2.412-3.078l.828-.81zm6.858-3.816h-1.584v6.12a14.26 14.26 0 0 0 2.448-1.242l.234 1.152c-1.116.702-2.376 1.278-3.816 1.728l-.54-1.152c.27-.126.414-.306.414-.558v-6.048h-1.296v-1.26h1.296v-7.434h1.26v7.434h5.976v1.26h-3.258c.828 2.88 2.034 5.076 3.6 6.624l-.882 1.008c-1.692-1.728-2.988-4.284-3.852-7.632zm3.132-7.884l.99.81c-1.26 2.016-2.754 3.528-4.446 4.5l-.702-1.008c1.62-.936 3.006-2.376 4.158-4.302zm16.668 2.664h-10.278v3.51h10.278v-3.51zm-10.278 4.77c-.09 3.222-.936 5.994-2.556 8.316l-.954-.864c1.458-2.016 2.196-4.644 2.232-7.866v-5.634h5.868a19.123 19.123 0 0 0-1.044-2.106l1.386-.216c.324.684.648 1.458.972 2.322h5.688v6.048h-11.592zm28.044-1.152v3.528h-8.982v1.242h9.81v4.626h-1.278v-.756h-8.532v.738h-1.296v-9.378h10.278zm-8.982 7.488h8.532v-1.674h-8.532v1.674zm0-5.004h7.722v-1.44h-7.722v1.44zm11.466-4.662v3.258h-1.26v-2.142h-12.744v2.142h-1.26v-3.258h7.128c-.18-.432-.36-.81-.558-1.17l1.26-.216-.108-.072a10.509 10.509 0 0 0 1.872-3.546l1.242.27c-.126.378-.252.738-.396 1.098h5.202v1.134h-3.204c.378.504.684.972.9 1.404l-1.152.432a11.99 11.99 0 0 0-1.134-1.836h-1.134a14.076 14.076 0 0 1-1.098 1.728l-.972-.594c.198.414.396.864.576 1.368h6.84zm-13.104-2.502c-.432.702-.9 1.35-1.44 1.944l-1.134-.72a10.662 10.662 0 0 0 2.376-3.744l1.242.27c-.144.396-.306.756-.45 1.116h4.824v1.134h-3.024c.396.54.738 1.062.99 1.548l-1.188.45c-.324-.684-.72-1.35-1.17-1.998h-1.026zm21.96-1.71h8.802v8.316h-3.744v2.124h4.05v1.224h-4.05v2.34h4.716v1.242h-10.836v-1.242h4.824v-2.34h-4.068v-1.224h4.068v-2.124h-3.762v-8.316zm7.56 7.164v-2.43h-2.502v2.43h2.502zm-3.798 0v-2.43h-2.52v2.43h2.52zm-2.52-3.564h2.52v-2.448h-2.52v2.448zm3.816-2.448v2.448h2.502v-2.448h-2.502zm-11.412 4.806h1.962v-4.266h-2.214v-1.224h5.742v1.224h-2.196v4.266h1.98v1.242h-1.98v4.086a23.773 23.773 0 0 0 1.98-.774v1.26a37.208 37.208 0 0 1-5.346 1.728l-.324-1.242a26.302 26.302 0 0 0 2.358-.54v-4.518h-1.962v-1.242zM854.54 77.42l-.28.98h2.38c.08-.32.14-.64.18-.98h-2.28zm4.12 0c-.02.34-.06.66-.12.98h2.72v-.98h-2.6zm4.44 0v.98h5.28c0 1.56-.16 2.54-.48 2.96-.32.44-1.06.66-2.22.68-.32 0-.64-.02-.94-.04l-.34-1.3c.36.04.72.06 1.06.06.52 0 .84-.08.96-.22.1-.16.16-.38.16-.7h-3.48v2.08h-1.84v-2.08h-3.22c-.26.48-.56.92-.92 1.28-.46.44-1.06.82-1.8 1.18h11.42v5.56h-1.88v-3.88h-9.2v3.88h-1.86v-5c-.4.12-.82.24-1.26.34l-.96-1.48c2.02-.44 3.38-1 4.1-1.68.08-.08.14-.16.18-.2h-3.64l.78-3.88h3.84v-.98h-4.44v-1.54h4.44v-.88h1.84v.88h2.58v-.88h1.84v.88h4.24v3.98h-4.24zm-4.42-2.44v.98h2.58v-.98h-2.58zm4.42 0v.98h2.48v-.98h-2.48zm-1.62 12.48c2.58.6 4.94 1.32 7.06 2.18l-1.04 1.58c-2.26-1-4.58-1.76-6.98-2.32l.96-1.44zm-2.22-2.98l1.88.18c-.26 2.3-.86 3.82-1.8 4.58-1 .96-3.36 1.6-7.08 1.88l-.76-1.7c3.14-.14 5.22-.56 6.22-1.28.88-.72 1.38-1.94 1.54-3.66zm15.26-4.62v3.06h4.6v-3.06h-4.6zm-.1 4.82c-.24 2.52-.98 4.6-2.22 6.24l-1.46-1.3c1.2-1.72 1.82-3.9 1.86-6.54v-9.8h15.34v15.06c0 1.5-.78 2.26-2.3 2.26h-2.3l-.5-1.86c.78.06 1.5.1 2.18.1.64 0 .98-.4.98-1.18v-2.98h-4.96v5.7h-1.92v-5.7h-4.7zM886 82.92v-3.06h-4.96v3.06H886zm0-4.8v-3h-4.96v3H886zm-6.88-3h-4.6v3h4.6v-3zm26.72 5.34v4.2h-9.74v1.06h10.68v5.34h-1.9v-.72h-8.78v.7h-1.9V80.46h11.64zm-9.74 8.2h8.78v-1.44h-8.78v1.44zm0-5.52h7.88v-1.16h-7.88v1.16zm12.5-5.18v3.82h-1.86v-2.22h-13.48v2.22h-1.86v-3.82h7.74c-.16-.4-.34-.76-.52-1.08l1.68-.28-.34-.22c.92-1.2 1.6-2.48 2-3.86l1.82.4c-.12.34-.22.66-.34.98H909v1.66h-3.26c.32.44.58.88.8 1.28l-1.68.62c-.32-.64-.7-1.28-1.14-1.9h-1.02c-.34.66-.72 1.28-1.14 1.84l-.96-.62c.16.36.3.76.46 1.18h7.54zm-14.5-2.4c-.44.72-.92 1.4-1.44 2.02L891 76.54c1.16-1.24 1.98-2.6 2.48-4.04l1.82.4c-.12.34-.26.68-.38 1h5.04v1.66h-3c.36.5.68.98.92 1.44l-1.74.66c-.34-.72-.72-1.42-1.16-2.1h-.88zm24.04-2.28h10.12v9.56h-4.1v2h4.36v1.76h-4.36v2.08h5.06v1.82h-12.1v-1.82h5.16V86.6h-4.38v-1.76h4.38v-2h-4.14v-9.56zm8.3 7.88v-2.28h-2.28v2.28h2.28zm-4.16 0v-2.28h-2.32v2.28h2.32zm-2.32-3.92h2.32v-2.28h-2.32v2.28zm4.2-2.28v2.28h2.28v-2.28h-2.28zm-12.92 4.9h1.98v-4.28h-2.28v-1.8h6.46v1.8h-2.26v4.28h2.02v1.82h-2.02v4c.68-.24 1.34-.48 1.98-.76v1.84c-1.84.72-3.8 1.34-5.9 1.84l-.46-1.82c.84-.14 1.66-.32 2.46-.52v-4.58h-1.98v-1.82zm-52.996 44.172h8.928v1.224h-3.654a22.32 22.32 0 0 1-.36 2.016h3.402v8.478h-1.224v-7.326h-5.202v7.326h-1.224v-8.478h3.006c.144-.648.252-1.332.324-2.016h-3.996v-1.224zm5.76 11.718c1.332 1.044 2.448 2.088 3.348 3.132l-.9.9c-.792-1.008-1.89-2.088-3.276-3.222l.828-.81zm-1.944-6.3h1.26v3.24c-.054 1.926-.486 3.456-1.296 4.59-.792 1.062-2.07 1.89-3.852 2.502l-.702-1.098c1.71-.558 2.916-1.296 3.6-2.232.612-.972.954-2.214.99-3.762v-3.24zm-9.342-3.15c.486.468.936.918 1.332 1.35a14.688 14.688 0 0 0 1.782-2.412h-4.536v-1.206h5.922v1.026c-.738 1.332-1.548 2.466-2.412 3.42.342.396.63.756.882 1.08h2.052v.792c-.288 1.404-.648 2.502-1.044 3.294l-1.062-.414c.324-.684.63-1.494.882-2.466h-1.908v7.524c0 .936-.468 1.422-1.368 1.422h-1.728l-.252-1.17c.54.054 1.062.09 1.566.09.36 0 .558-.216.558-.648v-7.218h-2.592v-1.206h3.492a36.678 36.678 0 0 0-2.52-2.664l.954-.594zm18.468 1.062h11.844v7.074h-2.142v1.206h4.086v1.152h-4.086v3.042h-1.278v-3.042h-5.112c-.18.522-.414.972-.738 1.35-.612.702-1.62 1.242-3.006 1.638l-.666-1.026c1.26-.36 2.142-.81 2.646-1.35a4.31 4.31 0 0 0 .378-.612h-4.086v-1.152h4.41c.018-.18.036-.36.036-.504v-.702h-2.286v-7.074zm3.582 7.074v.702c0 .18-.018.342-.036.504h4.878v-1.206h-4.842zm7.002-1.008v-1.116h-9.324v1.116h9.324zm-9.324-2.052h9.324v-1.008h-9.324v1.008zm0-1.926h9.324v-1.08h-9.324v1.08zm-.72-3.852c-.432.72-.936 1.404-1.512 2.016l-1.08-.666c1.098-1.152 1.89-2.412 2.376-3.78l1.242.27c-.144.36-.306.72-.45 1.062h4.464v1.098h-2.358c.306.396.558.756.756 1.098l-1.08.396a15.103 15.103 0 0 0-.972-1.494h-1.386zm7.398-.054h1.368c.396.504.738 1.026 1.026 1.566l1.08-.396c-.216-.36-.468-.756-.792-1.17h3.006v-1.098h-5.13l.378-.972-1.26-.27a9.35 9.35 0 0 1-1.944 3.366l1.062.684a11.66 11.66 0 0 0 1.206-1.71zm21.024 4.86v3.528h-8.982v1.242h9.81v4.626h-1.278v-.756h-8.532v.738h-1.296v-9.378h10.278zm-8.982 7.488h8.532v-1.674h-8.532v1.674zm0-5.004h7.722v-1.44h-7.722v1.44zm11.466-4.662v3.258h-1.26v-2.142h-12.744v2.142h-1.26v-3.258h7.128c-.18-.432-.36-.81-.558-1.17l1.26-.216-.108-.072a10.509 10.509 0 0 0 1.872-3.546l1.242.27c-.126.378-.252.738-.396 1.098h5.202v1.134h-3.204c.378.504.684.972.9 1.404l-1.152.432a11.99 11.99 0 0 0-1.134-1.836h-1.134a14.076 14.076 0 0 1-1.098 1.728l-.972-.594c.198.414.396.864.576 1.368h6.84zm-13.104-2.502c-.432.702-.9 1.35-1.44 1.944l-1.134-.72a10.662 10.662 0 0 0 2.376-3.744l1.242.27c-.144.396-.306.756-.45 1.116h4.824v1.134h-3.024c.396.54.738 1.062.99 1.548l-1.188.45c-.324-.684-.72-1.35-1.17-1.998h-1.026zm21.96-1.71h8.802v8.316h-3.744v2.124h4.05v1.224h-4.05v2.34h4.716v1.242h-10.836v-1.242h4.824v-2.34h-4.068v-1.224h4.068v-2.124h-3.762v-8.316zm7.56 7.164v-2.43h-2.502v2.43h2.502zm-3.798 0v-2.43h-2.52v2.43h2.52zm-2.52-3.564h2.52v-2.448h-2.52v2.448zm3.816-2.448v2.448h2.502v-2.448h-2.502zm-11.412 4.806h1.962v-4.266h-2.214v-1.224h5.742v1.224h-2.196v4.266h1.98v1.242h-1.98v4.086a23.773 23.773 0 0 0 1.98-.774v1.26a37.208 37.208 0 0 1-5.346 1.728l-.324-1.242a26.302 26.302 0 0 0 2.358-.54v-4.518h-1.962v-1.242zm-48.168 56.558c-.684.36-1.368.684-2.07.99v-3.672h2.016v-1.242h-2.016v-3.258h-1.278v3.258h-2.61v1.242h2.61v4.176c-.936.324-1.89.612-2.88.846l.324 1.278c.864-.27 1.728-.558 2.556-.864v4.536c0 .504-.252.774-.738.774s-.99-.036-1.512-.09l.288 1.242h1.674c1.044 0 1.566-.54 1.566-1.62v-5.364a30.618 30.618 0 0 0 2.07-.954v-1.278zm2.214 1.134v8.136h-1.224v-15.768h7.902c0 1.998-.108 3.33-.306 3.996-.216.648-.9.99-2.052.99h-1.296l-.36-1.134c.288 0 .63.018 1.062.018.432 0 .774-.036.99-.072a.897.897 0 0 0 .486-.414c.126-.342.198-1.08.234-2.196h-5.436v5.256h6.84v1.116c-.36 1.908-.99 3.546-1.926 4.896.864.828 1.926 1.584 3.186 2.286l-.864.99c-1.188-.756-2.214-1.53-3.042-2.358-.864.99-1.926 1.8-3.15 2.412l-.63-1.134c1.152-.576 2.124-1.314 2.916-2.214-1.242-1.476-1.998-3.078-2.286-4.806h-1.044zm2.214 0a8.251 8.251 0 0 0 1.818 3.87c.72-1.098 1.242-2.394 1.566-3.87h-3.384zm18.396-8.316h1.278v4.986h3.384v9.612c0 1.152-.522 1.746-1.566 1.746h-1.8l-.342-1.242 1.728.054c.45 0 .684-.288.684-.846v-1.89h-5.49v3.978h-1.296v-11.412h3.42v-4.986zm-2.124 9.324v1.98h5.49v-1.98h-5.49zm5.49-1.116v-1.998h-5.49v1.998h5.49zM877 180.032a29.596 29.596 0 0 1 1.638 3.024l-1.044.522c-.522-1.134-1.08-2.142-1.692-3.024l1.098-.522zm6.84-.162l1.08.504a17.895 17.895 0 0 1-1.728 3.204l-1.062-.54a18.301 18.301 0 0 0 1.71-3.168zm-12.726-.54l1.26.252a34.107 34.107 0 0 1-.504 1.746h3.294v1.224h-3.726c-.486 1.242-1.044 2.376-1.692 3.384l-1.062-.666c1.116-1.8 1.926-3.78 2.43-5.94zm-.54 5.634h4.284v1.17h-1.872v2.268h2.484v1.206h-2.484v4.23c.81-.288 1.638-.684 2.466-1.17l.216 1.152c-1.134.63-2.448 1.152-3.942 1.548l-.54-1.116c.36-.126.54-.306.54-.54v-4.104h-2.484v-1.206h2.484v-2.268h-1.152v-1.17zm29.574 1.44v3.528h-8.982v1.242h9.81v4.626h-1.278v-.756h-8.532v.738h-1.296v-9.378h10.278zm-8.982 7.488h8.532v-1.674h-8.532v1.674zm0-5.004h7.722v-1.44h-7.722v1.44zm11.466-4.662v3.258h-1.26v-2.142h-12.744v2.142h-1.26v-3.258h7.128c-.18-.432-.36-.81-.558-1.17l1.26-.216-.108-.072a10.509 10.509 0 0 0 1.872-3.546l1.242.27c-.126.378-.252.738-.396 1.098h5.202v1.134h-3.204c.378.504.684.972.9 1.404l-1.152.432a11.99 11.99 0 0 0-1.134-1.836h-1.134a14.076 14.076 0 0 1-1.098 1.728l-.972-.594c.198.414.396.864.576 1.368h6.84zm-13.104-2.502c-.432.702-.9 1.35-1.44 1.944l-1.134-.72a10.662 10.662 0 0 0 2.376-3.744l1.242.27c-.144.396-.306.756-.45 1.116h4.824v1.134h-3.024c.396.54.738 1.062.99 1.548l-1.188.45c-.324-.684-.72-1.35-1.17-1.998h-1.026zm21.96-1.71h8.802v8.316h-3.744v2.124h4.05v1.224h-4.05v2.34h4.716v1.242h-10.836v-1.242h4.824v-2.34h-4.068v-1.224h4.068v-2.124h-3.762v-8.316zm7.56 7.164v-2.43h-2.502v2.43h2.502zm-3.798 0v-2.43h-2.52v2.43h2.52zm-2.52-3.564h2.52v-2.448h-2.52v2.448zm3.816-2.448v2.448h2.502v-2.448h-2.502zm-11.412 4.806h1.962v-4.266h-2.214v-1.224h5.742v1.224h-2.196v4.266h1.98v1.242h-1.98v4.086a23.773 23.773 0 0 0 1.98-.774v1.26a37.208 37.208 0 0 1-5.346 1.728l-.324-1.242a26.302 26.302 0 0 0 2.358-.54v-4.518h-1.962v-1.242zM30.386 130.13h4.896c.234-.63.45-1.26.63-1.908l1.314.162c-.18.594-.36 1.17-.558 1.746h9.216v1.26h-9.702a20.768 20.768 0 0 1-2.466 4.266v9.162h-1.26v-7.614a27.533 27.533 0 0 1-1.926 1.908l-.81-1.026c2.196-1.926 3.87-4.158 5.04-6.696h-4.374v-1.26zm4.734 8.37h5.22v-1.674a18.61 18.61 0 0 0 2.934-2.034h-6.768v-1.206h8.424v1.206c-.972.9-2.07 1.764-3.294 2.574v1.134h4.5v1.242h-4.5v3.402c0 1.062-.54 1.602-1.602 1.602h-2.25l-.342-1.224c.648.018 1.332.036 2.07.036.54 0 .828-.288.828-.828v-2.988h-5.22V138.5zm8.424 16.508h-3.906c-1.116 0-1.656-.504-1.656-1.494v-.756c-.738.216-1.494.432-2.25.648l-.702-1.026a60.392 60.392 0 0 0 2.952-.846v-3.15h1.26v2.736c2.052-.756 3.726-1.566 5.04-2.466l.828.864c-1.656 1.08-3.6 2.034-5.868 2.826v.918c0 .414.234.63.738.63h3.33c.396 0 .684-.09.846-.234.216-.18.36-.738.432-1.638l1.188.378c-.126 1.242-.378 1.998-.738 2.268-.324.216-.81.342-1.494.342zm.306 1.026v5.364h-1.332v-4.176H33.86v4.428h-1.314v-5.616H43.85zm-4.518 5.382a36.824 36.824 0 0 1 6.336 2.394l-.72 1.098a33.2 33.2 0 0 0-6.264-2.502l.648-.99zm-1.764-3.402l1.26.108c-.252 2.34-.81 3.924-1.656 4.752-.936 1.008-3.024 1.656-6.282 1.926l-.522-1.17c2.898-.144 4.806-.648 5.742-1.512.828-.81 1.314-2.178 1.458-4.104zm-4.806-6.12c-.72.504-1.512.99-2.376 1.44l-.396-1.26c2.214-1.134 3.834-2.43 4.842-3.87l1.062.522a11.043 11.043 0 0 1-1.872 2.16v4.356h-1.26v-3.348zm.936 23.744v9.162h-1.242v-9.018c-.576 1.836-1.332 3.492-2.25 4.968l-.54-1.314c1.278-1.872 2.196-3.996 2.736-6.372h-2.43v-1.242h2.484v-3.51h1.242v3.51h2.124v1.242h-2.124v1.17a44.07 44.07 0 0 1 2.628 3.366l-.72 1.098c-.738-1.26-1.368-2.286-1.908-3.06zm2.574-5.364h4.5a11.696 11.696 0 0 0-.864-1.782l1.332-.216c.27.576.54 1.242.792 1.998h3.996v1.17h-4.932c-.99 1.746-1.854 2.988-2.61 3.726 1.152-.072 2.286-.144 3.402-.234.468-.648.882-1.314 1.242-2.034l1.044.558c-1.8 3.564-4.428 6.012-7.92 7.308l-.702-1.08c2.178-.774 3.996-1.98 5.472-3.636-1.26.072-2.61.144-4.032.198l-.27-1.062c.108-.036.18-.072.252-.108.72-.468 1.638-1.674 2.79-3.636h-3.492v-1.17zm5.76 10.872a17.42 17.42 0 0 1-6.03 3.528l-.702-1.116c4.23-1.386 7.398-4.05 9.504-7.992l1.098.576c-.864 1.62-1.89 3.024-3.06 4.212 1.296 1.152 2.412 2.286 3.312 3.42l-.936.936c-.792-1.116-1.854-2.304-3.186-3.564zm-9.846 11.216H44.03v7.074h-2.142v1.206h4.086v1.152h-4.086v3.042H40.61v-3.042h-5.112c-.18.522-.414.972-.738 1.35-.612.702-1.62 1.242-3.006 1.638l-.666-1.026c1.26-.36 2.142-.81 2.646-1.35a4.31 4.31 0 0 0 .378-.612h-4.086v-1.152h4.41c.018-.18.036-.36.036-.504v-.702h-2.286v-7.074zm3.582 7.074v.702c0 .18-.018.342-.036.504h4.878v-1.206h-4.842zm7.002-1.008v-1.116h-9.324v1.116h9.324zm-9.324-2.052h9.324v-1.008h-9.324v1.008zm0-1.926h9.324v-1.08h-9.324v1.08zm-.72-3.852c-.432.72-.936 1.404-1.512 2.016l-1.08-.666c1.098-1.152 1.89-2.412 2.376-3.78l1.242.27c-.144.36-.306.72-.45 1.062h4.464v1.098h-2.358c.306.396.558.756.756 1.098l-1.08.396a15.103 15.103 0 0 0-.972-1.494h-1.386zm7.398-.054h1.368c.396.504.738 1.026 1.026 1.566l1.08-.396c-.216-.36-.468-.756-.792-1.17h3.006v-1.098h-5.13l.378-.972-1.26-.27a9.35 9.35 0 0 1-1.944 3.366l1.062.684a11.66 11.66 0 0 0 1.206-1.71zm54.214-57.642h4.32v4.158h-5.292v1.26h5.292v4.572h-7.47v1.296h15.858v-1.296h-7.074v-4.572h5.562v-1.26h-5.562v-4.158h5.922v-1.26h-5.922v-3.204h-1.314v3.204h-3.852c.27-.81.504-1.674.702-2.61l-1.314-.234c-.594 3.006-1.746 5.4-3.438 7.164l.828 1.062c1.116-1.116 2.034-2.484 2.754-4.122zm4.698 15.158c.288.612.576 1.314.846 2.088h6.318v1.242h-3.132a15.184 15.184 0 0 1-.882 2.736h4.392v1.242H93.654v2.664c-.072 2.808-.72 5.058-1.962 6.75l-.99-.882c1.044-1.404 1.602-3.366 1.638-5.868v-3.906h3.69l-.756-2.736H91.98v-1.242h6.588a11.804 11.804 0 0 0-.882-1.854l1.35-.234zm-1.728 6.066h3.636c.396-.864.702-1.782.882-2.736h-5.274l.756 2.736zm6.084 14.114l-.828.792c.918.702 1.638 1.368 2.178 2.016h-3.366a66.842 66.842 0 0 1-.054-2.79H99.99c0 .972.018 1.89.054 2.79H92.61v5.994c-.054 2.934-.648 5.22-1.8 6.876l.99.882c1.332-1.944 2.052-4.536 2.124-7.758v-.54h3.114c-.036 1.98-.09 3.276-.198 3.888-.108.504-.36.774-.756.792-.486 0-1.08-.018-1.782-.054l.396 1.17c.576.036 1.098.072 1.53.072.9-.036 1.458-.432 1.692-1.206.234-.882.378-2.844.414-5.886h-4.41v-2.988h6.174c.144 2.25.396 4.14.792 5.652.198.774.432 1.494.684 2.16a12.102 12.102 0 0 1-4.572 3.564l.72 1.08a12.408 12.408 0 0 0 4.428-3.33c.27.558.576 1.062.9 1.494.864 1.08 1.674 1.62 2.43 1.62.81 0 1.422-1.206 1.854-3.6l-1.17-.648c-.27 1.854-.576 2.79-.9 2.808-.36 0-.846-.432-1.44-1.296a8.837 8.837 0 0 1-.81-1.494c1.152-1.62 2.088-3.636 2.808-6.012l-1.17-.504c-.558 1.926-1.278 3.618-2.178 5.058-.126-.396-.252-.81-.36-1.26-.324-1.296-.558-3.06-.684-5.292h5.544v-1.242h-2.196l.828-.828a16.213 16.213 0 0 0-2.214-1.98zm-12.096 23.366v1.242h5.886c-1.332 3.186-3.492 5.796-6.516 7.812l.738 1.206c3.204-2.358 5.472-5.364 6.804-9.018h.126v7.02h-3.708v1.242h3.708v3.69h1.332v-3.69h3.852v-1.242h-3.852v-7.02h.144c1.224 3.258 3.42 6.192 6.588 8.784l.882-1.116c-3.096-2.25-5.256-4.806-6.462-7.668h5.868v-1.242h-7.02v-3.258h-1.332v3.258h-7.038zm58.682-58.542h4.374v-1.944h1.296v1.944h4.374v1.224h-4.374v1.962h3.078v4.95h-7.434v-4.95h3.06v-1.962h-4.374v-1.224zm7.524 7.002v-2.7h-4.986v2.7h4.986zm4.77-10.98V144.8h-1.296v-.81h-11.952v.81h-1.278v-15.714h14.526zm-13.248 13.68h11.952V130.31h-11.952v12.456zm.702 10.874h10.584v1.224h-4.572v3.168h5.364v1.224h-5.364v3.726c1.26.18 2.772.288 4.572.306.918 0 1.854-.036 2.826-.108l-.234 1.296h-2.016c-3.636 0-6.228-.342-7.812-1.008-1.188-.558-2.16-1.422-2.898-2.592-.702 1.548-1.566 2.844-2.592 3.888l-.828-1.026c1.728-1.836 2.88-4.302 3.492-7.398l1.26.216a22.422 22.422 0 0 1-.828 3.078c.864 1.548 1.944 2.52 3.24 2.934.162.054.342.108.522.144v-7.848h-4.716v-1.224zm12.636-3.51v3.834h-1.26v-2.646h-12.204v2.736h-1.26v-3.924h6.876a13.72 13.72 0 0 0-.9-1.782l1.386-.216c.288.594.576 1.26.828 1.998h6.534zm-14.238 18.542l-.63.972c.99.324 1.962.756 2.934 1.332l.684-1.044c-.9-.504-1.908-.918-2.988-1.26zm5.796-.432l1.278.162c-.144.396-.288.792-.468 1.152h7.254v.774a17.937 17.937 0 0 1-.864 2.628l-1.242-.378c.306-.558.558-1.188.774-1.89h-3.06c-.072.432-.18.828-.324 1.188.936 1.386 2.79 2.34 5.562 2.862l-.468 1.152c-2.628-.54-4.5-1.512-5.616-2.952-.216.324-.45.63-.72.918-.882.828-2.322 1.494-4.338 1.962l-.486-1.152c1.764-.378 3.042-.9 3.834-1.584.648-.594 1.098-1.386 1.314-2.394h-2.304a10.431 10.431 0 0 1-1.782 1.782l-.756-1.008c1.188-.864 1.98-1.944 2.412-3.222zm6.84 8.064v5.346h-1.296v-4.14h-8.982v4.284h-1.296v-5.49h11.574zm-6.3 1.89l1.296.108c-.252 2.286-.792 3.816-1.638 4.608-.936.972-3.024 1.602-6.264 1.854l-.504-1.152c2.862-.162 4.752-.648 5.67-1.476.81-.774 1.296-2.088 1.44-3.942zm-3.834-6.138l.756.882c-.9.936-2.016 1.818-3.348 2.646l-.864-1.008c1.368-.774 2.52-1.62 3.456-2.52zm5.544 9.54c2.34.612 4.464 1.35 6.39 2.214l-.702 1.08a35.316 35.316 0 0 0-6.354-2.304l.666-.99zm-1.134 6.464c.288.612.576 1.314.846 2.088h6.318v1.242h-3.132a15.184 15.184 0 0 1-.882 2.736h4.392v1.242h-12.924v2.664c-.072 2.808-.72 5.058-1.962 6.75l-.99-.882c1.044-1.404 1.602-3.366 1.638-5.868v-3.906h3.69l-.756-2.736h-3.294v-1.242h6.588a11.804 11.804 0 0 0-.882-1.854l1.35-.234zm-1.728 6.066h3.636c.396-.864.702-1.782.882-2.736h-5.274l.756 2.736zm57.706-51.36h7.506c1.116-2.556 2.088-5.706 2.916-9.486l1.278.342c-.756 3.42-1.674 6.48-2.79 9.144h3.798v1.26h-12.708v-1.26zm1.962-8.604c.72 1.908 1.368 4.122 1.944 6.606l-1.224.306a50.1 50.1 0 0 0-1.854-6.552l1.134-.36zm3.474-1.278c.612 1.98 1.17 4.266 1.674 6.822l-1.242.288a55.975 55.975 0 0 0-1.566-6.75l1.134-.36zm.018-4.734c.342.558.666 1.188.954 1.872h6.588v1.26h-13.338v4.014c-.072 3.96-.684 7.128-1.854 9.504l-1.062-.954c1.008-2.052 1.548-4.896 1.584-8.55v-5.274h6.678a12.061 12.061 0 0 0-.972-1.62l1.422-.252zm-7.848 33.086a48.6 48.6 0 0 0 3.96-1.206v4.662h1.278v-16.308h-1.278v10.386c-.9.342-1.8.648-2.7.9v-9.828h-1.26v9.864c0 .18-.144.324-.396.432l.396 1.098zm8.91-8.928a23.222 23.222 0 0 1-.666 1.62c.648 1.764 1.476 3.384 2.52 4.86 1.08-1.836 1.656-3.996 1.764-6.48h-3.618zm-1.422 3.024c-.342.54-.702 1.026-1.08 1.476l-.81-.99c1.476-1.872 2.484-4.41 3.006-7.578l1.296.216c-.18.918-.378 1.782-.594 2.574h6.012v1.278h-1.548c-.126 2.952-.846 5.49-2.178 7.578a21.549 21.549 0 0 0 4.14 3.942l-.882 1.044a22.446 22.446 0 0 1-4.05-3.87c-1.188 1.494-2.718 2.736-4.59 3.744l-.738-1.17c1.89-.936 3.402-2.142 4.518-3.618a22.062 22.062 0 0 1-2.502-4.626zm5.04 20.072v3.528h-8.982v1.242h9.81v4.626h-1.278v-.756h-8.532v.738h-1.296v-9.378h10.278zm-8.982 7.488h8.532v-1.674h-8.532v1.674zm0-5.004h7.722v-1.44h-7.722v1.44zm11.466-4.662v3.258h-1.26v-2.142h-12.744v2.142h-1.26v-3.258h7.128c-.18-.432-.36-.81-.558-1.17l1.26-.216-.108-.072a10.509 10.509 0 0 0 1.872-3.546l1.242.27c-.126.378-.252.738-.396 1.098h5.202v1.134h-3.204c.378.504.684.972.9 1.404l-1.152.432a11.99 11.99 0 0 0-1.134-1.836h-1.134a14.076 14.076 0 0 1-1.098 1.728l-.972-.594c.198.414.396.864.576 1.368h6.84zm-13.104-2.502c-.432.702-.9 1.35-1.44 1.944l-1.134-.72a10.662 10.662 0 0 0 2.376-3.744l1.242.27c-.144.396-.306.756-.45 1.116h4.824v1.134h-3.024c.396.54.738 1.062.99 1.548l-1.188.45c-.324-.684-.72-1.35-1.17-1.998h-1.026zm3.96 18.29h8.802v8.316h-3.744v2.124h4.05v1.224h-4.05v2.34h4.716v1.242h-10.836v-1.242h4.824v-2.34h-4.068v-1.224h4.068v-2.124h-3.762v-8.316zm7.56 7.164v-2.43h-2.502v2.43h2.502zm-3.798 0v-2.43h-2.52v2.43h2.52zm-2.52-3.564h2.52v-2.448h-2.52v2.448zm3.816-2.448v2.448h2.502v-2.448h-2.502zm-11.412 4.806h1.962v-4.266h-2.214v-1.224h5.742v1.224h-2.196v4.266h1.98v1.242h-1.98v4.086a23.773 23.773 0 0 0 1.98-.774v1.26a37.208 37.208 0 0 1-5.346 1.728l-.324-1.242a26.302 26.302 0 0 0 2.358-.54v-4.518h-1.962v-1.242zm59.88-52.206h7.506c1.116-2.556 2.088-5.706 2.916-9.486l1.278.342c-.756 3.42-1.674 6.48-2.79 9.144h3.798v1.26h-12.708v-1.26zm1.962-8.604c.72 1.908 1.368 4.122 1.944 6.606l-1.224.306a50.1 50.1 0 0 0-1.854-6.552l1.134-.36zm3.474-1.278c.612 1.98 1.17 4.266 1.674 6.822l-1.242.288a55.975 55.975 0 0 0-1.566-6.75l1.134-.36zm.018-4.734c.342.558.666 1.188.954 1.872h6.588v1.26h-13.338v4.014c-.072 3.96-.684 7.128-1.854 9.504l-1.062-.954c1.008-2.052 1.548-4.896 1.584-8.55v-5.274h6.678a12.061 12.061 0 0 0-.972-1.62l1.422-.252zm-4.698 19.982c-.864 2.88-2.25 5.418-4.158 7.632l.396 1.35a22.326 22.326 0 0 0 2.196-2.718v10.44h1.296v-12.582a22.238 22.238 0 0 0 1.476-3.546l-1.206-.576zm1.584 4.068h6.894v-3.87h1.296v3.87h2.592v1.26h-2.592v9.396c0 1.224-.576 1.836-1.692 1.836h-2.61l-.288-1.278c.846.054 1.656.09 2.448.09.558 0 .846-.324.846-.972v-9.072h-6.894v-1.26zm1.656 3.222c1.368 1.62 2.43 3.042 3.168 4.248l-1.098.774c-.774-1.314-1.818-2.772-3.132-4.374l1.062-.648zm6.138 19.982v3.528h-8.982v1.242h9.81v4.626h-1.278v-.756h-8.532v.738h-1.296v-9.378h10.278zm-8.982 7.488h8.532v-1.674h-8.532v1.674zm0-5.004h7.722v-1.44h-7.722v1.44zm11.466-4.662v3.258h-1.26v-2.142h-12.744v2.142h-1.26v-3.258h7.128c-.18-.432-.36-.81-.558-1.17l1.26-.216-.108-.072a10.509 10.509 0 0 0 1.872-3.546l1.242.27c-.126.378-.252.738-.396 1.098h5.202v1.134h-3.204c.378.504.684.972.9 1.404l-1.152.432a11.99 11.99 0 0 0-1.134-1.836h-1.134a14.076 14.076 0 0 1-1.098 1.728l-.972-.594c.198.414.396.864.576 1.368h6.84zm-13.104-2.502c-.432.702-.9 1.35-1.44 1.944l-1.134-.72a10.662 10.662 0 0 0 2.376-3.744l1.242.27c-.144.396-.306.756-.45 1.116h4.824v1.134h-3.024c.396.54.738 1.062.99 1.548l-1.188.45c-.324-.684-.72-1.35-1.17-1.998h-1.026zm3.96 18.29h8.802v8.316h-3.744v2.124h4.05v1.224h-4.05v2.34h4.716v1.242h-10.836v-1.242h4.824v-2.34h-4.068v-1.224h4.068v-2.124h-3.762v-8.316zm7.56 7.164v-2.43h-2.502v2.43h2.502zm-3.798 0v-2.43h-2.52v2.43h2.52zm-2.52-3.564h2.52v-2.448h-2.52v2.448zm3.816-2.448v2.448h2.502v-2.448h-2.502zm-11.412 4.806h1.962v-4.266h-2.214v-1.224h5.742v1.224h-2.196v4.266h1.98v1.242h-1.98v4.086a23.773 23.773 0 0 0 1.98-.774v1.26a37.208 37.208 0 0 1-5.346 1.728l-.324-1.242a26.302 26.302 0 0 0 2.358-.54v-4.518h-1.962v-1.242zm121.954-62.152l1.422-5.004 1.278.216-1.026 3.546h3.15a39.85 39.85 0 0 0 .864-4.41l1.314.162a50.654 50.654 0 0 1-.846 4.248h8.424v1.242h-8.766c-.216.72-.432 1.404-.684 2.052h7.362v1.116c-.486 1.548-1.458 2.952-2.934 4.212 1.458.864 3.24 1.656 5.328 2.376l-.666 1.206c-2.304-.846-4.212-1.764-5.724-2.754-1.476 1.044-3.312 1.98-5.49 2.826l-.684-1.206c2.016-.738 3.69-1.548 5.04-2.43-1.404-1.08-2.394-2.25-2.988-3.51-1.314 2.844-3.006 5.094-5.058 6.768l-.666-1.188c2.628-2.304 4.554-5.454 5.814-9.468h-4.464zm5.346 3.24c.612 1.224 1.638 2.358 3.078 3.402 1.332-1.044 2.25-2.178 2.754-3.402h-5.832zm4.68-8.748c1.296.99 2.358 1.98 3.222 2.97l-.918.918c-.756-.954-1.818-1.962-3.168-3.042l.864-.846zm-11.106 20.684h15.984v1.134h-5.418v1.44h4.122v3.996h-13.374v-3.996h4.122v-1.44h-5.436v-1.134zm9.342 2.574v-1.44h-2.682v1.44h2.682zm4.104 2.934v-1.854h-2.88v1.854h2.88zm-4.104 0v-1.854h-2.682v1.854h2.682zm-3.906 0v-1.854h-2.88v1.854h2.88zm-3.366 2.394v1.08h11.934v-1.08h-11.934zm-1.782 2.394h15.408v1.134h-6.876v2.808c0 .99-.54 1.494-1.62 1.494h-1.62l-.252-1.152c.504.036.99.072 1.458.072.504 0 .774-.234.774-.702v-2.52h-7.272v-1.134zm11.394 1.746c1.656.882 3.042 1.764 4.158 2.646l-.9.9c-.99-.864-2.358-1.764-4.122-2.736l.864-.81zm-7.02.036l.846.774c-1.206 1.044-2.682 1.944-4.446 2.718l-.774-1.008c1.728-.72 3.186-1.548 4.374-2.484zm8.478 14.33v3.528h-8.982v1.242h9.81v4.626h-1.278v-.756h-8.532v.738h-1.296v-9.378h10.278zm-8.982 7.488h8.532v-1.674h-8.532v1.674zm0-5.004h7.722v-1.44h-7.722v1.44zm11.466-4.662v3.258h-1.26v-2.142h-12.744v2.142h-1.26v-3.258h7.128c-.18-.432-.36-.81-.558-1.17l1.26-.216-.108-.072a10.509 10.509 0 0 0 1.872-3.546l1.242.27c-.126.378-.252.738-.396 1.098h5.202v1.134h-3.204c.378.504.684.972.9 1.404l-1.152.432a11.99 11.99 0 0 0-1.134-1.836h-1.134a14.076 14.076 0 0 1-1.098 1.728l-.972-.594c.198.414.396.864.576 1.368h6.84zm-13.104-2.502c-.432.702-.9 1.35-1.44 1.944l-1.134-.72a10.662 10.662 0 0 0 2.376-3.744l1.242.27c-.144.396-.306.756-.45 1.116h4.824v1.134h-3.024c.396.54.738 1.062.99 1.548l-1.188.45c-.324-.684-.72-1.35-1.17-1.998h-1.026zm3.96 18.29h8.802v8.316h-3.744v2.124h4.05v1.224h-4.05v2.34h4.716v1.242h-10.836v-1.242h4.824v-2.34h-4.068v-1.224h4.068v-2.124h-3.762v-8.316zm7.56 7.164v-2.43h-2.502v2.43h2.502zm-3.798 0v-2.43h-2.52v2.43h2.52zm-2.52-3.564h2.52v-2.448h-2.52v2.448zm3.816-2.448v2.448h2.502v-2.448h-2.502zm-11.412 4.806h1.962v-4.266h-2.214v-1.224h5.742v1.224h-2.196v4.266h1.98v1.242h-1.98v4.086a23.773 23.773 0 0 0 1.98-.774v1.26a37.208 37.208 0 0 1-5.346 1.728l-.324-1.242a26.302 26.302 0 0 0 2.358-.54v-4.518h-1.962v-1.242z" fill="#333"/><rect stroke="url(#d)" x="4.5" y="46.5" width="303" height="205" rx="2"/><rect stroke="url(#d)" x="318.5" y="46.5" width="142" height="204" rx="2"/><rect stroke="url(#d)" x="472.5" y="46.5" width="142" height="204" rx="2"/><rect stroke="url(#d)" x="816.5" y="46.5" width="142" height="204" rx="2"/><rect stroke="url(#d)" x="625.5" y="46.5" width="180" height="204" rx="2"/></g></svg>