<svg width="955" height="656" viewBox="0 0 955 656" xmlns="http://www.w3.org/2000/svg"><title>Group 77</title><defs><linearGradient x1="39.298%" y1="75.975%" x2="137.565%" y2="7.342%" id="a"><stop stop-color="#DD3730" offset="0%"/><stop stop-color="#FFC194" offset="100%"/></linearGradient><linearGradient x1="54.952%" y1="0%" x2="40.318%" y2="124.318%" id="b"><stop stop-color="#DD3730" offset="0%"/><stop stop-color="#FFC194" offset="100%"/></linearGradient><linearGradient x1="12.594%" y1="68.699%" x2="124.077%" y2="68.699%" id="c"><stop stop-color="#DD3730" offset="0%"/><stop stop-color="#FFC194" offset="100%"/></linearGradient><linearGradient x1="125.765%" y1="50%" x2="0%" y2="50%" id="d"><stop stop-color="#FFC194" offset="0%"/><stop stop-color="#DD3730" offset="100%"/></linearGradient><linearGradient x1="112.529%" y1="60.365%" x2="14.736%" y2="60.365%" id="e"><stop stop-color="#FFC194" offset="0%"/><stop stop-color="#DD3730" offset="100%"/></linearGradient></defs><g fill="none" fill-rule="evenodd"><path d="M69.438 454.33v8.451h-1.89v-1.161h-11.61v1.161h-1.89v-8.451h15.39zm-13.5 5.535h11.61v-3.78h-11.61v3.78zm2.16-17.577l1.89.405c-.405.621-.81 1.215-1.242 1.782h9.963v1.566c-1.107 1.539-2.7 2.889-4.779 4.077 2.943 1.161 6.237 1.863 9.882 2.133l-.432 1.755c-4.32-.324-8.127-1.269-11.475-2.889-3.186 1.458-7.209 2.592-12.069 3.429l-.729-1.728c4.347-.702 7.965-1.593 10.827-2.727a24.455 24.455 0 0 1-3.807-2.754 25.643 25.643 0 0 1-3.375 2.538l-1.242-1.512a20.007 20.007 0 0 0 6.588-6.075zm3.834 6.939c1.863-.918 3.348-1.971 4.455-3.105h-9.045l-.081.081a24.268 24.268 0 0 0 4.671 3.024zm10.53-9.261v5.103h-1.971v-3.348H52.509v3.348h-1.971v-5.103h9.882a17.51 17.51 0 0 0-.999-1.89l2.133-.324c.324.648.621 1.404.945 2.214h9.963zm24.111 3.213H81.156v5.265h15.417v-5.265zm-15.417 7.155c-.135 4.833-1.404 8.991-3.834 12.474l-1.431-1.296c2.187-3.024 3.294-6.966 3.348-11.799v-8.451h8.802a28.684 28.684 0 0 0-1.566-3.159l2.079-.324a45.491 45.491 0 0 1 1.458 3.483h8.532v9.072H81.156z" fill="#333"/><g opacity=".4" transform="translate(155)" fill="url(#a)"><ellipse opacity=".2" cx="307.5" cy="308" rx="307.5" ry="75"/><ellipse opacity=".2" transform="rotate(45 307.5 308)" cx="307.5" cy="308" rx="307.5" ry="75"/><ellipse opacity=".2" transform="rotate(-45 307.5 308)" cx="307.5" cy="308" rx="307.5" ry="75"/><ellipse opacity=".2" transform="rotate(90 307.5 308)" cx="307.5" cy="308" rx="307.5" ry="75"/></g><g opacity=".4" transform="rotate(-15 385 -280.67)" fill="url(#a)"><ellipse opacity=".2" cx="307.5" cy="308" rx="307.5" ry="75"/><ellipse opacity=".2" transform="rotate(45 307.5 308)" cx="307.5" cy="308" rx="307.5" ry="75"/><ellipse opacity=".2" transform="rotate(-45 307.5 308)" cx="307.5" cy="308" rx="307.5" ry="75"/><ellipse opacity=".2" transform="rotate(90 306.903 308.327)" cx="306.903" cy="308.327" rx="307.5" ry="75"/></g><path d="M708.234 50.692h3.483v-5.643h1.998v5.643h4.833v-5.643h1.971v5.643h3.591v1.89h-3.591V58.9h4.347v1.863h-17.388V58.9h4.239v-6.318h-3.483v-1.89zm5.481 8.208h4.833v-6.318h-4.833V58.9zm5.643 2.862l-1.593.972c2.133 2.538 3.834 4.833 5.076 6.885l1.728-1.188c-1.215-1.89-2.943-4.131-5.211-6.669zm-6.831.189l1.782.837c-1.404 2.646-3.078 4.941-4.995 6.885l-1.674-1.215c1.89-1.809 3.537-3.969 4.887-6.507zm-9.099-7.371a35.003 35.003 0 0 1-2.943 3.456l-.648-2.052c2.943-3.294 5.076-7.047 6.426-11.259l1.836.837a32.154 32.154 0 0 1-2.673 5.967V69.7h-1.998V54.58zm28.593 12.069h11.259c1.674-3.834 3.132-8.559 4.374-14.229l1.917.513c-1.134 5.13-2.511 9.72-4.185 13.716h5.697v1.89h-19.062v-1.89zm2.943-12.906c1.08 2.862 2.052 6.183 2.916 9.909l-1.836.459c-.729-3.402-1.647-6.696-2.781-9.828l1.701-.54zm5.211-1.917c.918 2.97 1.755 6.399 2.511 10.233l-1.863.432a83.962 83.962 0 0 0-2.349-10.125l1.701-.54zm.027-7.101c.513.837.999 1.782 1.431 2.808h9.882v1.89h-20.007v6.021c-.108 5.94-1.026 10.692-2.781 14.256l-1.593-1.431c1.512-3.078 2.322-7.344 2.376-12.825v-7.911h10.017a18.092 18.092 0 0 0-1.458-2.43l2.133-.378zm21.276 15.039h10.017v6.642h-10.017v-6.642zm8.154 4.914v-3.159h-6.291v3.159h6.291zm-.513-10.179c2.214 1.566 4.077 3.105 5.589 4.644l-1.458 1.431c-1.323-1.512-3.132-3.132-5.454-4.833l1.323-1.242zm-2.457-9.828c.324.756.648 1.566.945 2.484h10.854v1.89h-5.832a28.442 28.442 0 0 1-1.566 3.267h5.994v14.58c0 1.782-.81 2.673-2.376 2.673h-2.754l-.486-1.782 2.619.081c.756 0 1.134-.486 1.134-1.404V54.04h-17.442v15.471h-1.863V52.312h5.697a23.874 23.874 0 0 0-1.431-3.267h-5.616v-1.89h10.989a22.619 22.619 0 0 0-.999-2.133l2.133-.351zm-3.051 7.641h5.346c.567-1.08 1.08-2.16 1.539-3.267h-8.181a31.69 31.69 0 0 1 1.296 3.267zm.081 2.214l1.377 1.215c-1.539 1.863-3.456 3.483-5.724 4.86l-1.242-1.62c2.214-1.242 4.077-2.727 5.589-4.455zm19.077 359.435h-.324v4.833h-1.944v-4.833h-.324c-1.701 2.268-4.887 4.239-9.531 5.913l-1.107-1.755c4.158-1.242 7.047-2.619 8.667-4.158h-7.641v-1.809h9.936v-2.322c-2.43.108-5.076.162-7.884.162l-.594-1.728c7.074 0 12.933-.378 17.604-1.08l.945 1.647c-2.322.378-5.049.675-8.127.891v2.43h10.098v1.809h-7.803c1.89 1.674 4.779 3.024 8.613 4.023l-.864 1.836c-4.536-1.485-7.776-3.429-9.72-5.859zm-12.825 7.29h7.641c.54-.81 1.08-1.566 1.566-2.322l1.89.567c-.432.621-.81 1.215-1.188 1.755h13.23v1.809h-4.887c-.999 1.836-2.133 3.321-3.375 4.455 2.376.756 4.779 1.647 7.263 2.619l-1.188 1.593a101.999 101.999 0 0 0-7.803-2.943c-2.862 1.809-6.696 2.781-11.475 2.889l-1.08-1.701c4.104 0 7.506-.648 10.206-1.917a82.519 82.519 0 0 0-6.939-1.863 114.082 114.082 0 0 0 2.484-3.132h-6.345v-1.809zm8.613 1.809c-.648.837-1.242 1.593-1.782 2.268 1.944.432 3.915.945 5.967 1.539a12.79 12.79 0 0 0 3.402-3.807h-7.587zm33.615-16.065v24.678h1.998v-14.364c1.566 1.242 3.429 2.997 5.643 5.211l1.188-1.782c-2.322-2.079-4.59-3.942-6.831-5.589v-8.154h-1.998zm-10.908 10.719l-1.026 1.512c1.431.702 2.862 1.674 4.266 2.862-1.89 2.916-4.536 5.346-7.911 7.29l1.323 1.647c7.02-4.185 10.962-10.368 11.88-18.549v-1.701h-6.561c.378-1.107.702-2.268.972-3.483l-1.944-.324c-1.08 4.86-3.186 8.748-6.264 11.61l1.323 1.647c2.16-1.998 3.915-4.509 5.211-7.587h5.346c-.405 2.889-1.242 5.535-2.484 7.911a22.358 22.358 0 0 0-4.131-2.835zm45.225-7.371v20.952h-1.89v-1.782h-4.86v1.782h-1.89v-20.952h8.64zm-6.75 17.28h4.86v-15.39h-4.86v15.39zm-11.934-20.601v4.698h-4.293v1.89h4.293v.513c-.054 7.506-1.674 12.96-4.86 16.335l1.566 1.404c3.456-3.753 5.211-9.666 5.292-17.739v-.513h3.618c-.054 7.668-.162 12.231-.324 13.743-.216 1.539-1.053 2.322-2.457 2.322-.648 0-1.404-.054-2.268-.108l.486 1.782c.972.054 1.647.108 2.052.108 2.403 0 3.753-1.134 4.023-3.348.27-2.079.405-7.533.405-16.389h-5.535v-4.698h-1.998zm33.804 3.645v17.874h-10.827v1.89h23.409v-1.89h-10.584v-17.874h9.423v-1.89h-20.817v1.89h9.396zm39.285-2.403h-20.79v9.936c-.081 5.184-1.107 9.261-3.105 12.177l1.485 1.323c2.268-3.375 3.483-7.884 3.591-13.5v-8.046h18.819v-1.89z" fill="#333"/><path d="M707.277 290.084l-.158-.147-2.197 2.356-.948-.883 2.197-2.357-.158-.147c-1.86.332-4.31-.155-7.335-1.45l.258-1.36c2.592 1.285 4.627 1.927 6.116 1.914l-3.725-3.474.822-.882 4.845 4.517 1.055-1.132a119.253 119.253 0 0 1-3.917-3.506l.496-1.112c3.449 3.216 6.477 5.696 9.074 7.477l-.288 1.233c-1.304-.872-2.769-1.967-4.368-3.26l-1.105 1.184 4.924 4.591-.823.882-3.804-3.548c.16 1.676.955 3.648 2.37 5.878l-1.256.502c-1.536-2.786-2.232-5.207-2.075-7.276zm-9.568-2.276l3.726 3.474c.631-.15 1.238-.273 1.82-.42l.663 1.135c-.493.107-.948.224-1.377.316l6.45 6.015-.822.882-2.383-2.222c-1.322.441-2.55.65-3.671.638.815 1.449 1.581 2.976 2.35 4.579l-1.303.236a68 68 0 0 0-2.467-4.982c-2.218-.42-4.529-1.689-6.908-3.809l.247-1.32c2 1.866 3.954 3.096 5.848 3.705a55.012 55.012 0 0 0-2.537-4.063c.9-.12 1.787-.253 2.635-.398l-3.093-2.884.822-.882zm3.377 4.798c-.696.113-1.33.212-1.9.295a64.961 64.961 0 0 1 2.21 3.464 8.527 8.527 0 0 0 3.39-.31l-3.7-3.45zm23.694 7.45l-11.22 12.033.974.908 6.53-7.003c.2 1.317.31 3.02.383 5.106l1.39-.329a61.143 61.143 0 0 0-.79-5.83l3.707-3.976-.974-.909zm-10.192.267l-1.188.27c.379.994.635 2.118.78 3.336-2.248.562-4.643.544-7.173-.043l-.103 1.405c5.325 1.151 10.058-.071 14.226-3.643l.773-.829-3.199-2.983a21.85 21.85 0 0 0 2.058-1.256l-.8-1.042c-2.737 1.878-5.532 2.817-8.334 2.813l-.104 1.404c1.962.008 3.96-.418 5.99-1.33l2.607 2.43c-1.51 1.225-3.122 2.135-4.808 2.729a14.905 14.905 0 0 0-.725-3.26zm25.402 16.969l-9.526 10.215-.922-.86.81-.868-2.37-2.21-.81.87-.921-.86 9.526-10.216 4.213 3.929zm-11.148 5.356l2.37 2.21 6.997-7.504-2.37-2.21-6.997 7.504zm3.548-15.47l-2.136 2.29-2.093-1.952-.86.922 2.094 1.951-.234.25c-3.439 3.636-6.708 5.558-9.796 5.755l.125 1.397c3.391-.259 6.936-2.344 10.646-6.243l.233-.25 1.764 1.645c-3.513 3.714-5.64 5.89-6.407 6.553-.805.652-1.569.654-2.253.015-.316-.294-.66-.664-1.057-1.084l-.573 1.09c.45.468.754.802.951.986 1.172 1.092 2.346 1.153 3.484.197 1.077-.891 3.622-3.49 7.649-7.807l-2.699-2.517 2.136-2.29-.974-.909zm14.825 17.146l-8.127 8.715-5.28-4.923-.858.922 11.413 10.643.86-.922-5.161-4.812 8.127-8.715 4.594 4.285.86-.922-10.15-9.465-.86.922 4.582 4.272zM183.036 421.06c.288.612.576 1.314.846 2.088h6.318v1.242h-3.132a15.184 15.184 0 0 1-.882 2.736h4.392v1.242h-12.924v2.664c-.072 2.808-.72 5.058-1.962 6.75l-.99-.882c1.044-1.404 1.602-3.366 1.638-5.868v-3.906h3.69l-.756-2.736h-3.294v-1.242h6.588a11.804 11.804 0 0 0-.882-1.854l1.35-.234zm-1.728 6.066h3.636c.396-.864.702-1.782.882-2.736h-5.274l.756 2.736zm14.724-5.076h9.918v5.886h-9.918v-5.886zm8.622 4.662v-3.438h-7.326v3.438h7.326zm-4.68 3.006v7.812h-1.26v-.918h-3.798v.918h-1.278v-7.812h6.336zm-5.058 5.67h3.798v-4.428h-3.798v4.428zm13.428-5.67v7.812h-1.296v-.918h-3.942v.918h-1.278v-7.812h6.516zm-5.238 5.67h3.942v-4.428h-3.942v4.428zm11.448-7.524h8.964v3.654h-8.964v-3.654zm7.758 2.664v-1.656h-6.552v1.656h6.552zm2.916 2.214v5.076h-1.242v-.738h-9.774v.738h-1.26v-5.076h12.276zm-11.016 3.24h9.774v-2.16h-9.774v2.16zm-2.952-13.446v1.134h4.05v1.062h1.296v-1.062h4.788v1.062h1.296v-1.062h4.05v-1.134h-4.05v-1.206h-1.296v1.206h-4.788v-1.206h-1.296v1.206h-4.05zm14.976 2.952v3.366h-1.242v-2.268h-11.988v2.358h-1.242v-3.456h14.472zm13.554-4.14h1.278v4.986h3.384v9.612c0 1.152-.522 1.746-1.566 1.746h-1.8l-.342-1.242 1.728.054c.45 0 .684-.288.684-.846v-1.89h-5.49v3.978h-1.296v-11.412h3.42v-4.986zm-2.124 9.324v1.98h5.49v-1.98h-5.49zm5.49-1.116v-1.998h-5.49v1.998h5.49zM237 422.032a29.596 29.596 0 0 1 1.638 3.024l-1.044.522c-.522-1.134-1.08-2.142-1.692-3.024l1.098-.522zm6.84-.162l1.08.504a17.895 17.895 0 0 1-1.728 3.204l-1.062-.54a18.301 18.301 0 0 0 1.71-3.168zm-12.726-.54l1.26.252a34.107 34.107 0 0 1-.504 1.746h3.294v1.224h-3.726c-.486 1.242-1.044 2.376-1.692 3.384l-1.062-.666c1.116-1.8 1.926-3.78 2.43-5.94zm-.54 5.634h4.284v1.17h-1.872v2.268h2.484v1.206h-2.484v4.23c.81-.288 1.638-.684 2.466-1.17l.216 1.152c-1.134.63-2.448 1.152-3.942 1.548l-.54-1.116c.36-.126.54-.306.54-.54v-4.104h-2.484v-1.206h2.484v-2.268h-1.152v-1.17zM539.987 75.756l3.488-1.41a10.306 10.306 0 0 0-.26-1.7l-5.708 2.306 2.158 5.34c1.288 3.382 1.84 6.285 1.638 8.716l-1.225-.437c.126-2.09-.418-4.685-1.632-7.786l-2.636-6.526 13.585-5.489.479 1.185-5.458 2.205c.116.575.191 1.146.227 1.714l4.64-1.874 2.575 6.375-3.872 1.564 1.673 4.14c.35.867.082 1.5-.82 1.864l-1.685.681-.73-1.084a17.602 17.602 0 0 0 1.553-.53c.367-.148.5-.396.365-.73l-1.557-3.855-4.223 1.706-2.575-6.375zm10.265 2.006l-.648-1.602-6.959 2.812.647 1.602 6.96-2.812zm-8.025.175l6.96-2.812-.628-1.552-6.96 2.812.628 1.552zm1.854 4.493l1.254.076c-.188 1.745-.58 3.32-1.18 4.767l-1.285-.297c.627-1.379 1.023-2.898 1.21-4.546zm6.769-2.755c1.704.904 3.074 1.748 4.103 2.517l-.725 1.088c-1.079-.845-2.462-1.723-4.103-2.613l.725-.992zm2-11.485a32.35 32.35 0 0 1 2.313 3.084l-.827.645a28.96 28.96 0 0 0-2.36-3.007l.873-.722zm4.451-2.05l1.072-.279c.453 1.41.678 2.736.692 3.972l-1.039.07c-.037-1.149-.292-2.405-.725-3.764zm-3.796 6.988l2.987-1.207-2.34-5.79 1.219-.493 2.34 5.791 2.486-1.005.472 1.169-2.487 1.004.176.434c1.138.414 2.316.928 3.545 1.519l-.293 1.341c-1.126-.768-2.07-1.376-2.828-1.808l2.725 6.742-1.219.492-2.717-6.725c-.1 1.865-.459 3.621-1.065 5.244l-.983-1.04c.886-1.988 1.344-3.881 1.374-5.68l-2.92 1.18-.472-1.168zm9.633-10.609l1.185-.479 3.823 9.463 1.721-1.025.686 1.12-1.915 1.124 1.814 4.489-1.185.479-1.74-4.306-4.526 2.683-.652-1.134 4.686-2.767-3.897-9.647zm-2.893 2.547c1.439.39 2.687.836 3.762 1.334l-.487 1.148c-.985-.514-2.24-.978-3.766-1.39l.491-1.092zm1.178 4.067c1.412.42 2.673.9 3.745 1.438l-.48 1.165c-.999-.548-2.25-1.052-3.756-1.511l.49-1.092zm21.49-12.254l5.232 12.95-1.168.472-.445-1.101-3.004 1.214.445 1.101-1.168.472-5.233-12.95 5.34-2.158zm.143 12.366l3.004-1.213-3.843-9.513-3.005 1.214 3.844 9.512zm-12.522-9.753l1.174 2.904-2.654 1.072.472 1.168 2.654-1.072.128.317c1.84 4.653 2.202 8.43 1.075 11.31l1.319.478c1.199-3.183.807-7.276-1.16-12.287l-.127-.317 2.236-.903c1.882 4.753 2.954 7.6 3.232 8.575.25 1.006-.071 1.699-.939 2.05-.4.161-.881.316-1.429.499l.746.98c.614-.21 1.045-.345 1.295-.446 1.485-.6 2.037-1.638 1.65-3.074-.352-1.352-1.63-4.757-3.842-10.231l-3.421 1.382-1.174-2.904-1.235.499zm21.806-6.19l4.464 11.05-6.693 2.703.472 1.168 14.47-5.846-.472-1.168-6.542 2.643-4.464-11.048 5.824-2.353-.472-1.169-12.867 5.2.472 1.167 5.808-2.346z" fill="#666"/><g fill="#DD3730"><path d="M460 165h2v148.375h-2z"/><path d="M596.473 243l.845 1.812-134.473 62.706-.845-1.812zm-15.975 157.891l1.204-1.597L463.204 310 462 311.597zm-232.811 9.939l-1.339-1.486 110.264-99.282 1.339 1.486zm114.335-105.453l-.45 1.949L317 273.949l.45-1.949z"/></g><g transform="translate(239 87)"><ellipse fill="url(#b)" transform="rotate(-117 223 222.6)" cx="223" cy="222.601" rx="100.026" ry="100.17"/><path d="M182.419 218.011c2.538 2.592 4.617 5.049 6.183 7.371l1.458-1.485c-1.917-2.565-4.266-5.184-7.074-7.83a27.76 27.76 0 0 0 .513-2.889h7.722v15.066c0 .864-.432 1.323-1.296 1.323l-4.131-.108.54 1.944h4.239c1.728 0 2.619-.918 2.619-2.727v-17.388h-9.477c.108-1.35.189-2.835.189-4.428h-1.971c0 1.566-.081 3.051-.216 4.428h-9.882v20.385h1.971v-18.495h7.695a28.256 28.256 0 0 1-.729 3.429c-.972 2.997-2.97 5.481-5.994 7.479l1.296 1.593c3.132-2.052 5.238-4.59 6.345-7.668zm18.657-5.562l-1.782.648c.675 1.188 1.242 2.484 1.728 3.888h-3.645v1.89h13.527v-1.89h-3.267c.702-1.215 1.323-2.592 1.89-4.131l-1.809-.621a29.85 29.85 0 0 1-1.998 4.752h-2.835c-.54-1.782-1.161-3.294-1.809-4.536zm11.07-4.374v23.571h1.89v-21.789h4.833c-.864 2.916-1.755 5.454-2.646 7.587 2.106 2.592 3.186 4.671 3.213 6.264-.027.972-.162 1.62-.432 1.971-.27.324-.891.513-1.863.567-.513 0-1.134-.054-1.89-.108l.621 2.052c2.214 0 3.699-.351 4.455-.999.702-.648 1.053-1.809 1.053-3.483-.027-1.62-1.053-3.726-3.078-6.264.972-2.43 1.863-5.076 2.7-7.911v-1.458h-8.856zm-14.256 1.485v1.89h12.825v-1.89h-5.508a43.025 43.025 0 0 0-.891-2.781l-1.998.351c.351.729.675 1.539.999 2.43h-5.427zm11.772 11.772v10.179h-1.917v-1.512h-6.912v1.512h-1.917v-10.179h10.746zm-8.829 6.831h6.912v-4.995h-6.912v4.995zm45.927-10.881l-1.512.486c.81 1.89 1.593 4.077 2.295 6.507l1.485-.675a51.033 51.033 0 0 0-2.268-6.318zm-8.91-10.125h1.89v4.644h5.481c0 8.748-.135 14.148-.405 16.2-.27 2.268-1.539 3.429-3.861 3.429-.405 0-1.08-.054-2.025-.108l-.486-1.782c.864.054 1.593.081 2.241.081 1.296 0 2.052-.81 2.268-2.403.162-1.458.27-5.967.324-13.527h-3.537v.459c-.108 8.019-2.268 13.878-6.507 17.577l-1.458-1.296c3.969-3.375 5.994-8.802 6.075-16.281v-.459h-4.59v-1.89h4.59v-4.644zm-4.104 9.99l1.566.405c-.81 3.186-1.917 5.643-3.375 7.344l-1.296-1.215c1.404-1.728 2.457-3.915 3.105-6.534zm-9.639-3.834h3.132v-6.21h1.863v6.21h3.024v1.809h-3.024V231.7h-1.863v-16.578h-3.132v-1.809zm47.871 18.279h-3.591l-.54-1.944 3.51.081c.675 0 1.026-.405 1.026-1.215v-18.63h-17.766v21.789h-1.944v-23.679h21.654v20.952c0 1.755-.783 2.646-2.349 2.646zm-15.39-18.603h13.851v1.809h-13.851v-1.809zm1.512 4.725h10.827v8.694H258.1v-8.694zm8.937 6.966v-5.211h-7.047v5.211h7.047z" fill="#FFF"/><ellipse stroke="#DD3730" stroke-width="2" stroke-dasharray="3" transform="rotate(-117 223 222.6)" cx="223" cy="222.601" rx="165.172" ry="165.41"/><ellipse stroke="#DD3730" stroke-width="2" opacity=".5" stroke-dasharray="3" transform="rotate(-117 223 222.6)" cx="223" cy="222.601" rx="137.871" ry="138.069"/></g><g transform="translate(408 76)"><circle stroke="#DD3730" fill="#FFF" cx="50" cy="50" r="50"/><path d="M17.06 43.76h4.18c.2-.6.34-1.22.44-1.86h-6.84v6.4c-.08 4.02-.72 7.24-1.94 9.66L11.82 57c1-2.1 1.52-5 1.56-8.7v-7.82h16.28v1.42h-6.54c-.12.64-.28 1.26-.48 1.86h5.56v7.64h-4.64v4.96c0 1.04-.54 1.58-1.62 1.58h-2.02l-.3-1.42c.64.06 1.24.1 1.82.1.44 0 .68-.2.68-.6V51.4h-5.06v-7.64zm9.74 6.34v-1.92h-8.34v1.92h8.34zm-8.34-3.16h8.34v-1.86h-8.34v1.86zm.04 5.4l1.26.6c-.92 1.72-1.98 3.18-3.2 4.42l-1.2-.84c1.22-1.16 2.26-2.56 3.14-4.18zm8.12-.02c1.38 1.64 2.44 3.08 3.18 4.3l-1.2.82c-.76-1.32-1.82-2.8-3.14-4.4l1.16-.72zm6.84-11c.4 1.2.78 2.58 1.1 4.14l-1.12.32c-.32-1.42-.7-2.78-1.18-4.08l1.2-.38zm5.44-.26l1.22.16c-.12 1.64-.44 3.1-.94 4.38l-1.1-.36c.44-1.2.7-2.6.82-4.18zm-6.82 5.62h3.58v-6.94h1.46v6.94h2.98v1.4h-2.98v.52c1 .9 2 1.92 3.02 3.04l-.86 1.26c-.84-1.26-1.56-2.28-2.16-3.04v8.08h-1.46v-8.06c-.88 1.88-1.98 3.54-3.28 4.96l-.58-1.48c1.74-1.68 3-3.44 3.78-5.28h-3.5v-1.4zm14.34-6.92h1.42V51.1l2.2-.34.24 1.44-2.44.36v5.38h-1.42v-5.16l-5.78.88-.2-1.44 5.98-.9V39.76zm-4.04 1.42c1.32 1 2.42 1.98 3.32 2.94l-.98.98c-.8-.94-1.9-1.94-3.3-3l.96-.92zm-.48 4.68c1.28 1.02 2.38 2.04 3.26 3.04l-.98 1c-.8-.98-1.88-2.02-3.24-3.12l.96-.92zm25.28-3.5l1.32.64c-.88 1.72-1.9 3.2-3.06 4.44l-1.14-.82c1.12-1.2 2.08-2.62 2.88-4.26zm-6.3.36l-1.34.44c.64 1.1 1.18 2.24 1.58 3.44l1.4-.34a22.4 22.4 0 0 0-1.64-3.54zm-5.46.46c.72 1.1 1.36 2.28 1.92 3.56l-1.32.58c-.6-1.4-1.26-2.62-1.98-3.7l1.38-.44zm12.62-3.42c-3.98.72-8.98 1.08-15.02 1.08l.44 1.36c6.36 0 11.44-.42 15.28-1.22l-.7-1.22zM53 48.98h7.28v-1.92h1.44v1.92h7.3v1.4h-5.86c1.36 2.04 3.66 3.86 6.9 5.46l-1.02 1.28c-3.36-2-5.7-4.26-7.06-6.74h-.26v7.52h-1.44v-7.52h-.2c-1.46 2.78-3.88 5.08-7.28 6.88l-.8-1.34c3.16-1.44 5.44-3.3 6.86-5.54H53v-1.4zm26.34-8.52v12.56h-1.28V41.8h-4.14v11.22h-1.3V40.46h6.72zm2.84-.86l1.4.18c-.2.96-.44 1.88-.72 2.74h6.62c0 6.96-.12 11.22-.32 12.82-.2 1.64-1.12 2.46-2.72 2.46-.54 0-1.48-.02-2.8-.06l-.34-1.3c1.12.04 2.08.08 2.92.08.88 0 1.4-.52 1.56-1.56.16-1.18.26-4.86.3-11.04H82.3c-.54 1.2-1.2 2.3-2 3.28l-.88-1.14c1.36-1.76 2.28-3.9 2.76-6.46zm3.08 8.86c.68 1.6 1.3 3.34 1.9 5.22l-1.18.6c-.16-.52-.3-1-.44-1.44-1.56.36-3.26.62-5.12.82l-.24-1.24c.76-.6 1.72-2.84 2.86-6.72l1.3.42c-.86 2.6-1.7 4.66-2.52 6.18 1.18-.16 2.3-.36 3.34-.62-.32-.96-.66-1.86-1-2.68l1.1-.54zm-9.88-5.2h1.2v6.56c-.04 2.22-.36 3.98-.98 5.3-.6 1.24-1.58 2.2-2.94 2.9l-.76-1.2c1.28-.66 2.18-1.52 2.7-2.6.48-1.12.74-2.6.78-4.4v-6.56zm2.02 10.36c1.12 1.08 2.06 2.16 2.82 3.24l-1.04 1.02c-.64-1.04-1.54-2.16-2.7-3.36l.92-.9z" fill="#DD3730"/></g><g transform="translate(241 221)"><circle stroke="#DD3730" fill="#FFF" cx="50" cy="50" r="50"/><path d="M18.16 45.66h5.42v-6.02h1.48v6.02h5.14v1.44h-5.14v10.94h-1.48V47.1h-5.42v-1.44zm-3.92-5.8l-1 .98c1.44 1.08 2.6 2.12 3.44 3.1l.98-1c-.92-1.04-2.06-2.06-3.42-3.08zm-2.34 5.92h4.32v8.9c.72-.6 1.52-1.28 2.36-2.08l.36 1.48c-1.24 1.2-2.58 2.26-4 3.2l-.56-1.3c.3-.24.46-.52.46-.84v-7.98H11.9v-1.38zm31.96-4.38h1.4v12.48h-1.4V41.4zm3.56 16.42h-2.88l-.32-1.38c.96.06 1.86.1 2.7.1.62 0 .94-.32.94-.94V39.72h1.44v16.24c0 1.24-.64 1.86-1.88 1.86zm-5.56-13.7l.22 1.4-5.8.9c.12 1.08.26 2.04.44 2.92.18.86.38 1.62.6 2.3 1.18-1.34 2.18-2.92 3-4.74l1.26.66c-1 2.24-2.24 4.14-3.7 5.66.2.5.42.94.64 1.34.74 1.18 1.42 1.78 2.02 1.8.36-.06.72-1.1 1.12-3.14l1.22.78c-.28 1.04-.58 1.9-.9 2.6-.4.84-.86 1.28-1.36 1.28-.92 0-1.84-.64-2.76-1.92-.36-.52-.7-1.1-1-1.76a16.122 16.122 0 0 1-4.22 2.6l-.86-1.3c1.68-.66 3.18-1.58 4.48-2.78-.28-.74-.52-1.54-.74-2.42-.28-1.04-.48-2.26-.64-3.66l-2.6.4-.22-1.4 2.68-.42c-.16-1.64-.24-3.48-.24-5.52h1.48c0 1.96.06 3.72.18 5.3l5.7-.88zm-3.24-4.5c.76.9 1.46 1.88 2.14 2.94l-1.22.6c-.66-1.1-1.36-2.08-2.1-2.96l1.18-.58zm16.14 4.12l-1.32.48c.5.88.92 1.84 1.28 2.88h-2.7v1.4h10.02v-1.4h-2.42c.52-.9.98-1.92 1.4-3.06l-1.34-.46c-.4 1.24-.9 2.42-1.48 3.52h-2.1c-.4-1.32-.86-2.44-1.34-3.36zm8.2-3.24v17.46h1.4V41.82h3.58c-.64 2.16-1.3 4.04-1.96 5.62 1.56 1.92 2.36 3.46 2.38 4.64-.02.72-.12 1.2-.32 1.46-.2.24-.66.38-1.38.42-.38 0-.84-.04-1.4-.08l.46 1.52c1.64 0 2.74-.26 3.3-.74.52-.48.78-1.34.78-2.58-.02-1.2-.78-2.76-2.28-4.64.72-1.8 1.38-3.76 2-5.86V40.5h-6.56zM52.4 41.6V43h9.5v-1.4h-4.08c-.22-.76-.44-1.46-.66-2.06l-1.48.26c.26.54.5 1.14.74 1.8H52.4zm8.72 8.72v7.54H59.7v-1.12h-5.12v1.12h-1.42v-7.54h7.96zm-6.54 5.06h5.12v-3.7h-5.12v3.7zM87 57.84c1.32 0 1.98-.68 1.98-2.04V40.7H79.9v1.32h7.68V55.4c0 .76-.3 1.14-.88 1.14l-1.78-.04.36 1.34H87zM72.98 42.98v15.04h1.4V42.98h-1.4zm2.9-3.5l-1.32.58c.92 1.08 1.74 2.32 2.5 3.72l1.3-.68c-.72-1.32-1.56-2.52-2.48-3.62z" fill="#DD3730"/></g><g transform="translate(289 394)"><circle stroke="#DD3730" fill="#FFF" cx="50" cy="50" r="50"/><path d="M24.1 39.72h1.42v5.54h3.76v10.68c0 1.28-.58 1.94-1.74 1.94h-2l-.38-1.38 1.92.06c.5 0 .76-.32.76-.94v-2.1h-6.1v4.42H20.3V45.26h3.8v-5.54zm-2.36 10.36v2.2h6.1v-2.2h-6.1zm6.1-1.24v-2.22h-6.1v2.22h6.1zM21 40.48c.64 1.02 1.24 2.14 1.82 3.36l-1.16.58c-.58-1.26-1.2-2.38-1.88-3.36l1.22-.58zm7.6-.18l1.2.56c-.5 1.22-1.14 2.4-1.92 3.56l-1.18-.6c.8-1.2 1.42-2.36 1.9-3.52zm-14.14-.6l1.4.28c-.18.68-.36 1.32-.56 1.94h3.66v1.36h-4.14c-.54 1.38-1.16 2.64-1.88 3.76l-1.18-.74c1.24-2 2.14-4.2 2.7-6.6zm-.6 6.26h4.76v1.3h-2.08v2.52h2.76v1.34h-2.76v4.7c.9-.32 1.82-.76 2.74-1.3l.24 1.28c-1.26.7-2.72 1.28-4.38 1.72l-.6-1.24c.4-.14.6-.34.6-.6v-4.56h-2.76v-1.34h2.76v-2.52h-1.28v-1.3zm34.2 6.28v5.84h-1.42v-.98h-10.6v.98h-1.42v-5.84h13.44zm-12.02 3.58h10.6v-2.34h-10.6v2.34zm-1.42-10.96c-.72.84-1.5 1.62-2.36 2.36l-.44-1.42c2.08-1.9 3.56-3.98 4.42-6.22l1.4.28c-.24.6-.5 1.18-.8 1.76h4.96c-.3-.68-.62-1.28-.98-1.84l1.48-.24c.32.62.62 1.32.9 2.08h5.82v1.2h-6.08v1.46h5.2v1.14h-5.2v1.4h5.24v1.14h-5.24v1.5h6.4v1.22H34.62v-5.82zm6.9 4.6v-1.5H36v1.5h5.52zm0-2.64v-1.4H36v1.4h5.52zm0-2.54v-1.46h-5.38c-.06.08-.1.14-.14.22v1.24h5.52zm16.06-4.42l1.32.52c-1.48 4.2-3.42 7.4-5.86 9.6L51.92 49c2.5-2.28 4.38-5.32 5.66-9.14zm6.82 10.6c1.56 2.16 2.88 4.48 4 6.94l-1.34.6c-.3-.68-.6-1.32-.9-1.92-3.52.56-7.46.96-11.82 1.24l-.26-1.4c1.6-.84 3.6-4 6.02-9.48l1.4.48c-1.72 3.8-3.44 6.78-5.16 8.94 3.26-.2 6.32-.54 9.18-1-.78-1.44-1.58-2.76-2.42-3.96l1.3-.44zm-.3-10.74c1.16 3.72 3.16 6.76 6.02 9.12l-1.02 1.18c-2.98-2.48-5.06-5.7-6.22-9.62l1.22-.68zm9.86 8.48h8.82v6.16h-8.82V48.2zm7.44 4.88V49.5h-6.04v3.58h6.04zm4.86 4.78H83.5l-.36-1.38 2.8.04c.6 0 .92-.4.92-1.2V41.9h-13.6v-1.4H88.3v15.22c0 1.42-.68 2.14-2.04 2.14zm-13.8-13.42h12.3v1.3h-12.3v-1.3z" fill="#DD3730"/></g><g transform="translate(553 388)"><circle stroke="#DD3730" fill="#FFF" cx="50" cy="50" r="50"/><path d="M35.34 43.42v13.24h-8.02v1.4h17.34v-1.4h-7.84V43.42h6.98v-1.4H28.38v1.4h6.96zm29.1-1.78h-15.4V49c-.06 3.84-.82 6.86-2.3 9.02l1.1.98c1.68-2.5 2.58-5.84 2.66-10v-5.96h13.94v-1.4zm6.16 1.08c-.48.54-1.04 1.02-1.72 1.46a8.5 8.5 0 0 1-2 .86v1.64c1.34-.4 2.46-1.04 3.36-1.96V57h1.64V42.72H70.6z" fill="#DD3730"/></g><g transform="translate(571 183)"><circle stroke="#DD3730" fill="#FFF" cx="50" cy="50" r="50"/><path d="M35.34 43.42v13.24h-8.02v1.4h17.34v-1.4h-7.84V43.42h6.98v-1.4H28.38v1.4h6.96zm29.1-1.78h-15.4V49c-.06 3.84-.82 6.86-2.3 9.02l1.1.98c1.68-2.5 2.58-5.84 2.66-10v-5.96h13.94v-1.4zm7.76.8c-1.44 0-2.62.48-3.5 1.44-.88.94-1.34 2.22-1.34 3.82H69c.02-1.26.32-2.22.88-2.86.52-.68 1.28-1 2.26-1 .92 0 1.66.24 2.18.72.52.48.78 1.14.78 2.02 0 .92-.38 1.78-1.1 2.56-.38.4-1.12.98-2.24 1.78-1.52 1.04-2.54 1.9-3.1 2.54-.96 1.06-1.42 2.24-1.42 3.54h9.52v-1.46h-7.5c.26-.96 1.3-2.06 3.12-3.28 1.48-1 2.46-1.78 2.96-2.3.92-1 1.4-2.12 1.4-3.36 0-1.24-.44-2.26-1.28-3.02-.86-.76-1.94-1.14-3.26-1.14z" fill="#DD3730"/></g><g stroke="#DD3730"><path d="M128 452h150.54" stroke-dasharray="3"/><path stroke-width="2" d="M133.923 444.825l-7.426 7.427 7.426 6.81"/></g><g stroke="#DD3730"><path d="M669.085 59.125l-154.516 56.24" stroke-dasharray="3"/><path stroke-width="2" d="M661.065 54.41l9.519 4.438-4.65 8.94"/></g><g stroke="#DD3730"><path d="M772.13 393.63L655.857 277.357" stroke-dasharray="3"/><path stroke-width="2" d="M773.014 384.367v10.504l-10.067-.436"/></g><g transform="translate(371 616)"><rect fill="#DD3730" width="182" height="40" rx="2"/><path d="M38.54 24.14c-1.16 1.18-3.28 2.24-6.36 3.18l.76 1.24c3.42-1.24 5.76-2.72 7.02-4.42h.38v4.88h1.44v-4.88h.38c1.4 1.78 3.74 3.22 7.06 4.34l.62-1.28c-2.82-.76-4.92-1.78-6.28-3.06h6.06v-1.3h-7.84V21.8h-1.44v1.04h-7.96v1.3h6.16zm-4.2-8.5c-.52.6-1.08 1.16-1.68 1.72l-.82-1.12c1.78-1.6 3.1-3.48 3.98-5.64l1.34.34c-.2.54-.44 1.06-.68 1.56h4.32c-.28-.62-.56-1.2-.88-1.72l1.48-.24c.28.58.54 1.24.8 1.96h6.46v1.2H42.3v1.36h5.62v1.12H42.3v1.32h5.62v1.12H42.3v1.42h6.74v1.22h-14.7v-5.62zm6.54 4.4v-1.42h-5.2v1.42h5.2zm0-2.54v-1.32h-5.2v1.32h5.2zm0-2.44V13.7h-5.1l-.1.16v1.2h5.2zm14.94 1.26h6.72v-2.44h1.38v2.44h2.48v1.3h-2.48v6.06c0 1.18-.58 1.78-1.7 1.78h-2.28l-.3-1.34c.74.06 1.44.1 2.1.1.52 0 .8-.3.8-.9v-5.5c-1.56 2.68-3.66 4.78-6.3 6.32l-.76-1.28c2.5-1.28 4.48-3.04 5.94-5.24h-5.6v-1.3zm13.28-4.78v17.48h-1.4v-.9H54.3v.9h-1.4V11.54h16.2zM54.3 26.8h13.4V12.86H54.3V26.8zm34.3-8.48l-1.12.36c.6 1.4 1.18 3.02 1.7 4.82l1.1-.5c-.48-1.66-1.04-3.22-1.68-4.68zm-6.6-7.5h1.4v3.44h4.06c0 6.48-.1 10.48-.3 12-.2 1.68-1.14 2.54-2.86 2.54-.3 0-.8-.04-1.5-.08l-.36-1.32c.64.04 1.18.06 1.66.06.96 0 1.52-.6 1.68-1.78.12-1.08.2-4.42.24-10.02H83.4V16c-.08 5.94-1.68 10.28-4.82 13.02l-1.08-.96c2.94-2.5 4.44-6.52 4.5-12.06v-.34h-3.4v-1.4H82v-3.44zm-3.04 7.4l1.16.3c-.6 2.36-1.42 4.18-2.5 5.44l-.96-.9c1.04-1.28 1.82-2.9 2.3-4.84zm-7.14-2.84h2.32v-4.6h1.38v4.6h2.24v1.34h-2.24V29h-1.38V16.72h-2.32v-1.34zm35.46 13.54h-2.66l-.4-1.44 2.6.06c.5 0 .76-.3.76-.9v-13.8H94.42v16.14h-1.44V11.44h16.04v15.52c0 1.3-.58 1.96-1.74 1.96zm-11.4-13.78h10.26v1.34H95.88v-1.34zm1.12 3.5h8.02v6.44H97v-6.44zm6.62 5.16v-3.86H98.4v3.86h5.22zm10.5-9.26h2.8v2.58h-4.84v1.34h4.84v2.1h-3.94v7.2h1.4V21.9h2.54v7.12h1.44V21.9h2.52v3.64c0 .52-.3.78-.86.78l-.98-.06.36 1.36h1.06c1.2 0 1.8-.6 1.8-1.78v-5.28h-3.9v-2.1h4.32v-1.34h-4.32v-2.58h3.74V13.2h-3.74v-2.48h-1.44v2.48h-2.32c.16-.54.28-1.12.38-1.76l-1.36-.22c-.28 1.9-.92 3.38-1.92 4.46l1.16.84c.48-.52.9-1.18 1.26-1.98zm9.74-2.02h1.4v12.36h-1.4V12.52zm3.66 16.3h-2.94l-.32-1.38c.96.06 1.88.1 2.76.1.6 0 .92-.32.92-.96V10.72h1.42v16.22c0 1.24-.62 1.88-1.84 1.88zm6.02-18l-.98.92c1.44 1.2 2.56 2.34 3.38 3.38l1-1c-.92-1.1-2.04-2.2-3.4-3.3zm11.6 17.82c-1.08 0-2.28-.02-3.56-.04-1.28-.02-2.34-.14-3.14-.36-.78-.24-1.48-.74-2.1-1.46-.28-.34-.54-.5-.78-.5-.5 0-1.3.92-2.42 2.8l-1.08-.98c1.08-1.7 2.02-2.74 2.86-3.1v-6.08h-2.84V17.6h4.18v7.48c.16.12.32.28.48.46.48.58 1 1 1.56 1.26.62.28 1.52.44 2.72.48 1.04.02 2.36.04 3.92.04.96 0 1.94-.02 2.94-.04.98-.02 1.74-.04 2.28-.08l-.36 1.44h-4.66zm-4.84-14.22c-.34.72-.72 1.4-1.14 2.02l-1.2-.74c.96-1.38 1.68-2.92 2.12-4.6l1.3.28c-.16.6-.34 1.16-.54 1.7h2.54v-2.4h1.38v2.4h4.1v1.34h-4.1v2.6h5.14v1.32h-12.24v-1.32h5.72v-2.6h-3.08zm-.92 5.52h8.96v5.62h-8.96v-5.62zm7.56 4.28v-2.94h-6.16v2.94h6.16z" fill="#FFF"/></g><path d="M33.422 4.092c-.18.14-.226.276-.21.49.037.535-.1 1.014-.582 1.338-.24.161-.511.234-.798.27-.433.06-.873.037-1.297-.068-.71-.183-1.349-.721-1.275-1.67l-.02-.002-.018.007c-.224.545-.755.816-1.432.731a3.63 3.63 0 0 1-.93-.227c-.126-.051-.216-.033-.326.05-.444.338-.93.59-1.499.67a1.6 1.6 0 0 1-.837-.106c-.061-.025-.109-.062-.145.035-.19.505-.588.814-1.06 1.04-.167.08-.222.17-.205.35.024.258-.008.514-.159.744a.528.528 0 0 1-.195.187c-.233.123-.303.09-.34-.16-.116-.82-.152-1.64.05-2.455.092-.364.245-.7.545-.951.07-.06.09-.13.106-.216.097-.558.29-1.08.677-1.513.586-.655 1.35-.879 2.209-.84.236.012.374-.031.514-.237.647-.952 1.707-1.335 2.838-1.05a.649.649 0 0 0 .468-.045c.528-.254 1.082-.428 1.675-.459 1.148-.06 1.922.416 2.375 1.448.186.424.287.876.407 1.317.147.537-.107.988-.536 1.322zm-9.152 4.6c-.007 3.117-.004 6.235-.008 9.352 0 .163.037.251.194.329 1.125.542 2.242 1.102 3.366 1.648.138.068.178.145.178.297-.005 4.154-.005 8.309 0 12.463 0 .167-.032.219-.209.219-9.192-.005-18.385-.005-27.578 0-.17 0-.212-.045-.212-.216C.005 24.75.005 16.718 0 8.685c0-.184.046-.227.225-.226 1.318.007 2.636.004 3.954.001.123 0 .244.029.353.085 4.848 2.392 9.698 4.782 14.548 7.172.06.03.121.057.215.1v-.26c0-3.105.002-6.209-.006-9.312 0-.207.058-.25.25-.244.478.014.957.01 1.434.001.141-.003.186.034.184.182-.007.684.003 1.369-.007 2.053-.004.177.033.233.22.23.888-.01 1.776 0 2.664-.01.182-.002.236.04.236.234zM6 21.214c0-.181-.064-.216-.261-.215-.827.01-1.653.01-2.48 0-.199-.002-.26.034-.259.215.01 1.597.006 3.193.006 4.79 0 1.596.003 3.193-.005 4.789-.001.17.056.208.245.206.835-.009 1.67-.009 2.505 0 .185 0 .249-.031.249-.206a2085.95 2085.95 0 0 1 0-9.58zM9.763 21c-.835.008-1.67.01-2.505 0-.2-.003-.259.035-.258.215.01 1.59.006 3.179.006 4.769 0 1.603.001 3.207-.004 4.81-.001.148.025.208.222.205.852-.01 1.703-.008 2.555 0 .168 0 .22-.035.22-.186-.005-3.208-.005-6.414.001-9.621 0-.168-.063-.194-.237-.192zm4.236.174c.001-.144-.053-.172-.208-.172-.843.007-1.686.012-2.529-.003-.233-.004-.261.064-.26.238.007 1.588.004 3.178.004 4.767 0 1.589.005 3.178-.006 4.768 0 .193.064.23.273.227a116.3 116.3 0 0 1 2.506 0c.167 0 .221-.032.221-.184-.006-3.214-.006-6.428 0-9.641z" transform="translate(921 399)" fill-rule="nonzero" fill="url(#c)"/><path d="M14.814 0L1.084 8.155l14 8.348 13.73-8.19-14-8.313zm5.05 10.85c-.254.42-.762.56-1.152.315l-7.56-4.497c-.406-.245-.559-.788-.305-1.19l.085-.158c.237-.42.763-.578 1.153-.315L19.66 9.52c.407.245.56.787.305 1.207l-.102.123zM0 26.775V15.978l.017-.018v-5.845l13.797 8.173v16.66L8.39 31.71l-.017.017L0 26.776zm30-.122L15.966 35V18.532l14-8.347L30 26.653z" transform="translate(794 38)" fill-rule="nonzero" fill="url(#d)"/><path d="M17.96 16l-2.46 2.571L13.04 16C5.65 17.233 0 23.928 0 32h31c0-8.072-5.65-14.767-13.04-16zM15.5 29.685l-2.654-2.774 2.654-8.329 2.654 8.333-2.654 2.77zM8 8a8 8 0 1 1 16 0A8 8 0 0 1 8 8z" transform="translate(0 434)" fill-rule="nonzero" fill="url(#e)"/></g></svg>