<svg width="200" height="109" viewBox="0 0 200 109" xmlns="http://www.w3.org/2000/svg" xmlns:xlink="http://www.w3.org/1999/xlink"><title>助理</title><defs><path id="a" d="M3.557.63H.525v3.031h3.032V.63z"/><path id="c" d="M0 .736V5.46h4.725V.736H0z"/></defs><g fill="none" fill-rule="evenodd"><path d="M155.478 60.84l-10.634-10.632c-6.056-14.365-24.053-24.784-45.318-24.784-21.263 0-39.262 10.42-45.318 24.784L43.575 60.84l10.633 10.633c6.056 14.364 24.055 24.784 45.318 24.784 21.265 0 39.262-10.42 45.318-24.784l10.635-10.633z" fill="#F39866"/><path d="M191.8 49.372l-9.575-2.003c-.557-.167-7.76 15.003-8.333 15-.575-.002-7.774-15.996-8.334-15.833l-10.314 2.879c-4.721 1.37-8.019 5.762-8.019 10.678v22.276h52.5V60.022a11.05 11.05 0 0 0-7.924-10.65" fill="#FDEEE5"/><path d="M53.267 80.702h-6.042v-10h-1.667v10H12.225v-9.166h-1.667v9.166H4.1V60.093a9.451 9.451 0 0 1 6.816-9.077l11.903-3.456 1.906-.191 2.5 4.166-3.333 20 2.94 5.33a3.435 3.435 0 0 0 2.06.682c.726 0 1.453-.227 2.06-.681l2.94-5.33-2.5-20 2.5-4.167 12.639 3.599a9.394 9.394 0 0 1 6.736 9.053v20.681zm-6.258-31.33l-16.2-4.86a6.01 6.01 0 0 0-3.415-.016l-16.942 4.92c-4.721 1.37-8.019 5.76-8.019 10.677v22.276h52.5V60.02a11.05 11.05 0 0 0-7.924-10.65z" fill="#DD3730"/><g transform="translate(79.167 .203)"><mask id="b" fill="#fff"><use xlink:href="#a"/></mask><path d="M3.557 2.146a1.515 1.515 0 1 1-3.03 0 1.515 1.515 0 0 1 3.03 0" fill="#F07E3F" mask="url(#b)"/></g><path d="M105.124 7.381a1.516 1.516 0 1 1-3.032 0 1.516 1.516 0 0 1 3.032 0m-50.957 92.954a1.805 1.805 0 1 1-3.61 0 1.805 1.805 0 0 1 3.61 0" fill="#F07E3F"/><g transform="translate(0 41.037)"><mask id="d" fill="#fff"><use xlink:href="#c"/></mask><path d="M4.725 3.098A2.363 2.363 0 1 1 0 3.096a2.363 2.363 0 0 1 4.725.002" fill="#F07E3F" mask="url(#d)"/></g><path d="M147.617 31.186a2.733 2.733 0 1 1-5.466-.001 2.733 2.733 0 0 1 5.466 0" fill="#F07E3F" opacity=".363"/><path d="M149.725 96.635a2.363 2.363 0 1 1-4.725-.002 2.363 2.363 0 0 1 4.725.002" fill="#F07E3F"/><path d="M39.355 38.364l-6.711 6.71a4.75 4.75 0 0 1-6.47.231l-7.985-6.92a3.397 3.397 0 0 1-1.173-2.567v-14.37a5.747 5.747 0 0 1 5.747-5.746h11.84a5.747 5.747 0 0 1 5.747 5.747v14.513c0 .9-.358 1.765-.995 2.402" fill="#FFF"/><path d="M22.763 16.535a4.919 4.919 0 0 0-4.914 4.914v14.369c0 .743.323 1.45.886 1.938l7.985 6.92a3.928 3.928 0 0 0 5.334-.19l6.711-6.712a2.576 2.576 0 0 0 .751-1.812V21.45a4.918 4.918 0 0 0-4.912-4.914H22.763zm6.519 30.757a5.564 5.564 0 0 1-3.654-1.357l-7.986-6.92a4.23 4.23 0 0 1-1.46-3.197v-14.37a6.587 6.587 0 0 1 6.58-6.58h11.842a6.587 6.587 0 0 1 6.579 6.58v14.514c0 1.13-.44 2.192-1.24 2.991l-6.71 6.71a5.575 5.575 0 0 1-3.951 1.63zM149.1 80.702h49.167v-20.68a9.394 9.394 0 0 0-6.736-9.054l-16.201-4.86a4.351 4.351 0 0 0-2.47-.01l-16.943 4.918c-4.014 1.165-6.817 4.897-6.817 9.077v20.61zm50.833 1.667h-52.5V60.093c0-4.917 3.298-9.308 8.02-10.678l16.941-4.919a6.01 6.01 0 0 1 3.414.015l16.201 4.86a11.05 11.05 0 0 1 7.924 10.65V82.37z" fill="#DD3730"/><path d="M155.478 60.84l-10.634-10.632c-6.055-14.365-24.053-24.784-45.318-24.784-21.263 0-39.262 10.42-45.317 24.784L43.575 60.84l10.633 10.633c6.056 14.364 24.055 24.784 45.318 24.784 21.265 0 39.263-10.42 45.318-24.784l10.635-10.633z" fill="#FEF6F0"/><path d="M50.29 55.894a6.995 6.995 0 0 0 0 9.894l4.975 4.975.095.225c6.058 14.367 23.807 24.02 44.167 24.02 20.359 0 38.108-9.653 44.166-24.02l.095-.225 4.976-4.975a6.995 6.995 0 0 0 0-9.894l-4.976-4.976-.095-.225c-6.058-14.366-23.807-24.019-44.166-24.019-20.36 0-38.11 9.653-44.167 24.02l-.095.224-4.976 4.976zm2.863 16.294l-5.69-5.69a8 8 0 0 1 0-11.313l5.69-5.69c6.531-15.156 25.126-25.32 46.374-25.32 21.246 0 39.841 10.164 46.372 25.32l5.69 5.69a7.999 7.999 0 0 1 0 11.313l-5.69 5.69c-6.53 15.155-25.126 25.32-46.372 25.32-21.248 0-39.843-10.165-46.374-25.32z" fill="#DD3730"/><path d="M131.337 25.067c-9.776-4.98-21.236-7.613-33.14-7.613-10.803 0-21.362 2.199-30.532 6.36l-1.033-2.278c9.492-4.306 20.408-6.582 31.565-6.582 12.297 0 24.148 2.726 34.274 7.886l-1.134 2.227zm-30.482 83.47c-12.296 0-24.148-2.727-34.274-7.886l1.134-2.228c9.777 4.981 21.237 7.614 33.14 7.614 10.805 0 21.363-2.2 30.533-6.36l1.033 2.278c-9.492 4.306-20.407 6.582-31.566 6.582" fill="#F07E3F" opacity=".454"/><path d="M103.892 60.702a5 5 0 1 1-10.002-.001 5 5 0 0 1 10.002.001m-22.5 0a5 5 0 1 1-10.002-.001 5 5 0 0 1 10.002.001m45 0a5 5 0 1 1-10.002-.001 5 5 0 0 1 10.002.001" fill="#DD3730"/><path d="M184.355 38.364l-6.711 6.71a4.75 4.75 0 0 1-6.47.231l-7.985-6.92a3.397 3.397 0 0 1-1.173-2.567v-14.37a5.747 5.747 0 0 1 5.747-5.746h11.84a5.747 5.747 0 0 1 5.747 5.747v14.513c0 .9-.358 1.765-.995 2.402" fill="#FFF"/><path d="M167.763 16.535a4.919 4.919 0 0 0-4.913 4.914v14.369c0 .743.322 1.45.885 1.938l7.985 6.92a3.928 3.928 0 0 0 5.334-.19l6.711-6.712a2.576 2.576 0 0 0 .751-1.812V21.45a4.918 4.918 0 0 0-4.912-4.914h-11.841zm6.519 30.757a5.564 5.564 0 0 1-3.654-1.357l-7.986-6.92a4.23 4.23 0 0 1-1.46-3.197v-14.37a6.587 6.587 0 0 1 6.58-6.58h11.842a6.587 6.587 0 0 1 6.579 6.58v14.514c0 1.13-.44 2.192-1.24 2.991l-6.71 6.71a5.575 5.575 0 0 1-3.951 1.63z" fill="#DD3730"/><path d="M191.392 81.535V70.703" fill="#FFF"/><path fill="#DD3730" d="M190.558 81.536h1.667V70.702h-1.667z"/><path d="M156.392 82.369V71.535" fill="#FFF"/><path fill="#DD3730" d="M155.558 82.37h1.667V71.535h-1.667zm18.42-19.084h-.054a2.604 2.604 0 0 1-2.348-1.555l-6.332-14.173 1.522-.68 6.332 14.173c.156.348.477.56.859.569a.925.925 0 0 0 .88-.534l6.965-14.052 1.493.74-6.965 14.052a2.602 2.602 0 0 1-2.352 1.46"/></g></svg>