<svg width="180" height="196" viewBox="0 0 180 196" xmlns="http://www.w3.org/2000/svg" xmlns:xlink="http://www.w3.org/1999/xlink"><title>Page 1</title><defs><path id="b" d="M5.86 6.212V.755H.4v5.457h5.46z"/><path d="M112.943 74.128v7.706h-4.295v-7.706l-7.112-12.847h5.063l4.267 8.952 4.085-8.952h4.867l-6.875 12.847zm-13.847-.214c0 2.184-.338 3.886-1.015 5.104-1.263 2.23-3.671 3.346-7.225 3.346-3.555 0-5.968-1.116-7.239-3.346-.677-1.218-1.015-2.92-1.015-5.104V61.281h4.364v12.624c0 1.41.167 2.442.5 3.091.518 1.152 1.649 1.728 3.39 1.728 1.732 0 2.857-.576 3.377-1.728.332-.65.5-1.68.5-3.091V61.28h4.363v12.633zm-21.105 4.992a5.677 5.677 0 0 1-1.454 1.617c-.657.503-1.432.846-2.323 1.032-.892.187-1.86.28-2.904.28h-9.26V61.28h9.93c2.507.038 4.283.768 5.328 2.19.63.873.943 1.919.943 3.137 0 1.255-.317 2.263-.951 3.026-.354.427-.877.818-1.568 1.171 1.05.381 1.84.985 2.375 1.813.533.827.8 1.83.8 3.011 0 1.218-.306 2.31-.916 3.277zm-31.824-8.385c0 23.79 19.285 43.075 43.075 43.075 23.79 0 43.074-19.285 43.074-43.075 0-23.789-19.285-43.075-43.074-43.075-23.79 0-43.075 19.286-43.075 43.075z" id="a"/><mask id="d" x="0" y="0" width="86.15" height="86.15" fill="#fff"><use xlink:href="#a"/></mask></defs><g transform="translate(0 1)" fill="none" fill-rule="evenodd"><path d="M34.35 137.517a1.75 1.75 0 1 1-3.5.001 1.75 1.75 0 0 1 3.5 0m98.067-1.888a1.751 1.751 0 1 1-3.503 0 1.751 1.751 0 0 1 3.503 0m21.033 5.337a2.085 2.085 0 1 1-4.17-.001 2.085 2.085 0 0 1 4.17 0M11.635 130.917a2.728 2.728 0 1 1-5.457-.001 2.728 2.728 0 0 1 5.457 0M6.312 80.345a3.156 3.156 0 1 1-6.312 0 3.156 3.156 0 0 1 6.312 0" fill="#F07E3F"/><path d="M30.855 31.355a70.663 70.663 0 0 1 19.053-19.03l.26.684M39.435 120.328c-12.716-12.715-20.58-30.282-20.58-49.686a70.126 70.126 0 0 1 4.37-24.45m42.73-41.909A70.174 70.174 0 0 1 89.121.375c38.808 0 70.268 31.46 70.268 70.267 0 20.306-8.614 38.6-22.387 51.429" stroke="#DD3730" stroke-width="2.778"/><g transform="translate(173.262 49.465)"><mask id="c" fill="#fff"><use xlink:href="#b"/></mask><path d="M5.86 3.484A2.729 2.729 0 1 1 .4 3.482a2.729 2.729 0 0 1 5.458.002" fill="#F07E3F" mask="url(#c)"/></g><path d="M73.261 73.133c-.488-.223-1.172-.34-2.054-.348h-5.059v5.48h4.99c.891 0 1.585-.12 2.081-.363.901-.446 1.35-1.302 1.35-2.565 0-1.07-.435-1.803-1.308-2.204m.891-6.065c0-.958-.368-1.59-1.104-1.896-.634-.214-1.444-.32-2.43-.32h-4.47v4.53h4.996c.893 0 1.617-.169 2.173-.508.556-.34.835-.942.835-1.806z" stroke-opacity=".624" stroke="#DD3730" stroke-width="2"/><use stroke-opacity=".624" stroke="#DD3730" mask="url(#d)" stroke-width="4" xlink:href="#a"/><path d="M89.121 22.032c-26.803 0-48.61 21.806-48.61 48.61 0 26.803 21.807 48.61 48.61 48.61 26.804 0 48.61-21.807 48.61-48.61 0-26.804-21.806-48.61-48.61-48.61m0 102.032c-29.457 0-53.422-23.965-53.422-53.422 0-29.458 23.965-53.423 53.422-53.423 29.458 0 53.423 23.965 53.423 53.423 0 29.457-23.965 53.422-53.423 53.422" fill="#F07E3F" opacity=".145"/><path d="M114.63 194.813h1.924v-25.99h-.013l-.09-6.284 3.284-4.375a13.05 13.05 0 0 0 2.595-7.781v-28.244a7.227 7.227 0 0 0-7.22-7.22 7.196 7.196 0 0 0-5.294 2.328v-1.846a7.227 7.227 0 0 0-7.219-7.22 7.196 7.196 0 0 0-5.294 2.328v-.883a7.227 7.227 0 0 0-7.22-7.22 7.196 7.196 0 0 0-5.293 2.328V92.781c0-4.776-3.886-8.663-8.663-8.663-4.778 0-8.663 3.887-8.663 8.663v35.962a7.106 7.106 0 0 0-5.205-2.272c-1.944 0-3.76.767-5.114 2.16a7.08 7.08 0 0 0-2.014 5.173l.648 22.663a15.18 15.18 0 0 0 3.213 8.945l3.659 4.704v24.697h1.925" fill="#FFF"/><path fill="#FEF5F1" d="M63.53 170.374h51.148v24.064H63.53z"/><path d="M120.316 150.008a11.09 11.09 0 0 1-2.216 6.627l-3.376 4.485-.308.706.095 6.623H63.846l-3.583-4.592a13.25 13.25 0 0 1-2.814-7.82l-.65-22.662a5.157 5.157 0 0 1 1.474-3.776 5.183 5.183 0 0 1 3.743-1.578c2.877 0 5.218 2.336 5.218 5.205v11.159h1.93V92.406c0-3.715 3.032-6.738 6.756-6.738 3.725 0 6.756 3.023 6.756 6.738v47.166h1.93v-30.321c0-2.92 2.382-5.294 5.309-5.294 2.926 0 5.308 2.375 5.308 5.294v30.321h1.93v-24.545c0-2.92 2.382-5.294 5.308-5.294 2.926 0 5.308 2.374 5.308 5.294v24.545h1.93v-17.807c0-2.92 2.382-5.294 5.309-5.294 2.926 0 5.308 2.374 5.308 5.294v28.243zm-5.308-35.463a7.224 7.224 0 0 0-5.309 2.328v-1.846c0-3.981-3.246-7.22-7.238-7.22a7.224 7.224 0 0 0-5.308 2.328v-.884c0-3.98-3.247-7.219-7.238-7.219a7.224 7.224 0 0 0-5.309 2.328V92.406c0-4.776-3.896-8.663-8.686-8.663s-8.686 3.887-8.686 8.663v35.964a7.131 7.131 0 0 0-5.218-2.274c-1.949 0-3.77.768-5.128 2.161a7.07 7.07 0 0 0-2.019 5.173l.65 22.663a15.156 15.156 0 0 0 3.221 8.945l3.669 4.704v24.697h1.93v-24.065h50.186v24.065h1.93v-25.99h-.013l-.09-6.284 3.292-4.375a13.025 13.025 0 0 0 2.602-7.782v-28.243c0-3.981-3.247-7.22-7.238-7.22z" fill="#DD3730"/></g></svg>