<svg width="181" height="157" viewBox="0 0 181 157" xmlns="http://www.w3.org/2000/svg" xmlns:xlink="http://www.w3.org/1999/xlink"><title>Page 1</title><defs><path id="a" d="M.808 25.875h55.049V.786H.808v25.09z"/><path id="c" d="M.152 27.623h55.049V.17H.152v27.453z"/><path id="e" d="M.808.536h.874-.874z"/><path id="g" d="M.807 64.322h83.884V.307H.807z"/><path id="i" d="M.773 3.495h3.18V.348H.772z"/></defs><g fill="none" fill-rule="evenodd"><path d="M56.984 87.697c-1.62-4.636-6.064-7.966-11.297-7.966a12.06 12.06 0 0 0-3.32.466 16.207 16.207 0 0 0-11.208-4.471c-7.285 0-13.443 4.766-15.473 11.319-.296-.02-.593-.031-.893-.031C7.175 87.014 1 93.127 1 100.668c0 7.542 6.175 13.655 13.793 13.655h37.883c7.617 0 13.792-6.113 13.792-13.655 0-6.05-3.977-11.179-9.484-12.971z" stroke="#DD3730" stroke-width="2"/><path d="M160.574 21.123c-2.722-7.792-10.193-13.39-18.989-13.39-1.937 0-3.808.277-5.58.783A27.248 27.248 0 0 0 117.164 1c-12.245 0-22.598 8.011-26.01 19.027a23.75 23.75 0 0 0-1.502-.052c-12.804 0-23.184 10.275-23.184 22.952 0 12.676 10.38 22.953 23.184 22.953h63.68c12.804 0 23.183-10.277 23.183-22.953 0-10.172-6.685-18.792-15.94-21.804" fill-opacity=".164" fill="#FDEEE5"/><path d="M160.574 21.123c-2.722-7.792-10.193-13.39-18.989-13.39-1.937 0-3.808.277-5.58.783A27.248 27.248 0 0 0 117.164 1c-12.245 0-22.598 8.011-26.01 19.027a23.75 23.75 0 0 0-1.502-.052c-12.804 0-23.184 10.275-23.184 22.952 0 12.676 10.38 22.953 23.184 22.953h63.68c12.804 0 23.183-10.277 23.183-22.953 0-10.172-6.685-18.792-15.94-21.804z" stroke="#DD3730" stroke-width="2"/><path d="M147.62 140.275H36.141c-5.892 0-10.67-4.777-10.67-10.669v-80.74c0-5.891 4.778-10.668 10.67-10.668h111.477c5.893 0 10.67 4.777 10.67 10.669v80.74c0 5.891-4.777 10.668-10.67 10.668" fill="#FEF6F1"/><path d="M147.62 141.149H36.141c-6.365 0-11.543-5.178-11.543-11.543v-80.74c0-6.364 5.178-11.542 11.543-11.542h111.477c6.365 0 11.543 5.178 11.543 11.543v80.74c0 6.364-5.178 11.542-11.543 11.542" fill="#FEF6F1"/><path d="M147.62 140.275H36.141c-5.892 0-10.67-4.777-10.67-10.669v-80.74c0-5.891 4.778-10.668 10.67-10.668h111.477c5.893 0 10.67 4.777 10.67 10.669v80.74c0 5.891-4.777 10.668-10.67 10.668z" stroke="#DD3730" stroke-width="2"/><path fill="#FFF" d="M34.21 122.109h115.34V51.174H34.21z"/><path stroke="#DD3730" stroke-width="2" d="M34.21 122.109h115.34V51.174H34.21z"/><path d="M94.065 131.192a2.174 2.174 0 0 1-2.185 2.163 2.174 2.174 0 0 1-2.184-2.163c0-1.195.978-2.163 2.184-2.163 1.207 0 2.185.968 2.185 2.163" fill="#DD3730"/><path d="M99.744 140.275v12.976m-17.475-12.976v12.976m-33.204-.001h85.63" stroke="#DD3730" stroke-width="2"/><g transform="translate(33.33 56.922)"><g transform="translate(13.98 38.447)"><mask id="b" fill="#fff"><use xlink:href="#a"/></mask><path d="M47.548 3.732l-10.041-2.08c-.584-.172-8.136 15.574-8.738 15.572C28.166 17.22 20.62.619 20.031.788L9.216 3.777C4.266 5.2.808 9.757.808 14.86v23.125h55.049v-23.2c0-5.136-3.34-9.579-8.31-11.054" fill="#DD3730" opacity=".405" mask="url(#b)"/></g><g transform="translate(14.854 36.699)"><mask id="d" fill="#fff"><use xlink:href="#c"/></mask><path d="M1.9 38.003h51.553V16.535c0-4.366-2.838-8.144-7.062-9.398L29.403 2.091a4.601 4.601 0 0 0-2.59-.01L9.048 7.186C4.84 8.396 1.9 12.271 1.9 16.61v21.394zm53.301 1.73H.152V16.609c0-5.104 3.458-9.661 8.409-11.085L26.325.418a6.372 6.372 0 0 1 3.58.016L46.892 5.48c4.97 1.477 8.309 5.919 8.309 11.056v23.198z" fill="#DD3730" mask="url(#d)"/></g><path d="M53.72 30.752l-7.036 6.966a5.017 5.017 0 0 1-6.783.24l-8.374-7.185a3.512 3.512 0 0 1-1.23-2.664V13.192c0-3.294 2.698-5.965 6.026-5.965H48.74c3.327 0 6.025 2.67 6.025 5.965v15.066a3.51 3.51 0 0 1-1.043 2.494" fill="#FFF"/><path d="M36.323 8.092c-2.84 0-5.152 2.287-5.152 5.1V28.11c0 .772.339 1.504.928 2.011l8.374 7.183a4.15 4.15 0 0 0 5.593-.197l7.037-6.967c.5-.494.787-1.18.787-1.881V13.192c0-2.813-2.31-5.1-5.151-5.1H36.323zm6.836 31.927a5.869 5.869 0 0 1-3.832-1.408l-8.373-7.184a4.374 4.374 0 0 1-1.53-3.318V13.192c0-3.766 3.095-6.83 6.9-6.83h12.415c3.804 0 6.898 3.064 6.898 6.83v15.066a4.34 4.34 0 0 1-1.299 3.105l-7.036 6.965a5.87 5.87 0 0 1-4.143 1.691z" fill="#DD3730"/><g transform="translate(60.291 63.786)"><mask id="f" fill="#fff"><use xlink:href="#e"/></mask><path d="M.808 11.78V.536" fill="#FFF" mask="url(#f)"/></g><mask id="h" fill="#fff"><use xlink:href="#g"/></mask><path fill="#DD3730" mask="url(#h)" d="M60.226 75.567h1.747V64.32h-1.747z"/><path d="M24.4 76.432V65.186" fill="#FFF" mask="url(#h)"/><path fill="#DD3730" mask="url(#h)" d="M23.527 76.433h1.747V65.186h-1.747zm19.313-19.81h-.057a2.731 2.731 0 0 1-2.461-1.615l-6.64-14.712 1.596-.705 6.64 14.712c.163.36.5.582.9.59.406.012.745-.2.922-.554l7.304-14.588 1.565.768-7.303 14.588a2.73 2.73 0 0 1-2.466 1.516"/></g><g transform="translate(146.922 153.039)"><mask id="j" fill="#fff"><use xlink:href="#i"/></mask><path d="M3.952 1.922c0 .868-.711 1.573-1.588 1.573-.878 0-1.59-.705-1.59-1.573 0-.87.712-1.574 1.59-1.574a1.58 1.58 0 0 1 1.588 1.574" fill="#F07E3F" mask="url(#j)"/></g><path d="M30.188 148.939c0 .868-.712 1.573-1.59 1.573-.878 0-1.59-.705-1.59-1.573 0-.87.712-1.574 1.59-1.574.878 0 1.59.704 1.59 1.574m141.424-36.727a1.883 1.883 0 0 1-1.893 1.874 1.883 1.883 0 0 1-1.893-1.874c0-1.035.848-1.875 1.893-1.875s1.893.84 1.893 1.875m-161.066 9.134c0 1.355-1.11 2.453-2.478 2.453-1.367 0-2.477-1.098-2.477-2.453 0-1.354 1.11-2.453 2.477-2.453 1.368 0 2.478 1.099 2.478 2.453m.411-64.48c0 1.566-1.284 2.836-2.865 2.836-1.583 0-2.865-1.27-2.865-2.836 0-1.567 1.282-2.836 2.865-2.836 1.581 0 2.865 1.27 2.865 2.836m169.977 12.577c0 1.354-1.11 2.453-2.477 2.453-1.368 0-2.477-1.099-2.477-2.453 0-1.354 1.11-2.453 2.477-2.453 1.367 0 2.477 1.099 2.477 2.453m-4.858 63.037c0 1.742-1.428 3.155-3.187 3.155-1.762 0-3.189-1.413-3.189-3.156s1.427-3.157 3.189-3.157c1.76 0 3.187 1.414 3.187 3.157" fill="#F07E3F"/><path d="M104.696 76.477h16.602" fill="#FFF"/><path d="M120.424 77.342H105.57a.869.869 0 0 1-.874-.865c0-.478.39-.865.874-.865h14.854c.484 0 .874.387.874.865s-.39.865-.874.865" fill="#DD3730"/><path d="M112.997 68.258v16.437" fill="#FFF"/><path d="M112.997 84.695a.869.869 0 0 1-.874-.865V69.124a.87.87 0 0 1 .874-.866.87.87 0 0 1 .874.866V83.83c0 .478-.39.865-.874.865" fill="#DD3730"/><path d="M126.76 76.26h16.601" fill="#FFF"/><path d="M142.487 77.125h-14.854a.869.869 0 0 1-.874-.864c0-.479.39-.865.874-.865h14.854c.484 0 .874.386.874.864v.001c0 .477-.39.864-.874.864" fill="#DD3730"/><path d="M107.127 92.292l11.74 11.622" fill="#FFF"/><path d="M117.631 103.915l-10.503-10.4a.858.858 0 0 1 0-1.223.88.88 0 0 1 1.235 0l10.504 10.4a.858.858 0 0 1 0 1.223.88.88 0 0 1-1.236 0" fill="#DD3730"/><path d="M118.867 92.292l-11.74 11.622" fill="#FFF"/><path d="M107.127 103.915a.858.858 0 0 1 0-1.223l10.504-10.4a.882.882 0 0 1 1.236 0 .86.86 0 0 1 0 1.223l-10.504 10.4a.88.88 0 0 1-1.236 0" fill="#DD3730"/><path d="M126.76 93.562h16.601" fill="#FFF"/><path d="M142.487 94.427h-14.854a.869.869 0 0 1-.874-.865c0-.478.39-.865.874-.865h14.854c.484 0 .874.387.874.865s-.39.865-.874.865" fill="#DD3730"/><path d="M126.76 101.347h16.601" fill="#FFF"/><path d="M142.487 102.212h-14.854a.869.869 0 0 1-.874-.865c0-.478.39-.865.874-.865h14.854c.484 0 .874.387.874.865s-.39.865-.874.865" fill="#DD3730"/></g></svg>